<svg width="708" height="83" viewBox="0 0 708 83" fill="none" xmlns="http://www.w3.org/2000/svg">
<line y1="82.5" x2="708" y2="82.5" stroke="black"/>
<line y1="0.5" x2="708" y2="0.5" stroke="black"/>
<path d="M263.027 19H261.305V9.04688H263.027V19ZM273.049 19H271.319L266.883 11.9385V19H265.153V9.04688H266.883L271.333 16.1357V9.04688H273.049V19ZM280.828 14.7822H276.822V19H275.093V9.04688H281.416V10.4414H276.822V13.4014H280.828V14.7822ZM290.733 14.2832C290.733 15.2585 290.565 16.1152 290.228 16.8535C289.89 17.5872 289.407 18.1523 288.778 18.5488C288.154 18.9408 287.434 19.1367 286.618 19.1367C285.812 19.1367 285.091 18.9408 284.458 18.5488C283.829 18.1523 283.341 17.5895 282.995 16.8604C282.653 16.1312 282.48 15.2904 282.476 14.3379V13.7773C282.476 12.8066 282.646 11.9499 282.988 11.207C283.335 10.4642 283.82 9.89681 284.444 9.50488C285.073 9.1084 285.793 8.91016 286.604 8.91016C287.416 8.91016 288.133 9.10612 288.758 9.49805C289.387 9.88542 289.872 10.446 290.214 11.1797C290.556 11.9089 290.729 12.7588 290.733 13.7295V14.2832ZM289.004 13.7637C289.004 12.6608 288.794 11.8154 288.375 11.2275C287.96 10.6396 287.37 10.3457 286.604 10.3457C285.857 10.3457 285.271 10.6396 284.848 11.2275C284.428 11.8109 284.214 12.638 284.205 13.709V14.2832C284.205 15.377 284.417 16.2223 284.841 16.8193C285.269 17.4163 285.862 17.7148 286.618 17.7148C287.384 17.7148 287.972 17.4232 288.382 16.8398C288.797 16.2565 289.004 15.4043 289.004 14.2832V13.7637ZM296.113 15.165H294.186V19H292.456V9.04688H295.956C297.104 9.04688 297.991 9.30436 298.615 9.81934C299.24 10.3343 299.552 11.0794 299.552 12.0547C299.552 12.7201 299.39 13.2783 299.066 13.7295C298.747 14.1761 298.301 14.5202 297.727 14.7617L299.962 18.9111V19H298.109L296.113 15.165ZM294.186 13.7773H295.963C296.546 13.7773 297.002 13.6315 297.33 13.3398C297.658 13.0436 297.822 12.6403 297.822 12.1299C297.822 11.5967 297.67 11.1842 297.364 10.8926C297.063 10.6009 296.612 10.4505 296.011 10.4414H294.186V13.7773ZM303.435 9.04688L306.306 16.6758L309.17 9.04688H311.405V19H309.683V15.7188L309.854 11.3301L306.914 19H305.677L302.744 11.3369L302.915 15.7188V19H301.192V9.04688H303.435ZM319.15 16.6826H315.295L314.488 19H312.69L316.45 9.04688H318.002L321.769 19H319.964L319.15 16.6826ZM315.78 15.2881H318.665L317.223 11.1592L315.78 15.2881ZM330.348 15.7598C330.247 16.8216 329.855 17.651 329.172 18.248C328.488 18.8405 327.579 19.1367 326.444 19.1367C325.651 19.1367 324.952 18.9499 324.346 18.5762C323.744 18.1979 323.279 17.6624 322.951 16.9697C322.623 16.277 322.452 15.4727 322.438 14.5566V13.627C322.438 12.6882 322.605 11.861 322.938 11.1455C323.27 10.43 323.746 9.87858 324.366 9.49121C324.991 9.10384 325.711 8.91016 326.526 8.91016C327.625 8.91016 328.509 9.20866 329.179 9.80566C329.849 10.4027 330.238 11.2458 330.348 12.335H328.625C328.543 11.6195 328.333 11.1045 327.996 10.79C327.663 10.471 327.174 10.3115 326.526 10.3115C325.774 10.3115 325.196 10.5872 324.79 11.1387C324.389 11.6855 324.184 12.4899 324.175 13.5518V14.4336C324.175 15.5091 324.366 16.3294 324.749 16.8945C325.136 17.4596 325.701 17.7422 326.444 17.7422C327.123 17.7422 327.634 17.5895 327.976 17.2842C328.317 16.9788 328.534 16.4707 328.625 15.7598H330.348ZM333.725 19H332.002V9.04688H333.725V19ZM343.794 14.2832C343.794 15.2585 343.625 16.1152 343.288 16.8535C342.951 17.5872 342.468 18.1523 341.839 18.5488C341.215 18.9408 340.494 19.1367 339.679 19.1367C338.872 19.1367 338.152 18.9408 337.519 18.5488C336.89 18.1523 336.402 17.5895 336.056 16.8604C335.714 16.1312 335.541 15.2904 335.536 14.3379V13.7773C335.536 12.8066 335.707 11.9499 336.049 11.207C336.395 10.4642 336.881 9.89681 337.505 9.50488C338.134 9.1084 338.854 8.91016 339.665 8.91016C340.476 8.91016 341.194 9.10612 341.818 9.49805C342.447 9.88542 342.933 10.446 343.274 11.1797C343.616 11.9089 343.789 12.7588 343.794 13.7295V14.2832ZM342.064 13.7637C342.064 12.6608 341.855 11.8154 341.436 11.2275C341.021 10.6396 340.431 10.3457 339.665 10.3457C338.918 10.3457 338.332 10.6396 337.908 11.2275C337.489 11.8109 337.275 12.638 337.266 13.709V14.2832C337.266 15.377 337.478 16.2223 337.901 16.8193C338.33 17.4163 338.922 17.7148 339.679 17.7148C340.444 17.7148 341.032 17.4232 341.442 16.8398C341.857 16.2565 342.064 15.4043 342.064 14.2832V13.7637ZM353.412 19H351.683L347.246 11.9385V19H345.517V9.04688H347.246L351.696 16.1357V9.04688H353.412V19ZM360.768 19H359.045V9.04688H360.768V19ZM365.136 9.04688L368.007 16.6758L370.871 9.04688H373.106V19H371.384V15.7188L371.555 11.3301L368.615 19H367.378L364.445 11.3369L364.616 15.7188V19H362.894V9.04688H365.136ZM376.887 15.3018V19H375.157V9.04688H378.965C380.077 9.04688 380.959 9.33626 381.61 9.91504C382.267 10.4938 382.595 11.2594 382.595 12.2119C382.595 13.1872 382.273 13.946 381.631 14.4883C380.993 15.0306 380.097 15.3018 378.944 15.3018H376.887ZM376.887 13.9141H378.965C379.58 13.9141 380.049 13.7705 380.373 13.4834C380.697 13.1917 380.858 12.7725 380.858 12.2256C380.858 11.6878 380.694 11.2594 380.366 10.9404C380.038 10.6169 379.587 10.4505 379.013 10.4414H376.887V13.9141ZM392.056 14.2832C392.056 15.2585 391.887 16.1152 391.55 16.8535C391.213 17.5872 390.729 18.1523 390.101 18.5488C389.476 18.9408 388.756 19.1367 387.94 19.1367C387.134 19.1367 386.414 18.9408 385.78 18.5488C385.151 18.1523 384.664 17.5895 384.317 16.8604C383.976 16.1312 383.802 15.2904 383.798 14.3379V13.7773C383.798 12.8066 383.969 11.9499 384.311 11.207C384.657 10.4642 385.142 9.89681 385.767 9.50488C386.396 9.1084 387.116 8.91016 387.927 8.91016C388.738 8.91016 389.456 9.10612 390.08 9.49805C390.709 9.88542 391.194 10.446 391.536 11.1797C391.878 11.9089 392.051 12.7588 392.056 13.7295V14.2832ZM390.326 13.7637C390.326 12.6608 390.117 11.8154 389.697 11.2275C389.283 10.6396 388.692 10.3457 387.927 10.3457C387.179 10.3457 386.594 10.6396 386.17 11.2275C385.751 11.8109 385.536 12.638 385.527 13.709V14.2832C385.527 15.377 385.739 16.2223 386.163 16.8193C386.591 17.4163 387.184 17.7148 387.94 17.7148C388.706 17.7148 389.294 17.4232 389.704 16.8398C390.119 16.2565 390.326 15.4043 390.326 14.2832V13.7637ZM397.436 15.165H395.508V19H393.778V9.04688H397.278C398.427 9.04688 399.313 9.30436 399.938 9.81934C400.562 10.3343 400.874 11.0794 400.874 12.0547C400.874 12.7201 400.712 13.2783 400.389 13.7295C400.07 14.1761 399.623 14.5202 399.049 14.7617L401.284 18.9111V19H399.432L397.436 15.165ZM395.508 13.7773H397.285C397.868 13.7773 398.324 13.6315 398.652 13.3398C398.98 13.0436 399.145 12.6403 399.145 12.1299C399.145 11.5967 398.992 11.1842 398.687 10.8926C398.386 10.6009 397.935 10.4505 397.333 10.4414H395.508V13.7773ZM409.364 10.4414H406.261V19H404.545V10.4414H401.469V9.04688H409.364V10.4414ZM415.428 16.6826H411.572L410.766 19H408.968L412.728 9.04688H414.279L418.046 19H416.241L415.428 16.6826ZM412.058 15.2881H414.942L413.5 11.1592L412.058 15.2881ZM427.076 19H425.347L420.91 11.9385V19H419.181V9.04688H420.91L425.36 16.1357V9.04688H427.076V19ZM436.106 10.4414H433.003V19H431.287V10.4414H428.211V9.04688H436.106V10.4414ZM443.236 14.5566H439.148V17.6191H443.927V19H437.419V9.04688H443.879V10.4414H439.148V13.1895H443.236V14.5566ZM30.6533 32.6826H26.7979L25.9912 35H24.1934L27.9531 25.0469H29.5049L33.2715 35H31.4668L30.6533 32.6826ZM27.2832 31.2881H30.168L28.7256 27.1592L27.2832 31.2881ZM40.3945 31.377C40.3945 32.5208 40.1348 33.4346 39.6152 34.1182C39.0957 34.7972 38.3984 35.1367 37.5234 35.1367C36.7122 35.1367 36.0628 34.8701 35.5752 34.3369V37.8438H33.9141V27.6035H35.4453L35.5137 28.3555C36.0013 27.763 36.6644 27.4668 37.5029 27.4668C38.4053 27.4668 39.1117 27.804 39.6221 28.4785C40.137 29.1484 40.3945 30.0804 40.3945 31.2744V31.377ZM38.7402 31.2334C38.7402 30.4951 38.5921 29.9095 38.2959 29.4766C38.0042 29.0436 37.585 28.8271 37.0381 28.8271C36.359 28.8271 35.8714 29.1074 35.5752 29.668V32.9492C35.876 33.5234 36.3682 33.8105 37.0518 33.8105C37.5804 33.8105 37.9928 33.5986 38.2891 33.1748C38.5898 32.7464 38.7402 32.0993 38.7402 31.2334ZM45.6787 29.1211C45.46 29.0846 45.2344 29.0664 45.002 29.0664C44.2409 29.0664 43.7282 29.3581 43.4639 29.9414V35H41.8027V27.6035H43.3887L43.4297 28.4307C43.8307 27.7881 44.3867 27.4668 45.0977 27.4668C45.3346 27.4668 45.5306 27.4987 45.6855 27.5625L45.6787 29.1211ZM49.8486 35.1367C48.7959 35.1367 47.9414 34.8063 47.2852 34.1455C46.6335 33.4801 46.3076 32.596 46.3076 31.4932V31.2881C46.3076 30.5498 46.4489 29.8913 46.7314 29.3125C47.0186 28.7292 47.4196 28.2757 47.9346 27.9521C48.4495 27.6286 49.0238 27.4668 49.6572 27.4668C50.6644 27.4668 51.4414 27.7881 51.9883 28.4307C52.5397 29.0732 52.8154 29.9824 52.8154 31.1582V31.8281H47.9824C48.0326 32.4388 48.2354 32.9219 48.5908 33.2773C48.9508 33.6328 49.402 33.8105 49.9443 33.8105C50.7054 33.8105 51.3252 33.5029 51.8037 32.8877L52.6992 33.7422C52.403 34.1842 52.0065 34.5283 51.5098 34.7744C51.0176 35.016 50.4639 35.1367 49.8486 35.1367ZM49.6504 28.7998C49.1947 28.7998 48.8255 28.9593 48.543 29.2783C48.265 29.5973 48.0872 30.0417 48.0098 30.6113H51.1748V30.4883C51.1383 29.9323 50.9902 29.513 50.7305 29.2305C50.4707 28.9434 50.1107 28.7998 49.6504 28.7998ZM57.1494 33.8105C57.5641 33.8105 57.9082 33.6898 58.1816 33.4482C58.4551 33.2067 58.6009 32.9082 58.6191 32.5527H60.1846C60.1663 33.013 60.0228 33.4437 59.7539 33.8447C59.485 34.2412 59.1204 34.5557 58.6602 34.7881C58.1999 35.0205 57.7031 35.1367 57.1699 35.1367C56.1354 35.1367 55.3151 34.8018 54.709 34.1318C54.1029 33.4619 53.7998 32.5368 53.7998 31.3564V31.1855C53.7998 30.0599 54.1006 29.1598 54.7021 28.4854C55.3037 27.8063 56.124 27.4668 57.1631 27.4668C58.0426 27.4668 58.7581 27.7243 59.3096 28.2393C59.8656 28.7497 60.1572 29.4219 60.1846 30.2559H58.6191C58.6009 29.832 58.4551 29.4834 58.1816 29.21C57.9128 28.9365 57.5687 28.7998 57.1494 28.7998C56.6117 28.7998 56.1969 28.9958 55.9053 29.3877C55.6136 29.7751 55.4655 30.3652 55.4609 31.1582V31.4248C55.4609 32.2269 55.6045 32.8262 55.8916 33.2227C56.1833 33.6146 56.6025 33.8105 57.1494 33.8105ZM63.2061 35H61.5449V27.6035H63.2061V35ZM61.4424 25.6826C61.4424 25.4274 61.5221 25.2155 61.6816 25.0469C61.8457 24.8783 62.0781 24.7939 62.3789 24.7939C62.6797 24.7939 62.9121 24.8783 63.0762 25.0469C63.2402 25.2155 63.3223 25.4274 63.3223 25.6826C63.3223 25.9333 63.2402 26.1429 63.0762 26.3115C62.9121 26.4756 62.6797 26.5576 62.3789 26.5576C62.0781 26.5576 61.8457 26.4756 61.6816 26.3115C61.5221 26.1429 61.4424 25.9333 61.4424 25.6826ZM69.4404 35C69.3675 34.8587 69.3037 34.6286 69.249 34.3096C68.7204 34.861 68.0732 35.1367 67.3076 35.1367C66.5648 35.1367 65.9587 34.9248 65.4893 34.501C65.0199 34.0771 64.7852 33.5531 64.7852 32.9287C64.7852 32.1403 65.0768 31.5365 65.6602 31.1172C66.248 30.6934 67.0866 30.4814 68.1758 30.4814H69.1943V29.9961C69.1943 29.6133 69.0872 29.3079 68.873 29.0801C68.6589 28.8477 68.333 28.7314 67.8955 28.7314C67.5173 28.7314 67.2074 28.8271 66.9658 29.0186C66.7243 29.2054 66.6035 29.4447 66.6035 29.7363H64.9424C64.9424 29.3307 65.0768 28.9525 65.3457 28.6016C65.6146 28.2461 65.9792 27.9681 66.4395 27.7676C66.9043 27.5671 67.4215 27.4668 67.9912 27.4668C68.8571 27.4668 69.5475 27.6855 70.0625 28.123C70.5775 28.556 70.8418 29.1667 70.8555 29.9551V33.291C70.8555 33.9564 70.9489 34.4873 71.1357 34.8838V35H69.4404ZM67.6152 33.8037C67.9434 33.8037 68.251 33.724 68.5381 33.5645C68.8298 33.4049 69.0485 33.1908 69.1943 32.9219V31.5273H68.2988C67.6836 31.5273 67.221 31.6344 66.9111 31.8486C66.6012 32.0628 66.4463 32.3659 66.4463 32.7578C66.4463 33.0768 66.5511 33.332 66.7607 33.5234C66.9749 33.7103 67.2598 33.8037 67.6152 33.8037ZM72.2842 31.2471C72.2842 30.1077 72.5485 29.194 73.0771 28.5059C73.6058 27.8132 74.3145 27.4668 75.2031 27.4668C75.987 27.4668 76.6204 27.7402 77.1035 28.2871V24.5H78.7646V35H77.2607L77.1787 34.2344C76.682 34.8359 76.0189 35.1367 75.1895 35.1367C74.3236 35.1367 73.6217 34.7881 73.084 34.0908C72.5508 33.3936 72.2842 32.4456 72.2842 31.2471ZM73.9453 31.3906C73.9453 32.1426 74.0889 32.7305 74.376 33.1543C74.6676 33.5736 75.0801 33.7832 75.6133 33.7832C76.2923 33.7832 76.7891 33.4801 77.1035 32.874V29.7158C76.7982 29.1234 76.306 28.8271 75.627 28.8271C75.0892 28.8271 74.6745 29.0413 74.3828 29.4697C74.0911 29.8936 73.9453 30.5339 73.9453 31.3906ZM80.1865 31.2334C80.1865 30.5088 80.3301 29.8571 80.6172 29.2783C80.9043 28.695 81.3076 28.2484 81.8271 27.9385C82.3467 27.624 82.9437 27.4668 83.6182 27.4668C84.6162 27.4668 85.4251 27.7881 86.0449 28.4307C86.6693 29.0732 87.0065 29.9255 87.0566 30.9873L87.0635 31.377C87.0635 32.1061 86.9222 32.7578 86.6396 33.332C86.3617 33.9062 85.9606 34.3506 85.4365 34.665C84.917 34.9795 84.3154 35.1367 83.6318 35.1367C82.5882 35.1367 81.752 34.7904 81.123 34.0977C80.4987 33.4004 80.1865 32.473 80.1865 31.3154V31.2334ZM81.8477 31.377C81.8477 32.138 82.0049 32.735 82.3193 33.168C82.6338 33.5964 83.0713 33.8105 83.6318 33.8105C84.1924 33.8105 84.6276 33.5918 84.9375 33.1543C85.252 32.7168 85.4092 32.0765 85.4092 31.2334C85.4092 30.486 85.2474 29.8936 84.9238 29.4561C84.6048 29.0186 84.1696 28.7998 83.6182 28.7998C83.0758 28.7998 82.6452 29.0163 82.3262 29.4492C82.0072 29.8776 81.8477 30.5202 81.8477 31.377ZM99.3955 25.0469V31.6982C99.3955 32.7555 99.056 33.5941 98.377 34.2139C97.7025 34.8291 96.8024 35.1367 95.6768 35.1367C94.5374 35.1367 93.6328 34.8337 92.9629 34.2275C92.293 33.6169 91.958 32.7715 91.958 31.6914V25.0469H93.6807V31.7051C93.6807 32.3704 93.8493 32.8786 94.1865 33.2295C94.5238 33.5804 95.0205 33.7559 95.6768 33.7559C97.0075 33.7559 97.6729 33.054 97.6729 31.6504V25.0469H99.3955ZM105.233 32.9902C105.233 32.694 105.11 32.4684 104.864 32.3135C104.623 32.1585 104.219 32.0218 103.654 31.9033C103.089 31.7848 102.618 31.6344 102.239 31.4521C101.41 31.0511 100.995 30.4701 100.995 29.709C100.995 29.071 101.264 28.5378 101.802 28.1094C102.34 27.681 103.023 27.4668 103.853 27.4668C104.737 27.4668 105.45 27.6855 105.992 28.123C106.539 28.5605 106.812 29.1279 106.812 29.8252H105.151C105.151 29.5062 105.033 29.2419 104.796 29.0322C104.559 28.818 104.244 28.7109 103.853 28.7109C103.488 28.7109 103.189 28.7952 102.957 28.9639C102.729 29.1325 102.615 29.3581 102.615 29.6406C102.615 29.8958 102.722 30.0941 102.937 30.2354C103.151 30.3766 103.584 30.5202 104.235 30.666C104.887 30.8073 105.397 30.9782 105.767 31.1787C106.14 31.3747 106.416 31.6117 106.594 31.8896C106.776 32.1676 106.867 32.5049 106.867 32.9014C106.867 33.5667 106.591 34.1068 106.04 34.5215C105.489 34.9316 104.766 35.1367 103.873 35.1367C103.267 35.1367 102.727 35.0273 102.253 34.8086C101.779 34.5898 101.41 34.2891 101.146 33.9062C100.881 33.5234 100.749 33.111 100.749 32.6689H102.362C102.385 33.0609 102.533 33.3639 102.807 33.5781C103.08 33.7878 103.442 33.8926 103.894 33.8926C104.331 33.8926 104.664 33.8105 104.892 33.6465C105.119 33.4779 105.233 33.2591 105.233 32.9902ZM112.801 34.2754C112.313 34.8496 111.62 35.1367 110.723 35.1367C109.921 35.1367 109.312 34.902 108.897 34.4326C108.487 33.9632 108.282 33.2842 108.282 32.3955V27.6035H109.943V32.375C109.943 33.3138 110.333 33.7832 111.112 33.7832C111.919 33.7832 112.464 33.4938 112.746 32.915V27.6035H114.407V35H112.842L112.801 34.2754ZM120.519 35C120.446 34.8587 120.382 34.6286 120.327 34.3096C119.799 34.861 119.151 35.1367 118.386 35.1367C117.643 35.1367 117.037 34.9248 116.567 34.501C116.098 34.0771 115.863 33.5531 115.863 32.9287C115.863 32.1403 116.155 31.5365 116.738 31.1172C117.326 30.6934 118.165 30.4814 119.254 30.4814H120.272V29.9961C120.272 29.6133 120.165 29.3079 119.951 29.0801C119.737 28.8477 119.411 28.7314 118.974 28.7314C118.595 28.7314 118.285 28.8271 118.044 29.0186C117.802 29.2054 117.682 29.4447 117.682 29.7363H116.021C116.021 29.3307 116.155 28.9525 116.424 28.6016C116.693 28.2461 117.057 27.9681 117.518 27.7676C117.982 27.5671 118.5 27.4668 119.069 27.4668C119.935 27.4668 120.626 27.6855 121.141 28.123C121.656 28.556 121.92 29.1667 121.934 29.9551V33.291C121.934 33.9564 122.027 34.4873 122.214 34.8838V35H120.519ZM118.693 33.8037C119.021 33.8037 119.329 33.724 119.616 33.5645C119.908 33.4049 120.127 33.1908 120.272 32.9219V31.5273H119.377C118.762 31.5273 118.299 31.6344 117.989 31.8486C117.679 32.0628 117.524 32.3659 117.524 32.7578C117.524 33.0768 117.629 33.332 117.839 33.5234C118.053 33.7103 118.338 33.8037 118.693 33.8037ZM127.546 29.1211C127.327 29.0846 127.102 29.0664 126.869 29.0664C126.108 29.0664 125.595 29.3581 125.331 29.9414V35H123.67V27.6035H125.256L125.297 28.4307C125.698 27.7881 126.254 27.4668 126.965 27.4668C127.202 27.4668 127.398 27.4987 127.553 27.5625L127.546 29.1211ZM130.362 35H128.701V27.6035H130.362V35ZM128.599 25.6826C128.599 25.4274 128.678 25.2155 128.838 25.0469C129.002 24.8783 129.234 24.7939 129.535 24.7939C129.836 24.7939 130.068 24.8783 130.232 25.0469C130.396 25.2155 130.479 25.4274 130.479 25.6826C130.479 25.9333 130.396 26.1429 130.232 26.3115C130.068 26.4756 129.836 26.5576 129.535 26.5576C129.234 26.5576 129.002 26.4756 128.838 26.3115C128.678 26.1429 128.599 25.9333 128.599 25.6826ZM131.866 31.2334C131.866 30.5088 132.01 29.8571 132.297 29.2783C132.584 28.695 132.987 28.2484 133.507 27.9385C134.026 27.624 134.623 27.4668 135.298 27.4668C136.296 27.4668 137.105 27.7881 137.725 28.4307C138.349 29.0732 138.686 29.9255 138.736 30.9873L138.743 31.377C138.743 32.1061 138.602 32.7578 138.319 33.332C138.041 33.9062 137.64 34.3506 137.116 34.665C136.597 34.9795 135.995 35.1367 135.312 35.1367C134.268 35.1367 133.432 34.7904 132.803 34.0977C132.178 33.4004 131.866 32.473 131.866 31.3154V31.2334ZM133.527 31.377C133.527 32.138 133.685 32.735 133.999 33.168C134.313 33.5964 134.751 33.8105 135.312 33.8105C135.872 33.8105 136.307 33.5918 136.617 33.1543C136.932 32.7168 137.089 32.0765 137.089 31.2334C137.089 30.486 136.927 29.8936 136.604 29.4561C136.285 29.0186 135.849 28.7998 135.298 28.7998C134.756 28.7998 134.325 29.0163 134.006 29.4492C133.687 29.8776 133.527 30.5202 133.527 31.377ZM141.149 33.25C141.459 33.25 141.699 33.3389 141.867 33.5166C142.036 33.6898 142.12 33.9085 142.12 34.1729C142.12 34.4326 142.036 34.6491 141.867 34.8223C141.699 34.9909 141.459 35.0752 141.149 35.0752C140.853 35.0752 140.618 34.9909 140.445 34.8223C140.272 34.6536 140.186 34.4372 140.186 34.1729C140.186 33.9085 140.27 33.6898 140.438 33.5166C140.607 33.3389 140.844 33.25 141.149 33.25ZM141.149 27.4463C141.459 27.4463 141.699 27.5352 141.867 27.7129C142.036 27.8861 142.12 28.1048 142.12 28.3691C142.12 28.6289 142.036 28.8454 141.867 29.0186C141.699 29.1872 141.459 29.2715 141.149 29.2715C140.853 29.2715 140.618 29.1872 140.445 29.0186C140.272 28.8499 140.186 28.6335 140.186 28.3691C140.186 28.1048 140.27 27.8861 140.438 27.7129C140.607 27.5352 140.844 27.4463 141.149 27.4463ZM149.243 33.6191H153.762V35H147.514V25.0469H149.243V33.6191ZM159.347 35C159.274 34.8587 159.21 34.6286 159.155 34.3096C158.627 34.861 157.979 35.1367 157.214 35.1367C156.471 35.1367 155.865 34.9248 155.396 34.501C154.926 34.0771 154.691 33.5531 154.691 32.9287C154.691 32.1403 154.983 31.5365 155.566 31.1172C156.154 30.6934 156.993 30.4814 158.082 30.4814H159.101V29.9961C159.101 29.6133 158.993 29.3079 158.779 29.0801C158.565 28.8477 158.239 28.7314 157.802 28.7314C157.424 28.7314 157.114 28.8271 156.872 29.0186C156.631 29.2054 156.51 29.4447 156.51 29.7363H154.849C154.849 29.3307 154.983 28.9525 155.252 28.6016C155.521 28.2461 155.885 27.9681 156.346 27.7676C156.811 27.5671 157.328 27.4668 157.897 27.4668C158.763 27.4668 159.454 27.6855 159.969 28.123C160.484 28.556 160.748 29.1667 160.762 29.9551V33.291C160.762 33.9564 160.855 34.4873 161.042 34.8838V35H159.347ZM157.521 33.8037C157.85 33.8037 158.157 33.724 158.444 33.5645C158.736 33.4049 158.955 33.1908 159.101 32.9219V31.5273H158.205C157.59 31.5273 157.127 31.6344 156.817 31.8486C156.507 32.0628 156.353 32.3659 156.353 32.7578C156.353 33.0768 156.457 33.332 156.667 33.5234C156.881 33.7103 157.166 33.8037 157.521 33.8037ZM167.755 35H166.094V27.6035H167.755V35ZM165.991 25.6826C165.991 25.4274 166.071 25.2155 166.23 25.0469C166.395 24.8783 166.627 24.7939 166.928 24.7939C167.229 24.7939 167.461 24.8783 167.625 25.0469C167.789 25.2155 167.871 25.4274 167.871 25.6826C167.871 25.9333 167.789 26.1429 167.625 26.3115C167.461 26.4756 167.229 26.5576 166.928 26.5576C166.627 26.5576 166.395 26.4756 166.23 26.3115C166.071 26.1429 165.991 25.9333 165.991 25.6826ZM171.111 27.6035L171.159 28.458C171.706 27.7972 172.424 27.4668 173.312 27.4668C174.853 27.4668 175.637 28.3486 175.664 30.1123V35H174.003V30.208C174.003 29.7386 173.9 29.3923 173.695 29.1689C173.495 28.9411 173.164 28.8271 172.704 28.8271C172.034 28.8271 171.535 29.1302 171.207 29.7363V35H169.546V27.6035H171.111ZM179.444 25.8057V27.6035H180.75V28.834H179.444V32.9629C179.444 33.2454 179.499 33.4505 179.608 33.5781C179.722 33.7012 179.923 33.7627 180.21 33.7627C180.401 33.7627 180.595 33.7399 180.791 33.6943V34.9795C180.413 35.0843 180.048 35.1367 179.697 35.1367C178.421 35.1367 177.783 34.4326 177.783 33.0244V28.834H176.566V27.6035H177.783V25.8057H179.444ZM185.282 35.1367C184.229 35.1367 183.375 34.8063 182.719 34.1455C182.067 33.4801 181.741 32.596 181.741 31.4932V31.2881C181.741 30.5498 181.882 29.8913 182.165 29.3125C182.452 28.7292 182.853 28.2757 183.368 27.9521C183.883 27.6286 184.457 27.4668 185.091 27.4668C186.098 27.4668 186.875 27.7881 187.422 28.4307C187.973 29.0732 188.249 29.9824 188.249 31.1582V31.8281H183.416C183.466 32.4388 183.669 32.9219 184.024 33.2773C184.384 33.6328 184.836 33.8105 185.378 33.8105C186.139 33.8105 186.759 33.5029 187.237 32.8877L188.133 33.7422C187.837 34.1842 187.44 34.5283 186.943 34.7744C186.451 35.016 185.897 35.1367 185.282 35.1367ZM185.084 28.7998C184.628 28.7998 184.259 28.9593 183.977 29.2783C183.699 29.5973 183.521 30.0417 183.443 30.6113H186.608V30.4883C186.572 29.9323 186.424 29.513 186.164 29.2305C185.904 28.9434 185.544 28.7998 185.084 28.7998ZM193.417 29.1211C193.198 29.0846 192.973 29.0664 192.74 29.0664C191.979 29.0664 191.466 29.3581 191.202 29.9414V35H189.541V27.6035H191.127L191.168 28.4307C191.569 27.7881 192.125 27.4668 192.836 27.4668C193.073 27.4668 193.269 27.4987 193.424 27.5625L193.417 29.1211ZM200.943 31.377C200.943 32.5208 200.684 33.4346 200.164 34.1182C199.645 34.7972 198.947 35.1367 198.072 35.1367C197.261 35.1367 196.612 34.8701 196.124 34.3369V37.8438H194.463V27.6035H195.994L196.062 28.3555C196.55 27.763 197.213 27.4668 198.052 27.4668C198.954 27.4668 199.66 27.804 200.171 28.4785C200.686 29.1484 200.943 30.0804 200.943 31.2744V31.377ZM199.289 31.2334C199.289 30.4951 199.141 29.9095 198.845 29.4766C198.553 29.0436 198.134 28.8271 197.587 28.8271C196.908 28.8271 196.42 29.1074 196.124 29.668V32.9492C196.425 33.5234 196.917 33.8105 197.601 33.8105C198.129 33.8105 198.542 33.5986 198.838 33.1748C199.139 32.7464 199.289 32.0993 199.289 31.2334ZM206.228 29.1211C206.009 29.0846 205.783 29.0664 205.551 29.0664C204.79 29.0664 204.277 29.3581 204.013 29.9414V35H202.352V27.6035H203.938L203.979 28.4307C204.38 27.7881 204.936 27.4668 205.646 27.4668C205.883 27.4668 206.079 27.4987 206.234 27.5625L206.228 29.1211ZM210.397 35.1367C209.345 35.1367 208.49 34.8063 207.834 34.1455C207.182 33.4801 206.856 32.596 206.856 31.4932V31.2881C206.856 30.5498 206.998 29.8913 207.28 29.3125C207.567 28.7292 207.968 28.2757 208.483 27.9521C208.998 27.6286 209.573 27.4668 210.206 27.4668C211.213 27.4668 211.99 27.7881 212.537 28.4307C213.089 29.0732 213.364 29.9824 213.364 31.1582V31.8281H208.531C208.581 32.4388 208.784 32.9219 209.14 33.2773C209.5 33.6328 209.951 33.8105 210.493 33.8105C211.254 33.8105 211.874 33.5029 212.353 32.8877L213.248 33.7422C212.952 34.1842 212.555 34.5283 212.059 34.7744C211.566 35.016 211.013 35.1367 210.397 35.1367ZM210.199 28.7998C209.743 28.7998 209.374 28.9593 209.092 29.2783C208.814 29.5973 208.636 30.0417 208.559 30.6113H211.724V30.4883C211.687 29.9323 211.539 29.513 211.279 29.2305C211.02 28.9434 210.66 28.7998 210.199 28.7998ZM216.741 25.8057V27.6035H218.047V28.834H216.741V32.9629C216.741 33.2454 216.796 33.4505 216.905 33.5781C217.019 33.7012 217.22 33.7627 217.507 33.7627C217.698 33.7627 217.892 33.7399 218.088 33.6943V34.9795C217.71 35.0843 217.345 35.1367 216.994 35.1367C215.718 35.1367 215.08 34.4326 215.08 33.0244V28.834H213.863V27.6035H215.08V25.8057H216.741ZM223.741 35C223.668 34.8587 223.604 34.6286 223.55 34.3096C223.021 34.861 222.374 35.1367 221.608 35.1367C220.866 35.1367 220.259 34.9248 219.79 34.501C219.321 34.0771 219.086 33.5531 219.086 32.9287C219.086 32.1403 219.378 31.5365 219.961 31.1172C220.549 30.6934 221.387 30.4814 222.477 30.4814H223.495V29.9961C223.495 29.6133 223.388 29.3079 223.174 29.0801C222.96 28.8477 222.634 28.7314 222.196 28.7314C221.818 28.7314 221.508 28.8271 221.267 29.0186C221.025 29.2054 220.904 29.4447 220.904 29.7363H219.243C219.243 29.3307 219.378 28.9525 219.646 28.6016C219.915 28.2461 220.28 27.9681 220.74 27.7676C221.205 27.5671 221.722 27.4668 222.292 27.4668C223.158 27.4668 223.848 27.6855 224.363 28.123C224.878 28.556 225.143 29.1667 225.156 29.9551V33.291C225.156 33.9564 225.25 34.4873 225.437 34.8838V35H223.741ZM221.916 33.8037C222.244 33.8037 222.552 33.724 222.839 33.5645C223.131 33.4049 223.349 33.1908 223.495 32.9219V31.5273H222.6C221.984 31.5273 221.522 31.6344 221.212 31.8486C220.902 32.0628 220.747 32.3659 220.747 32.7578C220.747 33.0768 220.852 33.332 221.062 33.5234C221.276 33.7103 221.561 33.8037 221.916 33.8037ZM229.935 33.8105C230.349 33.8105 230.693 33.6898 230.967 33.4482C231.24 33.2067 231.386 32.9082 231.404 32.5527H232.97C232.951 33.013 232.808 33.4437 232.539 33.8447C232.27 34.2412 231.906 34.5557 231.445 34.7881C230.985 35.0205 230.488 35.1367 229.955 35.1367C228.921 35.1367 228.1 34.8018 227.494 34.1318C226.888 33.4619 226.585 32.5368 226.585 31.3564V31.1855C226.585 30.0599 226.886 29.1598 227.487 28.4854C228.089 27.8063 228.909 27.4668 229.948 27.4668C230.828 27.4668 231.543 27.7243 232.095 28.2393C232.651 28.7497 232.942 29.4219 232.97 30.2559H231.404C231.386 29.832 231.24 29.4834 230.967 29.21C230.698 28.9365 230.354 28.7998 229.935 28.7998C229.397 28.7998 228.982 28.9958 228.69 29.3877C228.399 29.7751 228.251 30.3652 228.246 31.1582V31.4248C228.246 32.2269 228.39 32.8262 228.677 33.2227C228.968 33.6146 229.388 33.8105 229.935 33.8105ZM235.991 35H234.33V27.6035H235.991V35ZM234.228 25.6826C234.228 25.4274 234.307 25.2155 234.467 25.0469C234.631 24.8783 234.863 24.7939 235.164 24.7939C235.465 24.7939 235.697 24.8783 235.861 25.0469C236.025 25.2155 236.107 25.4274 236.107 25.6826C236.107 25.9333 236.025 26.1429 235.861 26.3115C235.697 26.4756 235.465 26.5576 235.164 26.5576C234.863 26.5576 234.631 26.4756 234.467 26.3115C234.307 26.1429 234.228 25.9333 234.228 25.6826ZM237.495 31.2334C237.495 30.5088 237.639 29.8571 237.926 29.2783C238.213 28.695 238.616 28.2484 239.136 27.9385C239.655 27.624 240.252 27.4668 240.927 27.4668C241.925 27.4668 242.734 27.7881 243.354 28.4307C243.978 29.0732 244.315 29.9255 244.365 30.9873L244.372 31.377C244.372 32.1061 244.231 32.7578 243.948 33.332C243.67 33.9062 243.269 34.3506 242.745 34.665C242.226 34.9795 241.624 35.1367 240.94 35.1367C239.897 35.1367 239.061 34.7904 238.432 34.0977C237.807 33.4004 237.495 32.473 237.495 31.3154V31.2334ZM239.156 31.377C239.156 32.138 239.313 32.735 239.628 33.168C239.942 33.5964 240.38 33.8105 240.94 33.8105C241.501 33.8105 241.936 33.5918 242.246 33.1543C242.561 32.7168 242.718 32.0765 242.718 31.2334C242.718 30.486 242.556 29.8936 242.232 29.4561C241.913 29.0186 241.478 28.7998 240.927 28.7998C240.384 28.7998 239.954 29.0163 239.635 29.4492C239.316 29.8776 239.156 30.5202 239.156 31.377ZM241.385 24.5H243.278L241.385 26.5713H240.052L241.385 24.5ZM247.318 27.6035L247.366 28.458C247.913 27.7972 248.631 27.4668 249.52 27.4668C251.06 27.4668 251.844 28.3486 251.871 30.1123V35H250.21V30.208C250.21 29.7386 250.107 29.3923 249.902 29.1689C249.702 28.9411 249.371 28.8271 248.911 28.8271C248.241 28.8271 247.742 29.1302 247.414 29.7363V35H245.753V27.6035H247.318ZM256.745 31.2471C256.745 30.1077 257.009 29.194 257.538 28.5059C258.067 27.8132 258.775 27.4668 259.664 27.4668C260.448 27.4668 261.081 27.7402 261.564 28.2871V24.5H263.226V35H261.722L261.64 34.2344C261.143 34.8359 260.48 35.1367 259.65 35.1367C258.785 35.1367 258.083 34.7881 257.545 34.0908C257.012 33.3936 256.745 32.4456 256.745 31.2471ZM258.406 31.3906C258.406 32.1426 258.55 32.7305 258.837 33.1543C259.129 33.5736 259.541 33.7832 260.074 33.7832C260.753 33.7832 261.25 33.4801 261.564 32.874V29.7158C261.259 29.1234 260.767 28.8271 260.088 28.8271C259.55 28.8271 259.135 29.0413 258.844 29.4697C258.552 29.8936 258.406 30.5339 258.406 31.3906ZM268.216 35.1367C267.163 35.1367 266.309 34.8063 265.652 34.1455C265.001 33.4801 264.675 32.596 264.675 31.4932V31.2881C264.675 30.5498 264.816 29.8913 265.099 29.3125C265.386 28.7292 265.787 28.2757 266.302 27.9521C266.817 27.6286 267.391 27.4668 268.024 27.4668C269.032 27.4668 269.809 27.7881 270.355 28.4307C270.907 29.0732 271.183 29.9824 271.183 31.1582V31.8281H266.35C266.4 32.4388 266.603 32.9219 266.958 33.2773C267.318 33.6328 267.769 33.8105 268.312 33.8105C269.073 33.8105 269.692 33.5029 270.171 32.8877L271.066 33.7422C270.77 34.1842 270.374 34.5283 269.877 34.7744C269.385 35.016 268.831 35.1367 268.216 35.1367ZM268.018 28.7998C267.562 28.7998 267.193 28.9593 266.91 29.2783C266.632 29.5973 266.454 30.0417 266.377 30.6113H269.542V30.4883C269.506 29.9323 269.357 29.513 269.098 29.2305C268.838 28.9434 268.478 28.7998 268.018 28.7998ZM279.222 35.1367C278.169 35.1367 277.314 34.8063 276.658 34.1455C276.007 33.4801 275.681 32.596 275.681 31.4932V31.2881C275.681 30.5498 275.822 29.8913 276.104 29.3125C276.392 28.7292 276.793 28.2757 277.308 27.9521C277.823 27.6286 278.397 27.4668 279.03 27.4668C280.037 27.4668 280.814 27.7881 281.361 28.4307C281.913 29.0732 282.188 29.9824 282.188 31.1582V31.8281H277.355C277.406 32.4388 277.608 32.9219 277.964 33.2773C278.324 33.6328 278.775 33.8105 279.317 33.8105C280.078 33.8105 280.698 33.5029 281.177 32.8877L282.072 33.7422C281.776 34.1842 281.38 34.5283 280.883 34.7744C280.391 35.016 279.837 35.1367 279.222 35.1367ZM279.023 28.7998C278.568 28.7998 278.199 28.9593 277.916 29.2783C277.638 29.5973 277.46 30.0417 277.383 30.6113H280.548V30.4883C280.511 29.9323 280.363 29.513 280.104 29.2305C279.844 28.9434 279.484 28.7998 279.023 28.7998ZM287.63 32.9902C287.63 32.694 287.507 32.4684 287.261 32.3135C287.019 32.1585 286.616 32.0218 286.051 31.9033C285.486 31.7848 285.014 31.6344 284.636 31.4521C283.806 31.0511 283.392 30.4701 283.392 29.709C283.392 29.071 283.66 28.5378 284.198 28.1094C284.736 27.681 285.42 27.4668 286.249 27.4668C287.133 27.4668 287.846 27.6855 288.389 28.123C288.936 28.5605 289.209 29.1279 289.209 29.8252H287.548C287.548 29.5062 287.429 29.2419 287.192 29.0322C286.955 28.818 286.641 28.7109 286.249 28.7109C285.884 28.7109 285.586 28.7952 285.354 28.9639C285.126 29.1325 285.012 29.3581 285.012 29.6406C285.012 29.8958 285.119 30.0941 285.333 30.2354C285.547 30.3766 285.98 30.5202 286.632 30.666C287.284 30.8073 287.794 30.9782 288.163 31.1787C288.537 31.3747 288.812 31.6117 288.99 31.8896C289.173 32.1676 289.264 32.5049 289.264 32.9014C289.264 33.5667 288.988 34.1068 288.437 34.5215C287.885 34.9316 287.163 35.1367 286.27 35.1367C285.663 35.1367 285.123 35.0273 284.649 34.8086C284.175 34.5898 283.806 34.2891 283.542 33.9062C283.278 33.5234 283.146 33.111 283.146 32.6689H284.759C284.782 33.0609 284.93 33.3639 285.203 33.5781C285.477 33.7878 285.839 33.8926 286.29 33.8926C286.728 33.8926 287.06 33.8105 287.288 33.6465C287.516 33.4779 287.63 33.2591 287.63 32.9902ZM292.798 25.8057V27.6035H294.104V28.834H292.798V32.9629C292.798 33.2454 292.853 33.4505 292.962 33.5781C293.076 33.7012 293.276 33.7627 293.563 33.7627C293.755 33.7627 293.949 33.7399 294.145 33.6943V34.9795C293.766 35.0843 293.402 35.1367 293.051 35.1367C291.775 35.1367 291.137 34.4326 291.137 33.0244V28.834H289.92V27.6035H291.137V25.8057H292.798ZM294.862 31.2334C294.862 30.5088 295.006 29.8571 295.293 29.2783C295.58 28.695 295.983 28.2484 296.503 27.9385C297.022 27.624 297.619 27.4668 298.294 27.4668C299.292 27.4668 300.101 27.7881 300.721 28.4307C301.345 29.0732 301.682 29.9255 301.732 30.9873L301.739 31.377C301.739 32.1061 301.598 32.7578 301.315 33.332C301.037 33.9062 300.636 34.3506 300.112 34.665C299.593 34.9795 298.991 35.1367 298.308 35.1367C297.264 35.1367 296.428 34.7904 295.799 34.0977C295.174 33.4004 294.862 32.473 294.862 31.3154V31.2334ZM296.523 31.377C296.523 32.138 296.681 32.735 296.995 33.168C297.31 33.5964 297.747 33.8105 298.308 33.8105C298.868 33.8105 299.303 33.5918 299.613 33.1543C299.928 32.7168 300.085 32.0765 300.085 31.2334C300.085 30.486 299.923 29.8936 299.6 29.4561C299.281 29.0186 298.845 28.7998 298.294 28.7998C297.752 28.7998 297.321 29.0163 297.002 29.4492C296.683 29.8776 296.523 30.5202 296.523 31.377ZM307.29 32.9902C307.29 32.694 307.167 32.4684 306.921 32.3135C306.679 32.1585 306.276 32.0218 305.711 31.9033C305.146 31.7848 304.674 31.6344 304.296 31.4521C303.466 31.0511 303.052 30.4701 303.052 29.709C303.052 29.071 303.321 28.5378 303.858 28.1094C304.396 27.681 305.08 27.4668 305.909 27.4668C306.793 27.4668 307.507 27.6855 308.049 28.123C308.596 28.5605 308.869 29.1279 308.869 29.8252H307.208C307.208 29.5062 307.09 29.2419 306.853 29.0322C306.616 28.818 306.301 28.7109 305.909 28.7109C305.545 28.7109 305.246 28.7952 305.014 28.9639C304.786 29.1325 304.672 29.3581 304.672 29.6406C304.672 29.8958 304.779 30.0941 304.993 30.2354C305.207 30.3766 305.64 30.5202 306.292 30.666C306.944 30.8073 307.454 30.9782 307.823 31.1787C308.197 31.3747 308.473 31.6117 308.65 31.8896C308.833 32.1676 308.924 32.5049 308.924 32.9014C308.924 33.5667 308.648 34.1068 308.097 34.5215C307.545 34.9316 306.823 35.1367 305.93 35.1367C305.324 35.1367 304.784 35.0273 304.31 34.8086C303.836 34.5898 303.466 34.2891 303.202 33.9062C302.938 33.5234 302.806 33.111 302.806 32.6689H304.419C304.442 33.0609 304.59 33.3639 304.863 33.5781C305.137 33.7878 305.499 33.8926 305.95 33.8926C306.388 33.8926 306.72 33.8105 306.948 33.6465C307.176 33.4779 307.29 33.2591 307.29 32.9902ZM317.735 29.1211C317.517 29.0846 317.291 29.0664 317.059 29.0664C316.298 29.0664 315.785 29.3581 315.521 29.9414V35H313.859V27.6035H315.445L315.486 28.4307C315.887 27.7881 316.443 27.4668 317.154 27.4668C317.391 27.4668 317.587 27.4987 317.742 27.5625L317.735 29.1211ZM321.905 35.1367C320.853 35.1367 319.998 34.8063 319.342 34.1455C318.69 33.4801 318.364 32.596 318.364 31.4932V31.2881C318.364 30.5498 318.506 29.8913 318.788 29.3125C319.075 28.7292 319.476 28.2757 319.991 27.9521C320.506 27.6286 321.08 27.4668 321.714 27.4668C322.721 27.4668 323.498 27.7881 324.045 28.4307C324.596 29.0732 324.872 29.9824 324.872 31.1582V31.8281H320.039C320.089 32.4388 320.292 32.9219 320.647 33.2773C321.007 33.6328 321.459 33.8105 322.001 33.8105C322.762 33.8105 323.382 33.5029 323.86 32.8877L324.756 33.7422C324.46 34.1842 324.063 34.5283 323.566 34.7744C323.074 35.016 322.521 35.1367 321.905 35.1367ZM321.707 28.7998C321.251 28.7998 320.882 28.9593 320.6 29.2783C320.322 29.5973 320.144 30.0417 320.066 30.6113H323.231V30.4883C323.195 29.9323 323.047 29.513 322.787 29.2305C322.527 28.9434 322.167 28.7998 321.707 28.7998ZM330.313 32.9902C330.313 32.694 330.19 32.4684 329.944 32.3135C329.703 32.1585 329.299 32.0218 328.734 31.9033C328.169 31.7848 327.698 31.6344 327.319 31.4521C326.49 31.0511 326.075 30.4701 326.075 29.709C326.075 29.071 326.344 28.5378 326.882 28.1094C327.42 27.681 328.103 27.4668 328.933 27.4668C329.817 27.4668 330.53 27.6855 331.072 28.123C331.619 28.5605 331.893 29.1279 331.893 29.8252H330.231C330.231 29.5062 330.113 29.2419 329.876 29.0322C329.639 28.818 329.325 28.7109 328.933 28.7109C328.568 28.7109 328.27 28.7952 328.037 28.9639C327.809 29.1325 327.695 29.3581 327.695 29.6406C327.695 29.8958 327.802 30.0941 328.017 30.2354C328.231 30.3766 328.664 30.5202 329.315 30.666C329.967 30.8073 330.478 30.9782 330.847 31.1787C331.22 31.3747 331.496 31.6117 331.674 31.8896C331.856 32.1676 331.947 32.5049 331.947 32.9014C331.947 33.5667 331.672 34.1068 331.12 34.5215C330.569 34.9316 329.846 35.1367 328.953 35.1367C328.347 35.1367 327.807 35.0273 327.333 34.8086C326.859 34.5898 326.49 34.2891 326.226 33.9062C325.961 33.5234 325.829 33.111 325.829 32.6689H327.442C327.465 33.0609 327.613 33.3639 327.887 33.5781C328.16 33.7878 328.522 33.8926 328.974 33.8926C329.411 33.8926 329.744 33.8105 329.972 33.6465C330.2 33.4779 330.313 33.2591 330.313 32.9902ZM337.881 34.2754C337.393 34.8496 336.701 35.1367 335.803 35.1367C335.001 35.1367 334.392 34.902 333.978 34.4326C333.567 33.9632 333.362 33.2842 333.362 32.3955V27.6035H335.023V32.375C335.023 33.3138 335.413 33.7832 336.192 33.7832C336.999 33.7832 337.544 33.4938 337.826 32.915V27.6035H339.487V35H337.922L337.881 34.2754ZM342.946 35H341.285V24.5H342.946V35ZM346.843 25.8057V27.6035H348.148V28.834H346.843V32.9629C346.843 33.2454 346.897 33.4505 347.007 33.5781C347.121 33.7012 347.321 33.7627 347.608 33.7627C347.8 33.7627 347.993 33.7399 348.189 33.6943V34.9795C347.811 35.0843 347.447 35.1367 347.096 35.1367C345.82 35.1367 345.182 34.4326 345.182 33.0244V28.834H343.965V27.6035H345.182V25.8057H346.843ZM353.843 35C353.77 34.8587 353.706 34.6286 353.651 34.3096C353.123 34.861 352.476 35.1367 351.71 35.1367C350.967 35.1367 350.361 34.9248 349.892 34.501C349.422 34.0771 349.188 33.5531 349.188 32.9287C349.188 32.1403 349.479 31.5365 350.062 31.1172C350.65 30.6934 351.489 30.4814 352.578 30.4814H353.597V29.9961C353.597 29.6133 353.49 29.3079 353.275 29.0801C353.061 28.8477 352.735 28.7314 352.298 28.7314C351.92 28.7314 351.61 28.8271 351.368 29.0186C351.127 29.2054 351.006 29.4447 351.006 29.7363H349.345C349.345 29.3307 349.479 28.9525 349.748 28.6016C350.017 28.2461 350.382 27.9681 350.842 27.7676C351.307 27.5671 351.824 27.4668 352.394 27.4668C353.259 27.4668 353.95 27.6855 354.465 28.123C354.98 28.556 355.244 29.1667 355.258 29.9551V33.291C355.258 33.9564 355.351 34.4873 355.538 34.8838V35H353.843ZM352.018 33.8037C352.346 33.8037 352.653 33.724 352.94 33.5645C353.232 33.4049 353.451 33.1908 353.597 32.9219V31.5273H352.701C352.086 31.5273 351.623 31.6344 351.313 31.8486C351.004 32.0628 350.849 32.3659 350.849 32.7578C350.849 33.0768 350.953 33.332 351.163 33.5234C351.377 33.7103 351.662 33.8037 352.018 33.8037ZM356.687 31.2471C356.687 30.1077 356.951 29.194 357.479 28.5059C358.008 27.8132 358.717 27.4668 359.605 27.4668C360.389 27.4668 361.023 27.7402 361.506 28.2871V24.5H363.167V35H361.663L361.581 34.2344C361.084 34.8359 360.421 35.1367 359.592 35.1367C358.726 35.1367 358.024 34.7881 357.486 34.0908C356.953 33.3936 356.687 32.4456 356.687 31.2471ZM358.348 31.3906C358.348 32.1426 358.491 32.7305 358.778 33.1543C359.07 33.5736 359.482 33.7832 360.016 33.7832C360.695 33.7832 361.191 33.4801 361.506 32.874V29.7158C361.201 29.1234 360.708 28.8271 360.029 28.8271C359.492 28.8271 359.077 29.0413 358.785 29.4697C358.493 29.8936 358.348 30.5339 358.348 31.3906ZM364.589 31.2334C364.589 30.5088 364.732 29.8571 365.02 29.2783C365.307 28.695 365.71 28.2484 366.229 27.9385C366.749 27.624 367.346 27.4668 368.021 27.4668C369.019 27.4668 369.827 27.7881 370.447 28.4307C371.072 29.0732 371.409 29.9255 371.459 30.9873L371.466 31.377C371.466 32.1061 371.325 32.7578 371.042 33.332C370.764 33.9062 370.363 34.3506 369.839 34.665C369.319 34.9795 368.718 35.1367 368.034 35.1367C366.991 35.1367 366.154 34.7904 365.525 34.0977C364.901 33.4004 364.589 32.473 364.589 31.3154V31.2334ZM366.25 31.377C366.25 32.138 366.407 32.735 366.722 33.168C367.036 33.5964 367.474 33.8105 368.034 33.8105C368.595 33.8105 369.03 33.5918 369.34 33.1543C369.654 32.7168 369.812 32.0765 369.812 31.2334C369.812 30.486 369.65 29.8936 369.326 29.4561C369.007 29.0186 368.572 28.7998 368.021 28.7998C367.478 28.7998 367.048 29.0163 366.729 29.4492C366.41 29.8776 366.25 30.5202 366.25 31.377ZM377.017 32.9902C377.017 32.694 376.894 32.4684 376.647 32.3135C376.406 32.1585 376.003 32.0218 375.438 31.9033C374.872 31.7848 374.401 31.6344 374.022 31.4521C373.193 31.0511 372.778 30.4701 372.778 29.709C372.778 29.071 373.047 28.5378 373.585 28.1094C374.123 27.681 374.806 27.4668 375.636 27.4668C376.52 27.4668 377.233 27.6855 377.775 28.123C378.322 28.5605 378.596 29.1279 378.596 29.8252H376.935C376.935 29.5062 376.816 29.2419 376.579 29.0322C376.342 28.818 376.028 28.7109 375.636 28.7109C375.271 28.7109 374.973 28.7952 374.74 28.9639C374.512 29.1325 374.398 29.3581 374.398 29.6406C374.398 29.8958 374.506 30.0941 374.72 30.2354C374.934 30.3766 375.367 30.5202 376.019 30.666C376.67 30.8073 377.181 30.9782 377.55 31.1787C377.924 31.3747 378.199 31.6117 378.377 31.8896C378.559 32.1676 378.65 32.5049 378.65 32.9014C378.65 33.5667 378.375 34.1068 377.823 34.5215C377.272 34.9316 376.549 35.1367 375.656 35.1367C375.05 35.1367 374.51 35.0273 374.036 34.8086C373.562 34.5898 373.193 34.2891 372.929 33.9062C372.664 33.5234 372.532 33.111 372.532 32.6689H374.146C374.168 33.0609 374.316 33.3639 374.59 33.5781C374.863 33.7878 375.226 33.8926 375.677 33.8926C376.114 33.8926 376.447 33.8105 376.675 33.6465C376.903 33.4779 377.017 33.2591 377.017 32.9902ZM383.278 31.2471C383.278 30.1077 383.543 29.194 384.071 28.5059C384.6 27.8132 385.309 27.4668 386.197 27.4668C386.981 27.4668 387.615 27.7402 388.098 28.2871V24.5H389.759V35H388.255L388.173 34.2344C387.676 34.8359 387.013 35.1367 386.184 35.1367C385.318 35.1367 384.616 34.7881 384.078 34.0908C383.545 33.3936 383.278 32.4456 383.278 31.2471ZM384.939 31.3906C384.939 32.1426 385.083 32.7305 385.37 33.1543C385.662 33.5736 386.074 33.7832 386.607 33.7832C387.286 33.7832 387.783 33.4801 388.098 32.874V29.7158C387.792 29.1234 387.3 28.8271 386.621 28.8271C386.083 28.8271 385.669 29.0413 385.377 29.4697C385.085 29.8936 384.939 30.5339 384.939 31.3906ZM394.749 35.1367C393.696 35.1367 392.842 34.8063 392.186 34.1455C391.534 33.4801 391.208 32.596 391.208 31.4932V31.2881C391.208 30.5498 391.349 29.8913 391.632 29.3125C391.919 28.7292 392.32 28.2757 392.835 27.9521C393.35 27.6286 393.924 27.4668 394.558 27.4668C395.565 27.4668 396.342 27.7881 396.889 28.4307C397.44 29.0732 397.716 29.9824 397.716 31.1582V31.8281H392.883C392.933 32.4388 393.136 32.9219 393.491 33.2773C393.851 33.6328 394.302 33.8105 394.845 33.8105C395.606 33.8105 396.226 33.5029 396.704 32.8877L397.6 33.7422C397.303 34.1842 396.907 34.5283 396.41 34.7744C395.918 35.016 395.364 35.1367 394.749 35.1367ZM394.551 28.7998C394.095 28.7998 393.726 28.9593 393.443 29.2783C393.165 29.5973 392.988 30.0417 392.91 30.6113H396.075V30.4883C396.039 29.9323 395.891 29.513 395.631 29.2305C395.371 28.9434 395.011 28.7998 394.551 28.7998ZM405.502 31.377C405.502 32.5254 405.244 33.4391 404.729 34.1182C404.219 34.7972 403.515 35.1367 402.617 35.1367C401.751 35.1367 401.077 34.8245 400.594 34.2002L400.512 35H399.008V24.5H400.669V28.3145C401.147 27.7493 401.792 27.4668 402.604 27.4668C403.506 27.4668 404.215 27.8018 404.729 28.4717C405.244 29.1416 405.502 30.0781 405.502 31.2812V31.377ZM403.841 31.2334C403.841 30.4313 403.7 29.8298 403.417 29.4287C403.134 29.0277 402.724 28.8271 402.187 28.8271C401.466 28.8271 400.961 29.1416 400.669 29.7705V32.8193C400.965 33.4619 401.476 33.7832 402.2 33.7832C402.72 33.7832 403.121 33.5895 403.403 33.2021C403.686 32.8148 403.832 32.2292 403.841 31.4453V31.2334ZM410.157 35.1367C409.104 35.1367 408.25 34.8063 407.594 34.1455C406.942 33.4801 406.616 32.596 406.616 31.4932V31.2881C406.616 30.5498 406.757 29.8913 407.04 29.3125C407.327 28.7292 407.728 28.2757 408.243 27.9521C408.758 27.6286 409.332 27.4668 409.966 27.4668C410.973 27.4668 411.75 27.7881 412.297 28.4307C412.848 29.0732 413.124 29.9824 413.124 31.1582V31.8281H408.291C408.341 32.4388 408.544 32.9219 408.899 33.2773C409.259 33.6328 409.711 33.8105 410.253 33.8105C411.014 33.8105 411.634 33.5029 412.112 32.8877L413.008 33.7422C412.712 34.1842 412.315 34.5283 411.818 34.7744C411.326 35.016 410.772 35.1367 410.157 35.1367ZM409.959 28.7998C409.503 28.7998 409.134 28.9593 408.852 29.2783C408.574 29.5973 408.396 30.0417 408.318 30.6113H411.483V30.4883C411.447 29.9323 411.299 29.513 411.039 29.2305C410.779 28.9434 410.419 28.7998 409.959 28.7998ZM422.052 32.9902C422.052 32.694 421.929 32.4684 421.683 32.3135C421.441 32.1585 421.038 32.0218 420.473 31.9033C419.908 31.7848 419.436 31.6344 419.058 31.4521C418.228 31.0511 417.813 30.4701 417.813 29.709C417.813 29.071 418.082 28.5378 418.62 28.1094C419.158 27.681 419.841 27.4668 420.671 27.4668C421.555 27.4668 422.268 27.6855 422.811 28.123C423.357 28.5605 423.631 29.1279 423.631 29.8252H421.97C421.97 29.5062 421.851 29.2419 421.614 29.0322C421.377 28.818 421.063 28.7109 420.671 28.7109C420.306 28.7109 420.008 28.7952 419.775 28.9639C419.548 29.1325 419.434 29.3581 419.434 29.6406C419.434 29.8958 419.541 30.0941 419.755 30.2354C419.969 30.3766 420.402 30.5202 421.054 30.666C421.705 30.8073 422.216 30.9782 422.585 31.1787C422.959 31.3747 423.234 31.6117 423.412 31.8896C423.594 32.1676 423.686 32.5049 423.686 32.9014C423.686 33.5667 423.41 34.1068 422.858 34.5215C422.307 34.9316 421.585 35.1367 420.691 35.1367C420.085 35.1367 419.545 35.0273 419.071 34.8086C418.597 34.5898 418.228 34.2891 417.964 33.9062C417.7 33.5234 417.567 33.111 417.567 32.6689H419.181C419.203 33.0609 419.352 33.3639 419.625 33.5781C419.898 33.7878 420.261 33.8926 420.712 33.8926C421.149 33.8926 421.482 33.8105 421.71 33.6465C421.938 33.4779 422.052 33.2591 422.052 32.9902ZM428.396 35.1367C427.343 35.1367 426.488 34.8063 425.832 34.1455C425.18 33.4801 424.854 32.596 424.854 31.4932V31.2881C424.854 30.5498 424.996 29.8913 425.278 29.3125C425.565 28.7292 425.966 28.2757 426.481 27.9521C426.996 27.6286 427.571 27.4668 428.204 27.4668C429.211 27.4668 429.988 27.7881 430.535 28.4307C431.087 29.0732 431.362 29.9824 431.362 31.1582V31.8281H426.529C426.579 32.4388 426.782 32.9219 427.138 33.2773C427.498 33.6328 427.949 33.8105 428.491 33.8105C429.252 33.8105 429.872 33.5029 430.351 32.8877L431.246 33.7422C430.95 34.1842 430.553 34.5283 430.057 34.7744C429.564 35.016 429.011 35.1367 428.396 35.1367ZM428.197 28.7998C427.742 28.7998 427.372 28.9593 427.09 29.2783C426.812 29.5973 426.634 30.0417 426.557 30.6113H429.722V30.4883C429.685 29.9323 429.537 29.513 429.277 29.2305C429.018 28.9434 428.658 28.7998 428.197 28.7998ZM436.53 29.1211C436.312 29.0846 436.086 29.0664 435.854 29.0664C435.092 29.0664 434.58 29.3581 434.315 29.9414V35H432.654V27.6035H434.24L434.281 28.4307C434.682 27.7881 435.238 27.4668 435.949 27.4668C436.186 27.4668 436.382 27.4987 436.537 27.5625L436.53 29.1211ZM444.938 29.1211C444.72 29.0846 444.494 29.0664 444.262 29.0664C443.501 29.0664 442.988 29.3581 442.724 29.9414V35H441.062V27.6035H442.648L442.689 28.4307C443.09 27.7881 443.646 27.4668 444.357 27.4668C444.594 27.4668 444.79 27.4987 444.945 27.5625L444.938 29.1211ZM449.108 35.1367C448.056 35.1367 447.201 34.8063 446.545 34.1455C445.893 33.4801 445.567 32.596 445.567 31.4932V31.2881C445.567 30.5498 445.709 29.8913 445.991 29.3125C446.278 28.7292 446.679 28.2757 447.194 27.9521C447.709 27.6286 448.284 27.4668 448.917 27.4668C449.924 27.4668 450.701 27.7881 451.248 28.4307C451.799 29.0732 452.075 29.9824 452.075 31.1582V31.8281H447.242C447.292 32.4388 447.495 32.9219 447.851 33.2773C448.211 33.6328 448.662 33.8105 449.204 33.8105C449.965 33.8105 450.585 33.5029 451.063 32.8877L451.959 33.7422C451.663 34.1842 451.266 34.5283 450.77 34.7744C450.277 35.016 449.724 35.1367 449.108 35.1367ZM448.91 28.7998C448.454 28.7998 448.085 28.9593 447.803 29.2783C447.525 29.5973 447.347 30.0417 447.27 30.6113H450.435V30.4883C450.398 29.9323 450.25 29.513 449.99 29.2305C449.73 28.9434 449.37 28.7998 448.91 28.7998ZM457.79 35C457.717 34.8587 457.653 34.6286 457.599 34.3096C457.07 34.861 456.423 35.1367 455.657 35.1367C454.914 35.1367 454.308 34.9248 453.839 34.501C453.369 34.0771 453.135 33.5531 453.135 32.9287C453.135 32.1403 453.426 31.5365 454.01 31.1172C454.598 30.6934 455.436 30.4814 456.525 30.4814H457.544V29.9961C457.544 29.6133 457.437 29.3079 457.223 29.0801C457.008 28.8477 456.683 28.7314 456.245 28.7314C455.867 28.7314 455.557 28.8271 455.315 29.0186C455.074 29.2054 454.953 29.4447 454.953 29.7363H453.292C453.292 29.3307 453.426 28.9525 453.695 28.6016C453.964 28.2461 454.329 27.9681 454.789 27.7676C455.254 27.5671 455.771 27.4668 456.341 27.4668C457.207 27.4668 457.897 27.6855 458.412 28.123C458.927 28.556 459.191 29.1667 459.205 29.9551V33.291C459.205 33.9564 459.299 34.4873 459.485 34.8838V35H457.79ZM455.965 33.8037C456.293 33.8037 456.601 33.724 456.888 33.5645C457.179 33.4049 457.398 33.1908 457.544 32.9219V31.5273H456.648C456.033 31.5273 455.571 31.6344 455.261 31.8486C454.951 32.0628 454.796 32.3659 454.796 32.7578C454.796 33.0768 454.901 33.332 455.11 33.5234C455.325 33.7103 455.609 33.8037 455.965 33.8037ZM462.712 35H461.051V24.5H462.712V35ZM466.294 35H464.633V27.6035H466.294V35ZM464.53 25.6826C464.53 25.4274 464.61 25.2155 464.77 25.0469C464.934 24.8783 465.166 24.7939 465.467 24.7939C465.768 24.7939 466 24.8783 466.164 25.0469C466.328 25.2155 466.41 25.4274 466.41 25.6826C466.41 25.9333 466.328 26.1429 466.164 26.3115C466 26.4756 465.768 26.5576 465.467 26.5576C465.166 26.5576 464.934 26.4756 464.77 26.3115C464.61 26.1429 464.53 25.9333 464.53 25.6826ZM469.883 33.6738H473.82V35H467.818V33.9131L471.571 28.9434H467.887V27.6035H473.677V28.6562L469.883 33.6738ZM479.569 35C479.496 34.8587 479.433 34.6286 479.378 34.3096C478.849 34.861 478.202 35.1367 477.437 35.1367C476.694 35.1367 476.088 34.9248 475.618 34.501C475.149 34.0771 474.914 33.5531 474.914 32.9287C474.914 32.1403 475.206 31.5365 475.789 31.1172C476.377 30.6934 477.215 30.4814 478.305 30.4814H479.323V29.9961C479.323 29.6133 479.216 29.3079 479.002 29.0801C478.788 28.8477 478.462 28.7314 478.024 28.7314C477.646 28.7314 477.336 28.8271 477.095 29.0186C476.853 29.2054 476.732 29.4447 476.732 29.7363H475.071C475.071 29.3307 475.206 28.9525 475.475 28.6016C475.743 28.2461 476.108 27.9681 476.568 27.7676C477.033 27.5671 477.55 27.4668 478.12 27.4668C478.986 27.4668 479.676 27.6855 480.191 28.123C480.706 28.556 480.971 29.1667 480.984 29.9551V33.291C480.984 33.9564 481.078 34.4873 481.265 34.8838V35H479.569ZM477.744 33.8037C478.072 33.8037 478.38 33.724 478.667 33.5645C478.959 33.4049 479.177 33.1908 479.323 32.9219V31.5273H478.428C477.812 31.5273 477.35 31.6344 477.04 31.8486C476.73 32.0628 476.575 32.3659 476.575 32.7578C476.575 33.0768 476.68 33.332 476.89 33.5234C477.104 33.7103 477.389 33.8037 477.744 33.8037ZM482.413 31.2471C482.413 30.1077 482.677 29.194 483.206 28.5059C483.735 27.8132 484.443 27.4668 485.332 27.4668C486.116 27.4668 486.749 27.7402 487.232 28.2871V24.5H488.894V35H487.39L487.308 34.2344C486.811 34.8359 486.148 35.1367 485.318 35.1367C484.452 35.1367 483.751 34.7881 483.213 34.0908C482.68 33.3936 482.413 32.4456 482.413 31.2471ZM484.074 31.3906C484.074 32.1426 484.218 32.7305 484.505 33.1543C484.797 33.5736 485.209 33.7832 485.742 33.7832C486.421 33.7832 486.918 33.4801 487.232 32.874V29.7158C486.927 29.1234 486.435 28.8271 485.756 28.8271C485.218 28.8271 484.803 29.0413 484.512 29.4697C484.22 29.8936 484.074 30.5339 484.074 31.3906ZM495.046 35C494.973 34.8587 494.909 34.6286 494.854 34.3096C494.326 34.861 493.679 35.1367 492.913 35.1367C492.17 35.1367 491.564 34.9248 491.095 34.501C490.625 34.0771 490.391 33.5531 490.391 32.9287C490.391 32.1403 490.682 31.5365 491.266 31.1172C491.854 30.6934 492.692 30.4814 493.781 30.4814H494.8V29.9961C494.8 29.6133 494.693 29.3079 494.479 29.0801C494.264 28.8477 493.938 28.7314 493.501 28.7314C493.123 28.7314 492.813 28.8271 492.571 29.0186C492.33 29.2054 492.209 29.4447 492.209 29.7363H490.548C490.548 29.3307 490.682 28.9525 490.951 28.6016C491.22 28.2461 491.585 27.9681 492.045 27.7676C492.51 27.5671 493.027 27.4668 493.597 27.4668C494.463 27.4668 495.153 27.6855 495.668 28.123C496.183 28.556 496.447 29.1667 496.461 29.9551V33.291C496.461 33.9564 496.554 34.4873 496.741 34.8838V35H495.046ZM493.221 33.8037C493.549 33.8037 493.856 33.724 494.144 33.5645C494.435 33.4049 494.654 33.1908 494.8 32.9219V31.5273H493.904C493.289 31.5273 492.826 31.6344 492.517 31.8486C492.207 32.0628 492.052 32.3659 492.052 32.7578C492.052 33.0768 492.157 33.332 492.366 33.5234C492.58 33.7103 492.865 33.8037 493.221 33.8037ZM508.164 31.377C508.164 32.5208 507.904 33.4346 507.385 34.1182C506.865 34.7972 506.168 35.1367 505.293 35.1367C504.482 35.1367 503.832 34.8701 503.345 34.3369V37.8438H501.684V27.6035H503.215L503.283 28.3555C503.771 27.763 504.434 27.4668 505.272 27.4668C506.175 27.4668 506.881 27.804 507.392 28.4785C507.907 29.1484 508.164 30.0804 508.164 31.2744V31.377ZM506.51 31.2334C506.51 30.4951 506.362 29.9095 506.065 29.4766C505.774 29.0436 505.354 28.8271 504.808 28.8271C504.129 28.8271 503.641 29.1074 503.345 29.668V32.9492C503.646 33.5234 504.138 33.8105 504.821 33.8105C505.35 33.8105 505.762 33.5986 506.059 33.1748C506.359 32.7464 506.51 32.0993 506.51 31.2334ZM509.265 31.2334C509.265 30.5088 509.408 29.8571 509.695 29.2783C509.982 28.695 510.386 28.2484 510.905 27.9385C511.425 27.624 512.022 27.4668 512.696 27.4668C513.694 27.4668 514.503 27.7881 515.123 28.4307C515.747 29.0732 516.085 29.9255 516.135 30.9873L516.142 31.377C516.142 32.1061 516 32.7578 515.718 33.332C515.44 33.9062 515.039 34.3506 514.515 34.665C513.995 34.9795 513.394 35.1367 512.71 35.1367C511.666 35.1367 510.83 34.7904 510.201 34.0977C509.577 33.4004 509.265 32.473 509.265 31.3154V31.2334ZM510.926 31.377C510.926 32.138 511.083 32.735 511.397 33.168C511.712 33.5964 512.149 33.8105 512.71 33.8105C513.271 33.8105 513.706 33.5918 514.016 33.1543C514.33 32.7168 514.487 32.0765 514.487 31.2334C514.487 30.486 514.326 29.8936 514.002 29.4561C513.683 29.0186 513.248 28.7998 512.696 28.7998C512.154 28.7998 511.723 29.0163 511.404 29.4492C511.085 29.8776 510.926 30.5202 510.926 31.377ZM521.419 29.1211C521.2 29.0846 520.975 29.0664 520.742 29.0664C519.981 29.0664 519.468 29.3581 519.204 29.9414V35H517.543V27.6035H519.129L519.17 28.4307C519.571 27.7881 520.127 27.4668 520.838 27.4668C521.075 27.4668 521.271 27.4987 521.426 27.5625L521.419 29.1211ZM530.101 32.9902C530.101 32.694 529.978 32.4684 529.731 32.3135C529.49 32.1585 529.087 32.0218 528.521 31.9033C527.956 31.7848 527.485 31.6344 527.106 31.4521C526.277 31.0511 525.862 30.4701 525.862 29.709C525.862 29.071 526.131 28.5378 526.669 28.1094C527.207 27.681 527.89 27.4668 528.72 27.4668C529.604 27.4668 530.317 27.6855 530.859 28.123C531.406 28.5605 531.68 29.1279 531.68 29.8252H530.019C530.019 29.5062 529.9 29.2419 529.663 29.0322C529.426 28.818 529.112 28.7109 528.72 28.7109C528.355 28.7109 528.057 28.7952 527.824 28.9639C527.596 29.1325 527.482 29.3581 527.482 29.6406C527.482 29.8958 527.59 30.0941 527.804 30.2354C528.018 30.3766 528.451 30.5202 529.103 30.666C529.754 30.8073 530.265 30.9782 530.634 31.1787C531.007 31.3747 531.283 31.6117 531.461 31.8896C531.643 32.1676 531.734 32.5049 531.734 32.9014C531.734 33.5667 531.459 34.1068 530.907 34.5215C530.356 34.9316 529.633 35.1367 528.74 35.1367C528.134 35.1367 527.594 35.0273 527.12 34.8086C526.646 34.5898 526.277 34.2891 526.013 33.9062C525.748 33.5234 525.616 33.111 525.616 32.6689H527.229C527.252 33.0609 527.4 33.3639 527.674 33.5781C527.947 33.7878 528.31 33.8926 528.761 33.8926C529.198 33.8926 529.531 33.8105 529.759 33.6465C529.987 33.4779 530.101 33.2591 530.101 32.9902ZM537.668 34.2754C537.18 34.8496 536.488 35.1367 535.59 35.1367C534.788 35.1367 534.179 34.902 533.765 34.4326C533.354 33.9632 533.149 33.2842 533.149 32.3955V27.6035H534.811V32.375C534.811 33.3138 535.2 33.7832 535.979 33.7832C536.786 33.7832 537.331 33.4938 537.613 32.915V27.6035H539.274V35H537.709L537.668 34.2754ZM546.015 27.6035L546.062 28.376C546.582 27.7699 547.293 27.4668 548.195 27.4668C549.184 27.4668 549.861 27.8451 550.226 28.6016C550.763 27.8451 551.52 27.4668 552.495 27.4668C553.311 27.4668 553.917 27.6924 554.313 28.1436C554.715 28.5947 554.92 29.2601 554.929 30.1396V35H553.268V30.1875C553.268 29.7181 553.165 29.374 552.96 29.1553C552.755 28.9365 552.415 28.8271 551.941 28.8271C551.563 28.8271 551.253 28.9297 551.012 29.1348C550.775 29.3353 550.608 29.5996 550.513 29.9277L550.52 35H548.858V30.1328C548.836 29.2624 548.391 28.8271 547.525 28.8271C546.86 28.8271 546.388 29.0983 546.11 29.6406V35H544.449V27.6035H546.015ZM559.892 35.1367C558.839 35.1367 557.984 34.8063 557.328 34.1455C556.676 33.4801 556.351 32.596 556.351 31.4932V31.2881C556.351 30.5498 556.492 29.8913 556.774 29.3125C557.062 28.7292 557.463 28.2757 557.978 27.9521C558.493 27.6286 559.067 27.4668 559.7 27.4668C560.707 27.4668 561.484 27.7881 562.031 28.4307C562.583 29.0732 562.858 29.9824 562.858 31.1582V31.8281H558.025C558.076 32.4388 558.278 32.9219 558.634 33.2773C558.994 33.6328 559.445 33.8105 559.987 33.8105C560.748 33.8105 561.368 33.5029 561.847 32.8877L562.742 33.7422C562.446 34.1842 562.049 34.5283 561.553 34.7744C561.061 35.016 560.507 35.1367 559.892 35.1367ZM559.693 28.7998C559.238 28.7998 558.868 28.9593 558.586 29.2783C558.308 29.5973 558.13 30.0417 558.053 30.6113H561.218V30.4883C561.181 29.9323 561.033 29.513 560.773 29.2305C560.514 28.9434 560.154 28.7998 559.693 28.7998ZM560.069 24.5H561.963L560.069 26.5713H558.736L560.069 24.5ZM563.843 31.2471C563.843 30.1077 564.107 29.194 564.636 28.5059C565.164 27.8132 565.873 27.4668 566.762 27.4668C567.546 27.4668 568.179 27.7402 568.662 28.2871V24.5H570.323V35H568.819L568.737 34.2344C568.241 34.8359 567.577 35.1367 566.748 35.1367C565.882 35.1367 565.18 34.7881 564.643 34.0908C564.109 33.3936 563.843 32.4456 563.843 31.2471ZM565.504 31.3906C565.504 32.1426 565.647 32.7305 565.935 33.1543C566.226 33.5736 566.639 33.7832 567.172 33.7832C567.851 33.7832 568.348 33.4801 568.662 32.874V29.7158C568.357 29.1234 567.865 28.8271 567.186 28.8271C566.648 28.8271 566.233 29.0413 565.941 29.4697C565.65 29.8936 565.504 30.5339 565.504 31.3906ZM573.823 35H572.162V27.6035H573.823V35ZM572.06 25.6826C572.06 25.4274 572.139 25.2155 572.299 25.0469C572.463 24.8783 572.695 24.7939 572.996 24.7939C573.297 24.7939 573.529 24.8783 573.693 25.0469C573.857 25.2155 573.939 25.4274 573.939 25.6826C573.939 25.9333 573.857 26.1429 573.693 26.3115C573.529 26.4756 573.297 26.5576 572.996 26.5576C572.695 26.5576 572.463 26.4756 572.299 26.3115C572.139 26.1429 572.06 25.9333 572.06 25.6826ZM578.677 33.8105C579.091 33.8105 579.436 33.6898 579.709 33.4482C579.982 33.2067 580.128 32.9082 580.146 32.5527H581.712C581.694 33.013 581.55 33.4437 581.281 33.8447C581.012 34.2412 580.648 34.5557 580.188 34.7881C579.727 35.0205 579.23 35.1367 578.697 35.1367C577.663 35.1367 576.842 34.8018 576.236 34.1318C575.63 33.4619 575.327 32.5368 575.327 31.3564V31.1855C575.327 30.0599 575.628 29.1598 576.229 28.4854C576.831 27.8063 577.651 27.4668 578.69 27.4668C579.57 27.4668 580.285 27.7243 580.837 28.2393C581.393 28.7497 581.685 29.4219 581.712 30.2559H580.146C580.128 29.832 579.982 29.4834 579.709 29.21C579.44 28.9365 579.096 28.7998 578.677 28.7998C578.139 28.7998 577.724 28.9958 577.433 29.3877C577.141 29.7751 576.993 30.3652 576.988 31.1582V31.4248C576.988 32.2269 577.132 32.8262 577.419 33.2227C577.711 33.6146 578.13 33.8105 578.677 33.8105ZM582.655 31.2334C582.655 30.5088 582.799 29.8571 583.086 29.2783C583.373 28.695 583.776 28.2484 584.296 27.9385C584.815 27.624 585.412 27.4668 586.087 27.4668C587.085 27.4668 587.894 27.7881 588.514 28.4307C589.138 29.0732 589.475 29.9255 589.525 30.9873L589.532 31.377C589.532 32.1061 589.391 32.7578 589.108 33.332C588.83 33.9062 588.429 34.3506 587.905 34.665C587.386 34.9795 586.784 35.1367 586.101 35.1367C585.057 35.1367 584.221 34.7904 583.592 34.0977C582.967 33.4004 582.655 32.473 582.655 31.3154V31.2334ZM584.316 31.377C584.316 32.138 584.474 32.735 584.788 33.168C585.103 33.5964 585.54 33.8105 586.101 33.8105C586.661 33.8105 587.096 33.5918 587.406 33.1543C587.721 32.7168 587.878 32.0765 587.878 31.2334C587.878 30.486 587.716 29.8936 587.393 29.4561C587.074 29.0186 586.638 28.7998 586.087 28.7998C585.545 28.7998 585.114 29.0163 584.795 29.4492C584.476 29.8776 584.316 30.5202 584.316 31.377ZM596.505 25.8057V27.6035H597.811V28.834H596.505V32.9629C596.505 33.2454 596.56 33.4505 596.669 33.5781C596.783 33.7012 596.983 33.7627 597.271 33.7627C597.462 33.7627 597.656 33.7399 597.852 33.6943V34.9795C597.473 35.0843 597.109 35.1367 596.758 35.1367C595.482 35.1367 594.844 34.4326 594.844 33.0244V28.834H593.627V27.6035H594.844V25.8057H596.505ZM602.958 29.1211C602.739 29.0846 602.514 29.0664 602.281 29.0664C601.52 29.0664 601.007 29.3581 600.743 29.9414V35H599.082V27.6035H600.668L600.709 28.4307C601.11 27.7881 601.666 27.4668 602.377 27.4668C602.614 27.4668 602.81 27.4987 602.965 27.5625L602.958 29.1211ZM608.222 35C608.149 34.8587 608.085 34.6286 608.03 34.3096C607.502 34.861 606.854 35.1367 606.089 35.1367C605.346 35.1367 604.74 34.9248 604.271 34.501C603.801 34.0771 603.566 33.5531 603.566 32.9287C603.566 32.1403 603.858 31.5365 604.441 31.1172C605.029 30.6934 605.868 30.4814 606.957 30.4814H607.976V29.9961C607.976 29.6133 607.868 29.3079 607.654 29.0801C607.44 28.8477 607.114 28.7314 606.677 28.7314C606.299 28.7314 605.989 28.8271 605.747 29.0186C605.506 29.2054 605.385 29.4447 605.385 29.7363H603.724C603.724 29.3307 603.858 28.9525 604.127 28.6016C604.396 28.2461 604.76 27.9681 605.221 27.7676C605.686 27.5671 606.203 27.4668 606.772 27.4668C607.638 27.4668 608.329 27.6855 608.844 28.123C609.359 28.556 609.623 29.1667 609.637 29.9551V33.291C609.637 33.9564 609.73 34.4873 609.917 34.8838V35H608.222ZM606.396 33.8037C606.725 33.8037 607.032 33.724 607.319 33.5645C607.611 33.4049 607.83 33.1908 607.976 32.9219V31.5273H607.08C606.465 31.5273 606.002 31.6344 605.692 31.8486C605.382 32.0628 605.228 32.3659 605.228 32.7578C605.228 33.0768 605.332 33.332 605.542 33.5234C605.756 33.7103 606.041 33.8037 606.396 33.8037ZM613.458 25.8057V27.6035H614.764V28.834H613.458V32.9629C613.458 33.2454 613.513 33.4505 613.622 33.5781C613.736 33.7012 613.937 33.7627 614.224 33.7627C614.415 33.7627 614.609 33.7399 614.805 33.6943V34.9795C614.426 35.0843 614.062 35.1367 613.711 35.1367C612.435 35.1367 611.797 34.4326 611.797 33.0244V28.834H610.58V27.6035H611.797V25.8057H613.458ZM620.458 35C620.385 34.8587 620.321 34.6286 620.267 34.3096C619.738 34.861 619.091 35.1367 618.325 35.1367C617.582 35.1367 616.976 34.9248 616.507 34.501C616.037 34.0771 615.803 33.5531 615.803 32.9287C615.803 32.1403 616.094 31.5365 616.678 31.1172C617.266 30.6934 618.104 30.4814 619.193 30.4814H620.212V29.9961C620.212 29.6133 620.105 29.3079 619.891 29.0801C619.676 28.8477 619.351 28.7314 618.913 28.7314C618.535 28.7314 618.225 28.8271 617.983 29.0186C617.742 29.2054 617.621 29.4447 617.621 29.7363H615.96C615.96 29.3307 616.094 28.9525 616.363 28.6016C616.632 28.2461 616.997 27.9681 617.457 27.7676C617.922 27.5671 618.439 27.4668 619.009 27.4668C619.875 27.4668 620.565 27.6855 621.08 28.123C621.595 28.556 621.859 29.1667 621.873 29.9551V33.291C621.873 33.9564 621.966 34.4873 622.153 34.8838V35H620.458ZM618.633 33.8037C618.961 33.8037 619.269 33.724 619.556 33.5645C619.847 33.4049 620.066 33.1908 620.212 32.9219V31.5273H619.316C618.701 31.5273 618.239 31.6344 617.929 31.8486C617.619 32.0628 617.464 32.3659 617.464 32.7578C617.464 33.0768 617.569 33.332 617.778 33.5234C617.993 33.7103 618.277 33.8037 618.633 33.8037ZM625.154 27.6035L625.202 28.458C625.749 27.7972 626.467 27.4668 627.355 27.4668C628.896 27.4668 629.68 28.3486 629.707 30.1123V35H628.046V30.208C628.046 29.7386 627.943 29.3923 627.738 29.1689C627.538 28.9411 627.207 28.8271 626.747 28.8271C626.077 28.8271 625.578 29.1302 625.25 29.7363V35H623.589V27.6035H625.154ZM633.487 25.8057V27.6035H634.793V28.834H633.487V32.9629C633.487 33.2454 633.542 33.4505 633.651 33.5781C633.765 33.7012 633.966 33.7627 634.253 33.7627C634.444 33.7627 634.638 33.7399 634.834 33.6943V34.9795C634.456 35.0843 634.091 35.1367 633.74 35.1367C632.464 35.1367 631.826 34.4326 631.826 33.0244V28.834H630.609V27.6035H631.826V25.8057H633.487ZM639.325 35.1367C638.272 35.1367 637.418 34.8063 636.762 34.1455C636.11 33.4801 635.784 32.596 635.784 31.4932V31.2881C635.784 30.5498 635.925 29.8913 636.208 29.3125C636.495 28.7292 636.896 28.2757 637.411 27.9521C637.926 27.6286 638.5 27.4668 639.134 27.4668C640.141 27.4668 640.918 27.7881 641.465 28.4307C642.016 29.0732 642.292 29.9824 642.292 31.1582V31.8281H637.459C637.509 32.4388 637.712 32.9219 638.067 33.2773C638.427 33.6328 638.879 33.8105 639.421 33.8105C640.182 33.8105 640.802 33.5029 641.28 32.8877L642.176 33.7422C641.88 34.1842 641.483 34.5283 640.986 34.7744C640.494 35.016 639.94 35.1367 639.325 35.1367ZM639.127 28.7998C638.671 28.7998 638.302 28.9593 638.02 29.2783C637.742 29.5973 637.564 30.0417 637.486 30.6113H640.651V30.4883C640.615 29.9323 640.467 29.513 640.207 29.2305C639.947 28.9434 639.587 28.7998 639.127 28.7998ZM643.823 37.2422L642.928 36.709C643.192 36.2943 643.372 35.932 643.468 35.6221C643.568 35.3167 643.62 35.0046 643.625 34.6855V33.3936H645.122L645.115 34.5898C645.111 35.0729 644.988 35.556 644.746 36.0391C644.509 36.5267 644.201 36.9277 643.823 37.2422ZM649.839 31.2402C649.839 30.0827 650.103 29.1644 650.632 28.4854C651.16 27.8063 651.876 27.4668 652.778 27.4668C653.603 27.4668 654.257 27.7562 654.74 28.335L654.836 27.6035H656.312V37.8438H654.651V34.3711C654.168 34.8815 653.539 35.1367 652.765 35.1367C651.881 35.1367 651.172 34.7926 650.639 34.1045C650.105 33.4118 649.839 32.457 649.839 31.2402ZM651.5 31.3838C651.5 32.1403 651.648 32.735 651.944 33.168C652.245 33.5964 652.66 33.8105 653.188 33.8105C653.845 33.8105 654.332 33.5303 654.651 32.9697V29.6064C654.332 29.0687 653.849 28.7998 653.202 28.7998C652.674 28.7998 652.257 29.0117 651.951 29.4355C651.65 29.8594 651.5 30.5088 651.5 31.3838ZM662.588 34.2754C662.1 34.8496 661.408 35.1367 660.51 35.1367C659.708 35.1367 659.099 34.902 658.685 34.4326C658.274 33.9632 658.069 33.2842 658.069 32.3955V27.6035H659.73V32.375C659.73 33.3138 660.12 33.7832 660.899 33.7832C661.706 33.7832 662.251 33.4938 662.533 32.915V27.6035H664.194V35H662.629L662.588 34.2754ZM667.653 35H665.992V27.6035H667.653V35ZM665.89 25.6826C665.89 25.4274 665.969 25.2155 666.129 25.0469C666.293 24.8783 666.525 24.7939 666.826 24.7939C667.127 24.7939 667.359 24.8783 667.523 25.0469C667.688 25.2155 667.77 25.4274 667.77 25.6826C667.77 25.9333 667.688 26.1429 667.523 26.3115C667.359 26.4756 667.127 26.5576 666.826 26.5576C666.525 26.5576 666.293 26.4756 666.129 26.3115C665.969 26.1429 665.89 25.9333 665.89 25.6826ZM672.726 35.1367C671.673 35.1367 670.818 34.8063 670.162 34.1455C669.51 33.4801 669.185 32.596 669.185 31.4932V31.2881C669.185 30.5498 669.326 29.8913 669.608 29.3125C669.896 28.7292 670.297 28.2757 670.812 27.9521C671.326 27.6286 671.901 27.4668 672.534 27.4668C673.541 27.4668 674.318 27.7881 674.865 28.4307C675.417 29.0732 675.692 29.9824 675.692 31.1582V31.8281H670.859C670.91 32.4388 671.112 32.9219 671.468 33.2773C671.828 33.6328 672.279 33.8105 672.821 33.8105C673.582 33.8105 674.202 33.5029 674.681 32.8877L675.576 33.7422C675.28 34.1842 674.883 34.5283 674.387 34.7744C673.895 35.016 673.341 35.1367 672.726 35.1367ZM672.527 28.7998C672.072 28.7998 671.702 28.9593 671.42 29.2783C671.142 29.5973 670.964 30.0417 670.887 30.6113H674.052V30.4883C674.015 29.9323 673.867 29.513 673.607 29.2305C673.348 28.9434 672.988 28.7998 672.527 28.7998ZM678.529 27.6035L678.577 28.458C679.124 27.7972 679.842 27.4668 680.73 27.4668C682.271 27.4668 683.055 28.3486 683.082 30.1123V35H681.421V30.208C681.421 29.7386 681.318 29.3923 681.113 29.1689C680.913 28.9411 680.582 28.8271 680.122 28.8271C679.452 28.8271 678.953 29.1302 678.625 29.7363V35H676.964V27.6035H678.529ZM321.857 47.2471C321.857 46.1077 322.122 45.194 322.65 44.5059C323.179 43.8132 323.888 43.4668 324.776 43.4668C325.56 43.4668 326.194 43.7402 326.677 44.2871V40.5H328.338V51H326.834L326.752 50.2344C326.255 50.8359 325.592 51.1367 324.763 51.1367C323.897 51.1367 323.195 50.7881 322.657 50.0908C322.124 49.3936 321.857 48.4456 321.857 47.2471ZM323.519 47.3906C323.519 48.1426 323.662 48.7305 323.949 49.1543C324.241 49.5736 324.653 49.7832 325.187 49.7832C325.866 49.7832 326.362 49.4801 326.677 48.874V45.7158C326.371 45.1234 325.879 44.8271 325.2 44.8271C324.662 44.8271 324.248 45.0413 323.956 45.4697C323.664 45.8936 323.519 46.5339 323.519 47.3906ZM333.328 51.1367C332.275 51.1367 331.421 50.8063 330.765 50.1455C330.113 49.4801 329.787 48.596 329.787 47.4932V47.2881C329.787 46.5498 329.928 45.8913 330.211 45.3125C330.498 44.7292 330.899 44.2757 331.414 43.9521C331.929 43.6286 332.503 43.4668 333.137 43.4668C334.144 43.4668 334.921 43.7881 335.468 44.4307C336.019 45.0732 336.295 45.9824 336.295 47.1582V47.8281H331.462C331.512 48.4388 331.715 48.9219 332.07 49.2773C332.43 49.6328 332.882 49.8105 333.424 49.8105C334.185 49.8105 334.805 49.5029 335.283 48.8877L336.179 49.7422C335.882 50.1842 335.486 50.5283 334.989 50.7744C334.497 51.016 333.943 51.1367 333.328 51.1367ZM333.13 44.7998C332.674 44.7998 332.305 44.9593 332.022 45.2783C331.744 45.5973 331.567 46.0417 331.489 46.6113H334.654V46.4883C334.618 45.9323 334.47 45.513 334.21 45.2305C333.95 44.9434 333.59 44.7998 333.13 44.7998ZM338.031 51V44.834H336.903V43.6035H338.031V43.0977C338.036 42.5189 338.159 42.0221 338.4 41.6074C338.642 41.1927 338.984 40.8805 339.426 40.6709C339.868 40.4613 340.399 40.3564 341.019 40.3564C341.383 40.3564 341.732 40.3952 342.064 40.4727C342.402 40.5501 342.75 40.6481 343.11 40.7666L342.857 42.1406C342.229 41.9219 341.654 41.8125 341.135 41.8125C340.629 41.8125 340.262 41.9242 340.034 42.1475C339.806 42.3662 339.692 42.6966 339.692 43.1387V43.6035H341.148V44.834H339.692V51H338.031ZM343.896 51H342.235V43.6035H343.896V51ZM347.28 43.6035L347.328 44.458C347.875 43.7972 348.593 43.4668 349.481 43.4668C351.022 43.4668 351.806 44.3486 351.833 46.1123V51H350.172V46.208C350.172 45.7386 350.069 45.3923 349.864 45.1689C349.664 44.9411 349.333 44.8271 348.873 44.8271C348.203 44.8271 347.704 45.1302 347.376 45.7363V51H345.715V43.6035H347.28ZM355.299 51H353.638V43.6035H355.299V51ZM353.535 41.6826C353.535 41.4274 353.615 41.2155 353.774 41.0469C353.938 40.8783 354.171 40.7939 354.472 40.7939C354.772 40.7939 355.005 40.8783 355.169 41.0469C355.333 41.2155 355.415 41.4274 355.415 41.6826C355.415 41.9333 355.333 42.1429 355.169 42.3115C355.005 42.4756 354.772 42.5576 354.472 42.5576C354.171 42.5576 353.938 42.4756 353.774 42.3115C353.615 42.1429 353.535 41.9333 353.535 41.6826ZM360.986 45.1211C360.768 45.0846 360.542 45.0664 360.31 45.0664C359.549 45.0664 359.036 45.3581 358.771 45.9414V51H357.11V43.6035H358.696L358.737 44.4307C359.138 43.7881 359.694 43.4668 360.405 43.4668C360.642 43.4668 360.838 43.4987 360.993 43.5625L360.986 45.1211ZM366.25 51C366.177 50.8587 366.113 50.6286 366.059 50.3096C365.53 50.861 364.883 51.1367 364.117 51.1367C363.374 51.1367 362.768 50.9248 362.299 50.501C361.829 50.0771 361.595 49.5531 361.595 48.9287C361.595 48.1403 361.886 47.5365 362.47 47.1172C363.058 46.6934 363.896 46.4814 364.985 46.4814H366.004V45.9961C366.004 45.6133 365.897 45.3079 365.683 45.0801C365.468 44.8477 365.143 44.7314 364.705 44.7314C364.327 44.7314 364.017 44.8271 363.775 45.0186C363.534 45.2054 363.413 45.4447 363.413 45.7363H361.752C361.752 45.3307 361.886 44.9525 362.155 44.6016C362.424 44.2461 362.789 43.9681 363.249 43.7676C363.714 43.5671 364.231 43.4668 364.801 43.4668C365.667 43.4668 366.357 43.6855 366.872 44.123C367.387 44.556 367.651 45.1667 367.665 45.9551V49.291C367.665 49.9564 367.758 50.4873 367.945 50.8838V51H366.25ZM364.425 49.8037C364.753 49.8037 365.061 49.724 365.348 49.5645C365.639 49.4049 365.858 49.1908 366.004 48.9219V47.5273H365.108C364.493 47.5273 364.031 47.6344 363.721 47.8486C363.411 48.0628 363.256 48.3659 363.256 48.7578C363.256 49.0768 363.361 49.332 363.57 49.5234C363.785 49.7103 364.069 49.8037 364.425 49.8037ZM365.348 40.5H367.241L365.348 42.5713H364.015L365.348 40.5ZM374.658 51H372.997V40.5H374.658V51ZM380.893 51C380.82 50.8587 380.756 50.6286 380.701 50.3096C380.173 50.861 379.525 51.1367 378.76 51.1367C378.017 51.1367 377.411 50.9248 376.941 50.501C376.472 50.0771 376.237 49.5531 376.237 48.9287C376.237 48.1403 376.529 47.5365 377.112 47.1172C377.7 46.6934 378.539 46.4814 379.628 46.4814H380.646V45.9961C380.646 45.6133 380.539 45.3079 380.325 45.0801C380.111 44.8477 379.785 44.7314 379.348 44.7314C378.969 44.7314 378.66 44.8271 378.418 45.0186C378.176 45.2054 378.056 45.4447 378.056 45.7363H376.395C376.395 45.3307 376.529 44.9525 376.798 44.6016C377.067 44.2461 377.431 43.9681 377.892 43.7676C378.356 43.5671 378.874 43.4668 379.443 43.4668C380.309 43.4668 381 43.6855 381.515 44.123C382.03 44.556 382.294 45.1667 382.308 45.9551V49.291C382.308 49.9564 382.401 50.4873 382.588 50.8838V51H380.893ZM379.067 49.8037C379.396 49.8037 379.703 49.724 379.99 49.5645C380.282 49.4049 380.501 49.1908 380.646 48.9219V47.5273H379.751C379.136 47.5273 378.673 47.6344 378.363 47.8486C378.053 48.0628 377.898 48.3659 377.898 48.7578C377.898 49.0768 378.003 49.332 378.213 49.5234C378.427 49.7103 378.712 49.8037 379.067 49.8037ZM300.598 65.8105C301.012 65.8105 301.356 65.6898 301.63 65.4482C301.903 65.2067 302.049 64.9082 302.067 64.5527H303.633C303.615 65.013 303.471 65.4437 303.202 65.8447C302.933 66.2412 302.569 66.5557 302.108 66.7881C301.648 67.0205 301.151 67.1367 300.618 67.1367C299.584 67.1367 298.763 66.8018 298.157 66.1318C297.551 65.4619 297.248 64.5368 297.248 63.3564V63.1855C297.248 62.0599 297.549 61.1598 298.15 60.4854C298.752 59.8063 299.572 59.4668 300.611 59.4668C301.491 59.4668 302.206 59.7243 302.758 60.2393C303.314 60.7497 303.605 61.4219 303.633 62.2559H302.067C302.049 61.832 301.903 61.4834 301.63 61.21C301.361 60.9365 301.017 60.7998 300.598 60.7998C300.06 60.7998 299.645 60.9958 299.354 61.3877C299.062 61.7751 298.914 62.3652 298.909 63.1582V63.4248C298.909 64.2269 299.053 64.8262 299.34 65.2227C299.632 65.6146 300.051 65.8105 300.598 65.8105ZM304.576 63.2334C304.576 62.5088 304.72 61.8571 305.007 61.2783C305.294 60.695 305.697 60.2484 306.217 59.9385C306.736 59.624 307.333 59.4668 308.008 59.4668C309.006 59.4668 309.815 59.7881 310.435 60.4307C311.059 61.0732 311.396 61.9255 311.446 62.9873L311.453 63.377C311.453 64.1061 311.312 64.7578 311.029 65.332C310.751 65.9062 310.35 66.3506 309.826 66.665C309.307 66.9795 308.705 67.1367 308.021 67.1367C306.978 67.1367 306.142 66.7904 305.513 66.0977C304.888 65.4004 304.576 64.473 304.576 63.3154V63.2334ZM306.237 63.377C306.237 64.138 306.395 64.735 306.709 65.168C307.023 65.5964 307.461 65.8105 308.021 65.8105C308.582 65.8105 309.017 65.5918 309.327 65.1543C309.642 64.7168 309.799 64.0765 309.799 63.2334C309.799 62.486 309.637 61.8936 309.313 61.4561C308.994 61.0186 308.559 60.7998 308.008 60.7998C307.465 60.7998 307.035 61.0163 306.716 61.4492C306.397 61.8776 306.237 62.5202 306.237 63.377ZM314.399 59.6035L314.447 60.458C314.994 59.7972 315.712 59.4668 316.601 59.4668C318.141 59.4668 318.925 60.3486 318.952 62.1123V67H317.291V62.208C317.291 61.7386 317.188 61.3923 316.983 61.1689C316.783 60.9411 316.452 60.8271 315.992 60.8271C315.322 60.8271 314.823 61.1302 314.495 61.7363V67H312.834V59.6035H314.399ZM320.34 63.2471C320.34 62.1077 320.604 61.194 321.133 60.5059C321.661 59.8132 322.37 59.4668 323.259 59.4668C324.043 59.4668 324.676 59.7402 325.159 60.2871V56.5H326.82V67H325.316L325.234 66.2344C324.738 66.8359 324.075 67.1367 323.245 67.1367C322.379 67.1367 321.677 66.7881 321.14 66.0908C320.606 65.3936 320.34 64.4456 320.34 63.2471ZM322.001 63.3906C322.001 64.1426 322.145 64.7305 322.432 65.1543C322.723 65.5736 323.136 65.7832 323.669 65.7832C324.348 65.7832 324.845 65.4801 325.159 64.874V61.7158C324.854 61.1234 324.362 60.8271 323.683 60.8271C323.145 60.8271 322.73 61.0413 322.438 61.4697C322.147 61.8936 322.001 62.5339 322.001 63.3906ZM333.034 66.2754C332.547 66.8496 331.854 67.1367 330.956 67.1367C330.154 67.1367 329.546 66.902 329.131 66.4326C328.721 65.9632 328.516 65.2842 328.516 64.3955V59.6035H330.177V64.375C330.177 65.3138 330.566 65.7832 331.346 65.7832C332.152 65.7832 332.697 65.4938 332.979 64.915V59.6035H334.641V67H333.075L333.034 66.2754ZM339.371 65.8105C339.786 65.8105 340.13 65.6898 340.403 65.4482C340.677 65.2067 340.823 64.9082 340.841 64.5527H342.406C342.388 65.013 342.244 65.4437 341.976 65.8447C341.707 66.2412 341.342 66.5557 340.882 66.7881C340.422 67.0205 339.925 67.1367 339.392 67.1367C338.357 67.1367 337.537 66.8018 336.931 66.1318C336.325 65.4619 336.021 64.5368 336.021 63.3564V63.1855C336.021 62.0599 336.322 61.1598 336.924 60.4854C337.525 59.8063 338.346 59.4668 339.385 59.4668C340.264 59.4668 340.98 59.7243 341.531 60.2393C342.087 60.7497 342.379 61.4219 342.406 62.2559H340.841C340.823 61.832 340.677 61.4834 340.403 61.21C340.134 60.9365 339.79 60.7998 339.371 60.7998C338.833 60.7998 338.419 60.9958 338.127 61.3877C337.835 61.7751 337.687 62.3652 337.683 63.1582V63.4248C337.683 64.2269 337.826 64.8262 338.113 65.2227C338.405 65.6146 338.824 65.8105 339.371 65.8105ZM345.742 57.8057V59.6035H347.048V60.834H345.742V64.9629C345.742 65.2454 345.797 65.4505 345.906 65.5781C346.02 65.7012 346.221 65.7627 346.508 65.7627C346.699 65.7627 346.893 65.7399 347.089 65.6943V66.9795C346.711 67.0843 346.346 67.1367 345.995 67.1367C344.719 67.1367 344.081 66.4326 344.081 65.0244V60.834H342.864V59.6035H344.081V57.8057H345.742ZM352.742 67C352.669 66.8587 352.605 66.6286 352.551 66.3096C352.022 66.861 351.375 67.1367 350.609 67.1367C349.867 67.1367 349.26 66.9248 348.791 66.501C348.322 66.0771 348.087 65.5531 348.087 64.9287C348.087 64.1403 348.379 63.5365 348.962 63.1172C349.55 62.6934 350.388 62.4814 351.478 62.4814H352.496V61.9961C352.496 61.6133 352.389 61.3079 352.175 61.0801C351.961 60.8477 351.635 60.7314 351.197 60.7314C350.819 60.7314 350.509 60.8271 350.268 61.0186C350.026 61.2054 349.905 61.4447 349.905 61.7363H348.244C348.244 61.3307 348.379 60.9525 348.647 60.6016C348.916 60.2461 349.281 59.9681 349.741 59.7676C350.206 59.5671 350.723 59.4668 351.293 59.4668C352.159 59.4668 352.849 59.6855 353.364 60.123C353.879 60.556 354.144 61.1667 354.157 61.9551V65.291C354.157 65.9564 354.251 66.4873 354.438 66.8838V67H352.742ZM350.917 65.8037C351.245 65.8037 351.553 65.724 351.84 65.5645C352.132 65.4049 352.35 65.1908 352.496 64.9219V63.5273H351.601C350.985 63.5273 350.523 63.6344 350.213 63.8486C349.903 64.0628 349.748 64.3659 349.748 64.7578C349.748 65.0768 349.853 65.332 350.062 65.5234C350.277 65.7103 350.562 65.8037 350.917 65.8037ZM363.803 67C363.73 66.8587 363.666 66.6286 363.611 66.3096C363.083 66.861 362.436 67.1367 361.67 67.1367C360.927 67.1367 360.321 66.9248 359.852 66.501C359.382 66.0771 359.147 65.5531 359.147 64.9287C359.147 64.1403 359.439 63.5365 360.022 63.1172C360.61 62.6934 361.449 62.4814 362.538 62.4814H363.557V61.9961C363.557 61.6133 363.45 61.3079 363.235 61.0801C363.021 60.8477 362.695 60.7314 362.258 60.7314C361.88 60.7314 361.57 60.8271 361.328 61.0186C361.087 61.2054 360.966 61.4447 360.966 61.7363H359.305C359.305 61.3307 359.439 60.9525 359.708 60.6016C359.977 60.2461 360.341 59.9681 360.802 59.7676C361.267 59.5671 361.784 59.4668 362.354 59.4668C363.219 59.4668 363.91 59.6855 364.425 60.123C364.94 60.556 365.204 61.1667 365.218 61.9551V65.291C365.218 65.9564 365.311 66.4873 365.498 66.8838V67H363.803ZM361.978 65.8037C362.306 65.8037 362.613 65.724 362.9 65.5645C363.192 65.4049 363.411 65.1908 363.557 64.9219V63.5273H362.661C362.046 63.5273 361.583 63.6344 361.273 63.8486C360.964 64.0628 360.809 64.3659 360.809 64.7578C360.809 65.0768 360.913 65.332 361.123 65.5234C361.337 65.7103 361.622 65.8037 361.978 65.8037ZM374.59 64.9902C374.59 64.694 374.467 64.4684 374.221 64.3135C373.979 64.1585 373.576 64.0218 373.011 63.9033C372.446 63.7848 371.974 63.6344 371.596 63.4521C370.766 63.0511 370.352 62.4701 370.352 61.709C370.352 61.071 370.62 60.5378 371.158 60.1094C371.696 59.681 372.38 59.4668 373.209 59.4668C374.093 59.4668 374.806 59.6855 375.349 60.123C375.896 60.5605 376.169 61.1279 376.169 61.8252H374.508C374.508 61.5062 374.389 61.2419 374.152 61.0322C373.915 60.818 373.601 60.7109 373.209 60.7109C372.844 60.7109 372.546 60.7952 372.313 60.9639C372.086 61.1325 371.972 61.3581 371.972 61.6406C371.972 61.8958 372.079 62.0941 372.293 62.2354C372.507 62.3766 372.94 62.5202 373.592 62.666C374.243 62.8073 374.754 62.9782 375.123 63.1787C375.497 63.3747 375.772 63.6117 375.95 63.8896C376.132 64.1676 376.224 64.5049 376.224 64.9014C376.224 65.5667 375.948 66.1068 375.396 66.5215C374.845 66.9316 374.123 67.1367 373.229 67.1367C372.623 67.1367 372.083 67.0273 371.609 66.8086C371.135 66.5898 370.766 66.2891 370.502 65.9062C370.238 65.5234 370.105 65.111 370.105 64.6689H371.719C371.742 65.0609 371.89 65.3639 372.163 65.5781C372.437 65.7878 372.799 65.8926 373.25 65.8926C373.688 65.8926 374.02 65.8105 374.248 65.6465C374.476 65.4779 374.59 65.2591 374.59 64.9902ZM380.934 67.1367C379.881 67.1367 379.026 66.8063 378.37 66.1455C377.718 65.4801 377.393 64.596 377.393 63.4932V63.2881C377.393 62.5498 377.534 61.8913 377.816 61.3125C378.104 60.7292 378.505 60.2757 379.02 59.9521C379.535 59.6286 380.109 59.4668 380.742 59.4668C381.749 59.4668 382.526 59.7881 383.073 60.4307C383.625 61.0732 383.9 61.9824 383.9 63.1582V63.8281H379.067C379.118 64.4388 379.32 64.9219 379.676 65.2773C380.036 65.6328 380.487 65.8105 381.029 65.8105C381.79 65.8105 382.41 65.5029 382.889 64.8877L383.784 65.7422C383.488 66.1842 383.091 66.5283 382.595 66.7744C382.103 67.016 381.549 67.1367 380.934 67.1367ZM380.735 60.7998C380.28 60.7998 379.91 60.9593 379.628 61.2783C379.35 61.5973 379.172 62.0417 379.095 62.6113H382.26V62.4883C382.223 61.9323 382.075 61.513 381.815 61.2305C381.556 60.9434 381.196 60.7998 380.735 60.7998ZM384.905 63.2471C384.905 62.0986 385.174 61.1826 385.712 60.499C386.254 59.8109 386.972 59.4668 387.865 59.4668C388.708 59.4668 389.371 59.7607 389.854 60.3486L389.93 59.6035H391.427V66.7744C391.427 67.7451 391.124 68.5107 390.518 69.0713C389.916 69.6318 389.103 69.9121 388.077 69.9121C387.535 69.9121 387.004 69.7982 386.484 69.5703C385.969 69.347 385.577 69.0531 385.309 68.6885L386.095 67.6904C386.605 68.2965 387.234 68.5996 387.981 68.5996C388.533 68.5996 388.968 68.4492 389.287 68.1484C389.606 67.8522 389.766 67.4147 389.766 66.8359V66.3369C389.287 66.8701 388.649 67.1367 387.852 67.1367C386.986 67.1367 386.277 66.7926 385.726 66.1045C385.179 65.4163 384.905 64.4639 384.905 63.2471ZM386.56 63.3906C386.56 64.1335 386.71 64.7191 387.011 65.1475C387.316 65.5713 387.738 65.7832 388.275 65.7832C388.945 65.7832 389.442 65.4961 389.766 64.9219V61.668C389.451 61.1074 388.959 60.8271 388.289 60.8271C387.742 60.8271 387.316 61.0436 387.011 61.4766C386.71 61.9095 386.56 62.5475 386.56 63.3906ZM397.62 66.2754C397.132 66.8496 396.44 67.1367 395.542 67.1367C394.74 67.1367 394.132 66.902 393.717 66.4326C393.307 65.9632 393.102 65.2842 393.102 64.3955V59.6035H394.763V64.375C394.763 65.3138 395.152 65.7832 395.932 65.7832C396.738 65.7832 397.283 65.4938 397.565 64.915V59.6035H399.227V67H397.661L397.62 66.2754ZM402.686 67H401.024V59.6035H402.686V67ZM400.922 57.6826C400.922 57.4274 401.002 57.2155 401.161 57.0469C401.325 56.8783 401.558 56.7939 401.858 56.7939C402.159 56.7939 402.392 56.8783 402.556 57.0469C402.72 57.2155 402.802 57.4274 402.802 57.6826C402.802 57.9333 402.72 58.1429 402.556 58.3115C402.392 58.4756 402.159 58.5576 401.858 58.5576C401.558 58.5576 401.325 58.4756 401.161 58.3115C401.002 58.1429 400.922 57.9333 400.922 57.6826ZM408.373 61.1211C408.154 61.0846 407.929 61.0664 407.696 61.0664C406.935 61.0664 406.423 61.3581 406.158 61.9414V67H404.497V59.6035H406.083L406.124 60.4307C406.525 59.7881 407.081 59.4668 407.792 59.4668C408.029 59.4668 408.225 59.4987 408.38 59.5625L408.373 61.1211ZM409.269 65.25C409.578 65.25 409.818 65.3389 409.986 65.5166C410.155 65.6898 410.239 65.9085 410.239 66.1729C410.239 66.4326 410.155 66.6491 409.986 66.8223C409.818 66.9909 409.578 67.0752 409.269 67.0752C408.972 67.0752 408.738 66.9909 408.564 66.8223C408.391 66.6536 408.305 66.4372 408.305 66.1729C408.305 65.9085 408.389 65.6898 408.558 65.5166C408.726 65.3389 408.963 65.25 409.269 65.25Z" fill="black"/>
</svg>
