<svg width="103" height="41" viewBox="0 0 103 41" fill="none" xmlns="http://www.w3.org/2000/svg">
<path d="M33.2949 22.3711C33.1517 23.888 32.5918 25.0729 31.6152 25.9258C30.6387 26.7721 29.3398 27.1953 27.7188 27.1953C26.5859 27.1953 25.5866 26.9284 24.7207 26.3945C23.8613 25.8542 23.1973 25.0892 22.7285 24.0996C22.2598 23.11 22.0156 21.9609 21.9961 20.6523V19.3242C21.9961 17.9831 22.2337 16.8014 22.709 15.7793C23.1842 14.7572 23.8646 13.9694 24.75 13.416C25.6419 12.8626 26.6706 12.5859 27.8359 12.5859C29.4049 12.5859 30.668 13.0124 31.625 13.8652C32.582 14.7181 33.1387 15.9225 33.2949 17.4785H30.834C30.7168 16.4564 30.4173 15.7207 29.9355 15.2715C29.4603 14.8158 28.7604 14.5879 27.8359 14.5879C26.7617 14.5879 25.9349 14.9818 25.3555 15.7695C24.7826 16.5508 24.4896 17.6999 24.4766 19.2168V20.4766C24.4766 22.013 24.75 23.1849 25.2969 23.9922C25.8503 24.7995 26.6576 25.2031 27.7188 25.2031C28.6888 25.2031 29.418 24.985 29.9062 24.5488C30.3945 24.1126 30.7038 23.3867 30.834 22.3711H33.2949ZM34.8379 21.6191C34.8379 20.584 35.043 19.653 35.4531 18.8262C35.8633 17.9928 36.4395 17.3548 37.1816 16.9121C37.9238 16.4629 38.7767 16.2383 39.7402 16.2383C41.166 16.2383 42.3216 16.6973 43.207 17.6152C44.099 18.5332 44.5807 19.7507 44.6523 21.2676L44.6621 21.8242C44.6621 22.8659 44.4603 23.7969 44.0566 24.6172C43.6595 25.4375 43.0866 26.0723 42.3379 26.5215C41.5957 26.9707 40.7363 27.1953 39.7598 27.1953C38.2689 27.1953 37.0742 26.7005 36.1758 25.7109C35.2839 24.7148 34.8379 23.39 34.8379 21.7363V21.6191ZM37.2109 21.8242C37.2109 22.9115 37.4355 23.7643 37.8848 24.3828C38.334 24.9948 38.959 25.3008 39.7598 25.3008C40.5605 25.3008 41.1823 24.9883 41.625 24.3633C42.0742 23.7383 42.2988 22.8236 42.2988 21.6191C42.2988 20.5514 42.0677 19.7051 41.6055 19.0801C41.1497 18.4551 40.528 18.1426 39.7402 18.1426C38.9655 18.1426 38.3503 18.4518 37.8945 19.0703C37.4388 19.6823 37.2109 20.6003 37.2109 21.8242ZM48.8711 16.4336L48.9395 17.6543C49.7207 16.7103 50.7461 16.2383 52.0156 16.2383C54.2161 16.2383 55.3359 17.498 55.375 20.0176V27H53.002V20.1543C53.002 19.4837 52.8555 18.9889 52.5625 18.6699C52.276 18.3444 51.804 18.1816 51.1465 18.1816C50.1895 18.1816 49.4766 18.6146 49.0078 19.4805V27H46.6348V16.4336H48.8711ZM60.7754 13.8652V16.4336H62.6406V18.1914H60.7754V24.0898C60.7754 24.4935 60.8535 24.7865 61.0098 24.9688C61.1725 25.1445 61.459 25.2324 61.8691 25.2324C62.1426 25.2324 62.4193 25.1999 62.6992 25.1348V26.9707C62.1589 27.1204 61.638 27.1953 61.1367 27.1953C59.3138 27.1953 58.4023 26.1895 58.4023 24.1777V18.1914H56.6641V16.4336H58.4023V13.8652H60.7754ZM70.7754 27C70.6712 26.7982 70.5801 26.4694 70.502 26.0137C69.7467 26.8014 68.8223 27.1953 67.7285 27.1953C66.6673 27.1953 65.8014 26.8926 65.1309 26.2871C64.4603 25.6816 64.125 24.9329 64.125 24.041C64.125 22.9147 64.5417 22.0521 65.375 21.4531C66.2148 20.8477 67.4128 20.5449 68.9688 20.5449H70.4238V19.8516C70.4238 19.3047 70.2708 18.8685 69.9648 18.543C69.6589 18.2109 69.1934 18.0449 68.5684 18.0449C68.028 18.0449 67.5853 18.1816 67.2402 18.4551C66.8952 18.722 66.7227 19.0638 66.7227 19.4805H64.3496C64.3496 18.901 64.5417 18.3607 64.9258 17.8594C65.3099 17.3516 65.8307 16.9544 66.4883 16.668C67.1523 16.3815 67.8913 16.2383 68.7051 16.2383C69.9421 16.2383 70.9284 16.5508 71.6641 17.1758C72.3997 17.7943 72.7773 18.6667 72.7969 19.793V24.5586C72.7969 25.5091 72.9303 26.2676 73.1973 26.834V27H70.7754ZM68.168 25.291C68.6367 25.291 69.0762 25.1771 69.4863 24.9492C69.903 24.7214 70.2155 24.4154 70.4238 24.0312V22.0391H69.1445C68.2656 22.0391 67.6048 22.1921 67.1621 22.498C66.7194 22.804 66.498 23.237 66.498 23.7969C66.498 24.2526 66.6478 24.6172 66.9473 24.8906C67.2533 25.1576 67.6602 25.291 68.168 25.291ZM79.623 25.3008C80.2155 25.3008 80.707 25.1283 81.0977 24.7832C81.4883 24.4382 81.6966 24.0117 81.7227 23.5039H83.959C83.9329 24.1615 83.7279 24.7767 83.3438 25.3496C82.9596 25.916 82.4388 26.3652 81.7812 26.6973C81.1237 27.0293 80.4141 27.1953 79.6523 27.1953C78.1745 27.1953 77.0026 26.7168 76.1367 25.7598C75.2708 24.8027 74.8379 23.4811 74.8379 21.7949V21.5508C74.8379 19.9427 75.2676 18.6569 76.127 17.6934C76.9863 16.7233 78.1582 16.2383 79.6426 16.2383C80.8991 16.2383 81.9212 16.6061 82.709 17.3418C83.5033 18.071 83.9199 19.0312 83.959 20.2227H81.7227C81.6966 19.6172 81.4883 19.1191 81.0977 18.7285C80.7135 18.3379 80.222 18.1426 79.623 18.1426C78.8548 18.1426 78.2624 18.4225 77.8457 18.9824C77.429 19.5358 77.2174 20.3789 77.2109 21.5117V21.8926C77.2109 23.0384 77.416 23.8945 77.8262 24.4609C78.2428 25.0208 78.8418 25.3008 79.623 25.3008ZM88.7246 13.8652V16.4336H90.5898V18.1914H88.7246V24.0898C88.7246 24.4935 88.8027 24.7865 88.959 24.9688C89.1217 25.1445 89.4082 25.2324 89.8184 25.2324C90.0918 25.2324 90.3685 25.1999 90.6484 25.1348V26.9707C90.1081 27.1204 89.5872 27.1953 89.0859 27.1953C87.263 27.1953 86.3516 26.1895 86.3516 24.1777V18.1914H84.6133V16.4336H86.3516V13.8652H88.7246ZM91.6738 21.6191C91.6738 20.584 91.8789 19.653 92.2891 18.8262C92.6992 17.9928 93.2754 17.3548 94.0176 16.9121C94.7598 16.4629 95.6126 16.2383 96.5762 16.2383C98.002 16.2383 99.1576 16.6973 100.043 17.6152C100.935 18.5332 101.417 19.7507 101.488 21.2676L101.498 21.8242C101.498 22.8659 101.296 23.7969 100.893 24.6172C100.495 25.4375 99.9225 26.0723 99.1738 26.5215C98.4316 26.9707 97.5723 27.1953 96.5957 27.1953C95.1048 27.1953 93.9102 26.7005 93.0117 25.7109C92.1198 24.7148 91.6738 23.39 91.6738 21.7363V21.6191ZM94.0469 21.8242C94.0469 22.9115 94.2715 23.7643 94.7207 24.3828C95.1699 24.9948 95.7949 25.3008 96.5957 25.3008C97.3965 25.3008 98.0182 24.9883 98.4609 24.3633C98.9102 23.7383 99.1348 22.8236 99.1348 21.6191C99.1348 20.5514 98.9036 19.7051 98.4414 19.0801C97.9857 18.4551 97.3639 18.1426 96.5762 18.1426C95.8014 18.1426 95.1862 18.4518 94.7305 19.0703C94.2747 19.6823 94.0469 20.6003 94.0469 21.8242Z" fill="#E6FFFB"/>
<g clip-path="url(#clip0)">
<path d="M15.1347 13.961H0.560544C0.250493 13.961 0 14.2164 0 14.5325V25.961C0 26.2771 0.250493 26.5325 0.560544 26.5325H15.1347C15.4447 26.5325 15.6952 26.2771 15.6952 25.961V14.5325C15.6952 14.2164 15.4447 13.961 15.1347 13.961ZM14.434 15.9396V25.2467H1.26122V15.9396L0.777755 15.5557L1.46617 14.6539L2.2159 15.2485H13.4811L14.2308 14.6539L14.9192 15.5557L14.434 15.9396V15.9396ZM13.4811 15.2467L7.84762 19.711L2.21415 15.2467L1.46442 14.6521L0.776003 15.5539L1.25947 15.9378L7.24328 20.6807C7.41537 20.817 7.62708 20.8909 7.84499 20.8909C8.06291 20.8909 8.27461 20.817 8.4467 20.6807L14.434 15.9396L14.9175 15.5557L14.2291 14.6539L13.4811 15.2467Z" fill="#E6FFFB"/>
</g>
<defs>
<clipPath id="clip0">
<rect width="15.6952" height="16" fill="white" transform="translate(0 12.25)"/>
</clipPath>
</defs>
</svg>
