<svg width="1920" height="63" viewBox="0 0 1920 63" fill="none" xmlns="http://www.w3.org/2000/svg">
<rect width="1920" height="63" fill="#36CFC9"/>
<path d="M840.638 45H835.943L823.901 25.833V45H819.207V17.9844H823.901L835.98 37.2256V17.9844H840.638V45ZM844.905 34.7764C844.905 32.8096 845.295 31.0407 846.074 29.4697C846.854 27.8864 847.948 26.6742 849.358 25.833C850.769 24.9795 852.389 24.5527 854.22 24.5527C856.929 24.5527 859.124 25.4248 860.807 27.1689C862.501 28.9131 863.417 31.2262 863.553 34.1084L863.571 35.166C863.571 37.1452 863.188 38.9141 862.421 40.4727C861.666 42.0312 860.578 43.2373 859.155 44.0908C857.745 44.9443 856.112 45.3711 854.257 45.3711C851.424 45.3711 849.154 44.431 847.447 42.5508C845.753 40.6582 844.905 38.141 844.905 34.999V34.7764ZM849.414 35.166C849.414 37.2318 849.841 38.8522 850.694 40.0273C851.548 41.1901 852.735 41.7715 854.257 41.7715C855.778 41.7715 856.96 41.1777 857.801 39.9902C858.654 38.8027 859.081 37.0648 859.081 34.7764C859.081 32.7477 858.642 31.1396 857.764 29.9521C856.898 28.7646 855.716 28.1709 854.22 28.1709C852.748 28.1709 851.579 28.7585 850.713 29.9336C849.847 31.0964 849.414 32.8405 849.414 35.166ZM873.034 20.0439V24.9238H876.578V28.2637H873.034V39.4707C873.034 40.2376 873.183 40.7943 873.479 41.1406C873.789 41.4746 874.333 41.6416 875.112 41.6416C875.632 41.6416 876.158 41.5798 876.689 41.4561V44.9443C875.663 45.2288 874.673 45.3711 873.721 45.3711C870.257 45.3711 868.525 43.46 868.525 39.6377V28.2637H865.223V24.9238H868.525V20.0439H873.034ZM884.835 45H880.326V24.9238H884.835V45ZM880.048 19.71C880.048 19.0173 880.264 18.4421 880.697 17.9844C881.143 17.5267 881.773 17.2979 882.59 17.2979C883.406 17.2979 884.037 17.5267 884.482 17.9844C884.928 18.4421 885.15 19.0173 885.15 19.71C885.15 20.3903 884.928 20.9593 884.482 21.417C884.037 21.8623 883.406 22.085 882.59 22.085C881.773 22.085 881.143 21.8623 880.697 21.417C880.264 20.9593 880.048 20.3903 880.048 19.71ZM898.009 41.7715C899.134 41.7715 900.068 41.4437 900.811 40.7881C901.553 40.1325 901.949 39.3223 901.998 38.3574H906.247C906.198 39.6068 905.808 40.7757 905.078 41.8643C904.348 42.9404 903.359 43.7939 902.109 44.4248C900.86 45.0557 899.512 45.3711 898.064 45.3711C895.257 45.3711 893.03 44.4619 891.385 42.6436C889.74 40.8252 888.917 38.3141 888.917 35.1104V34.6465C888.917 31.5911 889.733 29.1481 891.366 27.3174C892.999 25.4743 895.226 24.5527 898.046 24.5527C900.433 24.5527 902.375 25.2516 903.872 26.6494C905.381 28.0348 906.173 29.8594 906.247 32.123H901.998C901.949 30.9727 901.553 30.0264 900.811 29.2842C900.081 28.542 899.147 28.1709 898.009 28.1709C896.549 28.1709 895.424 28.7028 894.632 29.7666C893.84 30.818 893.438 32.4199 893.426 34.5723V35.2959C893.426 37.473 893.815 39.0996 894.595 40.1758C895.386 41.2396 896.524 41.7715 898.009 41.7715ZM914.448 45H909.939V24.9238H914.448V45ZM909.661 19.71C909.661 19.0173 909.878 18.4421 910.311 17.9844C910.756 17.5267 911.387 17.2979 912.203 17.2979C913.02 17.2979 913.65 17.5267 914.096 17.9844C914.541 18.4421 914.764 19.0173 914.764 19.71C914.764 20.3903 914.541 20.9593 914.096 21.417C913.65 21.8623 913.02 22.085 912.203 22.085C911.387 22.085 910.756 21.8623 910.311 21.417C909.878 20.9593 909.661 20.3903 909.661 19.71ZM931.37 45C931.172 44.6165 930.999 43.9919 930.851 43.126C929.416 44.6227 927.659 45.3711 925.581 45.3711C923.565 45.3711 921.92 44.7959 920.646 43.6455C919.371 42.4951 918.734 41.0726 918.734 39.3779C918.734 37.238 919.526 35.599 921.109 34.4609C922.705 33.3105 924.981 32.7354 927.938 32.7354H930.702V31.418C930.702 30.3789 930.411 29.5501 929.83 28.9316C929.249 28.3008 928.364 27.9854 927.177 27.9854C926.15 27.9854 925.309 28.2451 924.653 28.7646C923.998 29.2718 923.67 29.9212 923.67 30.7129H919.161C919.161 29.612 919.526 28.5853 920.256 27.6328C920.986 26.668 921.975 25.9134 923.225 25.3691C924.486 24.8249 925.89 24.5527 927.437 24.5527C929.787 24.5527 931.661 25.1465 933.059 26.334C934.456 27.5091 935.174 29.1667 935.211 31.3066V40.3613C935.211 42.1673 935.465 43.6084 935.972 44.6846V45H931.37ZM926.416 41.7529C927.307 41.7529 928.142 41.5365 928.921 41.1035C929.713 40.6706 930.306 40.0892 930.702 39.3594V35.5742H928.271C926.602 35.5742 925.346 35.8649 924.505 36.4463C923.664 37.0277 923.243 37.8503 923.243 38.9141C923.243 39.7799 923.528 40.4727 924.097 40.9922C924.678 41.4993 925.451 41.7529 926.416 41.7529ZM951.187 39.5449C951.187 38.7409 950.853 38.1286 950.185 37.708C949.529 37.2874 948.434 36.9163 946.9 36.5947C945.367 36.2731 944.086 35.8649 943.06 35.3701C940.808 34.2816 939.683 32.7044 939.683 30.6387C939.683 28.9069 940.412 27.4596 941.872 26.2969C943.332 25.1341 945.187 24.5527 947.438 24.5527C949.838 24.5527 951.774 25.1465 953.246 26.334C954.73 27.5215 955.473 29.0615 955.473 30.9541H950.964C950.964 30.0882 950.642 29.3708 949.999 28.8018C949.356 28.2204 948.502 27.9297 947.438 27.9297C946.449 27.9297 945.639 28.1585 945.008 28.6162C944.389 29.0739 944.08 29.6862 944.08 30.4531C944.08 31.1458 944.371 31.6839 944.952 32.0674C945.534 32.4508 946.709 32.8405 948.478 33.2363C950.246 33.6198 951.632 34.0837 952.634 34.6279C953.648 35.1598 954.396 35.8031 954.879 36.5576C955.374 37.3122 955.621 38.2275 955.621 39.3037C955.621 41.1097 954.873 42.5755 953.376 43.7012C951.879 44.8145 949.919 45.3711 947.494 45.3711C945.849 45.3711 944.383 45.0742 943.097 44.4805C941.81 43.8867 940.808 43.0703 940.091 42.0312C939.373 40.9922 939.015 39.8727 939.015 38.6729H943.394C943.455 39.7367 943.857 40.5592 944.6 41.1406C945.342 41.7096 946.325 41.9941 947.55 41.9941C948.737 41.9941 949.64 41.7715 950.259 41.3262C950.877 40.8685 951.187 40.2747 951.187 39.5449ZM990.17 41.4932C989.193 42.7673 987.838 43.7321 986.106 44.3877C984.375 45.0433 982.408 45.3711 980.206 45.3711C977.942 45.3711 975.938 44.8577 974.194 43.8311C972.45 42.8044 971.102 41.3385 970.149 39.4336C969.209 37.5163 968.721 35.2835 968.684 32.7354V30.6201C968.684 26.5381 969.661 23.3529 971.615 21.0645C973.57 18.7637 976.297 17.6133 979.798 17.6133C982.804 17.6133 985.191 18.3555 986.96 19.8398C988.729 21.3242 989.793 23.4642 990.151 26.2598H985.55C985.03 23.0065 983.144 21.3799 979.891 21.3799C977.788 21.3799 976.186 22.1406 975.085 23.6621C973.996 25.1712 973.434 27.3916 973.396 30.3232V32.4014C973.396 35.3206 974.009 37.5905 975.233 39.2109C976.47 40.819 978.184 41.623 980.373 41.623C982.773 41.623 984.48 41.0788 985.494 39.9902V34.7021H979.928V31.1396H990.17V41.4932ZM1003.73 45.3711C1000.88 45.3711 998.557 44.4743 996.775 42.6807C995.007 40.8747 994.122 38.4749 994.122 35.4814V34.9248C994.122 32.9209 994.506 31.1335 995.272 29.5625C996.052 27.9792 997.14 26.7484 998.538 25.8701C999.936 24.9919 1001.49 24.5527 1003.21 24.5527C1005.95 24.5527 1008.06 25.4248 1009.54 27.1689C1011.04 28.9131 1011.79 31.3809 1011.79 34.5723V36.3906H998.668C998.804 38.0482 999.354 39.3594 1000.32 40.3242C1001.3 41.2891 1002.52 41.7715 1003.99 41.7715C1006.06 41.7715 1007.74 40.9365 1009.04 39.2666L1011.47 41.5859C1010.67 42.7858 1009.59 43.7197 1008.24 44.3877C1006.91 45.0433 1005.4 45.3711 1003.73 45.3711ZM1003.2 28.1709C1001.96 28.1709 1000.96 28.6038 1000.19 29.4697C999.435 30.3356 998.952 31.5417 998.742 33.0879H1007.33V32.7539C1007.23 31.2448 1006.83 30.1068 1006.13 29.3398C1005.42 28.5605 1004.44 28.1709 1003.2 28.1709ZM1019.49 24.9238L1019.62 27.2432C1021.1 25.4495 1023.05 24.5527 1025.46 24.5527C1029.64 24.5527 1031.77 26.9463 1031.84 31.7334V45H1027.33V31.9932C1027.33 30.7191 1027.06 29.779 1026.5 29.1729C1025.96 28.5544 1025.06 28.2451 1023.81 28.2451C1021.99 28.2451 1020.64 29.0677 1019.75 30.7129V45H1015.24V24.9238H1019.49ZM1045.3 45.3711C1042.44 45.3711 1040.12 44.4743 1038.34 42.6807C1036.57 40.8747 1035.68 38.4749 1035.68 35.4814V34.9248C1035.68 32.9209 1036.07 31.1335 1036.83 29.5625C1037.61 27.9792 1038.7 26.7484 1040.1 25.8701C1041.5 24.9919 1043.06 24.5527 1044.78 24.5527C1047.51 24.5527 1049.62 25.4248 1051.1 27.1689C1052.6 28.9131 1053.35 31.3809 1053.35 34.5723V36.3906H1040.23C1040.37 38.0482 1040.92 39.3594 1041.88 40.3242C1042.86 41.2891 1044.08 41.7715 1045.56 41.7715C1047.62 41.7715 1049.3 40.9365 1050.6 39.2666L1053.03 41.5859C1052.23 42.7858 1051.15 43.7197 1049.8 44.3877C1048.47 45.0433 1046.97 45.3711 1045.3 45.3711ZM1044.76 28.1709C1043.52 28.1709 1042.52 28.6038 1041.75 29.4697C1041 30.3356 1040.51 31.5417 1040.3 33.0879H1048.9V32.7539C1048.8 31.2448 1048.39 30.1068 1047.69 29.3398C1046.98 28.5605 1046.01 28.1709 1044.76 28.1709ZM1068.12 39.5449C1068.12 38.7409 1067.78 38.1286 1067.12 37.708C1066.46 37.2874 1065.37 36.9163 1063.83 36.5947C1062.3 36.2731 1061.02 35.8649 1059.99 35.3701C1057.74 34.2816 1056.61 32.7044 1056.61 30.6387C1056.61 28.9069 1057.34 27.4596 1058.8 26.2969C1060.26 25.1341 1062.12 24.5527 1064.37 24.5527C1066.77 24.5527 1068.71 25.1465 1070.18 26.334C1071.66 27.5215 1072.4 29.0615 1072.4 30.9541H1067.9C1067.9 30.0882 1067.57 29.3708 1066.93 28.8018C1066.29 28.2204 1065.43 27.9297 1064.37 27.9297C1063.38 27.9297 1062.57 28.1585 1061.94 28.6162C1061.32 29.0739 1061.01 29.6862 1061.01 30.4531C1061.01 31.1458 1061.3 31.6839 1061.88 32.0674C1062.47 32.4508 1063.64 32.8405 1065.41 33.2363C1067.18 33.6198 1068.56 34.0837 1069.57 34.6279C1070.58 35.1598 1071.33 35.8031 1071.81 36.5576C1072.31 37.3122 1072.55 38.2275 1072.55 39.3037C1072.55 41.1097 1071.8 42.5755 1070.31 43.7012C1068.81 44.8145 1066.85 45.3711 1064.43 45.3711C1062.78 45.3711 1061.31 45.0742 1060.03 44.4805C1058.74 43.8867 1057.74 43.0703 1057.02 42.0312C1056.31 40.9922 1055.95 39.8727 1055.95 38.6729H1060.33C1060.39 39.7367 1060.79 40.5592 1061.53 41.1406C1062.27 41.7096 1063.26 41.9941 1064.48 41.9941C1065.67 41.9941 1066.57 41.7715 1067.19 41.3262C1067.81 40.8685 1068.12 40.2747 1068.12 39.5449ZM1081.29 45H1076.78V24.9238H1081.29V45ZM1076.5 19.71C1076.5 19.0173 1076.72 18.4421 1077.15 17.9844C1077.6 17.5267 1078.23 17.2979 1079.05 17.2979C1079.86 17.2979 1080.49 17.5267 1080.94 17.9844C1081.38 18.4421 1081.61 19.0173 1081.61 19.71C1081.61 20.3903 1081.38 20.9593 1080.94 21.417C1080.49 21.8623 1079.86 22.085 1079.05 22.085C1078.23 22.085 1077.6 21.8623 1077.15 21.417C1076.72 20.9593 1076.5 20.3903 1076.5 19.71ZM1097.47 39.5449C1097.47 38.7409 1097.14 38.1286 1096.47 37.708C1095.81 37.2874 1094.72 36.9163 1093.19 36.5947C1091.65 36.2731 1090.37 35.8649 1089.34 35.3701C1087.09 34.2816 1085.97 32.7044 1085.97 30.6387C1085.97 28.9069 1086.7 27.4596 1088.16 26.2969C1089.62 25.1341 1091.47 24.5527 1093.72 24.5527C1096.12 24.5527 1098.06 25.1465 1099.53 26.334C1101.02 27.5215 1101.76 29.0615 1101.76 30.9541H1097.25C1097.25 30.0882 1096.93 29.3708 1096.28 28.8018C1095.64 28.2204 1094.79 27.9297 1093.72 27.9297C1092.73 27.9297 1091.92 28.1585 1091.29 28.6162C1090.67 29.0739 1090.37 29.6862 1090.37 30.4531C1090.37 31.1458 1090.66 31.6839 1091.24 32.0674C1091.82 32.4508 1092.99 32.8405 1094.76 33.2363C1096.53 33.6198 1097.92 34.0837 1098.92 34.6279C1099.93 35.1598 1100.68 35.8031 1101.16 36.5576C1101.66 37.3122 1101.91 38.2275 1101.91 39.3037C1101.91 41.1097 1101.16 42.5755 1099.66 43.7012C1098.16 44.8145 1096.2 45.3711 1093.78 45.3711C1092.13 45.3711 1090.67 45.0742 1089.38 44.4805C1088.1 43.8867 1087.09 43.0703 1086.38 42.0312C1085.66 40.9922 1085.3 39.8727 1085.3 38.6729H1089.68C1089.74 39.7367 1090.14 40.5592 1090.88 41.1406C1091.63 41.7096 1092.61 41.9941 1093.83 41.9941C1095.02 41.9941 1095.93 41.7715 1096.54 41.3262C1097.16 40.8685 1097.47 40.2747 1097.47 39.5449Z" fill="#E6FFFB"/>
</svg>
