<svg width="447" height="143" viewBox="0 0 447 143" fill="none" xmlns="http://www.w3.org/2000/svg">
<path d="M4.68 26.16H15.624V61.08H36.648V69H4.68V26.16ZM67.6159 26.16L82.0879 69H70.6399L67.9039 59.856H52.9999L50.2639 69H38.8879L53.3599 26.16H67.6159ZM55.3759 51.936H65.5279L60.4879 34.872L55.3759 51.936ZM115.528 46.176C117.832 47.088 119.536 48.432 120.64 50.208C121.792 51.984 122.368 54 122.368 56.256C122.368 60.48 120.832 63.672 117.76 65.832C114.736 67.944 110.392 69 104.728 69H87.0159V26.16H104.008C109.24 26.16 113.296 27.192 116.176 29.256C119.056 31.32 120.496 34.152 120.496 37.752C120.496 39.576 120.064 41.232 119.2 42.72C118.384 44.208 117.16 45.36 115.528 46.176ZM111.28 55.896C111.28 54.168 110.68 52.896 109.48 52.08C108.328 51.216 106.432 50.784 103.792 50.784H97.9599V61.08H103.792C106.432 61.08 108.328 60.672 109.48 59.856C110.68 58.992 111.28 57.672 111.28 55.896ZM102.856 42.864C107.224 42.864 109.408 41.4 109.408 38.472C109.408 35.544 107.224 34.08 102.856 34.08H97.9599V42.864H102.856ZM168.311 47.616C168.311 50.784 167.855 53.736 166.943 56.472C166.031 59.16 164.687 61.512 162.911 63.528C161.135 65.496 158.927 67.056 156.287 68.208C153.695 69.312 150.719 69.864 147.359 69.864C143.951 69.864 140.951 69.312 138.359 68.208C135.767 67.056 133.583 65.496 131.807 63.528C130.031 61.512 128.687 59.16 127.775 56.472C126.863 53.736 126.407 50.784 126.407 47.616C126.407 44.448 126.863 41.496 127.775 38.76C128.687 36.024 130.031 33.672 131.807 31.704C133.583 29.688 135.767 28.128 138.359 27.024C140.951 25.872 143.951 25.296 147.359 25.296C150.719 25.296 153.695 25.872 156.287 27.024C158.927 28.128 161.135 29.688 162.911 31.704C164.687 33.672 166.031 36.024 166.943 38.76C167.855 41.496 168.311 44.448 168.311 47.616ZM137.495 47.616C137.495 52.176 138.359 55.68 140.087 58.128C141.863 60.576 144.287 61.8 147.359 61.8C150.431 61.8 152.831 60.576 154.559 58.128C156.335 55.68 157.223 52.176 157.223 47.616C157.223 43.008 156.335 39.48 154.559 37.032C152.831 34.584 150.431 33.36 147.359 33.36C144.287 33.36 141.863 34.584 140.087 37.032C138.359 39.48 137.495 43.008 137.495 47.616ZM209.311 39.48C209.311 42.216 208.567 44.64 207.079 46.752C205.639 48.864 203.455 50.496 200.527 51.648L212.407 69H200.527L190.519 53.376H186.343V69H175.399V26.16H191.671C194.215 26.16 196.567 26.424 198.727 26.952C200.887 27.48 202.735 28.296 204.271 29.4C205.855 30.504 207.079 31.896 207.943 33.576C208.855 35.256 209.311 37.224 209.311 39.48ZM198.223 39.48C198.223 37.416 197.575 36 196.279 35.232C195.031 34.464 193.351 34.08 191.239 34.08H186.343V45.456H191.239C195.895 45.456 198.223 43.464 198.223 39.48ZM241.639 26.16L256.111 69H244.663L241.927 59.856H227.023L224.287 69H212.911L227.383 26.16H241.639ZM229.399 51.936H239.551L234.511 34.872L229.399 51.936ZM266.373 34.08H254.205V26.16H289.485V34.08H277.317V69H266.373V34.08ZM334.108 47.616C334.108 50.784 333.652 53.736 332.74 56.472C331.828 59.16 330.484 61.512 328.708 63.528C326.932 65.496 324.724 67.056 322.084 68.208C319.492 69.312 316.516 69.864 313.156 69.864C309.748 69.864 306.748 69.312 304.156 68.208C301.564 67.056 299.38 65.496 297.604 63.528C295.828 61.512 294.484 59.16 293.572 56.472C292.66 53.736 292.204 50.784 292.204 47.616C292.204 44.448 292.66 41.496 293.572 38.76C294.484 36.024 295.828 33.672 297.604 31.704C299.38 29.688 301.564 28.128 304.156 27.024C306.748 25.872 309.748 25.296 313.156 25.296C316.516 25.296 319.492 25.872 322.084 27.024C324.724 28.128 326.932 29.688 328.708 31.704C330.484 33.672 331.828 36.024 332.74 38.76C333.652 41.496 334.108 44.448 334.108 47.616ZM303.292 47.616C303.292 52.176 304.156 55.68 305.884 58.128C307.66 60.576 310.084 61.8 313.156 61.8C316.228 61.8 318.628 60.576 320.356 58.128C322.132 55.68 323.02 52.176 323.02 47.616C323.02 43.008 322.132 39.48 320.356 37.032C318.628 34.584 316.228 33.36 313.156 33.36C310.084 33.36 307.66 34.584 305.884 37.032C304.156 39.48 303.292 43.008 303.292 47.616ZM375.108 39.48C375.108 42.216 374.364 44.64 372.876 46.752C371.436 48.864 369.252 50.496 366.324 51.648L378.204 69H366.324L356.316 53.376H352.14V69H341.196V26.16H357.468C360.012 26.16 362.364 26.424 364.524 26.952C366.684 27.48 368.532 28.296 370.068 29.4C371.652 30.504 372.876 31.896 373.74 33.576C374.652 35.256 375.108 37.224 375.108 39.48ZM364.02 39.48C364.02 37.416 363.372 36 362.076 35.232C360.828 34.464 359.148 34.08 357.036 34.08H352.14V45.456H357.036C361.692 45.456 364.02 43.464 364.02 39.48ZM394.476 26.16V69H383.532V26.16H394.476ZM443.796 47.616C443.796 50.784 443.34 53.736 442.428 56.472C441.516 59.16 440.172 61.512 438.396 63.528C436.62 65.496 434.412 67.056 431.772 68.208C429.18 69.312 426.204 69.864 422.844 69.864C419.436 69.864 416.436 69.312 413.844 68.208C411.252 67.056 409.068 65.496 407.292 63.528C405.516 61.512 404.172 59.16 403.26 56.472C402.348 53.736 401.892 50.784 401.892 47.616C401.892 44.448 402.348 41.496 403.26 38.76C404.172 36.024 405.516 33.672 407.292 31.704C409.068 29.688 411.252 28.128 413.844 27.024C416.436 25.872 419.436 25.296 422.844 25.296C426.204 25.296 429.18 25.872 431.772 27.024C434.412 28.128 436.62 29.688 438.396 31.704C440.172 33.672 441.516 36.024 442.428 38.76C443.34 41.496 443.796 44.448 443.796 47.616ZM412.98 47.616C412.98 52.176 413.844 55.68 415.572 58.128C417.348 60.576 419.772 61.8 422.844 61.8C425.916 61.8 428.316 60.576 430.044 58.128C431.82 55.68 432.708 52.176 432.708 47.616C432.708 43.008 431.82 39.48 430.044 37.032C428.316 34.584 425.916 33.36 422.844 33.36C419.772 33.36 417.348 34.584 415.572 37.032C413.844 39.48 412.98 43.008 412.98 47.616Z" fill="#002329"/>
<path d="M26.875 77.5625H20.625C11.25 77.5625 6.5625 82.25 6.5625 91.625V110.375C6.5625 119.75 11.25 124.438 20.625 124.438H26.875C36.25 124.438 40.9375 119.75 40.9375 110.375V96.3125H25.3125V105.688H31.5625V110.375C31.5625 113.5 30 115.062 26.875 115.062H20.625C17.5 115.062 15.9375 113.5 15.9375 110.375V91.625C15.9375 88.5 17.5 86.9375 20.625 86.9375H26.875C30 86.9375 31.5625 87.9792 31.5625 90.0625H40.9375C40.9375 81.7292 36.25 77.5625 26.875 77.5625ZM25.3125 111.938L22.1875 108.812V111.938H25.3125ZM41.875 79.6875C45.4167 83.1667 47.1875 88.7083 47.1875 96.3125V113.5C47.1875 124.958 41.4583 130.688 30 130.688H23.75C16.9792 130.688 11.8958 129 8.5 125.625C5.125 122.229 3.4375 117.146 3.4375 110.375V91.625C3.4375 80.1667 9.16667 74.4375 20.625 74.4375H26.875C33.3542 74.4375 38.3542 76.1875 41.875 79.6875ZM86.8875 115.062V105.688H105.637V96.3125H86.8875V86.9375H108.762V77.5625H77.5125V124.438H108.762V115.062H86.8875ZM108.762 94.75L113.45 97.875V113.5L116.575 116.625V132.25H79.075L74.3875 127.562V74.4375H111.887L116.575 79.125V94.75H108.762ZM154.712 96.1875L169.525 124.438H179.712V77.5625H170.337V105.812L155.525 77.5625H145.337V124.438H154.712V96.1875ZM167.65 127.562L162.525 117.812V132.25H146.9L142.212 127.562V74.4375H157.4L162.087 79.125L167.212 88.875V74.4375H182.837L187.525 79.125V132.25H172.337L167.65 127.562ZM225.663 115.062V105.688H244.413V96.3125H225.663V86.9375H247.538V77.5625H216.288V124.438H247.538V115.062H225.663ZM247.538 94.75L252.225 97.875V113.5L255.35 116.625V132.25H217.85L213.163 127.562V74.4375H250.663L255.35 79.125V94.75H247.538ZM304.425 77.5625H298.175C288.8 77.5625 284.112 82.25 284.112 91.625C284.112 101 288.8 105.688 298.175 105.688H304.425C307.55 105.688 309.112 107.25 309.112 110.375C309.112 113.5 307.55 115.062 304.425 115.062H298.175C295.05 115.062 293.487 114.021 293.487 111.938H284.112C284.112 120.271 288.8 124.438 298.175 124.438H304.425C313.8 124.438 318.487 119.75 318.487 110.375C318.487 101 313.8 96.3125 304.425 96.3125H298.175C295.05 96.3125 293.487 94.75 293.487 91.625C293.487 88.5 295.05 86.9375 298.175 86.9375H304.425C307.55 86.9375 309.112 87.9792 309.112 90.0625H318.487C318.487 81.7292 313.8 77.5625 304.425 77.5625ZM287.956 106.531C283.31 103.885 280.987 98.9167 280.987 91.625C280.987 80.1667 286.717 74.4375 298.175 74.4375H304.425C311.404 74.4375 316.79 76.3125 320.581 80.0625C324.394 83.7917 326.3 89.7292 326.3 97.875H317.675C321.342 99.9583 323.696 102.562 324.737 105.688C325.779 108.812 326.3 111.938 326.3 115.062C326.3 126.521 320.571 132.25 309.112 132.25H302.862C295.883 132.25 290.487 130.375 286.675 126.625C282.883 122.896 280.987 116.958 280.987 108.812H289.612C288.987 108.125 288.435 107.365 287.956 106.531ZM364.438 124.438V77.5625H355.062V124.438H364.438ZM351.938 127.562V74.4375H367.562L372.25 79.125V132.25H356.625L351.938 127.562ZM421.325 77.5625H415.075C405.7 77.5625 401.013 82.25 401.013 91.625C401.013 101 405.7 105.688 415.075 105.688H421.325C424.45 105.688 426.013 107.25 426.013 110.375C426.013 113.5 424.45 115.062 421.325 115.062H415.075C411.95 115.062 410.388 114.021 410.388 111.938H401.013C401.013 120.271 405.7 124.438 415.075 124.438H421.325C430.7 124.438 435.388 119.75 435.388 110.375C435.388 101 430.7 96.3125 421.325 96.3125H415.075C411.95 96.3125 410.388 94.75 410.388 91.625C410.388 88.5 411.95 86.9375 415.075 86.9375H421.325C424.45 86.9375 426.013 87.9792 426.013 90.0625H435.388C435.388 81.7292 430.7 77.5625 421.325 77.5625ZM404.856 106.531C400.21 103.885 397.888 98.9167 397.888 91.625C397.888 80.1667 403.617 74.4375 415.075 74.4375H421.325C428.304 74.4375 433.69 76.3125 437.481 80.0625C441.294 83.7917 443.2 89.7292 443.2 97.875H434.575C438.242 99.9583 440.596 102.562 441.638 105.688C442.679 108.812 443.2 111.938 443.2 115.062C443.2 126.521 437.471 132.25 426.013 132.25H419.763C412.783 132.25 407.388 130.375 403.575 126.625C399.783 122.896 397.888 116.958 397.888 108.812H406.513C405.888 108.125 405.335 107.365 404.856 106.531Z" fill="#002329"/>
</svg>
