<svg width="207" height="260" viewBox="0 0 207 260" fill="none" xmlns="http://www.w3.org/2000/svg">
<path d="M98.3781 57.4254C102.963 57.4254 106.679 53.7188 106.679 49.1463C106.679 44.5739 102.963 40.8672 98.3781 40.8672C93.7935 40.8672 90.0769 44.5739 90.0769 49.1463C90.0769 53.7188 93.7935 57.4254 98.3781 57.4254Z" fill="#13C2C2"/>
<path d="M111.801 37.3441C115.02 37.3441 117.63 34.7416 117.63 31.5311C117.63 28.3207 115.02 25.7181 111.801 25.7181C108.582 25.7181 105.973 28.3207 105.973 31.5311C105.973 34.7416 108.582 37.3441 111.801 37.3441Z" fill="#13C2C2"/>
<path d="M99.4448 55.3116H99.579L99.9994 56.446H99.8263L99.5119 55.5301L99.1975 56.446H99.0244L99.4448 55.3116ZM99.2187 56.0444H99.8157V56.1959H99.2187V56.0444Z" fill="white"/>
<path d="M100.172 55.3117H100.321V56.4461H100.162L100.172 55.3117ZM100.254 55.8542H100.607C100.639 55.8553 100.671 55.8467 100.699 55.8296C100.725 55.8135 100.746 55.7903 100.759 55.7626C100.773 55.7306 100.781 55.6957 100.78 55.6605C100.781 55.6252 100.774 55.5903 100.759 55.5583C100.746 55.5297 100.725 55.5053 100.699 55.4878C100.671 55.4707 100.639 55.4621 100.607 55.4632H100.254V55.3117H100.607C100.67 55.3107 100.731 55.3252 100.787 55.354C100.838 55.383 100.88 55.4257 100.907 55.4773C100.936 55.5338 100.951 55.5968 100.95 55.6605C100.951 55.7241 100.936 55.787 100.907 55.8437C100.879 55.8942 100.838 55.9357 100.787 55.9634C100.731 55.9922 100.67 56.0067 100.607 56.0057H100.254V55.8542Z" fill="white"/>
<path d="M112.684 36.2872C113.062 36.3084 116.973 34.9238 116.57 31.355" stroke="white" stroke-miterlimit="10" stroke-linecap="round"/>
<path d="M101.455 55.5054C101.833 55.5265 105.743 54.1419 105.341 50.5731" stroke="white" stroke-miterlimit="10" stroke-linecap="round"/>
<path d="M103.5 234.986C147.005 234.986 182.273 197.841 182.273 152.019C182.273 106.197 147.005 69.0515 103.5 69.0515C59.9949 69.0515 24.7271 106.197 24.7271 152.019C24.7271 197.841 59.9949 234.986 103.5 234.986Z" fill="#13C2C2" stroke="#13C2C2" stroke-width="10" stroke-miterlimit="10"/>
<path d="M137.256 147.428V164.131C137.256 171.231 135.871 177.488 133.102 182.902C130.494 188.146 126.402 192.512 121.332 195.461C116.254 198.421 110.377 199.899 103.698 199.897C96.9297 199.897 90.9847 198.505 85.8627 195.722C80.8302 193.026 76.6956 188.925 73.9655 183.92C71.1395 178.837 69.7324 172.942 69.7442 166.234V138.025C69.7442 130.928 71.1289 124.681 73.8983 119.286C76.5127 114.052 80.6037 109.694 85.6684 106.748C90.7457 103.789 96.6236 102.309 103.302 102.309C108.574 102.262 113.781 103.47 118.492 105.832C123.117 108.171 127.109 111.589 130.127 115.795C133.313 120.246 135.475 125.343 136.458 130.722H121.886C121.184 127.705 119.81 124.884 117.866 122.468C116.067 120.242 113.792 118.445 111.208 117.208C108.739 116.022 106.035 115.404 103.295 115.401C99.3389 115.401 95.8665 116.34 92.8781 118.219C89.8561 120.142 87.4526 122.891 85.9545 126.139C84.3296 129.54 83.5171 133.496 83.5171 138.008V166.217C83.5171 170.334 84.352 173.939 86.0216 177.033C87.6357 180.074 90.0996 182.582 93.1147 184.255C96.1762 185.965 99.7086 186.818 103.712 186.816C107.668 186.816 111.141 185.929 114.129 184.156C117.161 182.332 119.573 179.64 121.049 176.43C122.676 173.055 123.49 169.043 123.49 164.395V160.249H104.041V147.428H137.256Z" fill="white"/>
<path d="M70.327 65.4791C72.0141 70.7888 75.3564 75.4228 79.8674 78.7064C84.3784 81.99 89.8225 83.7519 95.4072 83.7355H111.921C117.484 83.7575 122.909 82.0136 127.411 78.7562C131.914 75.4988 135.26 70.8968 136.966 65.6165C143.47 68.5853 149.57 72.3652 155.119 76.8656C162.075 82.5111 168.147 89.1608 173.135 96.5946C183.732 112.311 189.31 130.902 189.31 150.353C189.345 162.732 187.009 175.004 182.428 186.509C178.13 197.36 171.808 207.3 163.798 215.804C156.086 224.037 146.815 230.666 136.521 235.307C126.129 239.966 114.865 242.374 103.472 242.374C92.0783 242.374 80.8143 239.966 70.4224 235.307C60.128 230.666 50.8572 224.037 43.145 215.804C35.1351 207.3 28.8136 197.36 24.515 186.509C19.9455 175.005 17.6195 162.737 17.6621 150.363C17.6621 130.853 23.2857 112.216 33.9113 96.4607C38.9287 89.0094 45.0382 82.3508 52.0361 76.707C57.6225 72.2001 63.7633 68.4234 70.3093 65.4686L70.327 65.4791ZM143.24 0H63.7602C61.3244 0 58.9883 0.965061 57.266 2.68287C55.5436 4.40069 54.5759 6.73054 54.5759 9.15989C54.5759 11.5892 55.5436 13.9191 57.266 15.6369C58.9883 17.3547 61.3244 18.3198 63.7602 18.3198H68.529V47.1558C28.5773 62.3577 0 102.816 0 150.363C0 210.914 46.3383 260 103.5 260C160.662 260 207 210.914 207 150.363C207 102.954 178.589 62.5867 138.824 47.2932V18.3198H143.24C145.676 18.3198 148.012 17.3547 149.734 15.6369C151.456 13.9191 152.424 11.5892 152.424 9.15989C152.424 6.73054 151.456 4.40069 149.734 2.68287C148.012 0.965061 145.676 0 143.24 0V0ZM95.4178 66.1203C93.3895 66.1296 91.4229 65.4249 89.8643 64.1302C88.3058 62.8355 87.2552 61.0339 86.8976 59.0426V18.3198H120.456V59.0179C120.104 61.0146 119.055 62.8229 117.495 64.1227C115.935 65.4225 113.965 66.1301 111.932 66.1203H95.4178Z" fill="#002329"/>
</svg>
