<svg width="100" height="41" viewBox="0 0 100 41" fill="none" xmlns="http://www.w3.org/2000/svg">
<path d="M25.877 23.3379C25.877 22.7129 25.6556 22.2311 25.2129 21.8926C24.7767 21.554 23.9857 21.2122 22.8398 20.8672C21.694 20.5221 20.7826 20.138 20.1055 19.7148C18.8099 18.901 18.1621 17.8398 18.1621 16.5312C18.1621 15.3854 18.6276 14.4414 19.5586 13.6992C20.4961 12.957 21.7103 12.5859 23.2012 12.5859C24.1908 12.5859 25.0729 12.7682 25.8477 13.1328C26.6224 13.4974 27.2311 14.0182 27.6738 14.6953C28.1165 15.3659 28.3379 16.1113 28.3379 16.9316H25.877C25.877 16.1895 25.6426 15.61 25.1738 15.1934C24.7116 14.7702 24.0475 14.5586 23.1816 14.5586C22.3743 14.5586 21.7461 14.7311 21.2969 15.0762C20.8542 15.4212 20.6328 15.903 20.6328 16.5215C20.6328 17.0423 20.8737 17.4785 21.3555 17.8301C21.8372 18.1751 22.6315 18.5137 23.7383 18.8457C24.8451 19.1712 25.7337 19.5456 26.4043 19.9688C27.0749 20.3854 27.5664 20.8672 27.8789 21.4141C28.1914 21.9544 28.3477 22.5892 28.3477 23.3184C28.3477 24.5033 27.8919 25.4473 26.9805 26.1504C26.0755 26.847 24.8451 27.1953 23.2891 27.1953C22.2604 27.1953 21.3132 27.0065 20.4473 26.6289C19.5879 26.2448 18.9173 25.7174 18.4355 25.0469C17.9603 24.3763 17.7227 23.5951 17.7227 22.7031H20.1934C20.1934 23.5104 20.4603 24.1354 20.9941 24.5781C21.528 25.0208 22.293 25.2422 23.2891 25.2422C24.1484 25.2422 24.793 25.0697 25.2227 24.7246C25.6589 24.373 25.877 23.9108 25.877 23.3379ZM34.9395 27.1953C33.4355 27.1953 32.2148 26.7233 31.2773 25.7793C30.3464 24.8288 29.8809 23.5658 29.8809 21.9902V21.6973C29.8809 20.6426 30.0827 19.7018 30.4863 18.875C30.8965 18.0417 31.4694 17.3939 32.2051 16.9316C32.9408 16.4694 33.7611 16.2383 34.666 16.2383C36.1048 16.2383 37.2148 16.6973 37.9961 17.6152C38.7839 18.5332 39.1777 19.832 39.1777 21.5117V22.4688H32.2734C32.3451 23.3411 32.6348 24.0312 33.1426 24.5391C33.6569 25.0469 34.3014 25.3008 35.0762 25.3008C36.1634 25.3008 37.0488 24.8613 37.7324 23.9824L39.0117 25.2031C38.5885 25.8346 38.0221 26.3262 37.3125 26.6777C36.6094 27.0228 35.8184 27.1953 34.9395 27.1953ZM34.6562 18.1426C34.0052 18.1426 33.4779 18.3704 33.0742 18.8262C32.6771 19.2819 32.4232 19.9167 32.3125 20.7305H36.834V20.5547C36.7819 19.7604 36.5703 19.1615 36.1992 18.7578C35.8281 18.3477 35.3138 18.1426 34.6562 18.1426ZM46.5605 18.6016C46.248 18.5495 45.9258 18.5234 45.5938 18.5234C44.5065 18.5234 43.7741 18.9401 43.3965 19.7734V27H41.0234V16.4336H43.2891L43.3477 17.6152C43.9206 16.6973 44.7148 16.2383 45.7305 16.2383C46.069 16.2383 46.349 16.2839 46.5703 16.375L46.5605 18.6016ZM51.9609 23.9922L54.1973 16.4336H56.6484L52.9863 27H50.9258L47.2344 16.4336H49.6953L51.9609 23.9922ZM60.6621 27H58.2891V16.4336H60.6621V27ZM58.1426 13.6895C58.1426 13.3249 58.2565 13.0221 58.4844 12.7812C58.7188 12.5404 59.0508 12.4199 59.4805 12.4199C59.9102 12.4199 60.2422 12.5404 60.4766 12.7812C60.7109 13.0221 60.8281 13.3249 60.8281 13.6895C60.8281 14.0475 60.7109 14.347 60.4766 14.5879C60.2422 14.8223 59.9102 14.9395 59.4805 14.9395C59.0508 14.9395 58.7188 14.8223 58.4844 14.5879C58.2565 14.347 58.1426 14.0475 58.1426 13.6895ZM67.5957 25.3008C68.1882 25.3008 68.6797 25.1283 69.0703 24.7832C69.4609 24.4382 69.6693 24.0117 69.6953 23.5039H71.9316C71.9056 24.1615 71.7005 24.7767 71.3164 25.3496C70.9323 25.916 70.4115 26.3652 69.7539 26.6973C69.0964 27.0293 68.3867 27.1953 67.625 27.1953C66.1471 27.1953 64.9753 26.7168 64.1094 25.7598C63.2435 24.8027 62.8105 23.4811 62.8105 21.7949V21.5508C62.8105 19.9427 63.2402 18.6569 64.0996 17.6934C64.959 16.7233 66.1309 16.2383 67.6152 16.2383C68.8717 16.2383 69.8939 16.6061 70.6816 17.3418C71.4759 18.071 71.8926 19.0312 71.9316 20.2227H69.6953C69.6693 19.6172 69.4609 19.1191 69.0703 18.7285C68.6862 18.3379 68.1947 18.1426 67.5957 18.1426C66.8275 18.1426 66.235 18.4225 65.8184 18.9824C65.4017 19.5358 65.1901 20.3789 65.1836 21.5117V21.8926C65.1836 23.0384 65.3887 23.8945 65.7988 24.4609C66.2155 25.0208 66.8145 25.3008 67.5957 25.3008ZM76.248 27H73.875V16.4336H76.248V27ZM73.7285 13.6895C73.7285 13.3249 73.8424 13.0221 74.0703 12.7812C74.3047 12.5404 74.6367 12.4199 75.0664 12.4199C75.4961 12.4199 75.8281 12.5404 76.0625 12.7812C76.2969 13.0221 76.4141 13.3249 76.4141 13.6895C76.4141 14.0475 76.2969 14.347 76.0625 14.5879C75.8281 14.8223 75.4961 14.9395 75.0664 14.9395C74.6367 14.9395 74.3047 14.8223 74.0703 14.5879C73.8424 14.347 73.7285 14.0475 73.7285 13.6895ZM78.3965 21.6191C78.3965 20.584 78.6016 19.653 79.0117 18.8262C79.4219 17.9928 79.998 17.3548 80.7402 16.9121C81.4824 16.4629 82.3353 16.2383 83.2988 16.2383C84.7246 16.2383 85.8802 16.6973 86.7656 17.6152C87.6576 18.5332 88.1393 19.7507 88.2109 21.2676L88.2207 21.8242C88.2207 22.8659 88.0189 23.7969 87.6152 24.6172C87.2181 25.4375 86.6452 26.0723 85.8965 26.5215C85.1543 26.9707 84.2949 27.1953 83.3184 27.1953C81.8275 27.1953 80.6328 26.7005 79.7344 25.7109C78.8424 24.7148 78.3965 23.39 78.3965 21.7363V21.6191ZM80.7695 21.8242C80.7695 22.9115 80.9941 23.7643 81.4434 24.3828C81.8926 24.9948 82.5176 25.3008 83.3184 25.3008C84.1191 25.3008 84.7409 24.9883 85.1836 24.3633C85.6328 23.7383 85.8574 22.8236 85.8574 21.6191C85.8574 20.5514 85.6263 19.7051 85.1641 19.0801C84.7083 18.4551 84.0866 18.1426 83.2988 18.1426C82.5241 18.1426 81.9089 18.4518 81.4531 19.0703C80.9974 19.6823 80.7695 20.6003 80.7695 21.8242ZM96.1504 24.1289C96.1504 23.7057 95.9746 23.3835 95.623 23.1621C95.278 22.9408 94.7018 22.7454 93.8945 22.5762C93.0872 22.4069 92.4134 22.1921 91.873 21.9316C90.6882 21.3587 90.0957 20.5286 90.0957 19.4414C90.0957 18.5299 90.4798 17.7682 91.248 17.1562C92.0163 16.5443 92.9928 16.2383 94.1777 16.2383C95.4408 16.2383 96.4596 16.5508 97.2344 17.1758C98.0156 17.8008 98.4062 18.6113 98.4062 19.6074H96.0332C96.0332 19.1517 95.8639 18.7741 95.5254 18.4746C95.1868 18.1686 94.7376 18.0156 94.1777 18.0156C93.6569 18.0156 93.2305 18.1361 92.8984 18.377C92.5729 18.6178 92.4102 18.9401 92.4102 19.3438C92.4102 19.7083 92.5632 19.9915 92.8691 20.1934C93.1751 20.3952 93.7936 20.6003 94.7246 20.8086C95.6556 21.0104 96.3848 21.2546 96.9121 21.541C97.446 21.821 97.8398 22.1595 98.0938 22.5566C98.3542 22.9538 98.4844 23.4355 98.4844 24.002C98.4844 24.9525 98.0905 25.724 97.3027 26.3164C96.515 26.9023 95.4831 27.1953 94.207 27.1953C93.3411 27.1953 92.5697 27.0391 91.8926 26.7266C91.2155 26.4141 90.6882 25.9844 90.3105 25.4375C89.9329 24.8906 89.7441 24.3014 89.7441 23.6699H92.0488C92.0814 24.2298 92.293 24.6628 92.6836 24.9688C93.0742 25.2682 93.5918 25.418 94.2363 25.418C94.8613 25.418 95.3366 25.3008 95.6621 25.0664C95.9876 24.8255 96.1504 24.513 96.1504 24.1289Z" fill="#E6FFFB"/>
<path d="M7.9995 19.0322C7.9995 19.2216 8.07475 19.4033 8.20871 19.5373C8.34266 19.6712 8.52434 19.7465 8.71378 19.7465C8.90322 19.7465 9.08491 19.6712 9.21886 19.5373C9.35281 19.4033 9.42807 19.2216 9.42807 19.0322C9.42807 18.8427 9.35281 18.6611 9.21886 18.5271C9.08491 18.3932 8.90322 18.3179 8.71378 18.3179C8.52434 18.3179 8.34266 18.3932 8.20871 18.5271C8.07475 18.6611 7.9995 18.8427 7.9995 19.0322ZM14.5531 25.334L11.2906 16.8893V13.7822H12.5709V12.5679H3.42807V13.7822H4.70843V16.8893L1.44593 25.334C1.39593 25.4661 1.36914 25.6054 1.36914 25.7465C1.36914 26.3768 1.88164 26.8893 2.512 26.8893H13.487C13.6281 26.8893 13.7674 26.8625 13.8995 26.8125C14.4888 26.5858 14.7816 25.9233 14.5531 25.334V25.334ZM5.92271 17.1161V13.8179H10.0763V17.1161L11.6995 21.3179C11.3299 21.2233 10.9477 21.175 10.5584 21.175C9.46557 21.175 8.42985 21.559 7.60664 22.2465C6.99907 22.754 6.23224 23.0315 5.44057 23.0304C4.85664 23.0304 4.29593 22.8822 3.80128 22.6072L5.92271 17.1161V17.1161ZM2.61557 25.675L3.36021 23.75C3.99771 24.0733 4.70664 24.2465 5.44235 24.2465C6.53521 24.2465 7.57093 23.8625 8.39414 23.175C8.9995 22.6715 9.75664 22.3911 10.5602 22.3911C11.1852 22.3911 11.7816 22.5608 12.3031 22.875L13.3834 25.675H2.61557Z" fill="#E6FFFB"/>
</svg>
