<svg width="142" height="57" viewBox="0 0 142 57" fill="none" xmlns="http://www.w3.org/2000/svg">
<path d="M6.51 23.03V29H1.95V11.15H8.49C9.63 11.15 10.66 11.27 11.58 11.51C12.5 11.75 13.28 12.12 13.92 12.62C14.58 13.12 15.08 13.74 15.42 14.48C15.78 15.22 15.96 16.09 15.96 17.09C15.96 18.09 15.78 18.96 15.42 19.7C15.08 20.44 14.58 21.06 13.92 21.56C13.28 22.06 12.5 22.43 11.58 22.67C10.66 22.91 9.63 23.03 8.49 23.03H6.51ZM8.13 19.73C9.21 19.73 10.01 19.55 10.53 19.19C11.07 18.81 11.34 18.11 11.34 17.09C11.34 16.07 11.07 15.38 10.53 15.02C10.01 14.64 9.21 14.45 8.13 14.45H6.51V19.73H8.13ZM27.6459 11.15L33.6759 29H28.9059L27.7659 25.19H21.5559L20.4159 29H15.6759L21.7059 11.15H27.6459ZM22.5459 21.89H26.7759L24.6759 14.78L22.5459 21.89ZM34.4763 20.09C34.4763 18.69 34.6963 17.42 35.1363 16.28C35.5963 15.14 36.2463 14.17 37.0863 13.37C37.9263 12.55 38.9463 11.92 40.1463 11.48C41.3463 11.02 42.6863 10.79 44.1663 10.79C45.0463 10.79 45.9363 10.87 46.8363 11.03C47.7363 11.19 48.5163 11.43 49.1763 11.75L48.8763 15.26C48.3363 14.86 47.7063 14.58 46.9863 14.42C46.2863 14.24 45.5663 14.15 44.8263 14.15C42.9863 14.15 41.5663 14.69 40.5663 15.77C39.5863 16.85 39.0963 18.29 39.0963 20.09C39.0963 21.97 39.6063 23.43 40.6263 24.47C41.6663 25.49 43.0863 26 44.8863 26C45.6463 26 46.3663 25.91 47.0463 25.73C47.7463 25.53 48.3863 25.23 48.9663 24.83L49.2963 28.4C48.5563 28.74 47.7463 28.98 46.8663 29.12C45.9863 29.28 45.1263 29.36 44.2863 29.36C42.7863 29.36 41.4263 29.14 40.2063 28.7C39.0063 28.26 37.9763 27.64 37.1163 26.84C36.2763 26.02 35.6263 25.04 35.1663 23.9C34.7063 22.76 34.4763 21.49 34.4763 20.09ZM56.8163 11.15V29H52.2563V11.15H56.8163ZM60.866 11.15H73.556V14.45H65.426V18.23H72.986V21.53H65.426V25.7H73.796V29H60.866V11.15ZM81.1542 17.21V29H76.7742V11.15H82.0242L88.1742 22.94V11.15H92.5542V29H87.3642L81.1542 17.21ZM100.032 14.45H94.9617V11.15H109.662V14.45H104.592V29H100.032V14.45ZM112.048 11.15H124.738V14.45H116.608V18.23H124.168V21.53H116.608V25.7H124.978V29H112.048V11.15ZM127.146 16.01C127.146 14.41 127.746 13.14 128.946 12.2C130.166 11.26 131.906 10.79 134.166 10.79C135.106 10.79 136.016 10.87 136.896 11.03C137.776 11.17 138.606 11.38 139.386 11.66L139.056 15.11C137.496 14.47 135.996 14.15 134.556 14.15C133.556 14.15 132.836 14.31 132.396 14.63C131.976 14.95 131.766 15.33 131.766 15.77C131.766 16.31 131.986 16.77 132.426 17.15C132.886 17.53 133.746 17.94 135.006 18.38C136.846 19.02 138.186 19.78 139.026 20.66C139.886 21.52 140.316 22.63 140.316 23.99C140.316 25.69 139.726 27.01 138.546 27.95C137.366 28.89 135.566 29.36 133.146 29.36C132.086 29.36 131.036 29.25 129.996 29.03C128.976 28.81 128.046 28.49 127.206 28.07L127.536 24.35C128.276 24.87 129.096 25.28 129.996 25.58C130.916 25.86 131.856 26 132.816 26C133.596 26 134.266 25.86 134.826 25.58C135.406 25.28 135.696 24.81 135.696 24.17C135.696 23.87 135.636 23.6 135.516 23.36C135.416 23.12 135.226 22.9 134.946 22.7C134.686 22.48 134.336 22.27 133.896 22.07C133.456 21.87 132.906 21.66 132.246 21.44C130.626 20.92 129.366 20.21 128.466 19.31C127.586 18.41 127.146 17.31 127.146 16.01Z" fill="#002329"/>
<path d="M23.5406 32.8359H21.1969C17.6813 32.8359 15.9234 34.5938 15.9234 38.1094V45.1406C15.9234 48.6562 17.6813 50.4141 21.1969 50.4141H23.5406C27.0563 50.4141 28.8141 48.6562 28.8141 45.1406V39.8672H22.9547V43.3828H25.2984V45.1406C25.2984 46.3125 24.7125 46.8984 23.5406 46.8984H21.1969C20.025 46.8984 19.4391 46.3125 19.4391 45.1406V38.1094C19.4391 36.9375 20.025 36.3516 21.1969 36.3516H23.5406C24.7125 36.3516 25.2984 36.7422 25.2984 37.5234H28.8141C28.8141 34.3984 27.0563 32.8359 23.5406 32.8359ZM22.9547 45.7266L21.7828 44.5547V45.7266H22.9547ZM29.1656 33.6328C30.4938 34.9375 31.1578 37.0156 31.1578 39.8672V46.3125C31.1578 50.6094 29.0094 52.7578 24.7125 52.7578H22.3688C19.8297 52.7578 17.9234 52.125 16.65 50.8594C15.3844 49.5859 14.7516 47.6797 14.7516 45.1406V38.1094C14.7516 33.8125 16.9 31.6641 21.1969 31.6641H23.5406C25.9703 31.6641 27.8453 32.3203 29.1656 33.6328ZM37.0453 46.8984V43.3828H44.0766V39.8672H37.0453V36.3516H45.2484V32.8359H33.5297V50.4141H45.2484V46.8984H37.0453ZM45.2484 39.2812L47.0063 40.4531V46.3125L48.1781 47.4844V53.3438H34.1156L32.3578 51.5859V31.6641H46.4203L48.1781 33.4219V39.2812H45.2484ZM53.4797 39.8203L59.0344 50.4141H62.8547V32.8359H59.3391V43.4297L53.7844 32.8359H49.9641V50.4141H53.4797V39.8203ZM58.3313 51.5859L56.4094 47.9297V53.3438H50.55L48.7922 51.5859V31.6641H54.4875L56.2453 33.4219L58.1672 37.0781V31.6641H64.0266L65.7844 33.4219V53.3438H60.0891L58.3313 51.5859ZM71.0859 46.8984V43.3828H78.1172V39.8672H71.0859V36.3516H79.2891V32.8359H67.5703V50.4141H79.2891V46.8984H71.0859ZM79.2891 39.2812L81.0469 40.4531V46.3125L82.2188 47.4844V53.3438H68.1562L66.3984 51.5859V31.6641H80.4609L82.2188 33.4219V39.2812H79.2891ZM91.6219 32.8359H89.2781C85.7625 32.8359 84.0047 34.5938 84.0047 38.1094C84.0047 41.625 85.7625 43.3828 89.2781 43.3828H91.6219C92.7938 43.3828 93.3797 43.9688 93.3797 45.1406C93.3797 46.3125 92.7938 46.8984 91.6219 46.8984H89.2781C88.1063 46.8984 87.5203 46.5078 87.5203 45.7266H84.0047C84.0047 48.8516 85.7625 50.4141 89.2781 50.4141H91.6219C95.1375 50.4141 96.8953 48.6562 96.8953 45.1406C96.8953 41.625 95.1375 39.8672 91.6219 39.8672H89.2781C88.1063 39.8672 87.5203 39.2812 87.5203 38.1094C87.5203 36.9375 88.1063 36.3516 89.2781 36.3516H91.6219C92.7938 36.3516 93.3797 36.7422 93.3797 37.5234H96.8953C96.8953 34.3984 95.1375 32.8359 91.6219 32.8359ZM85.4461 43.6992C83.7039 42.707 82.8328 40.8438 82.8328 38.1094C82.8328 33.8125 84.9813 31.6641 89.2781 31.6641H91.6219C94.2391 31.6641 96.2586 32.3672 97.6805 33.7734C99.1102 35.1719 99.825 37.3984 99.825 40.4531H96.5906C97.9656 41.2344 98.8484 42.2109 99.2391 43.3828C99.6297 44.5547 99.825 45.7266 99.825 46.8984C99.825 51.1953 97.6766 53.3438 93.3797 53.3438H91.0359C88.4188 53.3438 86.3953 52.6406 84.9656 51.2344C83.5438 49.8359 82.8328 47.6094 82.8328 44.5547H86.0672C85.8328 44.2969 85.6258 44.0117 85.4461 43.6992ZM105.127 50.4141V32.8359H101.611V50.4141H105.127ZM100.439 51.5859V31.6641H106.298L108.056 33.4219V53.3438H102.197L100.439 51.5859ZM117.459 32.8359H115.116C111.6 32.8359 109.842 34.5938 109.842 38.1094C109.842 41.625 111.6 43.3828 115.116 43.3828H117.459C118.631 43.3828 119.217 43.9688 119.217 45.1406C119.217 46.3125 118.631 46.8984 117.459 46.8984H115.116C113.944 46.8984 113.358 46.5078 113.358 45.7266H109.842C109.842 48.8516 111.6 50.4141 115.116 50.4141H117.459C120.975 50.4141 122.733 48.6562 122.733 45.1406C122.733 41.625 120.975 39.8672 117.459 39.8672H115.116C113.944 39.8672 113.358 39.2812 113.358 38.1094C113.358 36.9375 113.944 36.3516 115.116 36.3516H117.459C118.631 36.3516 119.217 36.7422 119.217 37.5234H122.733C122.733 34.3984 120.975 32.8359 117.459 32.8359ZM111.284 43.6992C109.541 42.707 108.67 40.8438 108.67 38.1094C108.67 33.8125 110.819 31.6641 115.116 31.6641H117.459C120.077 31.6641 122.096 32.3672 123.518 33.7734C124.948 35.1719 125.662 37.3984 125.662 40.4531H122.428C123.803 41.2344 124.686 42.2109 125.077 43.3828C125.467 44.5547 125.662 45.7266 125.662 46.8984C125.662 51.1953 123.514 53.3438 119.217 53.3438H116.873C114.256 53.3438 112.233 52.6406 110.803 51.2344C109.381 49.8359 108.67 47.6094 108.67 44.5547H111.905C111.67 44.2969 111.463 44.0117 111.284 43.6992Z" fill="#002329"/>
</svg>
