<svg width="112" height="57" viewBox="0 0 112 57" fill="none" xmlns="http://www.w3.org/2000/svg">
<path d="M20.13 24.32H12.57L11.1 29H6.12L13.44 8H19.26L26.58 29H21.6L20.13 24.32ZM13.71 20.66H18.99L16.35 12.17L13.71 20.66ZM42.0429 18.53C42.0429 17.29 41.8829 16.24 41.5629 15.38C41.2629 14.5 40.8129 13.79 40.2129 13.25C39.6329 12.69 38.9029 12.29 38.0229 12.05C37.1629 11.79 36.1729 11.66 35.0529 11.66H33.6429V25.34H35.0529C36.1729 25.34 37.1629 25.22 38.0229 24.98C38.9029 24.72 39.6329 24.32 40.2129 23.78C40.8129 23.24 41.2629 22.54 41.5629 21.68C41.8829 20.82 42.0429 19.77 42.0429 18.53ZM46.7829 18.5C46.7829 20.24 46.4929 21.77 45.9129 23.09C45.3529 24.41 44.5629 25.51 43.5429 26.39C42.5429 27.25 41.3429 27.9 39.9429 28.34C38.5629 28.78 37.0429 29 35.3829 29H28.9629V8H35.3829C37.0429 8 38.5629 8.22 39.9429 8.66C41.3429 9.1 42.5429 9.76 43.5429 10.64C44.5629 11.52 45.3529 12.62 45.9129 13.94C46.4929 15.24 46.7829 16.76 46.7829 18.5ZM54.7624 14.84V29H50.2324V8H55.3324L61.3024 17.84L67.3024 8H72.4024V29H67.8724V14.84L63.3124 22.46H59.3224L54.7624 14.84ZM81.7226 8V29H77.0426V8H81.7226ZM86.3848 8H91.6648L99.7648 22.4V8H104.295V29H99.0148L90.9148 14.6V29H86.3848V8Z" fill="#002329"/>
<path d="M9.54063 32.8359H7.19688C3.68125 32.8359 1.92344 34.5938 1.92344 38.1094V45.1406C1.92344 48.6562 3.68125 50.4141 7.19688 50.4141H9.54063C13.0563 50.4141 14.8141 48.6562 14.8141 45.1406V39.8672H8.95469V43.3828H11.2984V45.1406C11.2984 46.3125 10.7125 46.8984 9.54063 46.8984H7.19688C6.025 46.8984 5.43906 46.3125 5.43906 45.1406V38.1094C5.43906 36.9375 6.025 36.3516 7.19688 36.3516H9.54063C10.7125 36.3516 11.2984 36.7422 11.2984 37.5234H14.8141C14.8141 34.3984 13.0563 32.8359 9.54063 32.8359ZM8.95469 45.7266L7.78281 44.5547V45.7266H8.95469ZM15.1656 33.6328C16.4938 34.9375 17.1578 37.0156 17.1578 39.8672V46.3125C17.1578 50.6094 15.0094 52.7578 10.7125 52.7578H8.36875C5.82969 52.7578 3.92344 52.125 2.65 50.8594C1.38438 49.5859 0.751564 47.6797 0.751564 45.1406V38.1094C0.751564 33.8125 2.9 31.6641 7.19688 31.6641H9.54063C11.9703 31.6641 13.8453 32.3203 15.1656 33.6328ZM23.0453 46.8984V43.3828H30.0766V39.8672H23.0453V36.3516H31.2484V32.8359H19.5297V50.4141H31.2484V46.8984H23.0453ZM31.2484 39.2812L33.0063 40.4531V46.3125L34.1781 47.4844V53.3438H20.1156L18.3578 51.5859V31.6641H32.4203L34.1781 33.4219V39.2812H31.2484ZM39.4797 39.8203L45.0344 50.4141H48.8547V32.8359H45.3391V43.4297L39.7844 32.8359H35.9641V50.4141H39.4797V39.8203ZM44.3313 51.5859L42.4094 47.9297V53.3438H36.55L34.7922 51.5859V31.6641H40.4875L42.2453 33.4219L44.1672 37.0781V31.6641H50.0266L51.7844 33.4219V53.3438H46.0891L44.3313 51.5859ZM57.0859 46.8984V43.3828H64.1172V39.8672H57.0859V36.3516H65.2891V32.8359H53.5703V50.4141H65.2891V46.8984H57.0859ZM65.2891 39.2812L67.0469 40.4531V46.3125L68.2188 47.4844V53.3438H54.1562L52.3984 51.5859V31.6641H66.4609L68.2188 33.4219V39.2812H65.2891ZM77.6219 32.8359H75.2781C71.7625 32.8359 70.0047 34.5938 70.0047 38.1094C70.0047 41.625 71.7625 43.3828 75.2781 43.3828H77.6219C78.7938 43.3828 79.3797 43.9688 79.3797 45.1406C79.3797 46.3125 78.7938 46.8984 77.6219 46.8984H75.2781C74.1063 46.8984 73.5203 46.5078 73.5203 45.7266H70.0047C70.0047 48.8516 71.7625 50.4141 75.2781 50.4141H77.6219C81.1375 50.4141 82.8953 48.6562 82.8953 45.1406C82.8953 41.625 81.1375 39.8672 77.6219 39.8672H75.2781C74.1063 39.8672 73.5203 39.2812 73.5203 38.1094C73.5203 36.9375 74.1063 36.3516 75.2781 36.3516H77.6219C78.7938 36.3516 79.3797 36.7422 79.3797 37.5234H82.8953C82.8953 34.3984 81.1375 32.8359 77.6219 32.8359ZM71.4461 43.6992C69.7039 42.707 68.8328 40.8438 68.8328 38.1094C68.8328 33.8125 70.9813 31.6641 75.2781 31.6641H77.6219C80.2391 31.6641 82.2586 32.3672 83.6805 33.7734C85.1102 35.1719 85.825 37.3984 85.825 40.4531H82.5906C83.9656 41.2344 84.8484 42.2109 85.2391 43.3828C85.6297 44.5547 85.825 45.7266 85.825 46.8984C85.825 51.1953 83.6766 53.3438 79.3797 53.3438H77.0359C74.4188 53.3438 72.3953 52.6406 70.9656 51.2344C69.5438 49.8359 68.8328 47.6094 68.8328 44.5547H72.0672C71.8328 44.2969 71.6258 44.0117 71.4461 43.6992ZM91.1266 50.4141V32.8359H87.6109V50.4141H91.1266ZM86.4391 51.5859V31.6641H92.2984L94.0563 33.4219V53.3438H88.1969L86.4391 51.5859ZM103.459 32.8359H101.116C97.6 32.8359 95.8422 34.5938 95.8422 38.1094C95.8422 41.625 97.6 43.3828 101.116 43.3828H103.459C104.631 43.3828 105.217 43.9688 105.217 45.1406C105.217 46.3125 104.631 46.8984 103.459 46.8984H101.116C99.9437 46.8984 99.3578 46.5078 99.3578 45.7266H95.8422C95.8422 48.8516 97.6 50.4141 101.116 50.4141H103.459C106.975 50.4141 108.733 48.6562 108.733 45.1406C108.733 41.625 106.975 39.8672 103.459 39.8672H101.116C99.9437 39.8672 99.3578 39.2812 99.3578 38.1094C99.3578 36.9375 99.9437 36.3516 101.116 36.3516H103.459C104.631 36.3516 105.217 36.7422 105.217 37.5234H108.733C108.733 34.3984 106.975 32.8359 103.459 32.8359ZM97.2836 43.6992C95.5414 42.707 94.6703 40.8438 94.6703 38.1094C94.6703 33.8125 96.8187 31.6641 101.116 31.6641H103.459C106.077 31.6641 108.096 32.3672 109.518 33.7734C110.948 35.1719 111.662 37.3984 111.662 40.4531H108.428C109.803 41.2344 110.686 42.2109 111.077 43.3828C111.467 44.5547 111.662 45.7266 111.662 46.8984C111.662 51.1953 109.514 53.3438 105.217 53.3438H102.873C100.256 53.3438 98.2328 52.6406 96.8031 51.2344C95.3812 49.8359 94.6703 47.6094 94.6703 44.5547H97.9047C97.6703 44.2969 97.4633 44.0117 97.2836 43.6992Z" fill="#002329"/>
</svg>
