<svg width="118" height="57" viewBox="0 0 118 57" fill="none" xmlns="http://www.w3.org/2000/svg">
<path d="M13.77 23.51H9.81L6.33 17.33V29H1.95V11.15H7.17L11.79 19.31L16.41 11.15H21.63V29H17.25V17.33L13.77 23.51ZM25.534 11.15H38.224V14.45H30.094V18.23H37.654V21.53H30.094V25.7H38.464V29H25.534V11.15ZM32.674 4.43H36.874V5.18L32.614 9.53H29.014L32.674 4.43ZM47.1722 25.7C48.9122 25.7 50.2422 25.28 51.1622 24.44C52.0822 23.6 52.5422 22.14 52.5422 20.06C52.5422 18 52.0822 16.55 51.1622 15.71C50.2422 14.87 48.9122 14.45 47.1722 14.45H46.0022V25.7H47.1722ZM41.4422 29V11.15H47.3822C48.8222 11.15 50.1422 11.34 51.3422 11.72C52.5422 12.08 53.5622 12.63 54.4022 13.37C55.2622 14.11 55.9322 15.04 56.4122 16.16C56.8922 17.26 57.1322 18.56 57.1322 20.06C57.1322 21.56 56.8922 22.87 56.4122 23.99C55.9322 25.11 55.2622 26.04 54.4022 26.78C53.5422 27.52 52.5122 28.08 51.3122 28.46C50.1122 28.82 48.7922 29 47.3522 29H41.4422ZM64.785 11.15V29H60.225V11.15H64.785ZM67.8748 20.09C67.8748 18.69 68.0948 17.42 68.5348 16.28C68.9948 15.14 69.6448 14.17 70.4848 13.37C71.3248 12.55 72.3448 11.92 73.5448 11.48C74.7448 11.02 76.0848 10.79 77.5648 10.79C78.4448 10.79 79.3348 10.87 80.2348 11.03C81.1348 11.19 81.9148 11.43 82.5748 11.75L82.2748 15.26C81.7348 14.86 81.1048 14.58 80.3848 14.42C79.6848 14.24 78.9648 14.15 78.2248 14.15C76.3848 14.15 74.9648 14.69 73.9648 15.77C72.9848 16.85 72.4948 18.29 72.4948 20.09C72.4948 21.97 73.0048 23.43 74.0248 24.47C75.0648 25.49 76.4848 26 78.2848 26C79.0448 26 79.7648 25.91 80.4448 25.73C81.1448 25.53 81.7848 25.23 82.3648 24.83L82.6948 28.4C81.9548 28.74 81.1448 28.98 80.2648 29.12C79.3848 29.28 78.5248 29.36 77.6848 29.36C76.1848 29.36 74.8248 29.14 73.6048 28.7C72.4048 28.26 71.3748 27.64 70.5148 26.84C69.6748 26.02 69.0248 25.04 68.5648 23.9C68.1048 22.76 67.8748 21.49 67.8748 20.09ZM101.858 20.09C101.858 21.41 101.668 22.64 101.288 23.78C100.908 24.9 100.348 25.88 99.6082 26.72C98.8682 27.54 97.9482 28.19 96.8482 28.67C95.7682 29.13 94.5282 29.36 93.1282 29.36C91.7082 29.36 90.4582 29.13 89.3782 28.67C88.2982 28.19 87.3882 27.54 86.6482 26.72C85.9082 25.88 85.3482 24.9 84.9682 23.78C84.5882 22.64 84.3982 21.41 84.3982 20.09C84.3982 18.77 84.5882 17.54 84.9682 16.4C85.3482 15.26 85.9082 14.28 86.6482 13.46C87.3882 12.62 88.2982 11.97 89.3782 11.51C90.4582 11.03 91.7082 10.79 93.1282 10.79C94.5282 10.79 95.7682 11.03 96.8482 11.51C97.9482 11.97 98.8682 12.62 99.6082 13.46C100.348 14.28 100.908 15.26 101.288 16.4C101.668 17.54 101.858 18.77 101.858 20.09ZM89.0182 20.09C89.0182 21.99 89.3782 23.45 90.0982 24.47C90.8382 25.49 91.8482 26 93.1282 26C94.4082 26 95.4082 25.49 96.1282 24.47C96.8682 23.45 97.2382 21.99 97.2382 20.09C97.2382 18.17 96.8682 16.7 96.1282 15.68C95.4082 14.66 94.4082 14.15 93.1282 14.15C91.8482 14.15 90.8382 14.66 90.0982 15.68C89.3782 16.7 89.0182 18.17 89.0182 20.09ZM104.001 16.01C104.001 14.41 104.601 13.14 105.801 12.2C107.021 11.26 108.761 10.79 111.021 10.79C111.961 10.79 112.871 10.87 113.751 11.03C114.631 11.17 115.461 11.38 116.241 11.66L115.911 15.11C114.351 14.47 112.851 14.15 111.411 14.15C110.411 14.15 109.691 14.31 109.251 14.63C108.831 14.95 108.621 15.33 108.621 15.77C108.621 16.31 108.841 16.77 109.281 17.15C109.741 17.53 110.601 17.94 111.861 18.38C113.701 19.02 115.041 19.78 115.881 20.66C116.741 21.52 117.171 22.63 117.171 23.99C117.171 25.69 116.581 27.01 115.401 27.95C114.221 28.89 112.421 29.36 110.001 29.36C108.941 29.36 107.891 29.25 106.851 29.03C105.831 28.81 104.901 28.49 104.061 28.07L104.391 24.35C105.131 24.87 105.951 25.28 106.851 25.58C107.771 25.86 108.711 26 109.671 26C110.451 26 111.121 25.86 111.681 25.58C112.261 25.28 112.551 24.81 112.551 24.17C112.551 23.87 112.491 23.6 112.371 23.36C112.271 23.12 112.081 22.9 111.801 22.7C111.541 22.48 111.191 22.27 110.751 22.07C110.311 21.87 109.761 21.66 109.101 21.44C107.481 20.92 106.221 20.21 105.321 19.31C104.441 18.41 104.001 17.31 104.001 16.01Z" fill="#002329"/>
<path d="M11.5406 32.8359H9.19688C5.68125 32.8359 3.92344 34.5938 3.92344 38.1094V45.1406C3.92344 48.6562 5.68125 50.4141 9.19688 50.4141H11.5406C15.0563 50.4141 16.8141 48.6562 16.8141 45.1406V39.8672H10.9547V43.3828H13.2984V45.1406C13.2984 46.3125 12.7125 46.8984 11.5406 46.8984H9.19688C8.025 46.8984 7.43906 46.3125 7.43906 45.1406V38.1094C7.43906 36.9375 8.025 36.3516 9.19688 36.3516H11.5406C12.7125 36.3516 13.2984 36.7422 13.2984 37.5234H16.8141C16.8141 34.3984 15.0563 32.8359 11.5406 32.8359ZM10.9547 45.7266L9.78281 44.5547V45.7266H10.9547ZM17.1656 33.6328C18.4938 34.9375 19.1578 37.0156 19.1578 39.8672V46.3125C19.1578 50.6094 17.0094 52.7578 12.7125 52.7578H10.3688C7.82969 52.7578 5.92344 52.125 4.65 50.8594C3.38438 49.5859 2.75156 47.6797 2.75156 45.1406V38.1094C2.75156 33.8125 4.9 31.6641 9.19688 31.6641H11.5406C13.9703 31.6641 15.8453 32.3203 17.1656 33.6328ZM25.0453 46.8984V43.3828H32.0766V39.8672H25.0453V36.3516H33.2484V32.8359H21.5297V50.4141H33.2484V46.8984H25.0453ZM33.2484 39.2812L35.0063 40.4531V46.3125L36.1781 47.4844V53.3438H22.1156L20.3578 51.5859V31.6641H34.4203L36.1781 33.4219V39.2812H33.2484ZM41.4797 39.8203L47.0344 50.4141H50.8547V32.8359H47.3391V43.4297L41.7844 32.8359H37.9641V50.4141H41.4797V39.8203ZM46.3313 51.5859L44.4094 47.9297V53.3438H38.55L36.7922 51.5859V31.6641H42.4875L44.2453 33.4219L46.1672 37.0781V31.6641H52.0266L53.7844 33.4219V53.3438H48.0891L46.3313 51.5859ZM59.0859 46.8984V43.3828H66.1172V39.8672H59.0859V36.3516H67.2891V32.8359H55.5703V50.4141H67.2891V46.8984H59.0859ZM67.2891 39.2812L69.0469 40.4531V46.3125L70.2188 47.4844V53.3438H56.1562L54.3984 51.5859V31.6641H68.4609L70.2188 33.4219V39.2812H67.2891ZM79.6219 32.8359H77.2781C73.7625 32.8359 72.0047 34.5938 72.0047 38.1094C72.0047 41.625 73.7625 43.3828 77.2781 43.3828H79.6219C80.7938 43.3828 81.3797 43.9688 81.3797 45.1406C81.3797 46.3125 80.7938 46.8984 79.6219 46.8984H77.2781C76.1063 46.8984 75.5203 46.5078 75.5203 45.7266H72.0047C72.0047 48.8516 73.7625 50.4141 77.2781 50.4141H79.6219C83.1375 50.4141 84.8953 48.6562 84.8953 45.1406C84.8953 41.625 83.1375 39.8672 79.6219 39.8672H77.2781C76.1063 39.8672 75.5203 39.2812 75.5203 38.1094C75.5203 36.9375 76.1063 36.3516 77.2781 36.3516H79.6219C80.7938 36.3516 81.3797 36.7422 81.3797 37.5234H84.8953C84.8953 34.3984 83.1375 32.8359 79.6219 32.8359ZM73.4461 43.6992C71.7039 42.707 70.8328 40.8438 70.8328 38.1094C70.8328 33.8125 72.9813 31.6641 77.2781 31.6641H79.6219C82.2391 31.6641 84.2586 32.3672 85.6805 33.7734C87.1102 35.1719 87.825 37.3984 87.825 40.4531H84.5906C85.9656 41.2344 86.8484 42.2109 87.2391 43.3828C87.6297 44.5547 87.825 45.7266 87.825 46.8984C87.825 51.1953 85.6766 53.3438 81.3797 53.3438H79.0359C76.4188 53.3438 74.3953 52.6406 72.9656 51.2344C71.5438 49.8359 70.8328 47.6094 70.8328 44.5547H74.0672C73.8328 44.2969 73.6258 44.0117 73.4461 43.6992ZM93.1266 50.4141V32.8359H89.6109V50.4141H93.1266ZM88.4391 51.5859V31.6641H94.2984L96.0563 33.4219V53.3438H90.1969L88.4391 51.5859ZM105.459 32.8359H103.116C99.6 32.8359 97.8422 34.5938 97.8422 38.1094C97.8422 41.625 99.6 43.3828 103.116 43.3828H105.459C106.631 43.3828 107.217 43.9688 107.217 45.1406C107.217 46.3125 106.631 46.8984 105.459 46.8984H103.116C101.944 46.8984 101.358 46.5078 101.358 45.7266H97.8422C97.8422 48.8516 99.6 50.4141 103.116 50.4141H105.459C108.975 50.4141 110.733 48.6562 110.733 45.1406C110.733 41.625 108.975 39.8672 105.459 39.8672H103.116C101.944 39.8672 101.358 39.2812 101.358 38.1094C101.358 36.9375 101.944 36.3516 103.116 36.3516H105.459C106.631 36.3516 107.217 36.7422 107.217 37.5234H110.733C110.733 34.3984 108.975 32.8359 105.459 32.8359ZM99.2836 43.6992C97.5414 42.707 96.6703 40.8438 96.6703 38.1094C96.6703 33.8125 98.8187 31.6641 103.116 31.6641H105.459C108.077 31.6641 110.096 32.3672 111.518 33.7734C112.948 35.1719 113.662 37.3984 113.662 40.4531H110.428C111.803 41.2344 112.686 42.2109 113.077 43.3828C113.467 44.5547 113.662 45.7266 113.662 46.8984C113.662 51.1953 111.514 53.3438 107.217 53.3438H104.873C102.256 53.3438 100.233 52.6406 98.8031 51.2344C97.3812 49.8359 96.6703 47.6094 96.6703 44.5547H99.9047C99.6703 44.2969 99.4633 44.0117 99.2836 43.6992Z" fill="#002329"/>
</svg>
