<svg width="115" height="115" viewBox="0 0 115 115" fill="none" xmlns="http://www.w3.org/2000/svg">
<g clip-path="url(#clip0)">
<path d="M98.3589 0.677776H17.1684C14.923 0.677776 13.1089 2.49188 13.1089 4.7373V110.285C13.1089 112.53 14.923 114.344 17.1684 114.344H98.3589C100.604 114.344 102.418 112.53 102.418 110.285V4.7373C102.418 2.49188 100.604 0.677776 98.3589 0.677776ZM65.3753 9.8117H77.5538V36.4396L71.6548 32.1391L65.3753 36.6299V9.8117ZM93.2845 105.211H22.2428V9.8117H57.7637V47.4765C57.7637 47.8951 57.8905 48.3138 58.1442 48.6563C58.2982 48.874 58.4939 49.059 58.7199 49.2006C58.9459 49.3422 59.1977 49.4376 59.4608 49.4813C59.7239 49.5249 59.993 49.516 60.2526 49.4549C60.5122 49.3939 60.7571 49.282 60.9732 49.1257L71.6041 41.5267L81.9305 49.0622C82.273 49.3159 82.6917 49.4555 83.123 49.4555C84.2394 49.4555 85.1528 48.5421 85.1528 47.4257V9.8117H93.2718V105.211H93.2845Z" fill="#E6FFFB"/>
</g>
<defs>
<clipPath id="clip0">
<path d="M0.933105 5.67777C0.933105 2.91635 3.17168 0.677776 5.93311 0.677776H109.6C112.361 0.677776 114.6 2.91635 114.6 5.67778V109.344C114.6 112.106 112.361 114.344 109.6 114.344H5.9331C3.17168 114.344 0.933105 112.106 0.933105 109.344V5.67777Z" fill="white"/>
</clipPath>
</defs>
</svg>
