<svg width="79" height="42" viewBox="0 0 79 42" fill="none" xmlns="http://www.w3.org/2000/svg">
<path d="M23.0527 27.2524H20.5918V13.0337H23.0527V27.2524ZM28.0625 16.686L28.1309 17.9067C28.9121 16.9627 29.9375 16.4907 31.207 16.4907C33.4076 16.4907 34.5273 17.7505 34.5664 20.27V27.2524H32.1934V20.4067C32.1934 19.7362 32.0469 19.2414 31.7539 18.9224C31.4674 18.5968 30.9954 18.4341 30.3379 18.4341C29.3809 18.4341 28.668 18.867 28.1992 19.7329V27.2524H25.8262V16.686H28.0625ZM39.5176 27.2524H37.1445V16.686H39.5176V27.2524ZM36.998 13.9419C36.998 13.5773 37.112 13.2746 37.3398 13.0337C37.5742 12.7928 37.9062 12.6724 38.3359 12.6724C38.7656 12.6724 39.0977 12.7928 39.332 13.0337C39.5664 13.2746 39.6836 13.5773 39.6836 13.9419C39.6836 14.3 39.5664 14.5994 39.332 14.8403C39.0977 15.0747 38.7656 15.1919 38.3359 15.1919C37.9062 15.1919 37.5742 15.0747 37.3398 14.8403C37.112 14.5994 36.998 14.3 36.998 13.9419ZM46.4512 25.5532C47.0436 25.5532 47.5352 25.3807 47.9258 25.0356C48.3164 24.6906 48.5247 24.2642 48.5508 23.7563H50.7871C50.7611 24.4139 50.556 25.0291 50.1719 25.6021C49.7878 26.1685 49.2669 26.6177 48.6094 26.9497C47.9518 27.2817 47.2422 27.4478 46.4805 27.4478C45.0026 27.4478 43.8307 26.9692 42.9648 26.0122C42.099 25.0552 41.666 23.7336 41.666 22.0474V21.8032C41.666 20.1951 42.0957 18.9093 42.9551 17.9458C43.8145 16.9757 44.9863 16.4907 46.4707 16.4907C47.7272 16.4907 48.7493 16.8586 49.5371 17.5942C50.3314 18.3234 50.748 19.2837 50.7871 20.4751H48.5508C48.5247 19.8696 48.3164 19.3716 47.9258 18.981C47.5417 18.5903 47.0501 18.395 46.4512 18.395C45.6829 18.395 45.0905 18.675 44.6738 19.2349C44.2572 19.7882 44.0456 20.6313 44.0391 21.7642V22.145C44.0391 23.2909 44.2441 24.147 44.6543 24.7134C45.071 25.2733 45.6699 25.5532 46.4512 25.5532ZM55.1035 27.2524H52.7305V16.686H55.1035V27.2524ZM52.584 13.9419C52.584 13.5773 52.6979 13.2746 52.9258 13.0337C53.1602 12.7928 53.4922 12.6724 53.9219 12.6724C54.3516 12.6724 54.6836 12.7928 54.918 13.0337C55.1523 13.2746 55.2695 13.5773 55.2695 13.9419C55.2695 14.3 55.1523 14.5994 54.918 14.8403C54.6836 15.0747 54.3516 15.1919 53.9219 15.1919C53.4922 15.1919 53.1602 15.0747 52.9258 14.8403C52.6979 14.5994 52.584 14.3 52.584 13.9419ZM57.252 21.8716C57.252 20.8364 57.457 19.9054 57.8672 19.0786C58.2773 18.2453 58.8535 17.6073 59.5957 17.1646C60.3379 16.7153 61.1908 16.4907 62.1543 16.4907C63.5801 16.4907 64.7357 16.9497 65.6211 17.8677C66.513 18.7856 66.9948 20.0031 67.0664 21.52L67.0762 22.0767C67.0762 23.1183 66.8743 24.0493 66.4707 24.8696C66.0736 25.6899 65.5007 26.3247 64.752 26.7739C64.0098 27.2231 63.1504 27.4478 62.1738 27.4478C60.6829 27.4478 59.4883 26.953 58.5898 25.9634C57.6979 24.9673 57.252 23.6424 57.252 21.9888V21.8716ZM59.625 22.0767C59.625 23.1639 59.8496 24.0168 60.2988 24.6353C60.748 25.2472 61.373 25.5532 62.1738 25.5532C62.9746 25.5532 63.5964 25.2407 64.0391 24.6157C64.4883 23.9907 64.7129 23.076 64.7129 21.8716C64.7129 20.8039 64.4818 19.9575 64.0195 19.3325C63.5638 18.7075 62.9421 18.395 62.1543 18.395C61.3796 18.395 60.7643 18.7043 60.3086 19.3228C59.8529 19.9347 59.625 20.8527 59.625 22.0767Z" fill="#E6FFFB"/>
<g clip-path="url(#clip0)">
<path d="M15.7599 19.4929L8.85986 12.4626L8.39736 11.9911C8.29198 11.8844 8.14947 11.8245 8.00093 11.8245C7.8524 11.8245 7.70989 11.8844 7.60451 11.9911L0.242008 19.4929C0.134028 19.6025 0.048689 19.7331 -0.00897057 19.877C-0.0666302 20.0208 -0.0954424 20.1749 -0.0937065 20.3303C-0.0865636 20.971 0.436651 21.4826 1.06522 21.4826H1.82415V27.4116H14.1777V21.4826H14.9527C15.2581 21.4826 15.5456 21.3606 15.7616 21.1403C15.868 21.0322 15.9523 20.9037 16.0097 20.7621C16.067 20.6206 16.0962 20.4688 16.0956 20.3157C16.0956 20.0062 15.9759 19.7132 15.7599 19.4929V19.4929ZM9.00093 26.1009H7.00094V22.3873H9.00093V26.1009ZM12.892 20.1719V26.1009H10.1438V21.9504C10.1438 21.5481 9.82415 21.2223 9.42951 21.2223H6.57236C6.17772 21.2223 5.85808 21.5481 5.85808 21.9504V26.1009H3.10986V20.1719H1.39558L8.00272 13.4419L8.41522 13.8624L14.6081 20.1719H12.892Z" fill="#E6FFFB"/>
</g>
<defs>
<clipPath id="clip0">
<rect width="16" height="16.3107" fill="white" transform="translate(0 11.466)"/>
</clipPath>
</defs>
</svg>
