<svg width="40" height="42" viewBox="0 0 40 42" fill="none" xmlns="http://www.w3.org/2000/svg">
<g filter="url(#filter0_d)">
<rect x="40" y="40" width="40" height="40" rx="20" transform="rotate(-180 40 40)" fill="#08979C"/>
<path d="M14.9033 20.5058L23.9596 27.5792C23.9833 27.5978 24.0117 27.6094 24.0416 27.6126C24.0716 27.6158 24.1018 27.6105 24.1289 27.5973C24.156 27.5841 24.1788 27.5635 24.1946 27.5379C24.2105 27.5123 24.2189 27.4828 24.2187 27.4527V25.8998C24.2187 25.8013 24.1725 25.7069 24.0962 25.6466L16.8641 19.9995L24.0962 14.3524C24.1746 14.2922 24.2187 14.1977 24.2187 14.0993V12.5464C24.2187 12.4118 24.0641 12.3375 23.9596 12.4198L14.9033 19.4933C14.8264 19.5533 14.7641 19.6301 14.7213 19.7178C14.6784 19.8056 14.6562 19.9019 14.6562 19.9995C14.6562 20.0971 14.6784 20.1935 14.7213 20.2812C14.7641 20.3689 14.8264 20.4457 14.9033 20.5058Z" fill="white"/>
<rect x="39.5" y="39.5" width="39" height="39" rx="19.5" transform="rotate(-180 39.5 39.5)" stroke="#13C2C2"/>
</g>
<defs>
<filter id="filter0_d" x="0" y="0" width="40" height="42" filterUnits="userSpaceOnUse" color-interpolation-filters="sRGB">
<feFlood flood-opacity="0" result="BackgroundImageFix"/>
<feColorMatrix in="SourceAlpha" type="matrix" values="0 0 0 0 0 0 0 0 0 0 0 0 0 0 0 0 0 0 127 0"/>
<feOffset dy="2"/>
<feColorMatrix type="matrix" values="0 0 0 0 0 0 0 0 0 0 0 0 0 0 0 0 0 0 0.043 0"/>
<feBlend mode="normal" in2="BackgroundImageFix" result="effect1_dropShadow"/>
<feBlend mode="normal" in="SourceGraphic" in2="effect1_dropShadow" result="shape"/>
</filter>
</defs>
</svg>
