<svg width="115" height="115" viewBox="0 0 115 115" fill="none" xmlns="http://www.w3.org/2000/svg">
<path d="M104.503 15.9164H83.1908V7.79736C83.1908 7.23917 82.7341 6.78248 82.1759 6.78248H75.0717C74.5136 6.78248 74.0569 7.23917 74.0569 7.79736V15.9164H41.5807V7.79736C41.5807 7.23917 41.124 6.78248 40.5658 6.78248H33.4616C32.9034 6.78248 32.4467 7.23917 32.4467 7.79736V15.9164H11.1342C8.88881 15.9164 7.07471 17.7305 7.07471 19.9759V104.211C7.07471 106.456 8.88881 108.271 11.1342 108.271H104.503C106.749 108.271 108.563 106.456 108.563 104.211V19.9759C108.563 17.7305 106.749 15.9164 104.503 15.9164ZM99.4289 99.1367H16.2086V25.0503H32.4467V31.1396C32.4467 31.6978 32.9034 32.1545 33.4616 32.1545H40.5658C41.124 32.1545 41.5807 31.6978 41.5807 31.1396V25.0503H74.0569V31.1396C74.0569 31.6978 74.5136 32.1545 75.0717 32.1545H82.1759C82.7341 32.1545 83.1908 31.6978 83.1908 31.1396V25.0503H99.4289V99.1367ZM80.1461 45.8554H73.1435C72.4965 45.8554 71.8749 46.1726 71.4943 46.6927L52.3511 73.0542L44.1432 61.7637C43.7627 61.2435 43.1537 60.9264 42.4941 60.9264H35.4914C34.6668 60.9264 34.1847 61.8651 34.6668 62.5375L50.7019 84.6112C50.8915 84.8707 51.1397 85.0818 51.4263 85.2273C51.7128 85.3729 52.0297 85.4487 52.3511 85.4487C52.6725 85.4487 52.9894 85.3729 53.2759 85.2273C53.5625 85.0818 53.8107 84.8707 54.0003 84.6112L80.9707 47.4792C81.4528 46.7942 80.9707 45.8554 80.1461 45.8554Z" fill="#E6FFFB"/>
</svg>
