<svg width="241" height="31" viewBox="0 0 241 31" fill="none" xmlns="http://www.w3.org/2000/svg">
<path d="M0.584 15.744C0.584 13.504 0.936 11.472 1.64 9.648C2.376 7.824 3.416 6.272 4.76 4.992C6.104 3.68 7.736 2.672 9.656 1.968C11.576 1.232 13.72 0.863997 16.088 0.863997C17.496 0.863997 18.92 0.991998 20.36 1.248C21.8 1.504 23.048 1.888 24.104 2.4L23.624 8.016C22.76 7.376 21.752 6.928 20.6 6.672C19.48 6.384 18.328 6.24 17.144 6.24C14.2 6.24 11.928 7.104 10.328 8.832C8.76 10.56 7.976 12.864 7.976 15.744C7.976 18.752 8.792 21.088 10.424 22.752C12.088 24.384 14.36 25.2 17.24 25.2C18.456 25.2 19.608 25.056 20.696 24.768C21.816 24.448 22.84 23.968 23.768 23.328L24.296 29.04C23.112 29.584 21.816 29.968 20.408 30.192C19 30.448 17.624 30.576 16.28 30.576C13.88 30.576 11.704 30.224 9.752 29.52C7.832 28.816 6.184 27.824 4.808 26.544C3.464 25.232 2.424 23.664 1.688 21.84C0.952 20.016 0.584 17.984 0.584 15.744ZM54.9575 15.744C54.9575 17.856 54.6535 19.824 54.0455 21.648C53.4375 23.44 52.5415 25.008 51.3575 26.352C50.1735 27.664 48.7015 28.704 46.9415 29.472C45.2135 30.208 43.2295 30.576 40.9895 30.576C38.7175 30.576 36.7175 30.208 34.9895 29.472C33.2615 28.704 31.8055 27.664 30.6215 26.352C29.4375 25.008 28.5415 23.44 27.9335 21.648C27.3255 19.824 27.0215 17.856 27.0215 15.744C27.0215 13.632 27.3255 11.664 27.9335 9.84C28.5415 8.016 29.4375 6.448 30.6215 5.136C31.8055 3.792 33.2615 2.752 34.9895 2.016C36.7175 1.248 38.7175 0.863997 40.9895 0.863997C43.2295 0.863997 45.2135 1.248 46.9415 2.016C48.7015 2.752 50.1735 3.792 51.3575 5.136C52.5415 6.448 53.4375 8.016 54.0455 9.84C54.6535 11.664 54.9575 13.632 54.9575 15.744ZM34.4135 15.744C34.4135 18.784 34.9895 21.12 36.1415 22.752C37.3255 24.384 38.9415 25.2 40.9895 25.2C43.0375 25.2 44.6375 24.384 45.7895 22.752C46.9735 21.12 47.5655 18.784 47.5655 15.744C47.5655 12.672 46.9735 10.32 45.7895 8.688C44.6375 7.056 43.0375 6.24 40.9895 6.24C38.9415 6.24 37.3255 7.056 36.1415 8.688C34.9895 10.32 34.4135 12.672 34.4135 15.744ZM66.6905 11.136V30H59.6825V1.44H68.0825L77.9225 20.304V1.44H84.9305V30H76.6265L66.6905 11.136ZM89.8865 9.216C89.8865 6.656 90.8465 4.624 92.7665 3.12C94.7185 1.616 97.5025 0.863997 101.119 0.863997C102.623 0.863997 104.079 0.991998 105.487 1.248C106.895 1.472 108.223 1.808 109.471 2.256L108.943 7.776C106.447 6.752 104.047 6.24 101.743 6.24C100.143 6.24 98.9905 6.496 98.2865 7.008C97.6145 7.52 97.2785 8.128 97.2785 8.832C97.2785 9.696 97.6305 10.432 98.3345 11.04C99.0705 11.648 100.447 12.304 102.463 13.008C105.407 14.032 107.551 15.248 108.895 16.656C110.271 18.032 110.959 19.808 110.959 21.984C110.959 24.704 110.015 26.816 108.127 28.32C106.239 29.824 103.359 30.576 99.4865 30.576C97.7905 30.576 96.1105 30.4 94.4465 30.048C92.8145 29.696 91.3265 29.184 89.9825 28.512L90.5105 22.56C91.6945 23.392 93.0065 24.048 94.4465 24.528C95.9185 24.976 97.4225 25.2 98.9585 25.2C100.207 25.2 101.279 24.976 102.174 24.528C103.103 24.048 103.567 23.296 103.567 22.272C103.567 21.792 103.471 21.36 103.279 20.976C103.119 20.592 102.815 20.24 102.367 19.92C101.951 19.568 101.391 19.232 100.687 18.912C99.9825 18.592 99.1025 18.256 98.0465 17.904C95.4545 17.072 93.4385 15.936 91.9985 14.496C90.5905 13.056 89.8865 11.296 89.8865 9.216ZM127.949 30.576C126.061 30.576 124.333 30.336 122.765 29.856C121.197 29.344 119.853 28.592 118.733 27.6C117.613 26.576 116.749 25.312 116.141 23.808C115.533 22.304 115.229 20.528 115.229 18.48V1.44H122.525V18.432C122.525 20.672 122.957 22.368 123.821 23.52C124.685 24.64 126.061 25.2 127.949 25.2C129.837 25.2 131.213 24.64 132.077 23.52C132.941 22.368 133.373 20.672 133.373 18.432V1.44H140.669V18.48C140.669 20.528 140.365 22.304 139.757 23.808C139.149 25.312 138.285 26.576 137.165 27.6C136.045 28.592 134.701 29.344 133.133 29.856C131.565 30.336 129.837 30.576 127.949 30.576ZM146.917 1.44H154.213V24.72H168.229V30H146.917V1.44ZM174.566 6.72H166.454V1.44H189.974V6.72H181.862V30H174.566V6.72ZM207.812 1.44L217.46 30H209.828L208.004 23.904H198.068L196.244 30H188.66L198.308 1.44H207.812ZM199.652 18.624H206.42L203.06 7.248L199.652 18.624ZM219.449 9.216C219.449 6.656 220.409 4.624 222.329 3.12C224.281 1.616 227.065 0.863997 230.681 0.863997C232.185 0.863997 233.641 0.991998 235.049 1.248C236.457 1.472 237.785 1.808 239.033 2.256L238.505 7.776C236.009 6.752 233.609 6.24 231.305 6.24C229.705 6.24 228.553 6.496 227.849 7.008C227.177 7.52 226.841 8.128 226.841 8.832C226.841 9.696 227.193 10.432 227.897 11.04C228.633 11.648 230.009 12.304 232.025 13.008C234.969 14.032 237.113 15.248 238.457 16.656C239.833 18.032 240.521 19.808 240.521 21.984C240.521 24.704 239.577 26.816 237.689 28.32C235.801 29.824 232.921 30.576 229.049 30.576C227.353 30.576 225.673 30.4 224.009 30.048C222.377 29.696 220.889 29.184 219.545 28.512L220.073 22.56C221.257 23.392 222.569 24.048 224.009 24.528C225.481 24.976 226.985 25.2 228.521 25.2C229.769 25.2 230.841 24.976 231.737 24.528C232.665 24.048 233.129 23.296 233.129 22.272C233.129 21.792 233.033 21.36 232.841 20.976C232.681 20.592 232.377 20.24 231.929 19.92C231.513 19.568 230.953 19.232 230.249 18.912C229.545 18.592 228.665 18.256 227.609 17.904C225.017 17.072 223.001 15.936 221.561 14.496C220.153 13.056 219.449 11.296 219.449 9.216Z" fill="#E6FFFB"/>
</svg>
