<svg width="405" height="57" viewBox="0 0 405 57" fill="none" xmlns="http://www.w3.org/2000/svg">
<path d="M191.305 16.7539H187.789C182.516 16.7539 179.879 19.3906 179.879 24.6641V35.2109C179.879 40.4844 182.516 43.1211 187.789 43.1211H191.305C196.578 43.1211 199.215 40.4844 199.215 35.2109V27.3008H190.426V32.5742H193.941V35.2109C193.941 36.9688 193.062 37.8477 191.305 37.8477H187.789C186.031 37.8477 185.152 36.9688 185.152 35.2109V24.6641C185.152 22.9062 186.031 22.0273 187.789 22.0273H191.305C193.062 22.0273 193.941 22.6133 193.941 23.7852H199.215C199.215 19.0977 196.578 16.7539 191.305 16.7539ZM190.426 36.0898L188.668 34.332V36.0898H190.426ZM199.742 17.9492C201.734 19.9062 202.73 23.0234 202.73 27.3008V36.9688C202.73 43.4141 199.508 46.6367 193.062 46.6367H189.547C185.738 46.6367 182.879 45.6875 180.969 43.7891C179.07 41.8789 178.121 39.0195 178.121 35.2109V24.6641C178.121 18.2188 181.344 14.9961 187.789 14.9961H191.305C194.949 14.9961 197.762 15.9805 199.742 17.9492ZM220.382 37.8477V32.5742H230.929V27.3008H220.382V22.0273H232.686V16.7539H215.108V43.1211H232.686V37.8477H220.382ZM232.686 26.4219L235.323 28.1797V36.9688L237.081 38.7266V47.5156H215.987L213.35 44.8789V14.9961H234.444L237.081 17.6328V26.4219H232.686ZM253.853 27.2305L262.185 43.1211H267.916V16.7539H262.642V32.6445L254.31 16.7539H248.58V43.1211H253.853V27.2305ZM261.131 44.8789L258.248 39.3945V47.5156H249.459L246.822 44.8789V14.9961H255.365L258.002 17.6328L260.885 23.1172V14.9961H269.674L272.31 17.6328V47.5156H263.767L261.131 44.8789ZM289.083 37.8477V32.5742H299.63V27.3008H289.083V22.0273H301.387V16.7539H283.809V43.1211H301.387V37.8477H289.083ZM301.387 26.4219L304.024 28.1797V36.9688L305.782 38.7266V47.5156H284.688L282.051 44.8789V14.9961H303.145L305.782 17.6328V26.4219H301.387ZM328.707 16.7539H325.191C319.917 16.7539 317.281 19.3906 317.281 24.6641C317.281 29.9375 319.917 32.5742 325.191 32.5742H328.707C330.464 32.5742 331.343 33.4531 331.343 35.2109C331.343 36.9688 330.464 37.8477 328.707 37.8477H325.191C323.433 37.8477 322.554 37.2617 322.554 36.0898H317.281C317.281 40.7773 319.917 43.1211 325.191 43.1211H328.707C333.98 43.1211 336.617 40.4844 336.617 35.2109C336.617 29.9375 333.98 27.3008 328.707 27.3008H325.191C323.433 27.3008 322.554 26.4219 322.554 24.6641C322.554 22.9062 323.433 22.0273 325.191 22.0273H328.707C330.464 22.0273 331.343 22.6133 331.343 23.7852H336.617C336.617 19.0977 333.98 16.7539 328.707 16.7539ZM319.443 33.0488C316.83 31.5605 315.523 28.7656 315.523 24.6641C315.523 18.2188 318.746 14.9961 325.191 14.9961H328.707C332.632 14.9961 335.662 16.0508 337.794 18.1602C339.939 20.2578 341.011 23.5977 341.011 28.1797H336.16C338.222 29.3516 339.546 30.8164 340.132 32.5742C340.718 34.332 341.011 36.0898 341.011 37.8477C341.011 44.293 337.789 47.5156 331.343 47.5156H327.828C323.902 47.5156 320.867 46.4609 318.722 44.3516C316.589 42.2539 315.523 38.9141 315.523 34.332H320.375C320.023 33.9453 319.712 33.5176 319.443 33.0488ZM357.784 43.1211V16.7539H352.51V43.1211H357.784ZM350.752 44.8789V14.9961H359.541L362.178 17.6328V47.5156H353.389L350.752 44.8789ZM385.103 16.7539H381.587C376.314 16.7539 373.677 19.3906 373.677 24.6641C373.677 29.9375 376.314 32.5742 381.587 32.5742H385.103C386.861 32.5742 387.74 33.4531 387.74 35.2109C387.74 36.9688 386.861 37.8477 385.103 37.8477H381.587C379.829 37.8477 378.95 37.2617 378.95 36.0898H373.677C373.677 40.7773 376.314 43.1211 381.587 43.1211H385.103C390.376 43.1211 393.013 40.4844 393.013 35.2109C393.013 29.9375 390.376 27.3008 385.103 27.3008H381.587C379.829 27.3008 378.95 26.4219 378.95 24.6641C378.95 22.9062 379.829 22.0273 381.587 22.0273H385.103C386.861 22.0273 387.74 22.6133 387.74 23.7852H393.013C393.013 19.0977 390.376 16.7539 385.103 16.7539ZM375.839 33.0488C373.226 31.5605 371.919 28.7656 371.919 24.6641C371.919 18.2188 375.142 14.9961 381.587 14.9961H385.103C389.029 14.9961 392.058 16.0508 394.191 18.1602C396.335 20.2578 397.408 23.5977 397.408 28.1797H392.556C394.618 29.3516 395.943 30.8164 396.529 32.5742C397.115 34.332 397.408 36.0898 397.408 37.8477C397.408 44.293 394.185 47.5156 387.74 47.5156H384.224C380.298 47.5156 377.263 46.4609 375.118 44.3516C372.986 42.2539 371.919 38.9141 371.919 34.332H376.771C376.419 33.9453 376.109 33.5176 375.839 33.0488Z" fill="#E6FFFB"/>
<path d="M3.12 17.44H23.424V22.72H10.416V28.768H22.512V34.048H10.416V40.72H23.808V46H3.12V17.44ZM27.2771 25.216C27.2771 22.656 28.2371 20.624 30.1571 19.12C32.1091 17.616 34.8931 16.864 38.5091 16.864C40.0131 16.864 41.4691 16.992 42.8771 17.248C44.2851 17.472 45.6131 17.808 46.8611 18.256L46.3331 23.776C43.8371 22.752 41.4371 22.24 39.1331 22.24C37.5331 22.24 36.3811 22.496 35.6771 23.008C35.0051 23.52 34.6691 24.128 34.6691 24.832C34.6691 25.696 35.0211 26.432 35.7251 27.04C36.4611 27.648 37.8371 28.304 39.8531 29.008C42.7971 30.032 44.9411 31.248 46.2851 32.656C47.6611 34.032 48.3491 35.808 48.3491 37.984C48.3491 40.704 47.4051 42.816 45.5171 44.32C43.6291 45.824 40.7491 46.576 36.8771 46.576C35.1811 46.576 33.5011 46.4 31.8371 46.048C30.2051 45.696 28.7171 45.184 27.3731 44.512L27.9011 38.56C29.0851 39.392 30.3971 40.048 31.8371 40.528C33.3091 40.976 34.8131 41.2 36.3491 41.2C37.5971 41.2 38.6691 40.976 39.5651 40.528C40.4931 40.048 40.9571 39.296 40.9571 38.272C40.9571 37.792 40.8611 37.36 40.6691 36.976C40.5091 36.592 40.2051 36.24 39.7571 35.92C39.3411 35.568 38.7811 35.232 38.0771 34.912C37.3731 34.592 36.4931 34.256 35.4371 33.904C32.8451 33.072 30.8291 31.936 29.3891 30.496C27.9811 29.056 27.2771 27.296 27.2771 25.216ZM58.332 22.72H50.22V17.44H73.74V22.72H65.628V46H58.332V22.72ZM91.5773 17.44L101.225 46H93.5933L91.7693 39.904H81.8333L80.0093 46H72.4253L82.0733 17.44H91.5773ZM83.4173 34.624H90.1853L86.8253 23.248L83.4173 34.624ZM113.679 40.72C116.463 40.72 118.591 40.048 120.063 38.704C121.535 37.36 122.271 35.024 122.271 31.696C122.271 28.4 121.535 26.08 120.063 24.736C118.591 23.392 116.463 22.72 113.679 22.72H111.807V40.72H113.679ZM104.511 46V17.44H114.015C116.319 17.44 118.431 17.744 120.351 18.352C122.271 18.928 123.903 19.808 125.247 20.992C126.623 22.176 127.695 23.664 128.463 25.456C129.231 27.216 129.615 29.296 129.615 31.696C129.615 34.096 129.231 36.192 128.463 37.984C127.695 39.776 126.623 41.264 125.247 42.448C123.871 43.632 122.223 44.528 120.303 45.136C118.383 45.712 116.271 46 113.967 46H104.511ZM160.723 31.744C160.723 33.856 160.419 35.824 159.811 37.648C159.203 39.44 158.307 41.008 157.123 42.352C155.939 43.664 154.467 44.704 152.707 45.472C150.979 46.208 148.995 46.576 146.755 46.576C144.483 46.576 142.483 46.208 140.755 45.472C139.027 44.704 137.571 43.664 136.387 42.352C135.203 41.008 134.307 39.44 133.699 37.648C133.091 35.824 132.787 33.856 132.787 31.744C132.787 29.632 133.091 27.664 133.699 25.84C134.307 24.016 135.203 22.448 136.387 21.136C137.571 19.792 139.027 18.752 140.755 18.016C142.483 17.248 144.483 16.864 146.755 16.864C148.995 16.864 150.979 17.248 152.707 18.016C154.467 18.752 155.939 19.792 157.123 21.136C158.307 22.448 159.203 24.016 159.811 25.84C160.419 27.664 160.723 29.632 160.723 31.744ZM140.179 31.744C140.179 34.784 140.755 37.12 141.907 38.752C143.091 40.384 144.707 41.2 146.755 41.2C148.803 41.2 150.403 40.384 151.555 38.752C152.739 37.12 153.331 34.784 153.331 31.744C153.331 28.672 152.739 26.32 151.555 24.688C150.403 23.056 148.803 22.24 146.755 22.24C144.707 22.24 143.091 23.056 141.907 24.688C140.755 26.32 140.179 28.672 140.179 31.744Z" fill="#E6FFFB"/>
</svg>
