<svg width="114" height="115" viewBox="0 0 114 115" fill="none" xmlns="http://www.w3.org/2000/svg">
<g clip-path="url(#clip0)">
<path d="M100.593 29.1706L73.2923 1.87026C72.5312 1.1091 71.5036 0.677776 70.4253 0.677776H16.5351C14.2897 0.677776 12.4756 2.49188 12.4756 4.7373V110.285C12.4756 112.53 14.2897 114.344 16.5351 114.344H97.7256C99.971 114.344 101.785 112.53 101.785 110.285V32.0503C101.785 30.972 101.354 29.9317 100.593 29.1706ZM92.4228 33.9151H68.5478V10.0401L92.4228 33.9151ZM92.6512 105.211H21.6095V9.8117H59.9213V37.2135C59.9213 38.6266 60.4826 39.9818 61.4818 40.981C62.4811 41.9803 63.8363 42.5416 65.2494 42.5416H92.6512V105.211ZM56.1155 70.9583H32.7732C32.215 70.9583 31.7583 71.415 31.7583 71.9732V78.0624C31.7583 78.6206 32.215 79.0773 32.7732 79.0773H56.1155C56.6737 79.0773 57.1304 78.6206 57.1304 78.0624V71.9732C57.1304 71.415 56.6737 70.9583 56.1155 70.9583ZM31.7583 54.7202V60.8095C31.7583 61.3677 32.215 61.8243 32.7732 61.8243H81.4875C82.0457 61.8243 82.5024 61.3677 82.5024 60.8095V54.7202C82.5024 54.162 82.0457 53.7053 81.4875 53.7053H32.7732C32.215 53.7053 31.7583 54.162 31.7583 54.7202Z" fill="white"/>
</g>
<defs>
<clipPath id="clip0">
<rect width="113.667" height="113.667" fill="white" transform="translate(0.299805 0.677776)"/>
</clipPath>
</defs>
</svg>
