<svg width="580" height="418" viewBox="0 0 580 418" fill="none" xmlns="http://www.w3.org/2000/svg">
<path d="M1 47C1 21.5949 21.5949 1 47 1H533C558.405 1 579 21.5949 579 47V371C579 396.405 558.405 417 533 417H47C21.5949 417 1 396.405 1 371V47Z" fill="#B5F5EC" stroke="#08979C" stroke-width="2"/>
<rect x="36.3125" y="209" width="16" height="16" rx="2" fill="white"/>
<g clip-path="url(#clip0)">
<rect x="36.3125" y="209" width="16" height="16" rx="2" fill="#13C2C2"/>
<path d="M42.918 221.222L42.9003 221.24L39.5005 217.84L40.9332 216.407L42.918 218.392L47.692 213.618L49.1247 215.051L42.9356 221.24L42.918 221.222Z" fill="white"/>
</g>
<path d="M65.1182 217.974H62.7803V222H61.4609V212.047H64.7559C65.877 212.047 66.7383 212.302 67.3398 212.812C67.946 213.323 68.249 214.066 68.249 215.041C68.249 215.661 68.0804 216.201 67.7432 216.661C67.4105 217.121 66.9456 217.465 66.3486 217.693L68.6865 221.918V222H67.2783L65.1182 217.974ZM62.7803 216.9H64.7969C65.4486 216.9 65.9658 216.732 66.3486 216.395C66.736 216.057 66.9297 215.606 66.9297 215.041C66.9297 214.426 66.7451 213.954 66.376 213.626C66.0114 213.298 65.4827 213.132 64.79 213.127H62.7803V216.9ZM72.9658 222.137C71.9632 222.137 71.1475 221.809 70.5186 221.152C69.8896 220.492 69.5752 219.61 69.5752 218.507V218.274C69.5752 217.541 69.7142 216.887 69.9922 216.312C70.2747 215.734 70.6667 215.283 71.168 214.959C71.6738 214.631 72.2207 214.467 72.8086 214.467C73.7702 214.467 74.5176 214.784 75.0508 215.417C75.584 216.05 75.8506 216.957 75.8506 218.138V218.664H70.8398C70.8581 219.393 71.07 219.983 71.4756 220.435C71.8857 220.881 72.4053 221.104 73.0342 221.104C73.4808 221.104 73.859 221.013 74.1689 220.831C74.4788 220.649 74.75 220.407 74.9824 220.106L75.7549 220.708C75.1351 221.66 74.2054 222.137 72.9658 222.137ZM72.8086 215.506C72.2982 215.506 71.8698 215.693 71.5234 216.066C71.1771 216.436 70.9629 216.955 70.8809 217.625H74.5859V217.529C74.5495 216.887 74.3763 216.39 74.0664 216.039C73.7565 215.684 73.3372 215.506 72.8086 215.506ZM80.2871 221.104C80.7383 221.104 81.1325 220.968 81.4697 220.694C81.807 220.421 81.9938 220.079 82.0303 219.669H83.2266C83.2038 220.093 83.0579 220.496 82.7891 220.879C82.5202 221.262 82.1602 221.567 81.709 221.795C81.2624 222.023 80.7884 222.137 80.2871 222.137C79.2799 222.137 78.4779 221.802 77.8809 221.132C77.2884 220.457 76.9922 219.537 76.9922 218.37V218.158C76.9922 217.438 77.1243 216.798 77.3887 216.237C77.653 215.677 78.0312 215.242 78.5234 214.932C79.0202 214.622 79.6058 214.467 80.2803 214.467C81.1097 214.467 81.7979 214.715 82.3447 215.212C82.8962 215.709 83.1901 216.354 83.2266 217.146H82.0303C81.9938 216.668 81.8115 216.276 81.4834 215.971C81.1598 215.661 80.7588 215.506 80.2803 215.506C79.6377 215.506 79.1387 215.738 78.7832 216.203C78.4323 216.663 78.2568 217.331 78.2568 218.206V218.445C78.2568 219.298 78.4323 219.954 78.7832 220.414C79.1341 220.874 79.6354 221.104 80.2871 221.104ZM89.2148 221.269C88.7227 221.847 88.0003 222.137 87.0479 222.137C86.2594 222.137 85.6579 221.909 85.2432 221.453C84.833 220.993 84.6257 220.314 84.6211 219.416V214.604H85.8857V219.382C85.8857 220.503 86.3415 221.063 87.2529 221.063C88.2191 221.063 88.8617 220.703 89.1807 219.983V214.604H90.4453V222H89.2422L89.2148 221.269ZM95.4424 222.137C94.4398 222.137 93.624 221.809 92.9951 221.152C92.3662 220.492 92.0518 219.61 92.0518 218.507V218.274C92.0518 217.541 92.1908 216.887 92.4688 216.312C92.7513 215.734 93.1432 215.283 93.6445 214.959C94.1504 214.631 94.6973 214.467 95.2852 214.467C96.2467 214.467 96.9941 214.784 97.5273 215.417C98.0605 216.05 98.3271 216.957 98.3271 218.138V218.664H93.3164C93.3346 219.393 93.5465 219.983 93.9521 220.435C94.3623 220.881 94.8818 221.104 95.5107 221.104C95.9574 221.104 96.3356 221.013 96.6455 220.831C96.9554 220.649 97.2266 220.407 97.459 220.106L98.2314 220.708C97.6117 221.66 96.682 222.137 95.4424 222.137ZM95.2852 215.506C94.7747 215.506 94.3464 215.693 94 216.066C93.6536 216.436 93.4395 216.955 93.3574 217.625H97.0625V217.529C97.026 216.887 96.8529 216.39 96.543 216.039C96.2331 215.684 95.8138 215.506 95.2852 215.506ZM103.372 215.738C103.181 215.706 102.973 215.69 102.75 215.69C101.921 215.69 101.358 216.044 101.062 216.75V222H99.7969V214.604H101.027L101.048 215.458C101.463 214.797 102.05 214.467 102.812 214.467C103.058 214.467 103.244 214.499 103.372 214.562V215.738ZM104.097 218.24C104.097 217.105 104.366 216.194 104.903 215.506C105.441 214.813 106.145 214.467 107.016 214.467C107.882 214.467 108.567 214.763 109.073 215.355V211.5H110.338V222H109.176L109.114 221.207C108.608 221.827 107.904 222.137 107.002 222.137C106.145 222.137 105.446 221.786 104.903 221.084C104.366 220.382 104.097 219.466 104.097 218.336V218.24ZM105.361 218.384C105.361 219.222 105.535 219.879 105.881 220.353C106.227 220.826 106.706 221.063 107.316 221.063C108.118 221.063 108.704 220.703 109.073 219.983V216.586C108.695 215.889 108.114 215.54 107.33 215.54C106.71 215.54 106.227 215.779 105.881 216.258C105.535 216.736 105.361 217.445 105.361 218.384ZM116.873 222C116.8 221.854 116.741 221.594 116.695 221.221C116.107 221.831 115.406 222.137 114.59 222.137C113.861 222.137 113.261 221.932 112.792 221.521C112.327 221.107 112.095 220.583 112.095 219.949C112.095 219.179 112.386 218.582 112.97 218.158C113.558 217.73 114.382 217.516 115.444 217.516H116.675V216.935C116.675 216.493 116.543 216.142 116.278 215.882C116.014 215.618 115.624 215.485 115.109 215.485C114.658 215.485 114.28 215.599 113.975 215.827C113.669 216.055 113.517 216.331 113.517 216.654H112.245C112.245 216.285 112.375 215.93 112.635 215.588C112.899 215.242 113.255 214.968 113.701 214.768C114.152 214.567 114.647 214.467 115.185 214.467C116.037 214.467 116.704 214.681 117.188 215.109C117.671 215.533 117.921 216.119 117.939 216.866V220.271C117.939 220.95 118.026 221.49 118.199 221.891V222H116.873ZM114.774 221.036C115.171 221.036 115.547 220.934 115.902 220.729C116.258 220.523 116.515 220.257 116.675 219.929V218.411H115.684C114.134 218.411 113.359 218.865 113.359 219.771C113.359 220.168 113.492 220.478 113.756 220.701C114.02 220.924 114.36 221.036 114.774 221.036ZM121.111 214.604L121.146 215.424C121.688 214.786 122.419 214.467 123.34 214.467C124.374 214.467 125.078 214.863 125.452 215.656C125.698 215.301 126.017 215.014 126.409 214.795C126.806 214.576 127.273 214.467 127.811 214.467C129.433 214.467 130.258 215.326 130.285 217.044V222H129.021V217.119C129.021 216.59 128.9 216.196 128.658 215.937C128.417 215.672 128.011 215.54 127.441 215.54C126.972 215.54 126.582 215.681 126.272 215.964C125.963 216.242 125.783 216.618 125.732 217.092V222H124.461V217.153C124.461 216.078 123.935 215.54 122.882 215.54C122.052 215.54 121.485 215.893 121.18 216.6V222H119.915V214.604H121.111ZM135.269 222.137C134.266 222.137 133.45 221.809 132.821 221.152C132.192 220.492 131.878 219.61 131.878 218.507V218.274C131.878 217.541 132.017 216.887 132.295 216.312C132.577 215.734 132.969 215.283 133.471 214.959C133.977 214.631 134.523 214.467 135.111 214.467C136.073 214.467 136.82 214.784 137.354 215.417C137.887 216.05 138.153 216.957 138.153 218.138V218.664H133.143C133.161 219.393 133.373 219.983 133.778 220.435C134.188 220.881 134.708 221.104 135.337 221.104C135.784 221.104 136.162 221.013 136.472 220.831C136.782 220.649 137.053 220.407 137.285 220.106L138.058 220.708C137.438 221.66 136.508 222.137 135.269 222.137ZM135.111 215.506C134.601 215.506 134.173 215.693 133.826 216.066C133.48 216.436 133.266 216.955 133.184 217.625H136.889V217.529C136.852 216.887 136.679 216.39 136.369 216.039C136.059 215.684 135.64 215.506 135.111 215.506Z" fill="#002329"/>
<path d="M363.79 216.688C363.784 217.24 363.727 217.682 363.618 218.016C363.514 218.344 363.336 218.661 363.086 218.969C362.836 219.276 362.472 219.682 361.993 220.188C361.514 220.688 361.245 221.195 361.188 221.711L361.172 222C361.172 222.568 361.323 223 361.625 223.297C361.928 223.599 362.362 223.75 362.93 223.75C363.451 223.75 363.873 223.602 364.196 223.305C364.524 223.013 364.688 222.63 364.688 222.156H366.133C366.123 222.995 365.823 223.68 365.235 224.211C364.652 224.742 363.883 225.008 362.93 225.008C361.909 225.008 361.12 224.745 360.563 224.219C360.006 223.698 359.727 222.971 359.727 222.039C359.727 221.138 360.144 220.232 360.977 219.32L361.829 218.438C362.172 218.031 362.344 217.448 362.344 216.688H363.79ZM363.852 214.211C363.852 214.445 363.779 214.643 363.633 214.805C363.493 214.966 363.282 215.047 363 215.047C362.719 215.047 362.506 214.966 362.36 214.805C362.214 214.643 362.141 214.445 362.141 214.211C362.141 213.982 362.214 213.789 362.36 213.633C362.506 213.477 362.719 213.398 363 213.398C363.282 213.398 363.493 213.477 363.633 213.633C363.779 213.789 363.852 213.982 363.852 214.211ZM376.844 216.68C376.844 217.794 376.657 218.768 376.282 219.602C375.907 220.43 375.375 221.062 374.688 221.5C374 221.938 373.198 222.156 372.282 222.156C371.386 222.156 370.592 221.938 369.899 221.5C369.206 221.057 368.667 220.43 368.282 219.617C367.902 218.799 367.706 217.854 367.696 216.781V215.961C367.696 214.867 367.886 213.901 368.266 213.062C368.646 212.224 369.183 211.583 369.875 211.141C370.573 210.693 371.37 210.469 372.266 210.469C373.178 210.469 373.98 210.69 374.672 211.133C375.37 211.57 375.907 212.208 376.282 213.047C376.657 213.88 376.844 214.852 376.844 215.961V216.68ZM375.352 215.945C375.352 214.596 375.081 213.562 374.54 212.844C373.998 212.12 373.24 211.758 372.266 211.758C371.318 211.758 370.571 212.12 370.024 212.844C369.482 213.562 369.204 214.562 369.188 215.844V216.68C369.188 217.987 369.461 219.016 370.008 219.766C370.56 220.51 371.318 220.883 372.282 220.883C373.25 220.883 374 220.531 374.532 219.828C375.063 219.12 375.336 218.107 375.352 216.789V215.945ZM380.438 222H378.993V210H380.438V222ZM385.547 220.039L387.641 213.547H389.118L386.086 222H384.985L381.922 213.547H383.399L385.547 220.039ZM392.079 222H390.633V213.547H392.079V222ZM390.516 211.305C390.516 211.07 390.586 210.872 390.727 210.711C390.873 210.549 391.086 210.469 391.368 210.469C391.649 210.469 391.862 210.549 392.008 210.711C392.154 210.872 392.227 211.07 392.227 211.305C392.227 211.539 392.154 211.734 392.008 211.891C391.862 212.047 391.649 212.125 391.368 212.125C391.086 212.125 390.873 212.047 390.727 211.891C390.586 211.734 390.516 211.539 390.516 211.305ZM394.047 217.703C394.047 216.406 394.355 215.365 394.969 214.578C395.584 213.786 396.389 213.391 397.383 213.391C398.373 213.391 399.157 213.729 399.735 214.406V210H401.18V222H399.852L399.782 221.094C399.204 221.802 398.399 222.156 397.368 222.156C396.389 222.156 395.589 221.755 394.969 220.953C394.355 220.151 394.047 219.104 394.047 217.812V217.703ZM395.493 217.867C395.493 218.826 395.691 219.576 396.086 220.117C396.482 220.659 397.029 220.93 397.727 220.93C398.644 220.93 399.313 220.518 399.735 219.695V215.812C399.303 215.016 398.639 214.617 397.743 214.617C397.034 214.617 396.482 214.891 396.086 215.438C395.691 215.984 395.493 216.794 395.493 217.867ZM408.649 222C408.566 221.833 408.498 221.536 408.446 221.109C407.774 221.807 406.972 222.156 406.04 222.156C405.206 222.156 404.521 221.922 403.985 221.453C403.454 220.979 403.188 220.38 403.188 219.656C403.188 218.776 403.521 218.094 404.188 217.609C404.86 217.12 405.803 216.875 407.016 216.875H408.422V216.211C408.422 215.706 408.271 215.305 407.969 215.008C407.667 214.706 407.222 214.555 406.633 214.555C406.118 214.555 405.685 214.685 405.336 214.945C404.987 215.206 404.813 215.521 404.813 215.891H403.36C403.36 215.469 403.508 215.062 403.805 214.672C404.107 214.276 404.514 213.964 405.024 213.734C405.54 213.505 406.105 213.391 406.719 213.391C407.693 213.391 408.456 213.635 409.008 214.125C409.56 214.609 409.847 215.279 409.868 216.133V220.023C409.868 220.799 409.967 221.417 410.165 221.875V222H408.649ZM406.25 220.898C406.704 220.898 407.133 220.781 407.54 220.547C407.946 220.312 408.24 220.008 408.422 219.633V217.898H407.29C405.519 217.898 404.633 218.417 404.633 219.453C404.633 219.906 404.784 220.26 405.086 220.516C405.389 220.771 405.777 220.898 406.25 220.898ZM417.055 219.758C417.055 219.367 416.907 219.065 416.61 218.852C416.318 218.633 415.805 218.445 415.071 218.289C414.342 218.133 413.761 217.945 413.329 217.727C412.902 217.508 412.584 217.247 412.375 216.945C412.172 216.643 412.071 216.284 412.071 215.867C412.071 215.174 412.362 214.589 412.946 214.109C413.534 213.63 414.284 213.391 415.196 213.391C416.154 213.391 416.93 213.638 417.524 214.133C418.123 214.628 418.422 215.26 418.422 216.031H416.969C416.969 215.635 416.8 215.294 416.461 215.008C416.128 214.721 415.706 214.578 415.196 214.578C414.67 214.578 414.258 214.693 413.961 214.922C413.665 215.151 413.516 215.451 413.516 215.82C413.516 216.169 413.654 216.432 413.93 216.609C414.206 216.786 414.704 216.956 415.422 217.117C416.146 217.279 416.732 217.471 417.18 217.695C417.628 217.919 417.959 218.19 418.172 218.508C418.391 218.82 418.5 219.203 418.5 219.656C418.5 220.411 418.198 221.018 417.594 221.477C416.99 221.93 416.206 222.156 415.243 222.156C414.566 222.156 413.967 222.036 413.446 221.797C412.925 221.557 412.516 221.224 412.219 220.797C411.928 220.365 411.782 219.898 411.782 219.398H413.227C413.253 219.883 413.446 220.268 413.805 220.555C414.17 220.836 414.649 220.977 415.243 220.977C415.79 220.977 416.227 220.867 416.555 220.648C416.889 220.424 417.055 220.128 417.055 219.758ZM422.344 211.5V213.547H423.922V214.664H422.344V219.906C422.344 220.245 422.415 220.5 422.555 220.672C422.696 220.839 422.935 220.922 423.274 220.922C423.441 220.922 423.67 220.891 423.961 220.828V222C423.581 222.104 423.211 222.156 422.852 222.156C422.206 222.156 421.719 221.961 421.391 221.57C421.063 221.18 420.899 220.625 420.899 219.906V214.664H419.36V213.547H420.899V211.5H422.344ZM429.125 222.156C427.98 222.156 427.047 221.781 426.329 221.031C425.61 220.276 425.25 219.268 425.25 218.008V217.742C425.25 216.904 425.409 216.156 425.727 215.5C426.05 214.839 426.498 214.323 427.071 213.953C427.649 213.578 428.274 213.391 428.946 213.391C430.045 213.391 430.899 213.753 431.508 214.477C432.118 215.201 432.422 216.237 432.422 217.586V218.188H426.696C426.717 219.021 426.959 219.695 427.422 220.211C427.891 220.721 428.485 220.977 429.204 220.977C429.714 220.977 430.146 220.872 430.5 220.664C430.855 220.456 431.165 220.18 431.43 219.836L432.313 220.523C431.605 221.612 430.542 222.156 429.125 222.156ZM428.946 214.578C428.362 214.578 427.873 214.792 427.477 215.219C427.081 215.641 426.836 216.234 426.743 217H430.977V216.891C430.935 216.156 430.737 215.589 430.383 215.188C430.029 214.781 429.55 214.578 428.946 214.578ZM440.032 211.5V213.547H441.61V214.664H440.032V219.906C440.032 220.245 440.102 220.5 440.243 220.672C440.383 220.839 440.623 220.922 440.961 220.922C441.128 220.922 441.357 220.891 441.649 220.828V222C441.269 222.104 440.899 222.156 440.54 222.156C439.894 222.156 439.407 221.961 439.079 221.57C438.75 221.18 438.586 220.625 438.586 219.906V214.664H437.047V213.547H438.586V211.5H440.032ZM448.524 221.164C447.961 221.826 447.136 222.156 446.047 222.156C445.146 222.156 444.459 221.896 443.985 221.375C443.516 220.849 443.279 220.073 443.274 219.047V213.547H444.719V219.008C444.719 220.289 445.24 220.93 446.282 220.93C447.386 220.93 448.12 220.518 448.485 219.695V213.547H449.93V222H448.555L448.524 221.164ZM464.696 218.391C464.555 219.594 464.11 220.523 463.36 221.18C462.615 221.831 461.623 222.156 460.383 222.156C459.04 222.156 457.961 221.674 457.149 220.711C456.342 219.747 455.938 218.458 455.938 216.844V215.75C455.938 214.693 456.125 213.763 456.5 212.961C456.881 212.159 457.417 211.544 458.11 211.117C458.803 210.685 459.605 210.469 460.516 210.469C461.724 210.469 462.693 210.807 463.422 211.484C464.152 212.156 464.576 213.089 464.696 214.281H463.188C463.058 213.375 462.774 212.719 462.336 212.312C461.904 211.906 461.297 211.703 460.516 211.703C459.558 211.703 458.805 212.057 458.258 212.766C457.717 213.474 457.446 214.482 457.446 215.789V216.891C457.446 218.125 457.704 219.107 458.219 219.836C458.735 220.565 459.456 220.93 460.383 220.93C461.217 220.93 461.855 220.742 462.297 220.367C462.745 219.987 463.042 219.328 463.188 218.391H464.696ZM466.141 217.695C466.141 216.867 466.303 216.122 466.625 215.461C466.954 214.799 467.407 214.289 467.985 213.93C468.568 213.57 469.232 213.391 469.977 213.391C471.128 213.391 472.058 213.789 472.766 214.586C473.48 215.383 473.836 216.443 473.836 217.766V217.867C473.836 218.69 473.678 219.43 473.36 220.086C473.047 220.737 472.597 221.245 472.008 221.609C471.425 221.974 470.753 222.156 469.993 222.156C468.847 222.156 467.917 221.758 467.204 220.961C466.495 220.164 466.141 219.109 466.141 217.797V217.695ZM467.594 217.867C467.594 218.805 467.81 219.557 468.243 220.125C468.68 220.693 469.264 220.977 469.993 220.977C470.727 220.977 471.31 220.69 471.743 220.117C472.175 219.539 472.391 218.732 472.391 217.695C472.391 216.768 472.17 216.018 471.727 215.445C471.29 214.867 470.706 214.578 469.977 214.578C469.264 214.578 468.688 214.862 468.25 215.43C467.813 215.997 467.594 216.81 467.594 217.867ZM477.016 213.547L477.063 214.609C477.709 213.797 478.553 213.391 479.594 213.391C481.381 213.391 482.282 214.398 482.297 216.414V222H480.852V216.406C480.847 215.797 480.706 215.346 480.43 215.055C480.159 214.763 479.735 214.617 479.157 214.617C478.688 214.617 478.277 214.742 477.922 214.992C477.568 215.242 477.292 215.57 477.094 215.977V222H475.649V213.547H477.016ZM486.438 211.5V213.547H488.016V214.664H486.438V219.906C486.438 220.245 486.508 220.5 486.649 220.672C486.79 220.839 487.029 220.922 487.368 220.922C487.534 220.922 487.764 220.891 488.055 220.828V222C487.675 222.104 487.305 222.156 486.946 222.156C486.3 222.156 485.813 221.961 485.485 221.57C485.157 221.18 484.993 220.625 484.993 219.906V214.664H483.454V213.547H484.993V211.5H486.438ZM493.797 214.844C493.579 214.807 493.342 214.789 493.086 214.789C492.139 214.789 491.495 215.193 491.157 216V222H489.711V213.547H491.118L491.141 214.523C491.615 213.768 492.287 213.391 493.157 213.391C493.438 213.391 493.652 213.427 493.797 213.5V214.844ZM500.04 222C499.956 221.833 499.889 221.536 499.836 221.109C499.165 221.807 498.362 222.156 497.43 222.156C496.597 222.156 495.912 221.922 495.375 221.453C494.844 220.979 494.579 220.38 494.579 219.656C494.579 218.776 494.912 218.094 495.579 217.609C496.25 217.12 497.193 216.875 498.407 216.875H499.813V216.211C499.813 215.706 499.662 215.305 499.36 215.008C499.058 214.706 498.612 214.555 498.024 214.555C497.508 214.555 497.076 214.685 496.727 214.945C496.378 215.206 496.204 215.521 496.204 215.891H494.75C494.75 215.469 494.899 215.062 495.196 214.672C495.498 214.276 495.904 213.964 496.415 213.734C496.93 213.505 497.495 213.391 498.11 213.391C499.084 213.391 499.847 213.635 500.399 214.125C500.951 214.609 501.237 215.279 501.258 216.133V220.023C501.258 220.799 501.357 221.417 501.555 221.875V222H500.04ZM497.641 220.898C498.094 220.898 498.524 220.781 498.93 220.547C499.336 220.312 499.631 220.008 499.813 219.633V217.898H498.68C496.909 217.898 496.024 218.417 496.024 219.453C496.024 219.906 496.175 220.26 496.477 220.516C496.779 220.771 497.167 220.898 497.641 220.898ZM508.446 219.758C508.446 219.367 508.297 219.065 508 218.852C507.709 218.633 507.196 218.445 506.461 218.289C505.732 218.133 505.152 217.945 504.719 217.727C504.292 217.508 503.974 217.247 503.766 216.945C503.563 216.643 503.461 216.284 503.461 215.867C503.461 215.174 503.753 214.589 504.336 214.109C504.925 213.63 505.675 213.391 506.586 213.391C507.545 213.391 508.321 213.638 508.915 214.133C509.514 214.628 509.813 215.26 509.813 216.031H508.36C508.36 215.635 508.191 215.294 507.852 215.008C507.519 214.721 507.097 214.578 506.586 214.578C506.06 214.578 505.649 214.693 505.352 214.922C505.055 215.151 504.907 215.451 504.907 215.82C504.907 216.169 505.045 216.432 505.321 216.609C505.597 216.786 506.094 216.956 506.813 217.117C507.537 217.279 508.123 217.471 508.571 217.695C509.019 217.919 509.349 218.19 509.563 218.508C509.782 218.82 509.891 219.203 509.891 219.656C509.891 220.411 509.589 221.018 508.985 221.477C508.381 221.93 507.597 222.156 506.633 222.156C505.956 222.156 505.357 222.036 504.836 221.797C504.316 221.557 503.907 221.224 503.61 220.797C503.318 220.365 503.172 219.898 503.172 219.398H504.618C504.644 219.883 504.836 220.268 505.196 220.555C505.56 220.836 506.04 220.977 506.633 220.977C507.18 220.977 507.618 220.867 507.946 220.648C508.279 220.424 508.446 220.128 508.446 219.758ZM515.282 222.156C514.136 222.156 513.204 221.781 512.485 221.031C511.766 220.276 511.407 219.268 511.407 218.008V217.742C511.407 216.904 511.566 216.156 511.883 215.5C512.206 214.839 512.654 214.323 513.227 213.953C513.805 213.578 514.43 213.391 515.102 213.391C516.201 213.391 517.055 213.753 517.665 214.477C518.274 215.201 518.579 216.237 518.579 217.586V218.188H512.852C512.873 219.021 513.115 219.695 513.579 220.211C514.047 220.721 514.641 220.977 515.36 220.977C515.87 220.977 516.303 220.872 516.657 220.664C517.011 220.456 517.321 220.18 517.586 219.836L518.469 220.523C517.761 221.612 516.698 222.156 515.282 222.156ZM515.102 214.578C514.519 214.578 514.029 214.792 513.633 215.219C513.237 215.641 512.993 216.234 512.899 217H517.133V216.891C517.092 216.156 516.894 215.589 516.54 215.188C516.185 214.781 515.706 214.578 515.102 214.578ZM521.625 213.547L521.672 214.609C522.318 213.797 523.162 213.391 524.204 213.391C525.99 213.391 526.891 214.398 526.907 216.414V222H525.461V216.406C525.456 215.797 525.316 215.346 525.04 215.055C524.769 214.763 524.344 214.617 523.766 214.617C523.297 214.617 522.886 214.742 522.532 214.992C522.178 215.242 521.902 215.57 521.704 215.977V222H520.258V213.547H521.625ZM526.407 210.25C526.407 210.812 526.245 211.268 525.922 211.617C525.605 211.966 525.206 212.141 524.727 212.141C524.514 212.141 524.329 212.115 524.172 212.062C524.016 212.01 523.81 211.904 523.555 211.742C523.305 211.581 523.123 211.484 523.008 211.453C522.899 211.417 522.771 211.398 522.625 211.398C522.412 211.398 522.23 211.482 522.079 211.648C521.928 211.81 521.852 212.018 521.852 212.273L520.883 212.219C520.883 211.661 521.04 211.201 521.352 210.836C521.67 210.471 522.071 210.289 522.555 210.289C522.737 210.289 522.902 210.315 523.047 210.367C523.193 210.419 523.391 210.521 523.641 210.672C523.891 210.823 524.081 210.922 524.211 210.969C524.347 211.016 524.495 211.039 524.657 211.039C524.881 211.039 525.066 210.951 525.211 210.773C525.362 210.596 525.438 210.391 525.438 210.156L526.407 210.25ZM534.305 222C534.222 221.833 534.154 221.536 534.102 221.109C533.43 221.807 532.628 222.156 531.696 222.156C530.862 222.156 530.178 221.922 529.641 221.453C529.11 220.979 528.844 220.38 528.844 219.656C528.844 218.776 529.178 218.094 529.844 217.609C530.516 217.12 531.459 216.875 532.672 216.875H534.079V216.211C534.079 215.706 533.928 215.305 533.625 215.008C533.323 214.706 532.878 214.555 532.29 214.555C531.774 214.555 531.342 214.685 530.993 214.945C530.644 215.206 530.469 215.521 530.469 215.891H529.016C529.016 215.469 529.165 215.062 529.461 214.672C529.764 214.276 530.17 213.964 530.68 213.734C531.196 213.505 531.761 213.391 532.375 213.391C533.349 213.391 534.112 213.635 534.665 214.125C535.217 214.609 535.503 215.279 535.524 216.133V220.023C535.524 220.799 535.623 221.417 535.821 221.875V222H534.305ZM531.907 220.898C532.36 220.898 532.79 220.781 533.196 220.547C533.602 220.312 533.896 220.008 534.079 219.633V217.898H532.946C531.175 217.898 530.29 218.417 530.29 219.453C530.29 219.906 530.441 220.26 530.743 220.516C531.045 220.771 531.433 220.898 531.907 220.898ZM539.485 218.797C539.495 218.177 539.566 217.688 539.696 217.328C539.826 216.969 540.092 216.57 540.493 216.133L541.516 215.078C541.954 214.583 542.172 214.052 542.172 213.484C542.172 212.938 542.029 212.51 541.743 212.203C541.456 211.891 541.04 211.734 540.493 211.734C539.961 211.734 539.534 211.875 539.211 212.156C538.889 212.438 538.727 212.815 538.727 213.289H537.282C537.292 212.445 537.592 211.766 538.18 211.25C538.774 210.729 539.545 210.469 540.493 210.469C541.477 210.469 542.243 210.734 542.79 211.266C543.342 211.792 543.618 212.516 543.618 213.438C543.618 214.349 543.196 215.247 542.352 216.133L541.5 216.977C541.12 217.398 540.93 218.005 540.93 218.797H539.485ZM539.422 221.273C539.422 221.039 539.493 220.844 539.633 220.688C539.779 220.526 539.993 220.445 540.274 220.445C540.555 220.445 540.769 220.526 540.915 220.688C541.06 220.844 541.133 221.039 541.133 221.273C541.133 221.508 541.06 221.703 540.915 221.859C540.769 222.01 540.555 222.086 540.274 222.086C539.993 222.086 539.779 222.01 539.633 221.859C539.493 221.703 539.422 221.508 539.422 221.273Z" fill="#08979C"/>
<path d="M35.5 69C35.5 68.1716 36.1716 67.5 37 67.5H543C543.828 67.5 544.5 68.1716 544.5 69V105C544.5 105.828 543.828 106.5 543 106.5H37C36.1716 106.5 35.5 105.828 35.5 105V69Z" fill="white"/>
<path d="M61.1889 91.4937C60.8521 90.6958 60.3632 89.971 59.7497 89.3597C59.1379 88.7467 58.4133 88.258 57.6157 87.9205C57.6086 87.9169 57.6014 87.9151 57.5943 87.9115C58.7068 87.108 59.43 85.799 59.43 84.3222C59.43 81.8758 57.4479 79.8937 55.0014 79.8937C52.555 79.8937 50.5729 81.8758 50.5729 84.3222C50.5729 85.799 51.2961 87.108 52.4086 87.9133C52.4014 87.9169 52.3943 87.9187 52.3872 87.9222C51.5872 88.2597 50.8693 88.7437 50.2532 89.3615C49.6402 89.9733 49.1514 90.6979 48.8139 91.4955C48.4824 92.2763 48.3036 93.1134 48.2872 93.9615C48.2867 93.9806 48.29 93.9996 48.297 94.0173C48.304 94.0351 48.3144 94.0512 48.3277 94.0649C48.341 94.0785 48.3569 94.0894 48.3745 94.0968C48.3921 94.1042 48.4109 94.108 48.43 94.108H49.5014C49.58 94.108 49.6425 94.0455 49.6443 93.9687C49.68 92.5901 50.2336 91.299 51.2122 90.3205C52.2247 89.308 53.5693 88.7508 55.0014 88.7508C56.4336 88.7508 57.7782 89.308 58.7907 90.3205C59.7693 91.299 60.3229 92.5901 60.3586 93.9687C60.3604 94.0473 60.4229 94.108 60.5014 94.108H61.5729C61.5919 94.108 61.6108 94.1042 61.6284 94.0968C61.6459 94.0894 61.6619 94.0785 61.6752 94.0649C61.6885 94.0512 61.6989 94.0351 61.7059 94.0173C61.7129 93.9996 61.7162 93.9806 61.7157 93.9615C61.6979 93.108 61.5211 92.2776 61.1889 91.4937ZM55.0014 87.3937C54.1818 87.3937 53.4104 87.074 52.83 86.4937C52.2497 85.9133 51.93 85.1419 51.93 84.3222C51.93 83.5026 52.2497 82.7312 52.83 82.1508C53.4104 81.5705 54.1818 81.2508 55.0014 81.2508C55.8211 81.2508 56.5925 81.5705 57.1729 82.1508C57.7532 82.7312 58.0729 83.5026 58.0729 84.3222C58.0729 85.1419 57.7532 85.9133 57.1729 86.4937C56.5925 87.074 55.8211 87.3937 55.0014 87.3937Z" fill="#13C2C2"/>
<path d="M69.9297 92H68.4297V80.625H69.9297V92ZM72.1016 87.7031C72.1016 86.4062 72.4089 85.3646 73.0234 84.5781C73.638 83.7865 74.4427 83.3906 75.4375 83.3906C76.4271 83.3906 77.2109 83.7292 77.7891 84.4062V80H79.2344V92H77.9062L77.8359 91.0938C77.2578 91.8021 76.4531 92.1562 75.4219 92.1562C74.4427 92.1562 73.6432 91.7552 73.0234 90.9531C72.4089 90.151 72.1016 89.1042 72.1016 87.8125V87.7031ZM73.5469 87.8672C73.5469 88.8255 73.7448 89.5755 74.1406 90.1172C74.5365 90.6589 75.0833 90.9297 75.7812 90.9297C76.6979 90.9297 77.3672 90.5182 77.7891 89.6953V85.8125C77.3568 85.0156 76.6927 84.6172 75.7969 84.6172C75.0885 84.6172 74.5365 84.8906 74.1406 85.4375C73.7448 85.9844 73.5469 86.7943 73.5469 87.8672ZM84.9922 92.1562C83.8464 92.1562 82.9141 91.7812 82.1953 91.0312C81.4766 90.276 81.1172 89.2682 81.1172 88.0078V87.7422C81.1172 86.9036 81.276 86.1562 81.5938 85.5C81.9167 84.8385 82.3646 84.3229 82.9375 83.9531C83.5156 83.5781 84.1406 83.3906 84.8125 83.3906C85.9115 83.3906 86.7656 83.7526 87.375 84.4766C87.9844 85.2005 88.2891 86.237 88.2891 87.5859V88.1875H82.5625C82.5833 89.0208 82.8255 89.6953 83.2891 90.2109C83.7578 90.7214 84.3516 90.9766 85.0703 90.9766C85.5807 90.9766 86.013 90.8724 86.3672 90.6641C86.7214 90.4557 87.0312 90.1797 87.2969 89.8359L88.1797 90.5234C87.4714 91.612 86.4089 92.1562 84.9922 92.1562ZM84.8125 84.5781C84.2292 84.5781 83.7396 84.7917 83.3438 85.2188C82.9479 85.6406 82.7031 86.2344 82.6094 87H86.8438V86.8906C86.8021 86.1562 86.6042 85.5885 86.25 85.1875C85.8958 84.7812 85.4167 84.5781 84.8125 84.5781ZM91.3359 83.5469L91.3828 84.6094C92.0286 83.7969 92.8724 83.3906 93.9141 83.3906C95.7005 83.3906 96.6016 84.3984 96.6172 86.4141V92H95.1719V86.4062C95.1667 85.7969 95.026 85.3464 94.75 85.0547C94.4792 84.763 94.0547 84.6172 93.4766 84.6172C93.0078 84.6172 92.5964 84.7422 92.2422 84.9922C91.888 85.2422 91.612 85.5703 91.4141 85.9766V92H89.9688V83.5469H91.3359ZM100.758 81.5V83.5469H102.336V84.6641H100.758V89.9062C100.758 90.2448 100.828 90.5 100.969 90.6719C101.109 90.8385 101.349 90.9219 101.688 90.9219C101.854 90.9219 102.083 90.8906 102.375 90.8281V92C101.995 92.1042 101.625 92.1562 101.266 92.1562C100.62 92.1562 100.133 91.9609 99.8047 91.5703C99.4766 91.1797 99.3125 90.625 99.3125 89.9062V84.6641H97.7734V83.5469H99.3125V81.5H100.758ZM105.602 92H104.156V83.5469H105.602V92ZM104.039 81.3047C104.039 81.0703 104.109 80.8724 104.25 80.7109C104.396 80.5495 104.609 80.4688 104.891 80.4688C105.172 80.4688 105.385 80.5495 105.531 80.7109C105.677 80.8724 105.75 81.0703 105.75 81.3047C105.75 81.5391 105.677 81.7344 105.531 81.8906C105.385 82.0469 105.172 82.125 104.891 82.125C104.609 82.125 104.396 82.0469 104.25 81.8906C104.109 81.7344 104.039 81.5391 104.039 81.3047ZM108.406 92V84.6641H107.07V83.5469H108.406V82.8281C108.406 81.8854 108.674 81.151 109.211 80.625C109.753 80.099 110.516 79.8359 111.5 79.8359C112.083 79.8359 112.82 79.9948 113.711 80.3125L113.469 81.5312C112.818 81.2708 112.198 81.1406 111.609 81.1406C110.99 81.1406 110.542 81.2812 110.266 81.5625C109.995 81.8385 109.859 82.2552 109.859 82.8125V83.5469H111.586V84.6641H109.859V92H108.406ZM114.43 92H112.977V83.5469H114.43V92ZM120.172 90.9766C120.688 90.9766 121.138 90.8203 121.523 90.5078C121.909 90.1953 122.122 89.8047 122.164 89.3359H123.531C123.505 89.8203 123.339 90.2812 123.031 90.7188C122.724 91.1562 122.312 91.5052 121.797 91.7656C121.286 92.026 120.745 92.1562 120.172 92.1562C119.021 92.1562 118.104 91.7734 117.422 91.0078C116.745 90.237 116.406 89.1849 116.406 87.8516V87.6094C116.406 86.7865 116.557 86.0547 116.859 85.4141C117.161 84.7734 117.594 84.276 118.156 83.9219C118.724 83.5677 119.393 83.3906 120.164 83.3906C121.112 83.3906 121.898 83.6745 122.523 84.2422C123.154 84.8099 123.49 85.5469 123.531 86.4531H122.164C122.122 85.9062 121.914 85.4583 121.539 85.1094C121.169 84.7552 120.711 84.5781 120.164 84.5781C119.43 84.5781 118.859 84.8438 118.453 85.375C118.052 85.901 117.852 86.6641 117.852 87.6641V87.9375C117.852 88.9115 118.052 89.6615 118.453 90.1875C118.854 90.7135 119.427 90.9766 120.172 90.9766ZM130.375 92C130.292 91.8333 130.224 91.5365 130.172 91.1094C129.5 91.8073 128.698 92.1562 127.766 92.1562C126.932 92.1562 126.247 91.9219 125.711 91.4531C125.18 90.9792 124.914 90.3802 124.914 89.6562C124.914 88.776 125.247 88.0938 125.914 87.6094C126.586 87.1198 127.529 86.875 128.742 86.875H130.148V86.2109C130.148 85.7057 129.997 85.3047 129.695 85.0078C129.393 84.7057 128.948 84.5547 128.359 84.5547C127.844 84.5547 127.411 84.6849 127.062 84.9453C126.714 85.2057 126.539 85.5208 126.539 85.8906H125.086C125.086 85.4688 125.234 85.0625 125.531 84.6719C125.833 84.276 126.24 83.9635 126.75 83.7344C127.266 83.5052 127.831 83.3906 128.445 83.3906C129.419 83.3906 130.182 83.6354 130.734 84.125C131.286 84.6094 131.573 85.2786 131.594 86.1328V90.0234C131.594 90.7995 131.693 91.4167 131.891 91.875V92H130.375ZM127.977 90.8984C128.43 90.8984 128.859 90.7812 129.266 90.5469C129.672 90.3125 129.966 90.0078 130.148 89.6328V87.8984H129.016C127.245 87.8984 126.359 88.4167 126.359 89.4531C126.359 89.9062 126.51 90.2604 126.812 90.5156C127.115 90.7708 127.503 90.8984 127.977 90.8984ZM137.25 90.9766C137.766 90.9766 138.216 90.8203 138.602 90.5078C138.987 90.1953 139.201 89.8047 139.242 89.3359H140.609C140.583 89.8203 140.417 90.2812 140.109 90.7188C139.802 91.1562 139.391 91.5052 138.875 91.7656C138.365 92.026 137.823 92.1562 137.25 92.1562C136.099 92.1562 135.182 91.7734 134.5 91.0078C133.823 90.237 133.484 89.1849 133.484 87.8516V87.6094C133.484 86.7865 133.635 86.0547 133.938 85.4141C134.24 84.7734 134.672 84.276 135.234 83.9219C135.802 83.5677 136.471 83.3906 137.242 83.3906C138.19 83.3906 138.977 83.6745 139.602 84.2422C140.232 84.8099 140.568 85.5469 140.609 86.4531H139.242C139.201 85.9062 138.992 85.4583 138.617 85.1094C138.247 84.7552 137.789 84.5781 137.242 84.5781C136.508 84.5781 135.938 84.8438 135.531 85.375C135.13 85.901 134.93 86.6641 134.93 87.6641V87.9375C134.93 88.9115 135.13 89.6615 135.531 90.1875C135.932 90.7135 136.505 90.9766 137.25 90.9766ZM143.805 92H142.359V83.5469H143.805V92ZM142.242 81.3047C142.242 81.0703 142.312 80.8724 142.453 80.7109C142.599 80.5495 142.812 80.4688 143.094 80.4688C143.375 80.4688 143.589 80.5495 143.734 80.7109C143.88 80.8724 143.953 81.0703 143.953 81.3047C143.953 81.5391 143.88 81.7344 143.734 81.8906C143.589 82.0469 143.375 82.125 143.094 82.125C142.812 82.125 142.599 82.0469 142.453 81.8906C142.312 81.7344 142.242 81.5391 142.242 81.3047ZM145.742 87.6953C145.742 86.8672 145.904 86.1224 146.227 85.4609C146.555 84.7995 147.008 84.2891 147.586 83.9297C148.169 83.5703 148.833 83.3906 149.578 83.3906C150.729 83.3906 151.659 83.7891 152.367 84.5859C153.081 85.3828 153.438 86.4427 153.438 87.7656V87.8672C153.438 88.6901 153.279 89.4297 152.961 90.0859C152.648 90.737 152.198 91.2448 151.609 91.6094C151.026 91.974 150.354 92.1562 149.594 92.1562C148.448 92.1562 147.518 91.7578 146.805 90.9609C146.096 90.1641 145.742 89.1094 145.742 87.7969V87.6953ZM147.195 87.8672C147.195 88.8047 147.411 89.5573 147.844 90.125C148.281 90.6927 148.865 90.9766 149.594 90.9766C150.328 90.9766 150.911 90.6901 151.344 90.1172C151.776 89.5391 151.992 88.7318 151.992 87.6953C151.992 86.7682 151.771 86.0182 151.328 85.4453C150.891 84.8672 150.307 84.5781 149.578 84.5781C148.865 84.5781 148.289 84.862 147.852 85.4297C147.414 85.9974 147.195 86.8099 147.195 87.8672ZM150.234 80H151.984L149.891 82.2969H148.727L150.234 80ZM156.617 83.5469L156.664 84.6094C157.31 83.7969 158.154 83.3906 159.195 83.3906C160.982 83.3906 161.883 84.3984 161.898 86.4141V92H160.453V86.4062C160.448 85.7969 160.307 85.3464 160.031 85.0547C159.76 84.763 159.336 84.6172 158.758 84.6172C158.289 84.6172 157.878 84.7422 157.523 84.9922C157.169 85.2422 156.893 85.5703 156.695 85.9766V92H155.25V83.5469H156.617Z" fill="black" fill-opacity="0.25"/>
<path d="M35.5 69C35.5 68.1716 36.1716 67.5 37 67.5H543C543.828 67.5 544.5 68.1716 544.5 69V105C544.5 105.828 543.828 106.5 543 106.5H37C36.1716 106.5 35.5 105.828 35.5 105V69Z" stroke="#13C2C2"/>
<path d="M35.5 138C35.5 137.172 36.1716 136.5 37 136.5H543C543.828 136.5 544.5 137.172 544.5 138V174C544.5 174.828 543.828 175.5 543 175.5H37C36.1716 175.5 35.5 174.828 35.5 174V138Z" fill="white"/>
<path d="M60.7163 155.148H59.502V151.148C59.502 149.886 58.4788 148.862 57.2163 148.862H52.7877C51.5252 148.862 50.502 149.886 50.502 151.148V155.148H49.2877C48.9717 155.148 48.7163 155.403 48.7163 155.719V162.577C48.7163 162.893 48.9717 163.148 49.2877 163.148H60.7163C61.0324 163.148 61.2877 162.893 61.2877 162.577V155.719C61.2877 155.403 61.0324 155.148 60.7163 155.148ZM51.7877 151.148C51.7877 150.596 52.236 150.148 52.7877 150.148H57.2163C57.7681 150.148 58.2163 150.596 58.2163 151.148V155.148H51.7877V151.148ZM60.002 161.862H50.002V156.434H60.002V161.862ZM54.502 159.38V160.327C54.502 160.405 54.5663 160.469 54.6449 160.469H55.3592C55.4377 160.469 55.502 160.405 55.502 160.327V159.38C55.6494 159.274 55.7595 159.124 55.8163 158.952C55.8731 158.78 55.8737 158.594 55.8181 158.421C55.7625 158.248 55.6536 158.098 55.5069 157.991C55.3603 157.884 55.1835 157.826 55.002 157.826C54.8206 157.826 54.6438 157.884 54.4971 157.991C54.3505 158.098 54.2415 158.248 54.1859 158.421C54.1303 158.594 54.131 158.78 54.1878 158.952C54.2446 159.124 54.3546 159.274 54.502 159.38Z" fill="#13C2C2"/>
<path d="M76.6875 157.391C76.5469 158.594 76.1016 159.523 75.3516 160.18C74.6068 160.831 73.6146 161.156 72.375 161.156C71.0312 161.156 69.9531 160.674 69.1406 159.711C68.3333 158.747 67.9297 157.458 67.9297 155.844V154.75C67.9297 153.693 68.1172 152.763 68.4922 151.961C68.8724 151.159 69.4089 150.544 70.1016 150.117C70.7943 149.685 71.5964 149.469 72.5078 149.469C73.7161 149.469 74.6849 149.807 75.4141 150.484C76.1432 151.156 76.5677 152.089 76.6875 153.281H75.1797C75.0495 152.375 74.7656 151.719 74.3281 151.312C73.8958 150.906 73.2891 150.703 72.5078 150.703C71.5495 150.703 70.7969 151.057 70.25 151.766C69.7083 152.474 69.4375 153.482 69.4375 154.789V155.891C69.4375 157.125 69.6953 158.107 70.2109 158.836C70.7266 159.565 71.4479 159.93 72.375 159.93C73.2083 159.93 73.8464 159.742 74.2891 159.367C74.737 158.987 75.0339 158.328 75.1797 157.391H76.6875ZM78.1328 156.695C78.1328 155.867 78.2943 155.122 78.6172 154.461C78.9453 153.799 79.3984 153.289 79.9766 152.93C80.5599 152.57 81.224 152.391 81.9688 152.391C83.1198 152.391 84.0495 152.789 84.7578 153.586C85.4714 154.383 85.8281 155.443 85.8281 156.766V156.867C85.8281 157.69 85.6693 158.43 85.3516 159.086C85.0391 159.737 84.5885 160.245 84 160.609C83.4167 160.974 82.7448 161.156 81.9844 161.156C80.8385 161.156 79.9089 160.758 79.1953 159.961C78.487 159.164 78.1328 158.109 78.1328 156.797V156.695ZM79.5859 156.867C79.5859 157.805 79.8021 158.557 80.2344 159.125C80.6719 159.693 81.2552 159.977 81.9844 159.977C82.7188 159.977 83.3021 159.69 83.7344 159.117C84.1667 158.539 84.3828 157.732 84.3828 156.695C84.3828 155.768 84.1615 155.018 83.7188 154.445C83.2812 153.867 82.6979 153.578 81.9688 153.578C81.2552 153.578 80.6797 153.862 80.2422 154.43C79.8047 154.997 79.5859 155.81 79.5859 156.867ZM89.0078 152.547L89.0547 153.609C89.7005 152.797 90.5443 152.391 91.5859 152.391C93.3724 152.391 94.2734 153.398 94.2891 155.414V161H92.8438V155.406C92.8385 154.797 92.6979 154.346 92.4219 154.055C92.151 153.763 91.7266 153.617 91.1484 153.617C90.6797 153.617 90.2682 153.742 89.9141 153.992C89.5599 154.242 89.2839 154.57 89.0859 154.977V161H87.6406V152.547H89.0078ZM98.4297 150.5V152.547H100.008V153.664H98.4297V158.906C98.4297 159.245 98.5 159.5 98.6406 159.672C98.7812 159.839 99.0208 159.922 99.3594 159.922C99.526 159.922 99.7552 159.891 100.047 159.828V161C99.6667 161.104 99.2969 161.156 98.9375 161.156C98.2917 161.156 97.8047 160.961 97.4766 160.57C97.1484 160.18 96.9844 159.625 96.9844 158.906V153.664H95.4453V152.547H96.9844V150.5H98.4297ZM105.789 153.844C105.57 153.807 105.333 153.789 105.078 153.789C104.13 153.789 103.487 154.193 103.148 155V161H101.703V152.547H103.109L103.133 153.523C103.607 152.768 104.279 152.391 105.148 152.391C105.43 152.391 105.643 152.427 105.789 152.5V153.844ZM112.031 161C111.948 160.833 111.88 160.536 111.828 160.109C111.156 160.807 110.354 161.156 109.422 161.156C108.589 161.156 107.904 160.922 107.367 160.453C106.836 159.979 106.57 159.38 106.57 158.656C106.57 157.776 106.904 157.094 107.57 156.609C108.242 156.12 109.185 155.875 110.398 155.875H111.805V155.211C111.805 154.706 111.654 154.305 111.352 154.008C111.049 153.706 110.604 153.555 110.016 153.555C109.5 153.555 109.068 153.685 108.719 153.945C108.37 154.206 108.195 154.521 108.195 154.891H106.742C106.742 154.469 106.891 154.062 107.188 153.672C107.49 153.276 107.896 152.964 108.406 152.734C108.922 152.505 109.487 152.391 110.102 152.391C111.076 152.391 111.839 152.635 112.391 153.125C112.943 153.609 113.229 154.279 113.25 155.133V159.023C113.25 159.799 113.349 160.417 113.547 160.875V161H112.031ZM109.633 159.898C110.086 159.898 110.516 159.781 110.922 159.547C111.328 159.312 111.622 159.008 111.805 158.633V156.898H110.672C108.901 156.898 108.016 157.417 108.016 158.453C108.016 158.906 108.167 159.26 108.469 159.516C108.771 159.771 109.159 159.898 109.633 159.898ZM120.438 158.758C120.438 158.367 120.289 158.065 119.992 157.852C119.701 157.633 119.188 157.445 118.453 157.289C117.724 157.133 117.143 156.945 116.711 156.727C116.284 156.508 115.966 156.247 115.758 155.945C115.555 155.643 115.453 155.284 115.453 154.867C115.453 154.174 115.745 153.589 116.328 153.109C116.917 152.63 117.667 152.391 118.578 152.391C119.536 152.391 120.312 152.638 120.906 153.133C121.505 153.628 121.805 154.26 121.805 155.031H120.352C120.352 154.635 120.182 154.294 119.844 154.008C119.51 153.721 119.089 153.578 118.578 153.578C118.052 153.578 117.641 153.693 117.344 153.922C117.047 154.151 116.898 154.451 116.898 154.82C116.898 155.169 117.036 155.432 117.312 155.609C117.589 155.786 118.086 155.956 118.805 156.117C119.529 156.279 120.115 156.471 120.562 156.695C121.01 156.919 121.341 157.19 121.555 157.508C121.773 157.82 121.883 158.203 121.883 158.656C121.883 159.411 121.581 160.018 120.977 160.477C120.372 160.93 119.589 161.156 118.625 161.156C117.948 161.156 117.349 161.036 116.828 160.797C116.307 160.557 115.898 160.224 115.602 159.797C115.31 159.365 115.164 158.898 115.164 158.398H116.609C116.635 158.883 116.828 159.268 117.188 159.555C117.552 159.836 118.031 159.977 118.625 159.977C119.172 159.977 119.609 159.867 119.938 159.648C120.271 159.424 120.438 159.128 120.438 158.758ZM127.273 161.156C126.128 161.156 125.195 160.781 124.477 160.031C123.758 159.276 123.398 158.268 123.398 157.008V156.742C123.398 155.904 123.557 155.156 123.875 154.5C124.198 153.839 124.646 153.323 125.219 152.953C125.797 152.578 126.422 152.391 127.094 152.391C128.193 152.391 129.047 152.753 129.656 153.477C130.266 154.201 130.57 155.237 130.57 156.586V157.188H124.844C124.865 158.021 125.107 158.695 125.57 159.211C126.039 159.721 126.633 159.977 127.352 159.977C127.862 159.977 128.294 159.872 128.648 159.664C129.003 159.456 129.312 159.18 129.578 158.836L130.461 159.523C129.753 160.612 128.69 161.156 127.273 161.156ZM127.094 153.578C126.51 153.578 126.021 153.792 125.625 154.219C125.229 154.641 124.984 155.234 124.891 156H129.125V155.891C129.083 155.156 128.885 154.589 128.531 154.188C128.177 153.781 127.698 153.578 127.094 153.578ZM133.617 152.547L133.664 153.609C134.31 152.797 135.154 152.391 136.195 152.391C137.982 152.391 138.883 153.398 138.898 155.414V161H137.453V155.406C137.448 154.797 137.307 154.346 137.031 154.055C136.76 153.763 136.336 153.617 135.758 153.617C135.289 153.617 134.878 153.742 134.523 153.992C134.169 154.242 133.893 154.57 133.695 154.977V161H132.25V152.547H133.617ZM138.398 149.25C138.398 149.812 138.237 150.268 137.914 150.617C137.596 150.966 137.198 151.141 136.719 151.141C136.505 151.141 136.32 151.115 136.164 151.062C136.008 151.01 135.802 150.904 135.547 150.742C135.297 150.581 135.115 150.484 135 150.453C134.891 150.417 134.763 150.398 134.617 150.398C134.404 150.398 134.221 150.482 134.07 150.648C133.919 150.81 133.844 151.018 133.844 151.273L132.875 151.219C132.875 150.661 133.031 150.201 133.344 149.836C133.661 149.471 134.062 149.289 134.547 149.289C134.729 149.289 134.893 149.315 135.039 149.367C135.185 149.419 135.383 149.521 135.633 149.672C135.883 149.823 136.073 149.922 136.203 149.969C136.339 150.016 136.487 150.039 136.648 150.039C136.872 150.039 137.057 149.951 137.203 149.773C137.354 149.596 137.43 149.391 137.43 149.156L138.398 149.25ZM146.297 161C146.214 160.833 146.146 160.536 146.094 160.109C145.422 160.807 144.62 161.156 143.688 161.156C142.854 161.156 142.169 160.922 141.633 160.453C141.102 159.979 140.836 159.38 140.836 158.656C140.836 157.776 141.169 157.094 141.836 156.609C142.508 156.12 143.451 155.875 144.664 155.875H146.07V155.211C146.07 154.706 145.919 154.305 145.617 154.008C145.315 153.706 144.87 153.555 144.281 153.555C143.766 153.555 143.333 153.685 142.984 153.945C142.635 154.206 142.461 154.521 142.461 154.891H141.008C141.008 154.469 141.156 154.062 141.453 153.672C141.755 153.276 142.161 152.964 142.672 152.734C143.188 152.505 143.753 152.391 144.367 152.391C145.341 152.391 146.104 152.635 146.656 153.125C147.208 153.609 147.495 154.279 147.516 155.133V159.023C147.516 159.799 147.615 160.417 147.812 160.875V161H146.297ZM143.898 159.898C144.352 159.898 144.781 159.781 145.188 159.547C145.594 159.312 145.888 159.008 146.07 158.633V156.898H144.938C143.167 156.898 142.281 157.417 142.281 158.453C142.281 158.906 142.432 159.26 142.734 159.516C143.036 159.771 143.424 159.898 143.898 159.898Z" fill="black" fill-opacity="0.25"/>
<path d="M35.5 138C35.5 137.172 36.1716 136.5 37 136.5H543C543.828 136.5 544.5 137.172 544.5 138V174C544.5 174.828 543.828 175.5 543 175.5H37C36.1716 175.5 35.5 174.828 35.5 174V138Z" stroke="#13C2C2"/>
<g filter="url(#filter0_d)">
<rect x="35" y="258" width="510" height="40" rx="10" fill="#08979C"/>
<path d="M247.742 283H246.242V271.625H247.742V283ZM251.633 274.547L251.68 275.609C252.326 274.797 253.169 274.391 254.211 274.391C255.997 274.391 256.898 275.398 256.914 277.414V283H255.469V277.406C255.464 276.797 255.323 276.346 255.047 276.055C254.776 275.763 254.352 275.617 253.773 275.617C253.305 275.617 252.893 275.742 252.539 275.992C252.185 276.242 251.909 276.57 251.711 276.977V283H250.266V274.547H251.633ZM260.664 283H259.219V274.547H260.664V283ZM259.102 272.305C259.102 272.07 259.172 271.872 259.312 271.711C259.458 271.549 259.672 271.469 259.953 271.469C260.234 271.469 260.448 271.549 260.594 271.711C260.74 271.872 260.812 272.07 260.812 272.305C260.812 272.539 260.74 272.734 260.594 272.891C260.448 273.047 260.234 273.125 259.953 273.125C259.672 273.125 259.458 273.047 259.312 272.891C259.172 272.734 259.102 272.539 259.102 272.305ZM266.375 281.977C266.891 281.977 267.341 281.82 267.727 281.508C268.112 281.195 268.326 280.805 268.367 280.336H269.734C269.708 280.82 269.542 281.281 269.234 281.719C268.927 282.156 268.516 282.505 268 282.766C267.49 283.026 266.948 283.156 266.375 283.156C265.224 283.156 264.307 282.773 263.625 282.008C262.948 281.237 262.609 280.185 262.609 278.852V278.609C262.609 277.786 262.76 277.055 263.062 276.414C263.365 275.773 263.797 275.276 264.359 274.922C264.927 274.568 265.596 274.391 266.367 274.391C267.315 274.391 268.102 274.674 268.727 275.242C269.357 275.81 269.693 276.547 269.734 277.453H268.367C268.326 276.906 268.117 276.458 267.742 276.109C267.372 275.755 266.914 275.578 266.367 275.578C265.633 275.578 265.062 275.844 264.656 276.375C264.255 276.901 264.055 277.664 264.055 278.664V278.938C264.055 279.911 264.255 280.661 264.656 281.188C265.057 281.714 265.63 281.977 266.375 281.977ZM276.578 283C276.495 282.833 276.427 282.536 276.375 282.109C275.703 282.807 274.901 283.156 273.969 283.156C273.135 283.156 272.451 282.922 271.914 282.453C271.383 281.979 271.117 281.38 271.117 280.656C271.117 279.776 271.451 279.094 272.117 278.609C272.789 278.12 273.732 277.875 274.945 277.875H276.352V277.211C276.352 276.706 276.201 276.305 275.898 276.008C275.596 275.706 275.151 275.555 274.562 275.555C274.047 275.555 273.615 275.685 273.266 275.945C272.917 276.206 272.742 276.521 272.742 276.891H271.289C271.289 276.469 271.438 276.062 271.734 275.672C272.036 275.276 272.443 274.964 272.953 274.734C273.469 274.505 274.034 274.391 274.648 274.391C275.622 274.391 276.385 274.635 276.938 275.125C277.49 275.609 277.776 276.279 277.797 277.133V281.023C277.797 281.799 277.896 282.417 278.094 282.875V283H276.578ZM274.18 281.898C274.633 281.898 275.062 281.781 275.469 281.547C275.875 281.312 276.169 281.008 276.352 280.633V278.898H275.219C273.448 278.898 272.562 279.417 272.562 280.453C272.562 280.906 272.714 281.26 273.016 281.516C273.318 281.771 273.706 281.898 274.18 281.898ZM284.148 275.844C283.93 275.807 283.693 275.789 283.438 275.789C282.49 275.789 281.846 276.193 281.508 277V283H280.062V274.547H281.469L281.492 275.523C281.966 274.768 282.638 274.391 283.508 274.391C283.789 274.391 284.003 274.427 284.148 274.5V275.844ZM294.375 280.758C294.375 280.367 294.227 280.065 293.93 279.852C293.638 279.633 293.125 279.445 292.391 279.289C291.661 279.133 291.081 278.945 290.648 278.727C290.221 278.508 289.904 278.247 289.695 277.945C289.492 277.643 289.391 277.284 289.391 276.867C289.391 276.174 289.682 275.589 290.266 275.109C290.854 274.63 291.604 274.391 292.516 274.391C293.474 274.391 294.25 274.638 294.844 275.133C295.443 275.628 295.742 276.26 295.742 277.031H294.289C294.289 276.635 294.12 276.294 293.781 276.008C293.448 275.721 293.026 275.578 292.516 275.578C291.99 275.578 291.578 275.693 291.281 275.922C290.984 276.151 290.836 276.451 290.836 276.82C290.836 277.169 290.974 277.432 291.25 277.609C291.526 277.786 292.023 277.956 292.742 278.117C293.466 278.279 294.052 278.471 294.5 278.695C294.948 278.919 295.279 279.19 295.492 279.508C295.711 279.82 295.82 280.203 295.82 280.656C295.82 281.411 295.518 282.018 294.914 282.477C294.31 282.93 293.526 283.156 292.562 283.156C291.885 283.156 291.286 283.036 290.766 282.797C290.245 282.557 289.836 282.224 289.539 281.797C289.247 281.365 289.102 280.898 289.102 280.398H290.547C290.573 280.883 290.766 281.268 291.125 281.555C291.49 281.836 291.969 281.977 292.562 281.977C293.109 281.977 293.547 281.867 293.875 281.648C294.208 281.424 294.375 281.128 294.375 280.758ZM301.211 283.156C300.065 283.156 299.133 282.781 298.414 282.031C297.695 281.276 297.336 280.268 297.336 279.008V278.742C297.336 277.904 297.495 277.156 297.812 276.5C298.135 275.839 298.583 275.323 299.156 274.953C299.734 274.578 300.359 274.391 301.031 274.391C302.13 274.391 302.984 274.753 303.594 275.477C304.203 276.201 304.508 277.237 304.508 278.586V279.188H298.781C298.802 280.021 299.044 280.695 299.508 281.211C299.977 281.721 300.57 281.977 301.289 281.977C301.799 281.977 302.232 281.872 302.586 281.664C302.94 281.456 303.25 281.18 303.516 280.836L304.398 281.523C303.69 282.612 302.628 283.156 301.211 283.156ZM301.031 275.578C300.448 275.578 299.958 275.792 299.562 276.219C299.167 276.641 298.922 277.234 298.828 278H303.062V277.891C303.021 277.156 302.823 276.589 302.469 276.188C302.115 275.781 301.635 275.578 301.031 275.578ZM311.109 280.758C311.109 280.367 310.961 280.065 310.664 279.852C310.372 279.633 309.859 279.445 309.125 279.289C308.396 279.133 307.815 278.945 307.383 278.727C306.956 278.508 306.638 278.247 306.43 277.945C306.227 277.643 306.125 277.284 306.125 276.867C306.125 276.174 306.417 275.589 307 275.109C307.589 274.63 308.339 274.391 309.25 274.391C310.208 274.391 310.984 274.638 311.578 275.133C312.177 275.628 312.477 276.26 312.477 277.031H311.023C311.023 276.635 310.854 276.294 310.516 276.008C310.182 275.721 309.76 275.578 309.25 275.578C308.724 275.578 308.312 275.693 308.016 275.922C307.719 276.151 307.57 276.451 307.57 276.82C307.57 277.169 307.708 277.432 307.984 277.609C308.26 277.786 308.758 277.956 309.477 278.117C310.201 278.279 310.786 278.471 311.234 278.695C311.682 278.919 312.013 279.19 312.227 279.508C312.445 279.82 312.555 280.203 312.555 280.656C312.555 281.411 312.253 282.018 311.648 282.477C311.044 282.93 310.26 283.156 309.297 283.156C308.62 283.156 308.021 283.036 307.5 282.797C306.979 282.557 306.57 282.224 306.273 281.797C305.982 281.365 305.836 280.898 305.836 280.398H307.281C307.307 280.883 307.5 281.268 307.859 281.555C308.224 281.836 308.703 281.977 309.297 281.977C309.844 281.977 310.281 281.867 310.609 281.648C310.943 281.424 311.109 281.128 311.109 280.758ZM316.008 283H314.562V274.547H316.008V283ZM314.445 272.305C314.445 272.07 314.516 271.872 314.656 271.711C314.802 271.549 315.016 271.469 315.297 271.469C315.578 271.469 315.792 271.549 315.938 271.711C316.083 271.872 316.156 272.07 316.156 272.305C316.156 272.539 316.083 272.734 315.938 272.891C315.792 273.047 315.578 273.125 315.297 273.125C315.016 273.125 314.802 273.047 314.656 272.891C314.516 272.734 314.445 272.539 314.445 272.305ZM317.945 278.695C317.945 277.867 318.107 277.122 318.43 276.461C318.758 275.799 319.211 275.289 319.789 274.93C320.372 274.57 321.036 274.391 321.781 274.391C322.932 274.391 323.862 274.789 324.57 275.586C325.284 276.383 325.641 277.443 325.641 278.766V278.867C325.641 279.69 325.482 280.43 325.164 281.086C324.852 281.737 324.401 282.245 323.812 282.609C323.229 282.974 322.557 283.156 321.797 283.156C320.651 283.156 319.721 282.758 319.008 281.961C318.299 281.164 317.945 280.109 317.945 278.797V278.695ZM319.398 278.867C319.398 279.805 319.615 280.557 320.047 281.125C320.484 281.693 321.068 281.977 321.797 281.977C322.531 281.977 323.115 281.69 323.547 281.117C323.979 280.539 324.195 279.732 324.195 278.695C324.195 277.768 323.974 277.018 323.531 276.445C323.094 275.867 322.51 275.578 321.781 275.578C321.068 275.578 320.492 275.862 320.055 276.43C319.617 276.997 319.398 277.81 319.398 278.867ZM322.438 271H324.188L322.094 273.297H320.93L322.438 271ZM328.82 274.547L328.867 275.609C329.513 274.797 330.357 274.391 331.398 274.391C333.185 274.391 334.086 275.398 334.102 277.414V283H332.656V277.406C332.651 276.797 332.51 276.346 332.234 276.055C331.964 275.763 331.539 275.617 330.961 275.617C330.492 275.617 330.081 275.742 329.727 275.992C329.372 276.242 329.096 276.57 328.898 276.977V283H327.453V274.547H328.82Z" fill="white"/>
<rect x="35.5" y="258.5" width="509" height="39" rx="9.5" stroke="#08979C"/>
</g>
<g clip-path="url(#clip1)">
<path d="M455.375 339.398H452.703V344H451.195V332.625H454.961C456.242 332.625 457.227 332.917 457.914 333.5C458.607 334.083 458.953 334.932 458.953 336.047C458.953 336.755 458.76 337.372 458.375 337.898C457.995 338.424 457.464 338.818 456.781 339.078L459.453 343.906V344H457.844L455.375 339.398ZM452.703 338.172H455.008C455.753 338.172 456.344 337.979 456.781 337.594C457.224 337.208 457.445 336.693 457.445 336.047C457.445 335.344 457.234 334.805 456.812 334.43C456.396 334.055 455.792 333.865 455 333.859H452.703V338.172ZM464.344 344.156C463.198 344.156 462.266 343.781 461.547 343.031C460.828 342.276 460.469 341.268 460.469 340.008V339.742C460.469 338.904 460.628 338.156 460.945 337.5C461.268 336.839 461.716 336.323 462.289 335.953C462.867 335.578 463.492 335.391 464.164 335.391C465.263 335.391 466.117 335.753 466.727 336.477C467.336 337.201 467.641 338.237 467.641 339.586V340.188H461.914C461.935 341.021 462.177 341.695 462.641 342.211C463.109 342.721 463.703 342.977 464.422 342.977C464.932 342.977 465.365 342.872 465.719 342.664C466.073 342.456 466.383 342.18 466.648 341.836L467.531 342.523C466.823 343.612 465.76 344.156 464.344 344.156ZM464.164 336.578C463.581 336.578 463.091 336.792 462.695 337.219C462.299 337.641 462.055 338.234 461.961 339H466.195V338.891C466.154 338.156 465.956 337.589 465.602 337.188C465.247 336.781 464.768 336.578 464.164 336.578ZM468.977 339.703C468.977 338.385 469.281 337.339 469.891 336.562C470.5 335.781 471.307 335.391 472.312 335.391C473.344 335.391 474.148 335.755 474.727 336.484L474.797 335.547H476.117V343.797C476.117 344.891 475.792 345.753 475.141 346.383C474.495 347.013 473.625 347.328 472.531 347.328C471.922 347.328 471.326 347.198 470.742 346.938C470.159 346.677 469.714 346.32 469.406 345.867L470.156 345C470.776 345.766 471.534 346.148 472.43 346.148C473.133 346.148 473.68 345.951 474.07 345.555C474.466 345.159 474.664 344.602 474.664 343.883V343.156C474.086 343.823 473.297 344.156 472.297 344.156C471.307 344.156 470.505 343.758 469.891 342.961C469.281 342.164 468.977 341.078 468.977 339.703ZM470.43 339.867C470.43 340.82 470.625 341.57 471.016 342.117C471.406 342.659 471.953 342.93 472.656 342.93C473.568 342.93 474.237 342.516 474.664 341.688V337.828C474.221 337.021 473.557 336.617 472.672 336.617C471.969 336.617 471.419 336.891 471.023 337.438C470.628 337.984 470.43 338.794 470.43 339.867ZM479.875 344H478.43V335.547H479.875V344ZM478.312 333.305C478.312 333.07 478.383 332.872 478.523 332.711C478.669 332.549 478.883 332.469 479.164 332.469C479.445 332.469 479.659 332.549 479.805 332.711C479.951 332.872 480.023 333.07 480.023 333.305C480.023 333.539 479.951 333.734 479.805 333.891C479.659 334.047 479.445 334.125 479.164 334.125C478.883 334.125 478.669 334.047 478.523 333.891C478.383 333.734 478.312 333.539 478.312 333.305ZM487.117 341.758C487.117 341.367 486.969 341.065 486.672 340.852C486.38 340.633 485.867 340.445 485.133 340.289C484.404 340.133 483.823 339.945 483.391 339.727C482.964 339.508 482.646 339.247 482.438 338.945C482.234 338.643 482.133 338.284 482.133 337.867C482.133 337.174 482.424 336.589 483.008 336.109C483.596 335.63 484.346 335.391 485.258 335.391C486.216 335.391 486.992 335.638 487.586 336.133C488.185 336.628 488.484 337.26 488.484 338.031H487.031C487.031 337.635 486.862 337.294 486.523 337.008C486.19 336.721 485.768 336.578 485.258 336.578C484.732 336.578 484.32 336.693 484.023 336.922C483.727 337.151 483.578 337.451 483.578 337.82C483.578 338.169 483.716 338.432 483.992 338.609C484.268 338.786 484.766 338.956 485.484 339.117C486.208 339.279 486.794 339.471 487.242 339.695C487.69 339.919 488.021 340.19 488.234 340.508C488.453 340.82 488.562 341.203 488.562 341.656C488.562 342.411 488.26 343.018 487.656 343.477C487.052 343.93 486.268 344.156 485.305 344.156C484.628 344.156 484.029 344.036 483.508 343.797C482.987 343.557 482.578 343.224 482.281 342.797C481.99 342.365 481.844 341.898 481.844 341.398H483.289C483.315 341.883 483.508 342.268 483.867 342.555C484.232 342.836 484.711 342.977 485.305 342.977C485.852 342.977 486.289 342.867 486.617 342.648C486.951 342.424 487.117 342.128 487.117 341.758ZM492.406 333.5V335.547H493.984V336.664H492.406V341.906C492.406 342.245 492.477 342.5 492.617 342.672C492.758 342.839 492.997 342.922 493.336 342.922C493.503 342.922 493.732 342.891 494.023 342.828V344C493.643 344.104 493.273 344.156 492.914 344.156C492.268 344.156 491.781 343.961 491.453 343.57C491.125 343.18 490.961 342.625 490.961 341.906V336.664H489.422V335.547H490.961V333.5H492.406ZM499.766 336.844C499.547 336.807 499.31 336.789 499.055 336.789C498.107 336.789 497.464 337.193 497.125 338V344H495.68V335.547H497.086L497.109 336.523C497.583 335.768 498.255 335.391 499.125 335.391C499.406 335.391 499.62 335.427 499.766 335.5V336.844ZM506.008 344C505.924 343.833 505.857 343.536 505.805 343.109C505.133 343.807 504.331 344.156 503.398 344.156C502.565 344.156 501.88 343.922 501.344 343.453C500.812 342.979 500.547 342.38 500.547 341.656C500.547 340.776 500.88 340.094 501.547 339.609C502.219 339.12 503.161 338.875 504.375 338.875H505.781V338.211C505.781 337.706 505.63 337.305 505.328 337.008C505.026 336.706 504.581 336.555 503.992 336.555C503.477 336.555 503.044 336.685 502.695 336.945C502.346 337.206 502.172 337.521 502.172 337.891H500.719C500.719 337.469 500.867 337.062 501.164 336.672C501.466 336.276 501.872 335.964 502.383 335.734C502.898 335.505 503.464 335.391 504.078 335.391C505.052 335.391 505.815 335.635 506.367 336.125C506.919 336.609 507.206 337.279 507.227 338.133V342.023C507.227 342.799 507.326 343.417 507.523 343.875V344H506.008ZM503.609 342.898C504.062 342.898 504.492 342.781 504.898 342.547C505.305 342.312 505.599 342.008 505.781 341.633V339.898H504.648C502.878 339.898 501.992 340.417 501.992 341.453C501.992 341.906 502.143 342.26 502.445 342.516C502.747 342.771 503.135 342.898 503.609 342.898ZM511.453 333.5V335.547H513.031V336.664H511.453V341.906C511.453 342.245 511.523 342.5 511.664 342.672C511.805 342.839 512.044 342.922 512.383 342.922C512.549 342.922 512.779 342.891 513.07 342.828V344C512.69 344.104 512.32 344.156 511.961 344.156C511.315 344.156 510.828 343.961 510.5 343.57C510.172 343.18 510.008 342.625 510.008 341.906V336.664H508.469V335.547H510.008V333.5H511.453ZM518.234 344.156C517.089 344.156 516.156 343.781 515.438 343.031C514.719 342.276 514.359 341.268 514.359 340.008V339.742C514.359 338.904 514.518 338.156 514.836 337.5C515.159 336.839 515.607 336.323 516.18 335.953C516.758 335.578 517.383 335.391 518.055 335.391C519.154 335.391 520.008 335.753 520.617 336.477C521.227 337.201 521.531 338.237 521.531 339.586V340.188H515.805C515.826 341.021 516.068 341.695 516.531 342.211C517 342.721 517.594 342.977 518.312 342.977C518.823 342.977 519.255 342.872 519.609 342.664C519.964 342.456 520.273 342.18 520.539 341.836L521.422 342.523C520.714 343.612 519.651 344.156 518.234 344.156ZM518.055 336.578C517.471 336.578 516.982 336.792 516.586 337.219C516.19 337.641 515.945 338.234 515.852 339H520.086V338.891C520.044 338.156 519.846 337.589 519.492 337.188C519.138 336.781 518.659 336.578 518.055 336.578Z" fill="#08979C"/>
</g>
<path d="M63.8121 338.688C63.8069 339.24 63.7496 339.682 63.6402 340.016C63.536 340.344 63.3589 340.661 63.1089 340.969C62.8589 341.276 62.4944 341.682 62.0152 342.188C61.536 342.688 61.2678 343.195 61.2105 343.711L61.1949 344C61.1949 344.568 61.3459 345 61.648 345.297C61.9501 345.599 62.385 345.75 62.9527 345.75C63.4735 345.75 63.8954 345.602 64.2183 345.305C64.5464 345.013 64.7105 344.63 64.7105 344.156H66.1558C66.1454 344.995 65.8459 345.68 65.2574 346.211C64.674 346.742 63.9058 347.008 62.9527 347.008C61.9319 347.008 61.1428 346.745 60.5855 346.219C60.0282 345.698 59.7496 344.971 59.7496 344.039C59.7496 343.138 60.1662 342.232 60.9996 341.32L61.8511 340.438C62.1949 340.031 62.3668 339.448 62.3668 338.688H63.8121ZM63.8746 336.211C63.8746 336.445 63.8016 336.643 63.6558 336.805C63.5152 336.966 63.3043 337.047 63.023 337.047C62.7418 337.047 62.5282 336.966 62.3824 336.805C62.2365 336.643 62.1636 336.445 62.1636 336.211C62.1636 335.982 62.2365 335.789 62.3824 335.633C62.5282 335.477 62.7418 335.398 63.023 335.398C63.3043 335.398 63.5152 335.477 63.6558 335.633C63.8016 335.789 63.8746 335.982 63.8746 336.211ZM74.398 341.031H69.6324L68.5621 344H67.0152L71.3589 332.625H72.6714L77.023 344H75.4839L74.398 341.031ZM70.0855 339.797H73.9527L72.0152 334.477L70.0855 339.797ZM83.4527 343.164C82.8902 343.826 82.0647 344.156 80.9761 344.156C80.0751 344.156 79.3876 343.896 78.9136 343.375C78.4449 342.849 78.2079 342.073 78.2027 341.047V335.547H79.648V341.008C79.648 342.289 80.1688 342.93 81.2105 342.93C82.3147 342.93 83.049 342.518 83.4136 341.695V335.547H84.8589V344H83.4839L83.4527 343.164ZM82.2808 332H84.0308L81.9371 334.297H80.773L82.2808 332ZM88.4293 335.547L88.4761 336.609C89.122 335.797 89.9657 335.391 91.0074 335.391C92.7938 335.391 93.6949 336.398 93.7105 338.414V344H92.2652V338.406C92.26 337.797 92.1194 337.346 91.8433 337.055C91.5725 336.763 91.148 336.617 90.5699 336.617C90.1011 336.617 89.6897 336.742 89.3355 336.992C88.9813 337.242 88.7053 337.57 88.5074 337.977V344H87.0621V335.547H88.4293ZM101.226 335.547L101.273 336.609C101.919 335.797 102.763 335.391 103.804 335.391C105.591 335.391 106.492 336.398 106.507 338.414V344H105.062V338.406C105.057 337.797 104.916 337.346 104.64 337.055C104.369 336.763 103.945 336.617 103.367 336.617C102.898 336.617 102.487 336.742 102.132 336.992C101.778 337.242 101.502 337.57 101.304 337.977V344H99.8589V335.547H101.226ZM108.304 339.695C108.304 338.867 108.466 338.122 108.789 337.461C109.117 336.799 109.57 336.289 110.148 335.93C110.731 335.57 111.395 335.391 112.14 335.391C113.291 335.391 114.221 335.789 114.929 336.586C115.643 337.383 116 338.443 116 339.766V339.867C116 340.69 115.841 341.43 115.523 342.086C115.211 342.737 114.76 343.245 114.171 343.609C113.588 343.974 112.916 344.156 112.156 344.156C111.01 344.156 110.08 343.758 109.367 342.961C108.658 342.164 108.304 341.109 108.304 339.797V339.695ZM109.757 339.867C109.757 340.805 109.974 341.557 110.406 342.125C110.843 342.693 111.427 342.977 112.156 342.977C112.89 342.977 113.474 342.69 113.906 342.117C114.338 341.539 114.554 340.732 114.554 339.695C114.554 338.768 114.333 338.018 113.89 337.445C113.453 336.867 112.869 336.578 112.14 336.578C111.427 336.578 110.851 336.862 110.414 337.43C109.976 337.997 109.757 338.81 109.757 339.867ZM123.742 333.5V335.547H125.32V336.664H123.742V341.906C123.742 342.245 123.812 342.5 123.953 342.672C124.093 342.839 124.333 342.922 124.671 342.922C124.838 342.922 125.067 342.891 125.359 342.828V344C124.979 344.104 124.609 344.156 124.25 344.156C123.604 344.156 123.117 343.961 122.789 343.57C122.461 343.18 122.296 342.625 122.296 341.906V336.664H120.757V335.547H122.296V333.5H123.742ZM128.586 344H127.14V335.547H128.586V344ZM127.023 333.305C127.023 333.07 127.093 332.872 127.234 332.711C127.38 332.549 127.593 332.469 127.875 332.469C128.156 332.469 128.369 332.549 128.515 332.711C128.661 332.872 128.734 333.07 128.734 333.305C128.734 333.539 128.661 333.734 128.515 333.891C128.369 334.047 128.156 334.125 127.875 334.125C127.593 334.125 127.38 334.047 127.234 333.891C127.093 333.734 127.023 333.539 127.023 333.305ZM134.414 344.156C133.268 344.156 132.336 343.781 131.617 343.031C130.898 342.276 130.539 341.268 130.539 340.008V339.742C130.539 338.904 130.697 338.156 131.015 337.5C131.338 336.839 131.786 336.323 132.359 335.953C132.937 335.578 133.562 335.391 134.234 335.391C135.333 335.391 136.187 335.753 136.796 336.477C137.406 337.201 137.711 338.237 137.711 339.586V340.188H131.984C132.005 341.021 132.247 341.695 132.711 342.211C133.179 342.721 133.773 342.977 134.492 342.977C135.002 342.977 135.434 342.872 135.789 342.664C136.143 342.456 136.453 342.18 136.718 341.836L137.601 342.523C136.893 343.612 135.83 344.156 134.414 344.156ZM134.234 336.578C133.651 336.578 133.161 336.792 132.765 337.219C132.369 337.641 132.125 338.234 132.031 339H136.265V338.891C136.224 338.156 136.026 337.589 135.671 337.188C135.317 336.781 134.838 336.578 134.234 336.578ZM140.757 335.547L140.804 336.609C141.45 335.797 142.294 335.391 143.336 335.391C145.122 335.391 146.023 336.398 146.039 338.414V344H144.593V338.406C144.588 337.797 144.447 337.346 144.171 337.055C143.901 336.763 143.476 336.617 142.898 336.617C142.429 336.617 142.018 336.742 141.664 336.992C141.309 337.242 141.033 337.57 140.836 337.977V344H139.39V335.547H140.757ZM151.726 344.156C150.58 344.156 149.648 343.781 148.929 343.031C148.211 342.276 147.851 341.268 147.851 340.008V339.742C147.851 338.904 148.01 338.156 148.328 337.5C148.651 336.839 149.099 336.323 149.671 335.953C150.25 335.578 150.875 335.391 151.546 335.391C152.645 335.391 153.5 335.753 154.109 336.477C154.718 337.201 155.023 338.237 155.023 339.586V340.188H149.296C149.317 341.021 149.559 341.695 150.023 342.211C150.492 342.721 151.086 342.977 151.804 342.977C152.315 342.977 152.747 342.872 153.101 342.664C153.455 342.456 153.765 342.18 154.031 341.836L154.914 342.523C154.205 343.612 153.143 344.156 151.726 344.156ZM151.546 336.578C150.963 336.578 150.474 336.792 150.078 337.219C149.682 337.641 149.437 338.234 149.343 339H153.578V338.891C153.536 338.156 153.338 337.589 152.984 337.188C152.63 336.781 152.151 336.578 151.546 336.578ZM161.625 341.758C161.625 341.367 161.476 341.065 161.179 340.852C160.888 340.633 160.375 340.445 159.64 340.289C158.911 340.133 158.33 339.945 157.898 339.727C157.471 339.508 157.153 339.247 156.945 338.945C156.742 338.643 156.64 338.284 156.64 337.867C156.64 337.174 156.932 336.589 157.515 336.109C158.104 335.63 158.854 335.391 159.765 335.391C160.724 335.391 161.5 335.638 162.093 336.133C162.692 336.628 162.992 337.26 162.992 338.031H161.539C161.539 337.635 161.369 337.294 161.031 337.008C160.697 336.721 160.276 336.578 159.765 336.578C159.239 336.578 158.828 336.693 158.531 336.922C158.234 337.151 158.086 337.451 158.086 337.82C158.086 338.169 158.224 338.432 158.5 338.609C158.776 338.786 159.273 338.956 159.992 339.117C160.716 339.279 161.302 339.471 161.75 339.695C162.197 339.919 162.528 340.19 162.742 340.508C162.961 340.82 163.07 341.203 163.07 341.656C163.07 342.411 162.768 343.018 162.164 343.477C161.559 343.93 160.776 344.156 159.812 344.156C159.135 344.156 158.536 344.036 158.015 343.797C157.494 343.557 157.086 343.224 156.789 342.797C156.497 342.365 156.351 341.898 156.351 341.398H157.796C157.822 341.883 158.015 342.268 158.375 342.555C158.739 342.836 159.218 342.977 159.812 342.977C160.359 342.977 160.796 342.867 161.125 342.648C161.458 342.424 161.625 342.128 161.625 341.758ZM172.312 342.977C172.828 342.977 173.278 342.82 173.664 342.508C174.049 342.195 174.263 341.805 174.304 341.336H175.671C175.645 341.82 175.479 342.281 175.171 342.719C174.864 343.156 174.453 343.505 173.937 343.766C173.427 344.026 172.885 344.156 172.312 344.156C171.161 344.156 170.244 343.773 169.562 343.008C168.885 342.237 168.546 341.185 168.546 339.852V339.609C168.546 338.786 168.697 338.055 169 337.414C169.302 336.773 169.734 336.276 170.296 335.922C170.864 335.568 171.533 335.391 172.304 335.391C173.252 335.391 174.039 335.674 174.664 336.242C175.294 336.81 175.63 337.547 175.671 338.453H174.304C174.263 337.906 174.054 337.458 173.679 337.109C173.309 336.755 172.851 336.578 172.304 336.578C171.57 336.578 171 336.844 170.593 337.375C170.192 337.901 169.992 338.664 169.992 339.664V339.938C169.992 340.911 170.192 341.661 170.593 342.188C170.994 342.714 171.567 342.977 172.312 342.977ZM182.515 343.164C181.953 343.826 181.127 344.156 180.039 344.156C179.138 344.156 178.45 343.896 177.976 343.375C177.507 342.849 177.27 342.073 177.265 341.047V335.547H178.711V341.008C178.711 342.289 179.231 342.93 180.273 342.93C181.377 342.93 182.112 342.518 182.476 341.695V335.547H183.921V344H182.546L182.515 343.164ZM189.632 344.156C188.487 344.156 187.554 343.781 186.836 343.031C186.117 342.276 185.757 341.268 185.757 340.008V339.742C185.757 338.904 185.916 338.156 186.234 337.5C186.557 336.839 187.005 336.323 187.578 335.953C188.156 335.578 188.781 335.391 189.453 335.391C190.552 335.391 191.406 335.753 192.015 336.477C192.625 337.201 192.929 338.237 192.929 339.586V340.188H187.203C187.224 341.021 187.466 341.695 187.929 342.211C188.398 342.721 188.992 342.977 189.711 342.977C190.221 342.977 190.653 342.872 191.007 342.664C191.362 342.456 191.671 342.18 191.937 341.836L192.82 342.523C192.112 343.612 191.049 344.156 189.632 344.156ZM189.453 336.578C188.869 336.578 188.38 336.792 187.984 337.219C187.588 337.641 187.343 338.234 187.25 339H191.484V338.891C191.442 338.156 191.244 337.589 190.89 337.188C190.536 336.781 190.057 336.578 189.453 336.578ZM195.976 335.547L196.023 336.609C196.669 335.797 197.513 335.391 198.554 335.391C200.341 335.391 201.242 336.398 201.257 338.414V344H199.812V338.406C199.807 337.797 199.666 337.346 199.39 337.055C199.119 336.763 198.695 336.617 198.117 336.617C197.648 336.617 197.237 336.742 196.882 336.992C196.528 337.242 196.252 337.57 196.054 337.977V344H194.609V335.547H195.976ZM205.398 333.5V335.547H206.976V336.664H205.398V341.906C205.398 342.245 205.468 342.5 205.609 342.672C205.75 342.839 205.989 342.922 206.328 342.922C206.494 342.922 206.724 342.891 207.015 342.828V344C206.635 344.104 206.265 344.156 205.906 344.156C205.26 344.156 204.773 343.961 204.445 343.57C204.117 343.18 203.953 342.625 203.953 341.906V336.664H202.414V335.547H203.953V333.5H205.398ZM213.89 344C213.807 343.833 213.739 343.536 213.687 343.109C213.015 343.807 212.213 344.156 211.281 344.156C210.447 344.156 209.763 343.922 209.226 343.453C208.695 342.979 208.429 342.38 208.429 341.656C208.429 340.776 208.763 340.094 209.429 339.609C210.101 339.12 211.044 338.875 212.257 338.875H213.664V338.211C213.664 337.706 213.513 337.305 213.211 337.008C212.908 336.706 212.463 336.555 211.875 336.555C211.359 336.555 210.927 336.685 210.578 336.945C210.229 337.206 210.054 337.521 210.054 337.891H208.601C208.601 337.469 208.75 337.062 209.046 336.672C209.349 336.276 209.755 335.964 210.265 335.734C210.781 335.505 211.346 335.391 211.961 335.391C212.934 335.391 213.697 335.635 214.25 336.125C214.802 336.609 215.088 337.279 215.109 338.133V342.023C215.109 342.799 215.208 343.417 215.406 343.875V344H213.89ZM211.492 342.898C211.945 342.898 212.375 342.781 212.781 342.547C213.187 342.312 213.481 342.008 213.664 341.633V339.898H212.531C210.76 339.898 209.875 340.417 209.875 341.453C209.875 341.906 210.026 342.26 210.328 342.516C210.63 342.771 211.018 342.898 211.492 342.898ZM219.07 340.797C219.08 340.177 219.151 339.688 219.281 339.328C219.411 338.969 219.677 338.57 220.078 338.133L221.101 337.078C221.539 336.583 221.757 336.052 221.757 335.484C221.757 334.938 221.614 334.51 221.328 334.203C221.041 333.891 220.625 333.734 220.078 333.734C219.546 333.734 219.119 333.875 218.796 334.156C218.474 334.438 218.312 334.815 218.312 335.289H216.867C216.877 334.445 217.177 333.766 217.765 333.25C218.359 332.729 219.13 332.469 220.078 332.469C221.062 332.469 221.828 332.734 222.375 333.266C222.927 333.792 223.203 334.516 223.203 335.438C223.203 336.349 222.781 337.247 221.937 338.133L221.086 338.977C220.705 339.398 220.515 340.005 220.515 340.797H219.07ZM219.007 343.273C219.007 343.039 219.078 342.844 219.218 342.688C219.364 342.526 219.578 342.445 219.859 342.445C220.14 342.445 220.354 342.526 220.5 342.688C220.645 342.844 220.718 343.039 220.718 343.273C220.718 343.508 220.645 343.703 220.5 343.859C220.354 344.01 220.14 344.086 219.859 344.086C219.578 344.086 219.364 344.01 219.218 343.859C219.078 343.703 219.007 343.508 219.007 343.273Z" fill="#002329"/>
<defs>
<filter id="filter0_d" x="35" y="258" width="510" height="42" filterUnits="userSpaceOnUse" color-interpolation-filters="sRGB">
<feFlood flood-opacity="0" result="BackgroundImageFix"/>
<feColorMatrix in="SourceAlpha" type="matrix" values="0 0 0 0 0 0 0 0 0 0 0 0 0 0 0 0 0 0 127 0"/>
<feOffset dy="2"/>
<feColorMatrix type="matrix" values="0 0 0 0 0 0 0 0 0 0 0 0 0 0 0 0 0 0 0.043 0"/>
<feBlend mode="normal" in2="BackgroundImageFix" result="effect1_dropShadow"/>
<feBlend mode="normal" in="SourceGraphic" in2="effect1_dropShadow" result="shape"/>
</filter>
<clipPath id="clip0">
<rect x="36.3125" y="209" width="16" height="16" fill="white"/>
</clipPath>
<clipPath id="clip1">
<rect x="302" y="327" width="238" height="24" rx="2" fill="white"/>
</clipPath>
</defs>
</svg>
