<svg width="647" height="43" viewBox="0 0 647 43" fill="none" xmlns="http://www.w3.org/2000/svg">
<path d="M460.254 12.2949H457.324C452.93 12.2949 450.732 14.4922 450.732 18.8867V27.6758C450.732 32.0703 452.93 34.2676 457.324 34.2676H460.254C464.648 34.2676 466.846 32.0703 466.846 27.6758V21.084H459.521V25.4785H462.451V27.6758C462.451 29.1406 461.719 29.873 460.254 29.873H457.324C455.859 29.873 455.127 29.1406 455.127 27.6758V18.8867C455.127 17.4219 455.859 16.6895 457.324 16.6895H460.254C461.719 16.6895 462.451 17.1777 462.451 18.1543H466.846C466.846 14.248 464.648 12.2949 460.254 12.2949ZM459.521 28.4082L458.057 26.9434V28.4082H459.521ZM467.285 13.291C468.945 14.9219 469.775 17.5195 469.775 21.084V29.1406C469.775 34.5117 467.09 37.1973 461.719 37.1973H458.789C455.615 37.1973 453.232 36.4062 451.641 34.8242C450.059 33.2324 449.268 30.8496 449.268 27.6758V18.8867C449.268 13.5156 451.953 10.8301 457.324 10.8301H460.254C463.291 10.8301 465.635 11.6504 467.285 13.291ZM484.485 29.873V25.4785H493.274V21.084H484.485V16.6895H494.739V12.2949H480.09V34.2676H494.739V29.873H484.485ZM494.739 20.3516L496.936 21.8164V29.1406L498.401 30.6055V37.9297H480.823L478.625 35.7324V10.8301H496.204L498.401 13.0273V20.3516H494.739ZM512.378 21.0254L519.321 34.2676H524.096V12.2949H519.702V25.5371L512.759 12.2949H507.983V34.2676H512.378V21.0254ZM518.442 35.7324L516.04 31.1621V37.9297H508.716L506.518 35.7324V10.8301H513.638L515.835 13.0273L518.237 17.5977V10.8301H525.561L527.759 13.0273V37.9297H520.639L518.442 35.7324ZM541.736 29.873V25.4785H550.525V21.084H541.736V16.6895H551.989V12.2949H537.341V34.2676H551.989V29.873H541.736ZM551.989 20.3516L554.187 21.8164V29.1406L555.652 30.6055V37.9297H538.073L535.876 35.7324V10.8301H553.454L555.652 13.0273V20.3516H551.989ZM574.755 12.2949H571.826C567.431 12.2949 565.234 14.4922 565.234 18.8867C565.234 23.2812 567.431 25.4785 571.826 25.4785H574.755C576.22 25.4785 576.953 26.2109 576.953 27.6758C576.953 29.1406 576.22 29.873 574.755 29.873H571.826C570.361 29.873 569.629 29.3848 569.629 28.4082H565.234C565.234 32.3145 567.431 34.2676 571.826 34.2676H574.755C579.15 34.2676 581.347 32.0703 581.347 27.6758C581.347 23.2812 579.15 21.084 574.755 21.084H571.826C570.361 21.084 569.629 20.3516 569.629 18.8867C569.629 17.4219 570.361 16.6895 571.826 16.6895H574.755C576.22 16.6895 576.953 17.1777 576.953 18.1543H581.347C581.347 14.248 579.15 12.2949 574.755 12.2949ZM567.036 25.874C564.858 24.6338 563.769 22.3047 563.769 18.8867C563.769 13.5156 566.455 10.8301 571.826 10.8301H574.755C578.027 10.8301 580.551 11.709 582.329 13.4668C584.116 15.2148 585.009 17.998 585.009 21.8164H580.966C582.685 22.793 583.789 24.0137 584.277 25.4785C584.765 26.9434 585.009 28.4082 585.009 29.873C585.009 35.2441 582.324 37.9297 576.953 37.9297H574.023C570.752 37.9297 568.222 37.0508 566.435 35.293C564.658 33.5449 563.769 30.7617 563.769 26.9434H567.812C567.519 26.6211 567.26 26.2646 567.036 25.874ZM598.986 34.2676V12.2949H594.592V34.2676H598.986ZM593.127 35.7324V10.8301H600.451L602.648 13.0273V37.9297H595.324L593.127 35.7324ZM621.752 12.2949H618.823C614.428 12.2949 612.231 14.4922 612.231 18.8867C612.231 23.2812 614.428 25.4785 618.823 25.4785H621.752C623.217 25.4785 623.95 26.2109 623.95 27.6758C623.95 29.1406 623.217 29.873 621.752 29.873H618.823C617.358 29.873 616.625 29.3848 616.625 28.4082H612.231C612.231 32.3145 614.428 34.2676 618.823 34.2676H621.752C626.147 34.2676 628.344 32.0703 628.344 27.6758C628.344 23.2812 626.147 21.084 621.752 21.084H618.823C617.358 21.084 616.625 20.3516 616.625 18.8867C616.625 17.4219 617.358 16.6895 618.823 16.6895H621.752C623.217 16.6895 623.95 17.1777 623.95 18.1543H628.344C628.344 14.248 626.147 12.2949 621.752 12.2949ZM614.033 25.874C611.855 24.6338 610.766 22.3047 610.766 18.8867C610.766 13.5156 613.452 10.8301 618.823 10.8301H621.752C625.024 10.8301 627.548 11.709 629.326 13.4668C631.113 15.2148 632.006 17.998 632.006 21.8164H627.963C629.682 22.793 630.786 24.0137 631.274 25.4785C631.762 26.9434 632.006 28.4082 632.006 29.873C632.006 35.2441 629.321 37.9297 623.95 37.9297H621.02C617.748 37.9297 615.219 37.0508 613.432 35.293C611.655 33.5449 610.766 30.7617 610.766 26.9434H614.809C614.516 26.6211 614.257 26.2646 614.033 25.874Z" fill="#E6FFFB"/>
<path d="M1.188 23.308C1.188 21.628 1.452 20.104 1.98 18.736C2.532 17.368 3.312 16.204 4.32 15.244C5.328 14.26 6.552 13.504 7.992 12.976C9.432 12.424 11.04 12.148 12.816 12.148C13.872 12.148 14.94 12.244 16.02 12.436C17.1 12.628 18.036 12.916 18.828 13.3L18.468 17.512C17.82 17.032 17.064 16.696 16.2 16.504C15.36 16.288 14.496 16.18 13.608 16.18C11.4 16.18 9.696 16.828 8.496 18.124C7.32 19.42 6.732 21.148 6.732 23.308C6.732 25.564 7.344 27.316 8.568 28.564C9.816 29.788 11.52 30.4 13.68 30.4C14.592 30.4 15.456 30.292 16.272 30.076C17.112 29.836 17.88 29.476 18.576 28.996L18.972 33.28C18.084 33.688 17.112 33.976 16.056 34.144C15 34.336 13.968 34.432 12.96 34.432C11.16 34.432 9.528 34.168 8.064 33.64C6.624 33.112 5.388 32.368 4.356 31.408C3.348 30.424 2.568 29.248 2.016 27.88C1.464 26.512 1.188 24.988 1.188 23.308ZM41.9681 23.308C41.9681 24.892 41.7401 26.368 41.2841 27.736C40.8281 29.08 40.1561 30.256 39.2681 31.264C38.3801 32.248 37.2761 33.028 35.9561 33.604C34.6601 34.156 33.1721 34.432 31.4921 34.432C29.7881 34.432 28.2881 34.156 26.9921 33.604C25.6961 33.028 24.6041 32.248 23.7161 31.264C22.8281 30.256 22.1561 29.08 21.7001 27.736C21.2441 26.368 21.0161 24.892 21.0161 23.308C21.0161 21.724 21.2441 20.248 21.7001 18.88C22.1561 17.512 22.8281 16.336 23.7161 15.352C24.6041 14.344 25.6961 13.564 26.9921 13.012C28.2881 12.436 29.7881 12.148 31.4921 12.148C33.1721 12.148 34.6601 12.436 35.9561 13.012C37.2761 13.564 38.3801 14.344 39.2681 15.352C40.1561 16.336 40.8281 17.512 41.2841 18.88C41.7401 20.248 41.9681 21.724 41.9681 23.308ZM26.5601 23.308C26.5601 25.588 26.9921 27.34 27.8561 28.564C28.7441 29.788 29.9561 30.4 31.4921 30.4C33.0281 30.4 34.2281 29.788 35.0921 28.564C35.9801 27.34 36.4241 25.588 36.4241 23.308C36.4241 21.004 35.9801 19.24 35.0921 18.016C34.2281 16.792 33.0281 16.18 31.4921 16.18C29.9561 16.18 28.7441 16.792 27.8561 18.016C26.9921 19.24 26.5601 21.004 26.5601 23.308ZM50.7679 19.852V34H45.5119V12.58H51.8119L59.1919 26.728V12.58H64.4479V34H58.2199L50.7679 19.852ZM73.4209 16.54H67.3369V12.58H84.9769V16.54H78.8929V34H73.4209V16.54ZM98.3548 12.58L105.591 34H99.8668L98.4988 29.428H91.0468L89.6788 34H83.9908L91.2268 12.58H98.3548ZM92.2348 25.468H97.3108L94.7908 16.936L92.2348 25.468ZM106.551 23.308C106.551 21.628 106.815 20.104 107.343 18.736C107.895 17.368 108.675 16.204 109.683 15.244C110.691 14.26 111.915 13.504 113.355 12.976C114.795 12.424 116.403 12.148 118.179 12.148C119.235 12.148 120.303 12.244 121.383 12.436C122.463 12.628 123.399 12.916 124.191 13.3L123.831 17.512C123.183 17.032 122.427 16.696 121.563 16.504C120.723 16.288 119.859 16.18 118.971 16.18C116.763 16.18 115.059 16.828 113.859 18.124C112.683 19.42 112.095 21.148 112.095 23.308C112.095 25.564 112.707 27.316 113.931 28.564C115.179 29.788 116.883 30.4 119.043 30.4C119.955 30.4 120.819 30.292 121.635 30.076C122.475 29.836 123.243 29.476 123.939 28.996L124.335 33.28C123.447 33.688 122.475 33.976 121.419 34.144C120.363 34.336 119.331 34.432 118.323 34.432C116.523 34.432 114.891 34.168 113.427 33.64C111.987 33.112 110.751 32.368 109.719 31.408C108.711 30.424 107.931 29.248 107.379 27.88C106.827 26.512 106.551 24.988 106.551 23.308ZM132.694 16.54H126.61V12.58H144.25V16.54H138.166V34H132.694V16.54ZM166.562 23.308C166.562 24.892 166.334 26.368 165.878 27.736C165.422 29.08 164.75 30.256 163.862 31.264C162.974 32.248 161.87 33.028 160.55 33.604C159.254 34.156 157.766 34.432 156.086 34.432C154.382 34.432 152.882 34.156 151.586 33.604C150.29 33.028 149.198 32.248 148.31 31.264C147.422 30.256 146.75 29.08 146.294 27.736C145.838 26.368 145.61 24.892 145.61 23.308C145.61 21.724 145.838 20.248 146.294 18.88C146.75 17.512 147.422 16.336 148.31 15.352C149.198 14.344 150.29 13.564 151.586 13.012C152.882 12.436 154.382 12.148 156.086 12.148C157.766 12.148 159.254 12.436 160.55 13.012C161.87 13.564 162.974 14.344 163.862 15.352C164.75 16.336 165.422 17.512 165.878 18.88C166.334 20.248 166.562 21.724 166.562 23.308ZM151.154 23.308C151.154 25.588 151.586 27.34 152.45 28.564C153.338 29.788 154.55 30.4 156.086 30.4C157.622 30.4 158.822 29.788 159.686 28.564C160.574 27.34 161.018 25.588 161.018 23.308C161.018 21.004 160.574 19.24 159.686 18.016C158.822 16.792 157.622 16.18 156.086 16.18C154.55 16.18 153.338 16.792 152.45 18.016C151.586 19.24 151.154 21.004 151.154 23.308ZM187.775 30.04C189.863 30.04 191.459 29.536 192.563 28.528C193.667 27.52 194.219 25.768 194.219 23.272C194.219 20.8 193.667 19.06 192.563 18.052C191.459 17.044 189.863 16.54 187.775 16.54H186.371V30.04H187.775ZM180.899 34V12.58H188.027C189.755 12.58 191.339 12.808 192.779 13.264C194.219 13.696 195.443 14.356 196.451 15.244C197.483 16.132 198.287 17.248 198.863 18.592C199.439 19.912 199.727 21.472 199.727 23.272C199.727 25.072 199.439 26.644 198.863 27.988C198.287 29.332 197.483 30.448 196.451 31.336C195.419 32.224 194.183 32.896 192.743 33.352C191.303 33.784 189.719 34 187.991 34H180.899ZM203.258 12.58H218.486V16.54H208.73V21.076H217.802V25.036H208.73V30.04H218.774V34H203.258V12.58ZM233.141 12.58H248.369V16.54H238.613V21.076H247.685V25.036H238.613V30.04H248.657V34H233.141V12.58ZM266.415 27.412H261.663L257.487 19.996V34H252.231V12.58H258.495L264.039 22.372L269.583 12.58H275.847V34H270.591V19.996L266.415 27.412ZM280.531 12.58H295.759V16.54H286.003V21.076H295.075V25.036H286.003V30.04H296.047V34H280.531V12.58ZM316.577 19.24C316.577 20.608 316.205 21.82 315.461 22.876C314.741 23.932 313.649 24.748 312.185 25.324L318.125 34H312.185L307.181 26.188H305.093V34H299.621V12.58H307.757C309.029 12.58 310.205 12.712 311.285 12.976C312.365 13.24 313.289 13.648 314.057 14.2C314.849 14.752 315.461 15.448 315.893 16.288C316.349 17.128 316.577 18.112 316.577 19.24ZM311.033 19.24C311.033 18.208 310.709 17.5 310.061 17.116C309.437 16.732 308.597 16.54 307.541 16.54H305.093V22.228H307.541C309.869 22.228 311.033 21.232 311.033 19.24ZM319.176 23.308C319.176 21.7 319.44 20.224 319.968 18.88C320.52 17.512 321.312 16.336 322.344 15.352C323.4 14.344 324.672 13.564 326.16 13.012C327.672 12.436 329.4 12.148 331.344 12.148C332.664 12.148 333.936 12.268 335.16 12.508C336.408 12.724 337.572 13.072 338.652 13.552L338.256 17.836C337.368 17.284 336.384 16.876 335.304 16.612C334.248 16.324 333.18 16.18 332.1 16.18C330.996 16.18 329.988 16.348 329.076 16.684C328.164 16.996 327.384 17.464 326.736 18.088C326.088 18.688 325.584 19.432 325.224 20.32C324.888 21.184 324.72 22.18 324.72 23.308C324.72 24.436 324.888 25.444 325.224 26.332C325.584 27.22 326.076 27.964 326.7 28.564C327.324 29.164 328.068 29.62 328.932 29.932C329.82 30.244 330.792 30.4 331.848 30.4C332.664 30.4 333.36 30.304 333.936 30.112V25.468H329.58V21.508H339.084V33.1C337.932 33.58 336.732 33.916 335.484 34.108C334.26 34.324 333 34.432 331.704 34.432C329.736 34.432 327.972 34.168 326.412 33.64C324.876 33.088 323.568 32.332 322.488 31.372C321.408 30.388 320.58 29.212 320.004 27.844C319.452 26.476 319.176 24.964 319.176 23.308ZM343.461 12.58H358.689V16.54H348.933V21.076H358.005V25.036H348.933V30.04H358.977V34H343.461V12.58ZM367.807 19.852V34H362.551V12.58H368.851L376.231 26.728V12.58H381.487V34H375.259L367.807 19.852ZM385.024 23.308C385.024 21.628 385.288 20.104 385.816 18.736C386.368 17.368 387.148 16.204 388.156 15.244C389.164 14.26 390.388 13.504 391.828 12.976C393.268 12.424 394.876 12.148 396.652 12.148C397.708 12.148 398.776 12.244 399.856 12.436C400.936 12.628 401.872 12.916 402.664 13.3L402.304 17.512C401.656 17.032 400.9 16.696 400.036 16.504C399.196 16.288 398.332 16.18 397.444 16.18C395.236 16.18 393.532 16.828 392.332 18.124C391.156 19.42 390.568 21.148 390.568 23.308C390.568 25.564 391.18 27.316 392.404 28.564C393.652 29.788 395.356 30.4 397.516 30.4C398.428 30.4 399.292 30.292 400.108 30.076C400.948 29.836 401.716 29.476 402.412 28.996L402.808 33.28C401.92 33.688 400.948 33.976 399.892 34.144C398.836 34.336 397.804 34.432 396.796 34.432C394.996 34.432 393.364 34.168 391.9 33.64C390.46 33.112 389.224 32.368 388.192 31.408C387.184 30.424 386.404 29.248 385.852 27.88C385.3 26.512 385.024 24.988 385.024 23.308ZM411.832 12.58V34H406.36V12.58H411.832ZM428.824 12.58L436.06 34H430.336L428.968 29.428H421.516L420.148 34H414.46L421.696 12.58H428.824ZM422.704 25.468H427.78L425.26 16.936L422.704 25.468Z" fill="#E6FFFB"/>
</svg>
