<svg width="838" height="76" viewBox="0 0 838 76" fill="none" xmlns="http://www.w3.org/2000/svg">
<path d="M424.406 23.6719H419.719C412.688 23.6719 409.172 27.1875 409.172 34.2188V48.2812C409.172 55.3125 412.688 58.8281 419.719 58.8281H424.406C431.438 58.8281 434.953 55.3125 434.953 48.2812V37.7344H423.234V44.7656H427.922V48.2812C427.922 50.625 426.75 51.7969 424.406 51.7969H419.719C417.375 51.7969 416.203 50.625 416.203 48.2812V34.2188C416.203 31.875 417.375 30.7031 419.719 30.7031H424.406C426.75 30.7031 427.922 31.4844 427.922 33.0469H434.953C434.953 26.7969 431.438 23.6719 424.406 23.6719ZM423.234 49.4531L420.891 47.1094V49.4531H423.234ZM435.656 25.2656C438.312 27.875 439.641 32.0312 439.641 37.7344V50.625C439.641 59.2188 435.344 63.5156 426.75 63.5156H422.062C416.984 63.5156 413.172 62.25 410.625 59.7188C408.094 57.1719 406.828 53.3594 406.828 48.2812V34.2188C406.828 25.625 411.125 21.3281 419.719 21.3281H424.406C429.266 21.3281 433.016 22.6406 435.656 25.2656ZM463.176 51.7969V44.7656H477.238V37.7344H463.176V30.7031H479.582V23.6719H456.144V58.8281H479.582V51.7969H463.176ZM479.582 36.5625L483.097 38.9062V50.625L485.441 52.9688V64.6875H457.316L453.801 61.1719V21.3281H481.926L485.441 24.8438V36.5625H479.582ZM507.804 37.6406L518.914 58.8281H526.554V23.6719H519.523V44.8594L508.414 23.6719H500.773V58.8281H507.804V37.6406ZM517.507 61.1719L513.664 53.8594V64.6875H501.945L498.429 61.1719V21.3281H509.82L513.336 24.8438L517.179 32.1562V21.3281H528.898L532.414 24.8438V64.6875H521.023L517.507 61.1719ZM554.777 51.7969V44.7656H568.839V37.7344H554.777V30.7031H571.183V23.6719H547.746V58.8281H571.183V51.7969H554.777ZM571.183 36.5625L574.699 38.9062V50.625L577.042 52.9688V64.6875H548.917L545.402 61.1719V21.3281H573.527L577.042 24.8438V36.5625H571.183ZM607.609 23.6719H602.921C595.89 23.6719 592.374 27.1875 592.374 34.2188C592.374 41.25 595.89 44.7656 602.921 44.7656H607.609C609.952 44.7656 611.124 45.9375 611.124 48.2812C611.124 50.625 609.952 51.7969 607.609 51.7969H602.921C600.577 51.7969 599.406 51.0156 599.406 49.4531H592.374C592.374 55.7031 595.89 58.8281 602.921 58.8281H607.609C614.64 58.8281 618.156 55.3125 618.156 48.2812C618.156 41.25 614.64 37.7344 607.609 37.7344H602.921C600.577 37.7344 599.406 36.5625 599.406 34.2188C599.406 31.875 600.577 30.7031 602.921 30.7031H607.609C609.952 30.7031 611.124 31.4844 611.124 33.0469H618.156C618.156 26.7969 614.64 23.6719 607.609 23.6719ZM595.257 45.3984C591.773 43.4141 590.031 39.6875 590.031 34.2188C590.031 25.625 594.327 21.3281 602.921 21.3281H607.609C612.843 21.3281 616.882 22.7344 619.726 25.5469C622.585 28.3438 624.015 32.7969 624.015 38.9062H617.546C620.296 40.4688 622.062 42.4219 622.843 44.7656C623.624 47.1094 624.015 49.4531 624.015 51.7969C624.015 60.3906 619.718 64.6875 611.124 64.6875H606.437C601.202 64.6875 597.156 63.2812 594.296 60.4688C591.452 57.6719 590.031 53.2188 590.031 47.1094H596.499C596.031 46.5938 595.617 46.0234 595.257 45.3984ZM646.378 58.8281V23.6719H639.347V58.8281H646.378ZM637.003 61.1719V21.3281H648.722L652.238 24.8438V64.6875H640.519L637.003 61.1719ZM682.804 23.6719H678.116C671.085 23.6719 667.569 27.1875 667.569 34.2188C667.569 41.25 671.085 44.7656 678.116 44.7656H682.804C685.147 44.7656 686.319 45.9375 686.319 48.2812C686.319 50.625 685.147 51.7969 682.804 51.7969H678.116C675.772 51.7969 674.601 51.0156 674.601 49.4531H667.569C667.569 55.7031 671.085 58.8281 678.116 58.8281H682.804C689.835 58.8281 693.351 55.3125 693.351 48.2812C693.351 41.25 689.835 37.7344 682.804 37.7344H678.116C675.772 37.7344 674.601 36.5625 674.601 34.2188C674.601 31.875 675.772 30.7031 678.116 30.7031H682.804C685.147 30.7031 686.319 31.4844 686.319 33.0469H693.351C693.351 26.7969 689.835 23.6719 682.804 23.6719ZM670.452 45.3984C666.968 43.4141 665.226 39.6875 665.226 34.2188C665.226 25.625 669.522 21.3281 678.116 21.3281H682.804C688.038 21.3281 692.077 22.7344 694.921 25.5469C697.78 28.3438 699.21 32.7969 699.21 38.9062H692.741C695.491 40.4688 697.257 42.4219 698.038 44.7656C698.819 47.1094 699.21 49.4531 699.21 51.7969C699.21 60.3906 694.913 64.6875 686.319 64.6875H681.632C676.397 64.6875 672.351 63.2812 669.491 60.4688C666.647 57.6719 665.226 53.2188 665.226 47.1094H671.694C671.226 46.5938 670.812 46.0234 670.452 45.3984Z" fill="#E6FFFB"/>
<path d="M4.16 22.92H31.232V29.96H13.888V38.024H30.016V45.064H13.888V53.96H31.744V61H4.16V22.92ZM36.3695 33.288C36.3695 29.8747 37.6495 27.1653 40.2095 25.16C42.8122 23.1547 46.5242 22.152 51.3455 22.152C53.3508 22.152 55.2922 22.3227 57.1695 22.664C59.0468 22.9627 60.8175 23.4107 62.4815 24.008L61.7775 31.368C58.4495 30.0027 55.2495 29.32 52.1775 29.32C50.0442 29.32 48.5082 29.6613 47.5695 30.344C46.6735 31.0267 46.2255 31.8373 46.2255 32.776C46.2255 33.928 46.6948 34.9093 47.6335 35.72C48.6148 36.5307 50.4495 37.4053 53.1375 38.344C57.0628 39.7093 59.9215 41.3307 61.7135 43.208C63.5482 45.0427 64.4655 47.4107 64.4655 50.312C64.4655 53.9387 63.2068 56.7547 60.6895 58.76C58.1722 60.7653 54.3322 61.768 49.1695 61.768C46.9082 61.768 44.6682 61.5333 42.4495 61.064C40.2735 60.5947 38.2895 59.912 36.4975 59.016L37.2015 51.08C38.7802 52.1893 40.5295 53.064 42.4495 53.704C44.4122 54.3013 46.4175 54.6 48.4655 54.6C50.1295 54.6 51.5588 54.3013 52.7535 53.704C53.9908 53.064 54.6095 52.0613 54.6095 50.696C54.6095 50.056 54.4815 49.48 54.2255 48.968C54.0122 48.456 53.6068 47.9867 53.0095 47.56C52.4548 47.0907 51.7082 46.6427 50.7695 46.216C49.8308 45.7893 48.6575 45.3413 47.2495 44.872C43.7935 43.7627 41.1055 42.248 39.1855 40.328C37.3082 38.408 36.3695 36.0613 36.3695 33.288ZM77.776 29.96H66.96V22.92H98.32V29.96H87.504V61H77.776V29.96ZM122.103 22.92L134.967 61H124.791L122.359 52.872H109.111L106.679 61H96.567L109.431 22.92H122.103ZM111.223 45.832H120.247L115.767 30.664L111.223 45.832ZM151.572 53.96C155.284 53.96 158.121 53.064 160.084 51.272C162.046 49.48 163.028 46.3653 163.028 41.928C163.028 37.5333 162.046 34.44 160.084 32.648C158.121 30.856 155.284 29.96 151.572 29.96H149.076V53.96H151.572ZM139.348 61V22.92H152.02C155.092 22.92 157.908 23.3253 160.468 24.136C163.028 24.904 165.204 26.0773 166.996 27.656C168.83 29.2347 170.26 31.2187 171.284 33.608C172.308 35.9547 172.819 38.728 172.819 41.928C172.819 45.128 172.308 47.9227 171.284 50.312C170.26 52.7013 168.83 54.6853 166.996 56.264C165.161 57.8427 162.964 59.0373 160.404 59.848C157.844 60.616 155.028 61 151.956 61H139.348ZM189.146 22.92V61H179.418V22.92H189.146ZM186.97 8.584H195.93V10.184L186.842 19.464H179.161L186.97 8.584ZM196.057 33.288C196.057 29.8747 197.337 27.1653 199.897 25.16C202.5 23.1547 206.212 22.152 211.033 22.152C213.038 22.152 214.98 22.3227 216.857 22.664C218.734 22.9627 220.505 23.4107 222.169 24.008L221.465 31.368C218.137 30.0027 214.937 29.32 211.865 29.32C209.732 29.32 208.196 29.6613 207.257 30.344C206.361 31.0267 205.913 31.8373 205.913 32.776C205.913 33.928 206.382 34.9093 207.321 35.72C208.302 36.5307 210.137 37.4053 212.825 38.344C216.75 39.7093 219.609 41.3307 221.401 43.208C223.236 45.0427 224.153 47.4107 224.153 50.312C224.153 53.9387 222.894 56.7547 220.377 58.76C217.86 60.7653 214.02 61.768 208.857 61.768C206.596 61.768 204.356 61.5333 202.137 61.064C199.961 60.5947 197.977 59.912 196.185 59.016L196.889 51.08C198.468 52.1893 200.217 53.064 202.137 53.704C204.1 54.3013 206.105 54.6 208.153 54.6C209.817 54.6 211.246 54.3013 212.441 53.704C213.678 53.064 214.297 52.0613 214.297 50.696C214.297 50.056 214.169 49.48 213.913 48.968C213.7 48.456 213.294 47.9867 212.697 47.56C212.142 47.0907 211.396 46.6427 210.457 46.216C209.518 45.7893 208.345 45.3413 206.937 44.872C203.481 43.7627 200.793 42.248 198.873 40.328C196.996 38.408 196.057 36.0613 196.057 33.288ZM237.464 29.96H226.648V22.92H258.007V29.96H247.192V61H237.464V29.96ZM273.146 22.92V61H263.418V22.92H273.146ZM279.737 41.992C279.737 39.0053 280.206 36.296 281.145 33.864C282.126 31.432 283.513 29.3627 285.305 27.656C287.097 25.9067 289.273 24.5627 291.833 23.624C294.393 22.6427 297.252 22.152 300.409 22.152C302.286 22.152 304.185 22.3227 306.105 22.664C308.025 23.0053 309.689 23.5173 311.097 24.2L310.457 31.688C309.305 30.8347 307.961 30.2373 306.425 29.896C304.932 29.512 303.396 29.32 301.817 29.32C297.892 29.32 294.862 30.472 292.729 32.776C290.638 35.08 289.593 38.152 289.593 41.992C289.593 46.0027 290.681 49.1173 292.857 51.336C295.076 53.512 298.105 54.6 301.945 54.6C303.566 54.6 305.102 54.408 306.553 54.024C308.046 53.5973 309.412 52.9573 310.649 52.104L311.353 59.72C309.774 60.4453 308.046 60.9573 306.169 61.256C304.292 61.5973 302.457 61.768 300.665 61.768C297.465 61.768 294.564 61.2987 291.961 60.36C289.401 59.4213 287.204 58.0987 285.369 56.392C283.577 54.6427 282.19 52.552 281.209 50.12C280.228 47.688 279.737 44.9787 279.737 41.992ZM339.541 22.92L352.405 61H342.229L339.797 52.872H326.549L324.117 61H314.005L326.869 22.92H339.541ZM328.661 45.832H337.685L333.205 30.664L328.661 45.832ZM355.057 33.288C355.057 29.8747 356.337 27.1653 358.897 25.16C361.5 23.1547 365.212 22.152 370.033 22.152C372.038 22.152 373.98 22.3227 375.857 22.664C377.734 22.9627 379.505 23.4107 381.169 24.008L380.465 31.368C377.137 30.0027 373.937 29.32 370.865 29.32C368.732 29.32 367.196 29.6613 366.257 30.344C365.361 31.0267 364.913 31.8373 364.913 32.776C364.913 33.928 365.382 34.9093 366.321 35.72C367.302 36.5307 369.137 37.4053 371.825 38.344C375.75 39.7093 378.609 41.3307 380.401 43.208C382.236 45.0427 383.153 47.4107 383.153 50.312C383.153 53.9387 381.894 56.7547 379.377 58.76C376.86 60.7653 373.02 61.768 367.857 61.768C365.596 61.768 363.356 61.5333 361.137 61.064C358.961 60.5947 356.977 59.912 355.185 59.016L355.889 51.08C357.468 52.1893 359.217 53.064 361.137 53.704C363.1 54.3013 365.105 54.6 367.153 54.6C368.817 54.6 370.246 54.3013 371.441 53.704C372.678 53.064 373.297 52.0613 373.297 50.696C373.297 50.056 373.169 49.48 372.913 48.968C372.7 48.456 372.294 47.9867 371.697 47.56C371.142 47.0907 370.396 46.6427 369.457 46.216C368.518 45.7893 367.345 45.3413 365.937 44.872C362.481 43.7627 359.793 42.248 357.873 40.328C355.996 38.408 355.057 36.0613 355.057 33.288Z" fill="#E6FFFB"/>
</svg>
