<svg width="31" height="30" viewBox="0 0 31 30" fill="none" xmlns="http://www.w3.org/2000/svg">
<circle cx="15.2086" cy="14.9984" r="14.9533" fill="#E6FFFB"/>
<path d="M23.4691 20.9942C23.0193 19.9289 22.3667 18.9612 21.5475 18.1451C20.7307 17.3267 19.7632 16.6741 18.6984 16.2235C18.6889 16.2187 18.6793 16.2164 18.6698 16.2116C20.1551 15.1387 21.1207 13.3912 21.1207 11.4195C21.1207 8.15322 18.4743 5.50684 15.208 5.50684C11.9418 5.50684 9.2954 8.15322 9.2954 11.4195C9.2954 13.3912 10.261 15.1387 11.7463 16.214C11.7367 16.2187 11.7272 16.2211 11.7177 16.2259C10.6496 16.6765 9.69117 17.3226 8.86864 18.1475C8.05019 18.9642 7.39764 19.9317 6.94703 20.9965C6.50435 22.039 6.2656 23.1567 6.24371 24.289C6.24308 24.3145 6.24754 24.3398 6.25684 24.3635C6.26614 24.3872 6.28009 24.4088 6.29786 24.427C6.31564 24.4452 6.33688 24.4597 6.36033 24.4696C6.38379 24.4794 6.40899 24.4845 6.43444 24.4845H7.86492C7.96982 24.4845 8.05327 24.4011 8.05565 24.2986C8.10333 22.458 8.84241 20.7343 10.1489 19.4278C11.5007 18.076 13.296 17.3321 15.208 17.3321C17.1201 17.3321 18.9154 18.076 20.2672 19.4278C21.5737 20.7343 22.3128 22.458 22.3604 24.2986C22.3628 24.4035 22.4463 24.4845 22.5512 24.4845H23.9816C24.0071 24.4845 24.0323 24.4794 24.0558 24.4696C24.0792 24.4597 24.1005 24.4452 24.1182 24.427C24.136 24.4088 24.15 24.3872 24.1593 24.3635C24.1686 24.3398 24.173 24.3145 24.1724 24.289C24.1485 23.1494 23.9125 22.0408 23.4691 20.9942ZM15.208 15.5202C14.1137 15.5202 13.0838 15.0934 12.3089 14.3186C11.5341 13.5437 11.1073 12.5138 11.1073 11.4195C11.1073 10.3252 11.5341 9.29522 12.3089 8.52038C13.0838 7.74554 14.1137 7.31878 15.208 7.31878C16.3024 7.31878 17.3323 7.74554 18.1071 8.52038C18.882 9.29522 19.3088 10.3252 19.3088 11.4195C19.3088 12.5138 18.882 13.5437 18.1071 14.3186C17.3323 15.0934 16.3024 15.5202 15.208 15.5202Z" fill="#36CFC9"/>
</svg>
