<svg width="104" height="104" viewBox="0 0 104 104" fill="none" xmlns="http://www.w3.org/2000/svg">
<circle cx="52" cy="52" r="52" fill="#E6FFFB"/>
<path d="M80.7236 72.8497C79.1596 69.1451 76.89 65.7802 74.0412 62.9422C71.2011 60.096 67.8366 57.8268 64.1337 56.2598C64.1005 56.2432 64.0674 56.2349 64.0342 56.2183C69.1994 52.4875 72.5572 46.4103 72.5572 39.5538C72.5572 28.1954 63.3544 18.9926 51.9959 18.9926C40.6375 18.9926 31.4347 28.1954 31.4347 39.5538C31.4347 46.4103 34.7925 52.4875 39.9577 56.2266C39.9245 56.2432 39.8914 56.2515 39.8582 56.2681C36.1439 57.835 32.811 60.0819 29.9507 62.9505C27.1045 65.7906 24.8353 69.1551 23.2683 72.858C21.7288 76.4832 20.8986 80.3699 20.8225 84.3076C20.8203 84.3961 20.8358 84.4841 20.8681 84.5665C20.9005 84.6489 20.949 84.724 21.0108 84.7874C21.0726 84.8507 21.1465 84.9011 21.228 84.9354C21.3096 84.9698 21.3972 84.9875 21.4857 84.9875H26.4602C26.825 84.9875 27.1152 84.6973 27.1235 84.3408C27.2893 77.9403 29.8595 71.946 34.4028 67.4026C39.1037 62.7018 45.3467 60.115 51.9959 60.115C58.6452 60.115 64.8882 62.7018 69.5891 67.4026C74.1324 71.946 76.7026 77.9403 76.8684 84.3408C76.8767 84.7056 77.1669 84.9875 77.5317 84.9875H82.5061C82.5947 84.9875 82.6823 84.9698 82.7639 84.9354C82.8454 84.9011 82.9193 84.8507 82.9811 84.7874C83.0429 84.724 83.0914 84.6489 83.1238 84.5665C83.1561 84.4841 83.1716 84.3961 83.1694 84.3076C83.0865 80.3446 82.2657 76.4894 80.7236 72.8497ZM51.9959 53.814C48.1905 53.814 44.6088 52.3299 41.9143 49.6354C39.2198 46.9409 37.7357 43.3593 37.7357 39.5538C37.7357 35.7483 39.2198 32.1667 41.9143 29.4721C44.6088 26.7776 48.1905 25.2936 51.9959 25.2936C55.8014 25.2936 59.3831 26.7776 62.0776 29.4721C64.7721 32.1667 66.2561 35.7483 66.2561 39.5538C66.2561 43.3593 64.7721 46.9409 62.0776 49.6354C59.3831 52.3299 55.8014 53.814 51.9959 53.814Z" fill="#36CFC9"/>
</svg>
