<svg width="370" height="43" viewBox="0 0 370 43" fill="none" xmlns="http://www.w3.org/2000/svg">
<path d="M149.254 11.2949H146.324C141.93 11.2949 139.732 13.4922 139.732 17.8867V26.6758C139.732 31.0703 141.93 33.2676 146.324 33.2676H149.254C153.648 33.2676 155.846 31.0703 155.846 26.6758V20.084H148.521V24.4785H151.451V26.6758C151.451 28.1406 150.719 28.873 149.254 28.873H146.324C144.859 28.873 144.127 28.1406 144.127 26.6758V17.8867C144.127 16.4219 144.859 15.6895 146.324 15.6895H149.254C150.719 15.6895 151.451 16.1777 151.451 17.1543H155.846C155.846 13.248 153.648 11.2949 149.254 11.2949ZM148.521 27.4082L147.057 25.9434V27.4082H148.521ZM156.285 12.291C157.945 13.9219 158.775 16.5195 158.775 20.084V28.1406C158.775 33.5117 156.09 36.1973 150.719 36.1973H147.789C144.615 36.1973 142.232 35.4062 140.641 33.8242C139.059 32.2324 138.268 29.8496 138.268 26.6758V17.8867C138.268 12.5156 140.953 9.83008 146.324 9.83008H149.254C152.291 9.83008 154.635 10.6504 156.285 12.291ZM173.485 28.873V24.4785H182.274V20.084H173.485V15.6895H183.739V11.2949H169.09V33.2676H183.739V28.873H173.485ZM183.739 19.3516L185.936 20.8164V28.1406L187.401 29.6055V36.9297H169.823L167.625 34.7324V9.83008H185.204L187.401 12.0273V19.3516H183.739ZM201.378 20.0254L208.321 33.2676H213.096V11.2949H208.702V24.5371L201.759 11.2949H196.983V33.2676H201.378V20.0254ZM207.442 34.7324L205.04 30.1621V36.9297H197.716L195.518 34.7324V9.83008H202.638L204.835 12.0273L207.237 16.5977V9.83008H214.561L216.759 12.0273V36.9297H209.639L207.442 34.7324ZM230.736 28.873V24.4785H239.525V20.084H230.736V15.6895H240.989V11.2949H226.341V33.2676H240.989V28.873H230.736ZM240.989 19.3516L243.187 20.8164V28.1406L244.652 29.6055V36.9297H227.073L224.876 34.7324V9.83008H242.454L244.652 12.0273V19.3516H240.989ZM263.755 11.2949H260.826C256.431 11.2949 254.234 13.4922 254.234 17.8867C254.234 22.2812 256.431 24.4785 260.826 24.4785H263.755C265.22 24.4785 265.953 25.2109 265.953 26.6758C265.953 28.1406 265.22 28.873 263.755 28.873H260.826C259.361 28.873 258.629 28.3848 258.629 27.4082H254.234C254.234 31.3145 256.431 33.2676 260.826 33.2676H263.755C268.15 33.2676 270.347 31.0703 270.347 26.6758C270.347 22.2812 268.15 20.084 263.755 20.084H260.826C259.361 20.084 258.629 19.3516 258.629 17.8867C258.629 16.4219 259.361 15.6895 260.826 15.6895H263.755C265.22 15.6895 265.953 16.1777 265.953 17.1543H270.347C270.347 13.248 268.15 11.2949 263.755 11.2949ZM256.036 24.874C253.858 23.6338 252.769 21.3047 252.769 17.8867C252.769 12.5156 255.455 9.83008 260.826 9.83008H263.755C267.027 9.83008 269.551 10.709 271.329 12.4668C273.116 14.2148 274.009 16.998 274.009 20.8164H269.966C271.685 21.793 272.789 23.0137 273.277 24.4785C273.765 25.9434 274.009 27.4082 274.009 28.873C274.009 34.2441 271.324 36.9297 265.953 36.9297H263.023C259.752 36.9297 257.222 36.0508 255.435 34.293C253.658 32.5449 252.769 29.7617 252.769 25.9434H256.812C256.519 25.6211 256.26 25.2646 256.036 24.874ZM287.986 33.2676V11.2949H283.592V33.2676H287.986ZM282.127 34.7324V9.83008H289.451L291.648 12.0273V36.9297H284.324L282.127 34.7324ZM310.752 11.2949H307.823C303.428 11.2949 301.231 13.4922 301.231 17.8867C301.231 22.2812 303.428 24.4785 307.823 24.4785H310.752C312.217 24.4785 312.95 25.2109 312.95 26.6758C312.95 28.1406 312.217 28.873 310.752 28.873H307.823C306.358 28.873 305.625 28.3848 305.625 27.4082H301.231C301.231 31.3145 303.428 33.2676 307.823 33.2676H310.752C315.147 33.2676 317.344 31.0703 317.344 26.6758C317.344 22.2812 315.147 20.084 310.752 20.084H307.823C306.358 20.084 305.625 19.3516 305.625 17.8867C305.625 16.4219 306.358 15.6895 307.823 15.6895H310.752C312.217 15.6895 312.95 16.1777 312.95 17.1543H317.344C317.344 13.248 315.147 11.2949 310.752 11.2949ZM303.033 24.874C300.855 23.6338 299.766 21.3047 299.766 17.8867C299.766 12.5156 302.452 9.83008 307.823 9.83008H310.752C314.024 9.83008 316.548 10.709 318.326 12.4668C320.113 14.2148 321.006 16.998 321.006 20.8164H316.963C318.682 21.793 319.786 23.0137 320.274 24.4785C320.762 25.9434 321.006 27.4082 321.006 28.873C321.006 34.2441 318.321 36.9297 312.95 36.9297H310.02C306.748 36.9297 304.219 36.0508 302.432 34.293C300.655 32.5449 299.766 29.7617 299.766 25.9434H303.809C303.516 25.6211 303.257 25.2646 303.033 24.874Z" fill="#E6FFFB"/>
<path d="M16.524 27.412H11.772L7.596 19.996V34H2.34V12.58H8.604L14.148 22.372L19.692 12.58H25.956V34H20.7V19.996L16.524 27.412ZM30.6408 12.58H45.8688V16.54H36.1128V21.076H45.1848V25.036H36.1128V30.04H46.1568V34H30.6408V12.58ZM39.2088 4.516H44.2488V5.416L39.1368 10.636H34.8168L39.2088 4.516ZM56.6066 30.04C58.6946 30.04 60.2906 29.536 61.3946 28.528C62.4986 27.52 63.0506 25.768 63.0506 23.272C63.0506 20.8 62.4986 19.06 61.3946 18.052C60.2906 17.044 58.6946 16.54 56.6066 16.54H55.2026V30.04H56.6066ZM49.7306 34V12.58H56.8586C58.5866 12.58 60.1706 12.808 61.6106 13.264C63.0506 13.696 64.2746 14.356 65.2826 15.244C66.3146 16.132 67.1186 17.248 67.6946 18.592C68.2706 19.912 68.5586 21.472 68.5586 23.272C68.5586 25.072 68.2706 26.644 67.6946 27.988C67.1186 29.332 66.3146 30.448 65.2826 31.336C64.2506 32.224 63.0146 32.896 61.5746 33.352C60.1346 33.784 58.5506 34 56.8226 34H49.7306ZM77.742 12.58V34H72.27V12.58H77.742ZM81.4497 23.308C81.4497 21.628 81.7137 20.104 82.2417 18.736C82.7937 17.368 83.5737 16.204 84.5817 15.244C85.5897 14.26 86.8137 13.504 88.2537 12.976C89.6937 12.424 91.3017 12.148 93.0777 12.148C94.1337 12.148 95.2017 12.244 96.2817 12.436C97.3617 12.628 98.2977 12.916 99.0897 13.3L98.7297 17.512C98.0817 17.032 97.3257 16.696 96.4617 16.504C95.6217 16.288 94.7577 16.18 93.8697 16.18C91.6617 16.18 89.9577 16.828 88.7577 18.124C87.5817 19.42 86.9937 21.148 86.9937 23.308C86.9937 25.564 87.6057 27.316 88.8297 28.564C90.0777 29.788 91.7817 30.4 93.9417 30.4C94.8537 30.4 95.7177 30.292 96.5337 30.076C97.3737 29.836 98.1417 29.476 98.8377 28.996L99.2337 33.28C98.3457 33.688 97.3737 33.976 96.3177 34.144C95.2617 34.336 94.2297 34.432 93.2217 34.432C91.4217 34.432 89.7897 34.168 88.3257 33.64C86.8857 33.112 85.6497 32.368 84.6177 31.408C83.6097 30.424 82.8297 29.248 82.2777 27.88C81.7257 26.512 81.4497 24.988 81.4497 23.308ZM122.23 23.308C122.23 24.892 122.002 26.368 121.546 27.736C121.09 29.08 120.418 30.256 119.53 31.264C118.642 32.248 117.538 33.028 116.218 33.604C114.922 34.156 113.434 34.432 111.754 34.432C110.05 34.432 108.55 34.156 107.254 33.604C105.958 33.028 104.866 32.248 103.978 31.264C103.09 30.256 102.418 29.08 101.962 27.736C101.506 26.368 101.278 24.892 101.278 23.308C101.278 21.724 101.506 20.248 101.962 18.88C102.418 17.512 103.09 16.336 103.978 15.352C104.866 14.344 105.958 13.564 107.254 13.012C108.55 12.436 110.05 12.148 111.754 12.148C113.434 12.148 114.922 12.436 116.218 13.012C117.538 13.564 118.642 14.344 119.53 15.352C120.418 16.336 121.09 17.512 121.546 18.88C122.002 20.248 122.23 21.724 122.23 23.308ZM106.822 23.308C106.822 25.588 107.254 27.34 108.118 28.564C109.006 29.788 110.218 30.4 111.754 30.4C113.29 30.4 114.49 29.788 115.354 28.564C116.242 27.34 116.686 25.588 116.686 23.308C116.686 21.004 116.242 19.24 115.354 18.016C114.49 16.792 113.29 16.18 111.754 16.18C110.218 16.18 109.006 16.792 108.118 18.016C107.254 19.24 106.822 21.004 106.822 23.308Z" fill="#E6FFFB"/>
</svg>
