<svg width="347" height="43" viewBox="0 0 347 43" fill="none" xmlns="http://www.w3.org/2000/svg">
<path d="M126.254 11.2949H123.324C118.93 11.2949 116.732 13.4922 116.732 17.8867V26.6758C116.732 31.0703 118.93 33.2676 123.324 33.2676H126.254C130.648 33.2676 132.846 31.0703 132.846 26.6758V20.084H125.521V24.4785H128.451V26.6758C128.451 28.1406 127.719 28.873 126.254 28.873H123.324C121.859 28.873 121.127 28.1406 121.127 26.6758V17.8867C121.127 16.4219 121.859 15.6895 123.324 15.6895H126.254C127.719 15.6895 128.451 16.1777 128.451 17.1543H132.846C132.846 13.248 130.648 11.2949 126.254 11.2949ZM125.521 27.4082L124.057 25.9434V27.4082H125.521ZM133.285 12.291C134.945 13.9219 135.775 16.5195 135.775 20.084V28.1406C135.775 33.5117 133.09 36.1973 127.719 36.1973H124.789C121.615 36.1973 119.232 35.4062 117.641 33.8242C116.059 32.2324 115.268 29.8496 115.268 26.6758V17.8867C115.268 12.5156 117.953 9.83008 123.324 9.83008H126.254C129.291 9.83008 131.635 10.6504 133.285 12.291ZM150.485 28.873V24.4785H159.274V20.084H150.485V15.6895H160.739V11.2949H146.09V33.2676H160.739V28.873H150.485ZM160.739 19.3516L162.936 20.8164V28.1406L164.401 29.6055V36.9297H146.823L144.625 34.7324V9.83008H162.204L164.401 12.0273V19.3516H160.739ZM178.378 20.0254L185.321 33.2676H190.096V11.2949H185.702V24.5371L178.759 11.2949H173.983V33.2676H178.378V20.0254ZM184.442 34.7324L182.04 30.1621V36.9297H174.716L172.518 34.7324V9.83008H179.638L181.835 12.0273L184.237 16.5977V9.83008H191.561L193.759 12.0273V36.9297H186.639L184.442 34.7324ZM207.736 28.873V24.4785H216.525V20.084H207.736V15.6895H217.989V11.2949H203.341V33.2676H217.989V28.873H207.736ZM217.989 19.3516L220.187 20.8164V28.1406L221.652 29.6055V36.9297H204.073L201.876 34.7324V9.83008H219.454L221.652 12.0273V19.3516H217.989ZM240.755 11.2949H237.826C233.431 11.2949 231.234 13.4922 231.234 17.8867C231.234 22.2812 233.431 24.4785 237.826 24.4785H240.755C242.22 24.4785 242.953 25.2109 242.953 26.6758C242.953 28.1406 242.22 28.873 240.755 28.873H237.826C236.361 28.873 235.629 28.3848 235.629 27.4082H231.234C231.234 31.3145 233.431 33.2676 237.826 33.2676H240.755C245.15 33.2676 247.347 31.0703 247.347 26.6758C247.347 22.2812 245.15 20.084 240.755 20.084H237.826C236.361 20.084 235.629 19.3516 235.629 17.8867C235.629 16.4219 236.361 15.6895 237.826 15.6895H240.755C242.22 15.6895 242.953 16.1777 242.953 17.1543H247.347C247.347 13.248 245.15 11.2949 240.755 11.2949ZM233.036 24.874C230.858 23.6338 229.769 21.3047 229.769 17.8867C229.769 12.5156 232.455 9.83008 237.826 9.83008H240.755C244.027 9.83008 246.551 10.709 248.329 12.4668C250.116 14.2148 251.009 16.998 251.009 20.8164H246.966C248.685 21.793 249.789 23.0137 250.277 24.4785C250.765 25.9434 251.009 27.4082 251.009 28.873C251.009 34.2441 248.324 36.9297 242.953 36.9297H240.023C236.752 36.9297 234.222 36.0508 232.435 34.293C230.658 32.5449 229.769 29.7617 229.769 25.9434H233.812C233.519 25.6211 233.26 25.2646 233.036 24.874ZM264.986 33.2676V11.2949H260.592V33.2676H264.986ZM259.127 34.7324V9.83008H266.451L268.648 12.0273V36.9297H261.324L259.127 34.7324ZM287.752 11.2949H284.823C280.428 11.2949 278.231 13.4922 278.231 17.8867C278.231 22.2812 280.428 24.4785 284.823 24.4785H287.752C289.217 24.4785 289.95 25.2109 289.95 26.6758C289.95 28.1406 289.217 28.873 287.752 28.873H284.823C283.358 28.873 282.625 28.3848 282.625 27.4082H278.231C278.231 31.3145 280.428 33.2676 284.823 33.2676H287.752C292.147 33.2676 294.344 31.0703 294.344 26.6758C294.344 22.2812 292.147 20.084 287.752 20.084H284.823C283.358 20.084 282.625 19.3516 282.625 17.8867C282.625 16.4219 283.358 15.6895 284.823 15.6895H287.752C289.217 15.6895 289.95 16.1777 289.95 17.1543H294.344C294.344 13.248 292.147 11.2949 287.752 11.2949ZM280.033 24.874C277.855 23.6338 276.766 21.3047 276.766 17.8867C276.766 12.5156 279.452 9.83008 284.823 9.83008H287.752C291.024 9.83008 293.548 10.709 295.326 12.4668C297.113 14.2148 298.006 16.998 298.006 20.8164H293.963C295.682 21.793 296.786 23.0137 297.274 24.4785C297.762 25.9434 298.006 27.4082 298.006 28.873C298.006 34.2441 295.321 36.9297 289.95 36.9297H287.02C283.748 36.9297 281.219 36.0508 279.432 34.293C277.655 32.5449 276.766 29.7617 276.766 25.9434H280.809C280.516 25.6211 280.257 25.2646 280.033 24.874Z" fill="#E6FFFB"/>
<path d="M14.472 12.58L21.708 34H15.984L14.616 29.428H7.164L5.796 34H0.108L7.344 12.58H14.472ZM8.352 25.468H13.428L10.908 16.936L8.352 25.468ZM31.048 30.04C33.136 30.04 34.732 29.536 35.836 28.528C36.94 27.52 37.492 25.768 37.492 23.272C37.492 20.8 36.94 19.06 35.836 18.052C34.732 17.044 33.136 16.54 31.048 16.54H29.644V30.04H31.048ZM24.172 34V12.58H31.3C33.028 12.58 34.612 12.808 36.052 13.264C37.492 13.696 38.716 14.356 39.724 15.244C40.756 16.132 41.56 17.248 42.136 18.592C42.712 19.912 43 21.472 43 23.272C43 25.072 42.712 26.644 42.136 27.988C41.56 29.332 40.756 30.448 39.724 31.336C38.692 32.224 37.456 32.896 36.016 33.352C34.576 33.784 32.992 34 31.264 34H24.172ZM60.7154 27.412H55.9634L51.7874 19.996V34H46.5314V12.58H52.7954L58.3394 22.372L63.8834 12.58H70.1474V34H64.8914V19.996L60.7154 27.412ZM80.4842 12.58V34H75.0122V12.58H80.4842ZM90.5999 19.852V34H85.3439V12.58H91.6439L99.0239 26.728V12.58H104.28V34H98.0519L90.5999 19.852Z" fill="#E6FFFB"/>
</svg>
