<svg width="395" height="43" viewBox="0 0 395 43" fill="none" xmlns="http://www.w3.org/2000/svg">
<path d="M174.254 11.2949H171.324C166.93 11.2949 164.732 13.4922 164.732 17.8867V26.6758C164.732 31.0703 166.93 33.2676 171.324 33.2676H174.254C178.648 33.2676 180.846 31.0703 180.846 26.6758V20.084H173.521V24.4785H176.451V26.6758C176.451 28.1406 175.719 28.873 174.254 28.873H171.324C169.859 28.873 169.127 28.1406 169.127 26.6758V17.8867C169.127 16.4219 169.859 15.6895 171.324 15.6895H174.254C175.719 15.6895 176.451 16.1777 176.451 17.1543H180.846C180.846 13.248 178.648 11.2949 174.254 11.2949ZM173.521 27.4082L172.057 25.9434V27.4082H173.521ZM181.285 12.291C182.945 13.9219 183.775 16.5195 183.775 20.084V28.1406C183.775 33.5117 181.09 36.1973 175.719 36.1973H172.789C169.615 36.1973 167.232 35.4062 165.641 33.8242C164.059 32.2324 163.268 29.8496 163.268 26.6758V17.8867C163.268 12.5156 165.953 9.83008 171.324 9.83008H174.254C177.291 9.83008 179.635 10.6504 181.285 12.291ZM198.485 28.873V24.4785H207.274V20.084H198.485V15.6895H208.739V11.2949H194.09V33.2676H208.739V28.873H198.485ZM208.739 19.3516L210.936 20.8164V28.1406L212.401 29.6055V36.9297H194.823L192.625 34.7324V9.83008H210.204L212.401 12.0273V19.3516H208.739ZM226.378 20.0254L233.321 33.2676H238.096V11.2949H233.702V24.5371L226.759 11.2949H221.983V33.2676H226.378V20.0254ZM232.442 34.7324L230.04 30.1621V36.9297H222.716L220.518 34.7324V9.83008H227.638L229.835 12.0273L232.237 16.5977V9.83008H239.561L241.759 12.0273V36.9297H234.639L232.442 34.7324ZM255.736 28.873V24.4785H264.525V20.084H255.736V15.6895H265.989V11.2949H251.341V33.2676H265.989V28.873H255.736ZM265.989 19.3516L268.187 20.8164V28.1406L269.652 29.6055V36.9297H252.073L249.876 34.7324V9.83008H267.454L269.652 12.0273V19.3516H265.989ZM288.755 11.2949H285.826C281.431 11.2949 279.234 13.4922 279.234 17.8867C279.234 22.2812 281.431 24.4785 285.826 24.4785H288.755C290.22 24.4785 290.953 25.2109 290.953 26.6758C290.953 28.1406 290.22 28.873 288.755 28.873H285.826C284.361 28.873 283.629 28.3848 283.629 27.4082H279.234C279.234 31.3145 281.431 33.2676 285.826 33.2676H288.755C293.15 33.2676 295.347 31.0703 295.347 26.6758C295.347 22.2812 293.15 20.084 288.755 20.084H285.826C284.361 20.084 283.629 19.3516 283.629 17.8867C283.629 16.4219 284.361 15.6895 285.826 15.6895H288.755C290.22 15.6895 290.953 16.1777 290.953 17.1543H295.347C295.347 13.248 293.15 11.2949 288.755 11.2949ZM281.036 24.874C278.858 23.6338 277.769 21.3047 277.769 17.8867C277.769 12.5156 280.455 9.83008 285.826 9.83008H288.755C292.027 9.83008 294.551 10.709 296.329 12.4668C298.116 14.2148 299.009 16.998 299.009 20.8164H294.966C296.685 21.793 297.789 23.0137 298.277 24.4785C298.765 25.9434 299.009 27.4082 299.009 28.873C299.009 34.2441 296.324 36.9297 290.953 36.9297H288.023C284.752 36.9297 282.222 36.0508 280.435 34.293C278.658 32.5449 277.769 29.7617 277.769 25.9434H281.812C281.519 25.6211 281.26 25.2646 281.036 24.874ZM312.986 33.2676V11.2949H308.592V33.2676H312.986ZM307.127 34.7324V9.83008H314.451L316.648 12.0273V36.9297H309.324L307.127 34.7324ZM335.752 11.2949H332.823C328.428 11.2949 326.231 13.4922 326.231 17.8867C326.231 22.2812 328.428 24.4785 332.823 24.4785H335.752C337.217 24.4785 337.95 25.2109 337.95 26.6758C337.95 28.1406 337.217 28.873 335.752 28.873H332.823C331.358 28.873 330.625 28.3848 330.625 27.4082H326.231C326.231 31.3145 328.428 33.2676 332.823 33.2676H335.752C340.147 33.2676 342.344 31.0703 342.344 26.6758C342.344 22.2812 340.147 20.084 335.752 20.084H332.823C331.358 20.084 330.625 19.3516 330.625 17.8867C330.625 16.4219 331.358 15.6895 332.823 15.6895H335.752C337.217 15.6895 337.95 16.1777 337.95 17.1543H342.344C342.344 13.248 340.147 11.2949 335.752 11.2949ZM328.033 24.874C325.855 23.6338 324.766 21.3047 324.766 17.8867C324.766 12.5156 327.452 9.83008 332.823 9.83008H335.752C339.024 9.83008 341.548 10.709 343.326 12.4668C345.113 14.2148 346.006 16.998 346.006 20.8164H341.963C343.682 21.793 344.786 23.0137 345.274 24.4785C345.762 25.9434 346.006 27.4082 346.006 28.873C346.006 34.2441 343.321 36.9297 337.95 36.9297H335.02C331.748 36.9297 329.219 36.0508 327.432 34.293C325.655 32.5449 324.766 29.7617 324.766 25.9434H328.809C328.516 25.6211 328.257 25.2646 328.033 24.874Z" fill="#E6FFFB"/>
<path d="M7.812 26.836V34H2.34V12.58H10.188C11.556 12.58 12.792 12.724 13.896 13.012C15 13.3 15.936 13.744 16.704 14.344C17.496 14.944 18.096 15.688 18.504 16.576C18.936 17.464 19.152 18.508 19.152 19.708C19.152 20.908 18.936 21.952 18.504 22.84C18.096 23.728 17.496 24.472 16.704 25.072C15.936 25.672 15 26.116 13.896 26.404C12.792 26.692 11.556 26.836 10.188 26.836H7.812ZM9.756 22.876C11.052 22.876 12.012 22.66 12.636 22.228C13.284 21.772 13.608 20.932 13.608 19.708C13.608 18.484 13.284 17.656 12.636 17.224C12.012 16.768 11.052 16.54 9.756 16.54H7.812V22.876H9.756ZM33.1751 12.58L40.4111 34H34.6871L33.3191 29.428H25.8671L24.4991 34H18.8111L26.0471 12.58H33.1751ZM27.0551 25.468H32.1311L29.6111 16.936L27.0551 25.468ZM41.3716 23.308C41.3716 21.628 41.6356 20.104 42.1636 18.736C42.7156 17.368 43.4956 16.204 44.5036 15.244C45.5116 14.26 46.7356 13.504 48.1756 12.976C49.6156 12.424 51.2236 12.148 52.9996 12.148C54.0556 12.148 55.1236 12.244 56.2036 12.436C57.2836 12.628 58.2196 12.916 59.0116 13.3L58.6516 17.512C58.0036 17.032 57.2476 16.696 56.3836 16.504C55.5436 16.288 54.6796 16.18 53.7916 16.18C51.5836 16.18 49.8796 16.828 48.6796 18.124C47.5036 19.42 46.9156 21.148 46.9156 23.308C46.9156 25.564 47.5276 27.316 48.7516 28.564C49.9996 29.788 51.7036 30.4 53.8636 30.4C54.7756 30.4 55.6396 30.292 56.4556 30.076C57.2956 29.836 58.0636 29.476 58.7596 28.996L59.1556 33.28C58.2676 33.688 57.2956 33.976 56.2396 34.144C55.1836 34.336 54.1516 34.432 53.1436 34.432C51.3436 34.432 49.7116 34.168 48.2476 33.64C46.8076 33.112 45.5716 32.368 44.5396 31.408C43.5316 30.424 42.7516 29.248 42.1996 27.88C41.6476 26.512 41.3716 24.988 41.3716 23.308ZM68.1795 12.58V34H62.7075V12.58H68.1795ZM73.0392 12.58H88.2672V16.54H78.5112V21.076H87.5832V25.036H78.5112V30.04H88.5552V34H73.0392V12.58ZM97.3851 19.852V34H92.1291V12.58H98.4291L105.809 26.728V12.58H111.065V34H104.837L97.3851 19.852ZM120.038 16.54H113.954V12.58H131.594V16.54H125.51V34H120.038V16.54ZM134.457 12.58H149.685V16.54H139.929V21.076H149.001V25.036H139.929V30.04H149.973V34H134.457V12.58Z" fill="#E6FFFB"/>
</svg>
