<svg width="163" height="91" viewBox="0 0 163 91" fill="none" xmlns="http://www.w3.org/2000/svg">
<path d="M33.7246 27H31.2539L24.916 16.9121V27H22.4453V12.7812H24.916L31.2734 22.9082V12.7812H33.7246V27ZM42.8164 25.9648C42.1198 26.7852 41.1302 27.1953 39.8477 27.1953C38.7018 27.1953 37.8327 26.86 37.2402 26.1895C36.6543 25.5189 36.3613 24.5488 36.3613 23.2793V16.4336H38.7344V23.25C38.7344 24.5911 39.291 25.2617 40.4043 25.2617C41.5566 25.2617 42.3346 24.8483 42.7383 24.0215V16.4336H45.1113V27H42.875L42.8164 25.9648ZM52.1816 27.1953C50.6777 27.1953 49.457 26.7233 48.5195 25.7793C47.5885 24.8288 47.123 23.5658 47.123 21.9902V21.6973C47.123 20.6426 47.3249 19.7018 47.7285 18.875C48.1387 18.0417 48.7116 17.3939 49.4473 16.9316C50.1829 16.4694 51.0033 16.2383 51.9082 16.2383C53.347 16.2383 54.457 16.6973 55.2383 17.6152C56.026 18.5332 56.4199 19.832 56.4199 21.5117V22.4688H49.5156C49.5872 23.3411 49.877 24.0312 50.3848 24.5391C50.8991 25.0469 51.5436 25.3008 52.3184 25.3008C53.4056 25.3008 54.291 24.8613 54.9746 23.9824L56.2539 25.2031C55.8307 25.8346 55.2643 26.3262 54.5547 26.6777C53.8516 27.0228 53.0605 27.1953 52.1816 27.1953ZM51.8984 18.1426C51.2474 18.1426 50.7201 18.3704 50.3164 18.8262C49.9193 19.2819 49.6654 19.9167 49.5547 20.7305H54.0762V20.5547C54.0241 19.7604 53.8125 19.1615 53.4414 18.7578C53.0703 18.3477 52.556 18.1426 51.8984 18.1426ZM64.1934 24.1289C64.1934 23.7057 64.0176 23.3835 63.666 23.1621C63.321 22.9408 62.7448 22.7454 61.9375 22.5762C61.1302 22.4069 60.4564 22.1921 59.916 21.9316C58.7311 21.3587 58.1387 20.5286 58.1387 19.4414C58.1387 18.5299 58.5228 17.7682 59.291 17.1562C60.0592 16.5443 61.0358 16.2383 62.2207 16.2383C63.4837 16.2383 64.5026 16.5508 65.2773 17.1758C66.0586 17.8008 66.4492 18.6113 66.4492 19.6074H64.0762C64.0762 19.1517 63.9069 18.7741 63.5684 18.4746C63.2298 18.1686 62.7806 18.0156 62.2207 18.0156C61.6999 18.0156 61.2734 18.1361 60.9414 18.377C60.6159 18.6178 60.4531 18.9401 60.4531 19.3438C60.4531 19.7083 60.6061 19.9915 60.9121 20.1934C61.2181 20.3952 61.8366 20.6003 62.7676 20.8086C63.6986 21.0104 64.4277 21.2546 64.9551 21.541C65.4889 21.821 65.8828 22.1595 66.1367 22.5566C66.3971 22.9538 66.5273 23.4355 66.5273 24.002C66.5273 24.9525 66.1335 25.724 65.3457 26.3164C64.5579 26.9023 63.526 27.1953 62.25 27.1953C61.3841 27.1953 60.6126 27.0391 59.9355 26.7266C59.2585 26.4141 58.7311 25.9844 58.3535 25.4375C57.9759 24.8906 57.7871 24.3014 57.7871 23.6699H60.0918C60.1243 24.2298 60.3359 24.6628 60.7266 24.9688C61.1172 25.2682 61.6348 25.418 62.2793 25.418C62.9043 25.418 63.3796 25.3008 63.7051 25.0664C64.0306 24.8255 64.1934 24.513 64.1934 24.1289ZM71.5762 13.8652V16.4336H73.4414V18.1914H71.5762V24.0898C71.5762 24.4935 71.6543 24.7865 71.8105 24.9688C71.9733 25.1445 72.2598 25.2324 72.6699 25.2324C72.9434 25.2324 73.2201 25.1999 73.5 25.1348V26.9707C72.9596 27.1204 72.4388 27.1953 71.9375 27.1953C70.1146 27.1953 69.2031 26.1895 69.2031 24.1777V18.1914H67.4648V16.4336H69.2031V13.8652H71.5762ZM80.7949 18.6016C80.4824 18.5495 80.1602 18.5234 79.8281 18.5234C78.7409 18.5234 78.0085 18.9401 77.6309 19.7734V27H75.2578V16.4336H77.5234L77.582 17.6152C78.1549 16.6973 78.9492 16.2383 79.9648 16.2383C80.3034 16.2383 80.5833 16.2839 80.8047 16.375L80.7949 18.6016ZM88.3145 27C88.2103 26.7982 88.1191 26.4694 88.041 26.0137C87.2858 26.8014 86.3613 27.1953 85.2676 27.1953C84.2064 27.1953 83.3405 26.8926 82.6699 26.2871C81.9993 25.6816 81.6641 24.9329 81.6641 24.041C81.6641 22.9147 82.0807 22.0521 82.9141 21.4531C83.7539 20.8477 84.9518 20.5449 86.5078 20.5449H87.9629V19.8516C87.9629 19.3047 87.8099 18.8685 87.5039 18.543C87.1979 18.2109 86.7324 18.0449 86.1074 18.0449C85.5671 18.0449 85.1243 18.1816 84.7793 18.4551C84.4342 18.722 84.2617 19.0638 84.2617 19.4805H81.8887C81.8887 18.901 82.0807 18.3607 82.4648 17.8594C82.849 17.3516 83.3698 16.9544 84.0273 16.668C84.6914 16.3815 85.4303 16.2383 86.2441 16.2383C87.4811 16.2383 88.4674 16.5508 89.2031 17.1758C89.9388 17.7943 90.3164 18.6667 90.3359 19.793V24.5586C90.3359 25.5091 90.4694 26.2676 90.7363 26.834V27H88.3145ZM85.707 25.291C86.1758 25.291 86.6152 25.1771 87.0254 24.9492C87.4421 24.7214 87.7546 24.4154 87.9629 24.0312V22.0391H86.6836C85.8047 22.0391 85.1439 22.1921 84.7012 22.498C84.2585 22.804 84.0371 23.237 84.0371 23.7969C84.0371 24.2526 84.1868 24.6172 84.4863 24.8906C84.7923 25.1576 85.1992 25.291 85.707 25.291ZM98.7441 24.1289C98.7441 23.7057 98.5684 23.3835 98.2168 23.1621C97.8717 22.9408 97.2956 22.7454 96.4883 22.5762C95.681 22.4069 95.0072 22.1921 94.4668 21.9316C93.2819 21.3587 92.6895 20.5286 92.6895 19.4414C92.6895 18.5299 93.0736 17.7682 93.8418 17.1562C94.61 16.5443 95.5866 16.2383 96.7715 16.2383C98.0345 16.2383 99.0534 16.5508 99.8281 17.1758C100.609 17.8008 101 18.6113 101 19.6074H98.627C98.627 19.1517 98.4577 18.7741 98.1191 18.4746C97.7806 18.1686 97.3314 18.0156 96.7715 18.0156C96.2507 18.0156 95.8242 18.1361 95.4922 18.377C95.1667 18.6178 95.0039 18.9401 95.0039 19.3438C95.0039 19.7083 95.1569 19.9915 95.4629 20.1934C95.7689 20.3952 96.3874 20.6003 97.3184 20.8086C98.2493 21.0104 98.9785 21.2546 99.5059 21.541C100.04 21.821 100.434 22.1595 100.688 22.5566C100.948 22.9538 101.078 23.4355 101.078 24.002C101.078 24.9525 100.684 25.724 99.8965 26.3164C99.1087 26.9023 98.0768 27.1953 96.8008 27.1953C95.9349 27.1953 95.1634 27.0391 94.4863 26.7266C93.8092 26.4141 93.2819 25.9844 92.9043 25.4375C92.5267 24.8906 92.3379 24.3014 92.3379 23.6699H94.6426C94.6751 24.2298 94.8867 24.6628 95.2773 24.9688C95.668 25.2682 96.1855 25.418 96.8301 25.418C97.4551 25.418 97.9303 25.3008 98.2559 25.0664C98.5814 24.8255 98.7441 24.513 98.7441 24.1289ZM115.795 23.3379C115.795 22.7129 115.574 22.2311 115.131 21.8926C114.695 21.554 113.904 21.2122 112.758 20.8672C111.612 20.5221 110.701 20.138 110.023 19.7148C108.728 18.901 108.08 17.8398 108.08 16.5312C108.08 15.3854 108.546 14.4414 109.477 13.6992C110.414 12.957 111.628 12.5859 113.119 12.5859C114.109 12.5859 114.991 12.7682 115.766 13.1328C116.54 13.4974 117.149 14.0182 117.592 14.6953C118.035 15.3659 118.256 16.1113 118.256 16.9316H115.795C115.795 16.1895 115.561 15.61 115.092 15.1934C114.63 14.7702 113.965 14.5586 113.1 14.5586C112.292 14.5586 111.664 14.7311 111.215 15.0762C110.772 15.4212 110.551 15.903 110.551 16.5215C110.551 17.0423 110.792 17.4785 111.273 17.8301C111.755 18.1751 112.549 18.5137 113.656 18.8457C114.763 19.1712 115.652 19.5456 116.322 19.9688C116.993 20.3854 117.484 20.8672 117.797 21.4141C118.109 21.9544 118.266 22.5892 118.266 23.3184C118.266 24.5033 117.81 25.4473 116.898 26.1504C115.993 26.847 114.763 27.1953 113.207 27.1953C112.178 27.1953 111.231 27.0065 110.365 26.6289C109.506 26.2448 108.835 25.7174 108.354 25.0469C107.878 24.3763 107.641 23.5951 107.641 22.7031H110.111C110.111 23.5104 110.378 24.1354 110.912 24.5781C111.446 25.0208 112.211 25.2422 113.207 25.2422C114.066 25.2422 114.711 25.0697 115.141 24.7246C115.577 24.373 115.795 23.9108 115.795 23.3379ZM124.857 27.1953C123.354 27.1953 122.133 26.7233 121.195 25.7793C120.264 24.8288 119.799 23.5658 119.799 21.9902V21.6973C119.799 20.6426 120.001 19.7018 120.404 18.875C120.814 18.0417 121.387 17.3939 122.123 16.9316C122.859 16.4694 123.679 16.2383 124.584 16.2383C126.023 16.2383 127.133 16.6973 127.914 17.6152C128.702 18.5332 129.096 19.832 129.096 21.5117V22.4688H122.191C122.263 23.3411 122.553 24.0312 123.061 24.5391C123.575 25.0469 124.219 25.3008 124.994 25.3008C126.081 25.3008 126.967 24.8613 127.65 23.9824L128.93 25.2031C128.507 25.8346 127.94 26.3262 127.23 26.6777C126.527 27.0228 125.736 27.1953 124.857 27.1953ZM124.574 18.1426C123.923 18.1426 123.396 18.3704 122.992 18.8262C122.595 19.2819 122.341 19.9167 122.23 20.7305H126.752V20.5547C126.7 19.7604 126.488 19.1615 126.117 18.7578C125.746 18.3477 125.232 18.1426 124.574 18.1426ZM130.502 21.6387C130.502 20.0111 130.88 18.7057 131.635 17.7227C132.39 16.7331 133.402 16.2383 134.672 16.2383C135.792 16.2383 136.697 16.6289 137.387 17.4102V12H139.76V27H137.611L137.494 25.9062C136.785 26.7656 135.837 27.1953 134.652 27.1953C133.415 27.1953 132.413 26.6973 131.645 25.7012C130.883 24.7051 130.502 23.3509 130.502 21.6387ZM132.875 21.8438C132.875 22.918 133.08 23.7578 133.49 24.3633C133.907 24.9622 134.496 25.2617 135.258 25.2617C136.228 25.2617 136.938 24.8288 137.387 23.9629V19.4512C136.951 18.6048 136.247 18.1816 135.277 18.1816C134.509 18.1816 133.917 18.4876 133.5 19.0996C133.083 19.7051 132.875 20.6198 132.875 21.8438ZM146.889 27.1953C145.385 27.1953 144.164 26.7233 143.227 25.7793C142.296 24.8288 141.83 23.5658 141.83 21.9902V21.6973C141.83 20.6426 142.032 19.7018 142.436 18.875C142.846 18.0417 143.419 17.3939 144.154 16.9316C144.89 16.4694 145.71 16.2383 146.615 16.2383C148.054 16.2383 149.164 16.6973 149.945 17.6152C150.733 18.5332 151.127 19.832 151.127 21.5117V22.4688H144.223C144.294 23.3411 144.584 24.0312 145.092 24.5391C145.606 25.0469 146.251 25.3008 147.025 25.3008C148.113 25.3008 148.998 24.8613 149.682 23.9824L150.961 25.2031C150.538 25.8346 149.971 26.3262 149.262 26.6777C148.559 27.0228 147.768 27.1953 146.889 27.1953ZM146.605 18.1426C145.954 18.1426 145.427 18.3704 145.023 18.8262C144.626 19.2819 144.372 19.9167 144.262 20.7305H148.783V20.5547C148.731 19.7604 148.52 19.1615 148.148 18.7578C147.777 18.3477 147.263 18.1426 146.605 18.1426ZM158.9 24.1289C158.9 23.7057 158.725 23.3835 158.373 23.1621C158.028 22.9408 157.452 22.7454 156.645 22.5762C155.837 22.4069 155.163 22.1921 154.623 21.9316C153.438 21.3587 152.846 20.5286 152.846 19.4414C152.846 18.5299 153.23 17.7682 153.998 17.1562C154.766 16.5443 155.743 16.2383 156.928 16.2383C158.191 16.2383 159.21 16.5508 159.984 17.1758C160.766 17.8008 161.156 18.6113 161.156 19.6074H158.783C158.783 19.1517 158.614 18.7741 158.275 18.4746C157.937 18.1686 157.488 18.0156 156.928 18.0156C156.407 18.0156 155.98 18.1361 155.648 18.377C155.323 18.6178 155.16 18.9401 155.16 19.3438C155.16 19.7083 155.313 19.9915 155.619 20.1934C155.925 20.3952 156.544 20.6003 157.475 20.8086C158.406 21.0104 159.135 21.2546 159.662 21.541C160.196 21.821 160.59 22.1595 160.844 22.5566C161.104 22.9538 161.234 23.4355 161.234 24.002C161.234 24.9525 160.84 25.724 160.053 26.3164C159.265 26.9023 158.233 27.1953 156.957 27.1953C156.091 27.1953 155.32 27.0391 154.643 26.7266C153.965 26.4141 153.438 25.9844 153.061 25.4375C152.683 24.8906 152.494 24.3014 152.494 23.6699H154.799C154.831 24.2298 155.043 24.6628 155.434 24.9688C155.824 25.2682 156.342 25.418 156.986 25.418C157.611 25.418 158.087 25.3008 158.412 25.0664C158.738 24.8255 158.9 24.513 158.9 24.1289Z" fill="#E6FFFB"/>
<g clip-path="url(#clip0)">
<path d="M13.8492 16.2707C13.5194 15.4955 13.0439 14.7936 12.4496 14.2047C11.8533 13.6104 11.1503 13.1387 10.3791 12.8154C9.5768 12.4761 8.72547 12.3047 7.84787 12.3047C6.97027 12.3047 6.11894 12.4761 5.31666 12.8136C4.54066 13.1404 3.84523 13.6082 3.24615 14.2029C2.65219 14.7922 2.17677 15.494 1.84654 16.2689C1.50496 17.0725 1.33154 17.9261 1.33154 18.8047C1.33154 20.0654 1.62758 21.3207 2.20915 22.5314C2.67685 23.5047 3.33023 24.4529 4.15353 25.3547C5.56015 26.8939 7.03508 27.835 7.45374 28.0868C7.57257 28.1583 7.70811 28.196 7.84612 28.1957C7.98275 28.1957 8.11763 28.16 8.2385 28.0868C8.65716 27.835 10.1321 26.8939 11.5387 25.3547C12.362 24.4547 13.0154 23.5047 13.4831 22.5314C14.0682 21.3225 14.3642 20.0689 14.3642 18.8064C14.3642 17.9279 14.1908 17.0743 13.8492 16.2707ZM7.84787 26.8261C6.6935 26.0779 2.59277 23.1154 2.59277 18.8064C2.59277 17.4154 3.13755 16.1082 4.12726 15.1225C5.12047 14.135 6.44125 13.5904 7.84787 13.5904C9.25449 13.5904 10.5753 14.135 11.5685 15.1243C12.5582 16.1082 13.103 17.4154 13.103 18.8064C13.103 23.1154 9.00224 26.0779 7.84787 26.8261ZM7.84787 15.8047C6.14522 15.8047 4.76488 17.2118 4.76488 18.9475C4.76488 20.6832 6.14522 22.0904 7.84787 22.0904C9.55052 22.0904 10.9309 20.6832 10.9309 18.9475C10.9309 17.2118 9.55052 15.8047 7.84787 15.8047ZM9.23522 20.3618C9.05325 20.5478 8.83701 20.6953 8.59891 20.7959C8.36082 20.8964 8.10557 20.9479 7.84787 20.9475C7.32411 20.9475 6.83188 20.7386 6.46052 20.3618C6.27804 20.1763 6.13333 19.9559 6.03472 19.7131C5.93612 19.4704 5.88556 19.2102 5.88597 18.9475C5.88597 18.4136 6.09091 17.9118 6.46052 17.5332C6.83188 17.1547 7.32411 16.9475 7.84787 16.9475C8.37163 16.9475 8.86386 17.1547 9.23522 17.5332C9.60658 17.9118 9.80977 18.4136 9.80977 18.9475C9.80977 19.4814 9.60658 19.9832 9.23522 20.3618Z" fill="#E6FFFB"/>
</g>
<defs>
<clipPath id="clip0">
<rect width="15.6952" height="16" fill="white" transform="translate(0 12.25)"/>
</clipPath>
</defs>
</svg>
