<svg width="184" height="16" viewBox="0 0 184 16" fill="none" xmlns="http://www.w3.org/2000/svg">
<path d="M14.3474 7.872C14.3474 8.928 14.1954 9.912 13.8914 10.824C13.5874 11.72 13.1394 12.504 12.5474 13.176C11.9554 13.832 11.2194 14.352 10.3394 14.736C9.4754 15.104 8.4834 15.288 7.3634 15.288C6.2274 15.288 5.2274 15.104 4.3634 14.736C3.4994 14.352 2.7714 13.832 2.1794 13.176C1.5874 12.504 1.1394 11.72 0.835402 10.824C0.531402 9.912 0.379402 8.928 0.379402 7.872C0.379402 6.816 0.531402 5.832 0.835402 4.92C1.1394 4.008 1.5874 3.224 2.1794 2.568C2.7714 1.896 3.4994 1.376 4.3634 1.008C5.2274 0.623999 6.2274 0.431999 7.3634 0.431999C8.4834 0.431999 9.4754 0.623999 10.3394 1.008C11.2194 1.376 11.9554 1.896 12.5474 2.568C13.1394 3.224 13.5874 4.008 13.8914 4.92C14.1954 5.832 14.3474 6.816 14.3474 7.872ZM4.0754 7.872C4.0754 9.392 4.3634 10.56 4.9394 11.376C5.5314 12.192 6.3394 12.6 7.3634 12.6C8.3874 12.6 9.1874 12.192 9.7634 11.376C10.3554 10.56 10.6514 9.392 10.6514 7.872C10.6514 6.336 10.3554 5.16 9.7634 4.344C9.1874 3.528 8.3874 3.12 7.3634 3.12C6.3394 3.12 5.5314 3.528 4.9394 4.344C4.3634 5.16 4.0754 6.336 4.0754 7.872ZM16.7099 0.719999H26.8619V3.36H20.3579V6.384H26.4059V9.024H20.3579V15H16.7099V0.719999ZM32.8763 0.719999V15H29.2283V0.719999H32.8763ZM35.3482 7.872C35.3482 6.752 35.5242 5.736 35.8762 4.824C36.2442 3.912 36.7642 3.136 37.4362 2.496C38.1082 1.84 38.9242 1.336 39.8842 0.983999C40.8442 0.615999 41.9162 0.431999 43.1002 0.431999C43.8042 0.431999 44.5162 0.495999 45.2362 0.623999C45.9562 0.751999 46.5802 0.943999 47.1082 1.2L46.8682 4.008C46.4362 3.688 45.9322 3.464 45.3562 3.336C44.7962 3.192 44.2202 3.12 43.6282 3.12C42.1562 3.12 41.0202 3.552 40.2202 4.416C39.4362 5.28 39.0442 6.432 39.0442 7.872C39.0442 9.376 39.4522 10.544 40.2682 11.376C41.1002 12.192 42.2362 12.6 43.6762 12.6C44.2842 12.6 44.8602 12.528 45.4042 12.384C45.9642 12.224 46.4762 11.984 46.9402 11.664L47.2042 14.52C46.6122 14.792 45.9642 14.984 45.2602 15.096C44.5562 15.224 43.8682 15.288 43.1962 15.288C41.9962 15.288 40.9082 15.112 39.9322 14.76C38.9722 14.408 38.1482 13.912 37.4602 13.272C36.7882 12.616 36.2682 11.832 35.9002 10.92C35.5322 10.008 35.3482 8.992 35.3482 7.872ZM53.2201 0.719999V15H49.5721V0.719999H53.2201ZM59.9639 5.568V15H56.4599V0.719999H60.6599L65.5799 10.152V0.719999H69.0839V15H64.9319L59.9639 5.568ZM80.2979 0.719999L85.1219 15H81.3059L80.3939 11.952H75.4259L74.5139 15H70.7219L75.5459 0.719999H80.2979ZM76.2179 9.312H79.6019L77.9219 3.624L76.2179 9.312ZM99.9119 12.096L103.296 0.719999H107.112L102.288 15H97.5359L92.7119 0.719999H96.5039L99.9119 12.096ZM112.751 0.719999V15H109.103V0.719999H112.751ZM127.295 5.16C127.295 6.072 127.047 6.88 126.551 7.584C126.071 8.288 125.343 8.832 124.367 9.216L128.327 15H124.367L121.031 9.792H119.639V15H115.991V0.719999H121.415C122.263 0.719999 123.047 0.807999 123.767 0.983999C124.487 1.16 125.103 1.432 125.615 1.8C126.143 2.168 126.551 2.632 126.839 3.192C127.143 3.752 127.295 4.408 127.295 5.16ZM123.599 5.16C123.599 4.472 123.383 4 122.951 3.744C122.535 3.488 121.975 3.36 121.271 3.36H119.639V7.152H121.271C122.823 7.152 123.599 6.488 123.599 5.16ZM132.839 3.36H128.783V0.719999H140.543V3.36H136.487V15H132.839V3.36ZM148.812 15.288C147.868 15.288 147.004 15.168 146.22 14.928C145.436 14.672 144.764 14.296 144.204 13.8C143.644 13.288 143.212 12.656 142.908 11.904C142.604 11.152 142.452 10.264 142.452 9.24V0.719999H146.1V9.216C146.1 10.336 146.316 11.184 146.748 11.76C147.18 12.32 147.868 12.6 148.812 12.6C149.756 12.6 150.444 12.32 150.876 11.76C151.308 11.184 151.524 10.336 151.524 9.216V0.719999H155.172V9.24C155.172 10.264 155.02 11.152 154.716 11.904C154.412 12.656 153.98 13.288 153.42 13.8C152.86 14.296 152.188 14.672 151.404 14.928C150.62 15.168 149.756 15.288 148.812 15.288ZM165.915 0.719999L170.739 15H166.923L166.011 11.952H161.043L160.131 15H156.339L161.163 0.719999H165.915ZM161.835 9.312H165.219L163.539 3.624L161.835 9.312ZM172.382 0.719999H176.03V12.36H183.038V15H172.382V0.719999Z" fill="#E6FFFB"/>
</svg>
