<svg width="441" height="43" viewBox="0 0 441 43" fill="none" xmlns="http://www.w3.org/2000/svg">
<path d="M220.254 11.2949H217.324C212.93 11.2949 210.732 13.4922 210.732 17.8867V26.6758C210.732 31.0703 212.93 33.2676 217.324 33.2676H220.254C224.648 33.2676 226.846 31.0703 226.846 26.6758V20.084H219.521V24.4785H222.451V26.6758C222.451 28.1406 221.719 28.873 220.254 28.873H217.324C215.859 28.873 215.127 28.1406 215.127 26.6758V17.8867C215.127 16.4219 215.859 15.6895 217.324 15.6895H220.254C221.719 15.6895 222.451 16.1777 222.451 17.1543H226.846C226.846 13.248 224.648 11.2949 220.254 11.2949ZM219.521 27.4082L218.057 25.9434V27.4082H219.521ZM227.285 12.291C228.945 13.9219 229.775 16.5195 229.775 20.084V28.1406C229.775 33.5117 227.09 36.1973 221.719 36.1973H218.789C215.615 36.1973 213.232 35.4062 211.641 33.8242C210.059 32.2324 209.268 29.8496 209.268 26.6758V17.8867C209.268 12.5156 211.953 9.83008 217.324 9.83008H220.254C223.291 9.83008 225.635 10.6504 227.285 12.291ZM244.485 28.873V24.4785H253.274V20.084H244.485V15.6895H254.739V11.2949H240.09V33.2676H254.739V28.873H244.485ZM254.739 19.3516L256.936 20.8164V28.1406L258.401 29.6055V36.9297H240.823L238.625 34.7324V9.83008H256.204L258.401 12.0273V19.3516H254.739ZM272.378 20.0254L279.321 33.2676H284.096V11.2949H279.702V24.5371L272.759 11.2949H267.983V33.2676H272.378V20.0254ZM278.442 34.7324L276.04 30.1621V36.9297H268.716L266.518 34.7324V9.83008H273.638L275.835 12.0273L278.237 16.5977V9.83008H285.561L287.759 12.0273V36.9297H280.639L278.442 34.7324ZM301.736 28.873V24.4785H310.525V20.084H301.736V15.6895H311.989V11.2949H297.341V33.2676H311.989V28.873H301.736ZM311.989 19.3516L314.187 20.8164V28.1406L315.652 29.6055V36.9297H298.073L295.876 34.7324V9.83008H313.454L315.652 12.0273V19.3516H311.989ZM334.755 11.2949H331.826C327.431 11.2949 325.234 13.4922 325.234 17.8867C325.234 22.2812 327.431 24.4785 331.826 24.4785H334.755C336.22 24.4785 336.953 25.2109 336.953 26.6758C336.953 28.1406 336.22 28.873 334.755 28.873H331.826C330.361 28.873 329.629 28.3848 329.629 27.4082H325.234C325.234 31.3145 327.431 33.2676 331.826 33.2676H334.755C339.15 33.2676 341.347 31.0703 341.347 26.6758C341.347 22.2812 339.15 20.084 334.755 20.084H331.826C330.361 20.084 329.629 19.3516 329.629 17.8867C329.629 16.4219 330.361 15.6895 331.826 15.6895H334.755C336.22 15.6895 336.953 16.1777 336.953 17.1543H341.347C341.347 13.248 339.15 11.2949 334.755 11.2949ZM327.036 24.874C324.858 23.6338 323.769 21.3047 323.769 17.8867C323.769 12.5156 326.455 9.83008 331.826 9.83008H334.755C338.027 9.83008 340.551 10.709 342.329 12.4668C344.116 14.2148 345.009 16.998 345.009 20.8164H340.966C342.685 21.793 343.789 23.0137 344.277 24.4785C344.765 25.9434 345.009 27.4082 345.009 28.873C345.009 34.2441 342.324 36.9297 336.953 36.9297H334.023C330.752 36.9297 328.222 36.0508 326.435 34.293C324.658 32.5449 323.769 29.7617 323.769 25.9434H327.812C327.519 25.6211 327.26 25.2646 327.036 24.874ZM358.986 33.2676V11.2949H354.592V33.2676H358.986ZM353.127 34.7324V9.83008H360.451L362.648 12.0273V36.9297H355.324L353.127 34.7324ZM381.752 11.2949H378.823C374.428 11.2949 372.231 13.4922 372.231 17.8867C372.231 22.2812 374.428 24.4785 378.823 24.4785H381.752C383.217 24.4785 383.95 25.2109 383.95 26.6758C383.95 28.1406 383.217 28.873 381.752 28.873H378.823C377.358 28.873 376.625 28.3848 376.625 27.4082H372.231C372.231 31.3145 374.428 33.2676 378.823 33.2676H381.752C386.147 33.2676 388.344 31.0703 388.344 26.6758C388.344 22.2812 386.147 20.084 381.752 20.084H378.823C377.358 20.084 376.625 19.3516 376.625 17.8867C376.625 16.4219 377.358 15.6895 378.823 15.6895H381.752C383.217 15.6895 383.95 16.1777 383.95 17.1543H388.344C388.344 13.248 386.147 11.2949 381.752 11.2949ZM374.033 24.874C371.855 23.6338 370.766 21.3047 370.766 17.8867C370.766 12.5156 373.452 9.83008 378.823 9.83008H381.752C385.024 9.83008 387.548 10.709 389.326 12.4668C391.113 14.2148 392.006 16.998 392.006 20.8164H387.963C389.682 21.793 390.786 23.0137 391.274 24.4785C391.762 25.9434 392.006 27.4082 392.006 28.873C392.006 34.2441 389.321 36.9297 383.95 36.9297H381.02C377.748 36.9297 375.219 36.0508 373.432 34.293C371.655 32.5449 370.766 29.7617 370.766 25.9434H374.809C374.516 25.6211 374.257 25.2646 374.033 24.874Z" fill="#E6FFFB"/>
<path d="M19.296 19.24C19.296 20.608 18.924 21.82 18.18 22.876C17.46 23.932 16.368 24.748 14.904 25.324L20.844 34H14.904L9.9 26.188H7.812V34H2.34V12.58H10.476C11.748 12.58 12.924 12.712 14.004 12.976C15.084 13.24 16.008 13.648 16.776 14.2C17.568 14.752 18.18 15.448 18.612 16.288C19.068 17.128 19.296 18.112 19.296 19.24ZM13.752 19.24C13.752 18.208 13.428 17.5 12.78 17.116C12.156 16.732 11.316 16.54 10.26 16.54H7.812V22.228H10.26C12.588 22.228 13.752 21.232 13.752 19.24ZM23.3283 12.58H38.5563V16.54H28.8003V21.076H37.8723V25.036H28.8003V30.04H38.8443V34H23.3283V12.58ZM41.4461 18.412C41.4461 16.492 42.1661 14.968 43.6061 13.84C45.0701 12.712 47.1581 12.148 49.8701 12.148C50.9981 12.148 52.0901 12.244 53.1461 12.436C54.2021 12.604 55.1981 12.856 56.1341 13.192L55.7381 17.332C53.8661 16.564 52.0661 16.18 50.3381 16.18C49.1381 16.18 48.2741 16.372 47.7461 16.756C47.2421 17.14 46.9901 17.596 46.9901 18.124C46.9901 18.772 47.2541 19.324 47.7821 19.78C48.3341 20.236 49.3661 20.728 50.8781 21.256C53.0861 22.024 54.6941 22.936 55.7021 23.992C56.7341 25.024 57.2501 26.356 57.2501 27.988C57.2501 30.028 56.5421 31.612 55.1261 32.74C53.7101 33.868 51.5501 34.432 48.6461 34.432C47.3741 34.432 46.1141 34.3 44.8661 34.036C43.6421 33.772 42.5261 33.388 41.5181 32.884L41.9141 28.42C42.8021 29.044 43.7861 29.536 44.8661 29.896C45.9701 30.232 47.0981 30.4 48.2501 30.4C49.1861 30.4 49.9901 30.232 50.6621 29.896C51.3581 29.536 51.7061 28.972 51.7061 28.204C51.7061 27.844 51.6341 27.52 51.4901 27.232C51.3701 26.944 51.1421 26.68 50.8061 26.44C50.4941 26.176 50.0741 25.924 49.5461 25.684C49.0181 25.444 48.3581 25.192 47.5661 24.928C45.6221 24.304 44.1101 23.452 43.0301 22.372C41.9741 21.292 41.4461 19.972 41.4461 18.412ZM69.9933 34.432C68.5773 34.432 67.2813 34.252 66.1053 33.892C64.9293 33.508 63.9213 32.944 63.0813 32.2C62.2413 31.432 61.5933 30.484 61.1373 29.356C60.6813 28.228 60.4533 26.896 60.4533 25.36V12.58H65.9253V25.324C65.9253 27.004 66.2493 28.276 66.8973 29.14C67.5453 29.98 68.5773 30.4 69.9933 30.4C71.4093 30.4 72.4413 29.98 73.0893 29.14C73.7373 28.276 74.0613 27.004 74.0613 25.324V12.58H79.5333V25.36C79.5333 26.896 79.3053 28.228 78.8493 29.356C78.3933 30.484 77.7453 31.432 76.9053 32.2C76.0653 32.944 75.0573 33.508 73.8813 33.892C72.7053 34.252 71.4093 34.432 69.9933 34.432ZM84.2189 12.58H89.6909V30.04H100.203V34H84.2189V12.58ZM104.956 16.54H98.872V12.58H116.512V16.54H110.428V34H104.956V16.54ZM129.89 12.58L137.126 34H131.402L130.034 29.428H122.582L121.214 34H115.526L122.762 12.58H129.89ZM123.77 25.468H128.846L126.326 16.936L123.77 25.468ZM146.466 30.04C148.554 30.04 150.15 29.536 151.254 28.528C152.358 27.52 152.91 25.768 152.91 23.272C152.91 20.8 152.358 19.06 151.254 18.052C150.15 17.044 148.554 16.54 146.466 16.54H145.062V30.04H146.466ZM139.59 34V12.58H146.718C148.446 12.58 150.03 12.808 151.47 13.264C152.91 13.696 154.134 14.356 155.142 15.244C156.174 16.132 156.978 17.248 157.554 18.592C158.13 19.912 158.418 21.472 158.418 23.272C158.418 25.072 158.13 26.644 157.554 27.988C156.978 29.332 156.174 30.448 155.142 31.336C154.11 32.224 152.874 32.896 151.434 33.352C149.994 33.784 148.41 34 146.682 34H139.59ZM181.749 23.308C181.749 24.892 181.521 26.368 181.065 27.736C180.609 29.08 179.937 30.256 179.049 31.264C178.161 32.248 177.057 33.028 175.737 33.604C174.441 34.156 172.953 34.432 171.273 34.432C169.569 34.432 168.069 34.156 166.773 33.604C165.477 33.028 164.385 32.248 163.497 31.264C162.609 30.256 161.937 29.08 161.481 27.736C161.025 26.368 160.797 24.892 160.797 23.308C160.797 21.724 161.025 20.248 161.481 18.88C161.937 17.512 162.609 16.336 163.497 15.352C164.385 14.344 165.477 13.564 166.773 13.012C168.069 12.436 169.569 12.148 171.273 12.148C172.953 12.148 174.441 12.436 175.737 13.012C177.057 13.564 178.161 14.344 179.049 15.352C179.937 16.336 180.609 17.512 181.065 18.88C181.521 20.248 181.749 21.724 181.749 23.308ZM166.341 23.308C166.341 25.588 166.773 27.34 167.637 28.564C168.525 29.788 169.737 30.4 171.273 30.4C172.809 30.4 174.009 29.788 174.873 28.564C175.761 27.34 176.205 25.588 176.205 23.308C176.205 21.004 175.761 19.24 174.873 18.016C174.009 16.792 172.809 16.18 171.273 16.18C169.737 16.18 168.525 16.792 167.637 18.016C166.773 19.24 166.341 21.004 166.341 23.308ZM184.321 18.412C184.321 16.492 185.041 14.968 186.481 13.84C187.945 12.712 190.033 12.148 192.745 12.148C193.873 12.148 194.965 12.244 196.021 12.436C197.077 12.604 198.073 12.856 199.009 13.192L198.613 17.332C196.741 16.564 194.941 16.18 193.213 16.18C192.013 16.18 191.149 16.372 190.621 16.756C190.117 17.14 189.865 17.596 189.865 18.124C189.865 18.772 190.129 19.324 190.657 19.78C191.209 20.236 192.241 20.728 193.753 21.256C195.961 22.024 197.569 22.936 198.577 23.992C199.609 25.024 200.125 26.356 200.125 27.988C200.125 30.028 199.417 31.612 198.001 32.74C196.585 33.868 194.425 34.432 191.521 34.432C190.249 34.432 188.989 34.3 187.741 34.036C186.517 33.772 185.401 33.388 184.393 32.884L184.789 28.42C185.677 29.044 186.661 29.536 187.741 29.896C188.845 30.232 189.973 30.4 191.125 30.4C192.061 30.4 192.865 30.232 193.537 29.896C194.233 29.536 194.581 28.972 194.581 28.204C194.581 27.844 194.509 27.52 194.365 27.232C194.245 26.944 194.017 26.68 193.681 26.44C193.369 26.176 192.949 25.924 192.421 25.684C191.893 25.444 191.233 25.192 190.441 24.928C188.497 24.304 186.985 23.452 185.905 22.372C184.849 21.292 184.321 19.972 184.321 18.412Z" fill="#E6FFFB"/>
</svg>
