<svg width="18" height="18" viewBox="0 0 18 18" fill="none" xmlns="http://www.w3.org/2000/svg">
<path d="M3.90335 9.50578L12.9596 16.5792C12.9833 16.5978 13.0117 16.6094 13.0416 16.6126C13.0716 16.6158 13.1018 16.6105 13.1289 16.5973C13.156 16.5841 13.1788 16.5635 13.1946 16.5379C13.2105 16.5123 13.2189 16.4828 13.2187 16.4527V14.8998C13.2187 14.8013 13.1725 14.7069 13.0962 14.6466L5.86406 8.99953L13.0962 3.35243C13.1746 3.29216 13.2187 3.19774 13.2187 3.09931V1.5464C13.2187 1.41181 13.0641 1.33748 12.9596 1.41984L3.90335 8.49328C3.82637 8.55332 3.76411 8.63012 3.72128 8.71785C3.67845 8.80557 3.65619 8.90191 3.65619 8.99953C3.65619 9.09715 3.67845 9.19349 3.72128 9.28121C3.76411 9.36893 3.82637 9.44574 3.90335 9.50578Z" fill="white"/>
</svg>
