<svg width="159" height="41" viewBox="0 0 159 41" fill="none" xmlns="http://www.w3.org/2000/svg">
<path d="M27.877 23.3379C27.877 22.7129 27.6556 22.2311 27.2129 21.8926C26.7767 21.554 25.9857 21.2122 24.8398 20.8672C23.694 20.5221 22.7826 20.138 22.1055 19.7148C20.8099 18.901 20.1621 17.8398 20.1621 16.5312C20.1621 15.3854 20.6276 14.4414 21.5586 13.6992C22.4961 12.957 23.7103 12.5859 25.2012 12.5859C26.1908 12.5859 27.0729 12.7682 27.8477 13.1328C28.6224 13.4974 29.2311 14.0182 29.6738 14.6953C30.1165 15.3659 30.3379 16.1113 30.3379 16.9316H27.877C27.877 16.1895 27.6426 15.61 27.1738 15.1934C26.7116 14.7702 26.0475 14.5586 25.1816 14.5586C24.3743 14.5586 23.7461 14.7311 23.2969 15.0762C22.8542 15.4212 22.6328 15.903 22.6328 16.5215C22.6328 17.0423 22.8737 17.4785 23.3555 17.8301C23.8372 18.1751 24.6315 18.5137 25.7383 18.8457C26.8451 19.1712 27.7337 19.5456 28.4043 19.9688C29.0749 20.3854 29.5664 20.8672 29.8789 21.4141C30.1914 21.9544 30.3477 22.5892 30.3477 23.3184C30.3477 24.5033 29.8919 25.4473 28.9805 26.1504C28.0755 26.847 26.8451 27.1953 25.2891 27.1953C24.2604 27.1953 23.3132 27.0065 22.4473 26.6289C21.5879 26.2448 20.9173 25.7174 20.4355 25.0469C19.9603 24.3763 19.7227 23.5951 19.7227 22.7031H22.1934C22.1934 23.5104 22.4603 24.1354 22.9941 24.5781C23.528 25.0208 24.293 25.2422 25.2891 25.2422C26.1484 25.2422 26.793 25.0697 27.2227 24.7246C27.6589 24.373 27.877 23.9108 27.877 23.3379ZM31.8418 21.6191C31.8418 20.584 32.0469 19.653 32.457 18.8262C32.8672 17.9928 33.4434 17.3548 34.1855 16.9121C34.9277 16.4629 35.7806 16.2383 36.7441 16.2383C38.1699 16.2383 39.3255 16.6973 40.2109 17.6152C41.1029 18.5332 41.5846 19.7507 41.6562 21.2676L41.666 21.8242C41.666 22.8659 41.4642 23.7969 41.0605 24.6172C40.6634 25.4375 40.0905 26.0723 39.3418 26.5215C38.5996 26.9707 37.7402 27.1953 36.7637 27.1953C35.2728 27.1953 34.0781 26.7005 33.1797 25.7109C32.2878 24.7148 31.8418 23.39 31.8418 21.7363V21.6191ZM34.2148 21.8242C34.2148 22.9115 34.4395 23.7643 34.8887 24.3828C35.3379 24.9948 35.9629 25.3008 36.7637 25.3008C37.5645 25.3008 38.1862 24.9883 38.6289 24.3633C39.0781 23.7383 39.3027 22.8236 39.3027 21.6191C39.3027 20.5514 39.0716 19.7051 38.6094 19.0801C38.1536 18.4551 37.5319 18.1426 36.7441 18.1426C35.9694 18.1426 35.3542 18.4518 34.8984 19.0703C34.4427 19.6823 34.2148 20.6003 34.2148 21.8242ZM52.9453 21.8242C52.9453 23.4648 52.5775 24.7702 51.8418 25.7402C51.1126 26.7103 50.1068 27.1953 48.8242 27.1953C47.5872 27.1953 46.6237 26.7493 45.9336 25.8574L45.8164 27H43.668V12H46.041V17.4492C46.7246 16.6419 47.6458 16.2383 48.8047 16.2383C50.0938 16.2383 51.1061 16.7168 51.8418 17.6738C52.5775 18.6309 52.9453 19.9688 52.9453 21.6875V21.8242ZM50.5723 21.6191C50.5723 20.4733 50.3704 19.6139 49.9668 19.041C49.5632 18.4681 48.9772 18.1816 48.209 18.1816C47.1803 18.1816 46.4577 18.6309 46.041 19.5293V23.8848C46.4642 24.8027 47.1934 25.2617 48.2285 25.2617C48.9707 25.2617 49.5436 24.985 49.9473 24.4316C50.3509 23.8783 50.5592 23.0417 50.5723 21.9219V21.6191ZM60.4746 18.6016C60.1621 18.5495 59.8398 18.5234 59.5078 18.5234C58.4206 18.5234 57.6882 18.9401 57.3105 19.7734V27H54.9375V16.4336H57.2031L57.2617 17.6152C57.8346 16.6973 58.6289 16.2383 59.6445 16.2383C59.9831 16.2383 60.263 16.2839 60.4844 16.375L60.4746 18.6016ZM66.4316 27.1953C64.9277 27.1953 63.707 26.7233 62.7695 25.7793C61.8385 24.8288 61.373 23.5658 61.373 21.9902V21.6973C61.373 20.6426 61.5749 19.7018 61.9785 18.875C62.3887 18.0417 62.9616 17.3939 63.6973 16.9316C64.4329 16.4694 65.2533 16.2383 66.1582 16.2383C67.597 16.2383 68.707 16.6973 69.4883 17.6152C70.276 18.5332 70.6699 19.832 70.6699 21.5117V22.4688H63.7656C63.8372 23.3411 64.127 24.0312 64.6348 24.5391C65.1491 25.0469 65.7936 25.3008 66.5684 25.3008C67.6556 25.3008 68.541 24.8613 69.2246 23.9824L70.5039 25.2031C70.0807 25.8346 69.5143 26.3262 68.8047 26.6777C68.1016 27.0228 67.3105 27.1953 66.4316 27.1953ZM66.1484 18.1426C65.4974 18.1426 64.9701 18.3704 64.5664 18.8262C64.1693 19.2819 63.9154 19.9167 63.8047 20.7305H68.3262V20.5547C68.2741 19.7604 68.0625 19.1615 67.6914 18.7578C67.3203 18.3477 66.806 18.1426 66.1484 18.1426ZM89.0098 27H86.5391L80.2012 16.9121V27H77.7305V12.7812H80.2012L86.5586 22.9082V12.7812H89.0098V27ZM91.2559 21.6191C91.2559 20.584 91.4609 19.653 91.8711 18.8262C92.2812 17.9928 92.8574 17.3548 93.5996 16.9121C94.3418 16.4629 95.1947 16.2383 96.1582 16.2383C97.584 16.2383 98.7396 16.6973 99.625 17.6152C100.517 18.5332 100.999 19.7507 101.07 21.2676L101.08 21.8242C101.08 22.8659 100.878 23.7969 100.475 24.6172C100.077 25.4375 99.5046 26.0723 98.7559 26.5215C98.0137 26.9707 97.1543 27.1953 96.1777 27.1953C94.6868 27.1953 93.4922 26.7005 92.5938 25.7109C91.7018 24.7148 91.2559 23.39 91.2559 21.7363V21.6191ZM93.6289 21.8242C93.6289 22.9115 93.8535 23.7643 94.3027 24.3828C94.752 24.9948 95.377 25.3008 96.1777 25.3008C96.9785 25.3008 97.6003 24.9883 98.043 24.3633C98.4922 23.7383 98.7168 22.8236 98.7168 21.6191C98.7168 20.5514 98.4857 19.7051 98.0234 19.0801C97.5677 18.4551 96.946 18.1426 96.1582 18.1426C95.3835 18.1426 94.7682 18.4518 94.3125 19.0703C93.8568 19.6823 93.6289 20.6003 93.6289 21.8242ZM109.01 24.1289C109.01 23.7057 108.834 23.3835 108.482 23.1621C108.137 22.9408 107.561 22.7454 106.754 22.5762C105.947 22.4069 105.273 22.1921 104.732 21.9316C103.548 21.3587 102.955 20.5286 102.955 19.4414C102.955 18.5299 103.339 17.7682 104.107 17.1562C104.876 16.5443 105.852 16.2383 107.037 16.2383C108.3 16.2383 109.319 16.5508 110.094 17.1758C110.875 17.8008 111.266 18.6113 111.266 19.6074H108.893C108.893 19.1517 108.723 18.7741 108.385 18.4746C108.046 18.1686 107.597 18.0156 107.037 18.0156C106.516 18.0156 106.09 18.1361 105.758 18.377C105.432 18.6178 105.27 18.9401 105.27 19.3438C105.27 19.7083 105.423 19.9915 105.729 20.1934C106.035 20.3952 106.653 20.6003 107.584 20.8086C108.515 21.0104 109.244 21.2546 109.771 21.541C110.305 21.821 110.699 22.1595 110.953 22.5566C111.214 22.9538 111.344 23.4355 111.344 24.002C111.344 24.9525 110.95 25.724 110.162 26.3164C109.374 26.9023 108.342 27.1953 107.066 27.1953C106.201 27.1953 105.429 27.0391 104.752 26.7266C104.075 26.4141 103.548 25.9844 103.17 25.4375C102.792 24.8906 102.604 24.3014 102.604 23.6699H104.908C104.941 24.2298 105.152 24.6628 105.543 24.9688C105.934 25.2682 106.451 25.418 107.096 25.418C107.721 25.418 108.196 25.3008 108.521 25.0664C108.847 24.8255 109.01 24.513 109.01 24.1289ZM112.975 21.6191C112.975 20.584 113.18 19.653 113.59 18.8262C114 17.9928 114.576 17.3548 115.318 16.9121C116.061 16.4629 116.913 16.2383 117.877 16.2383C119.303 16.2383 120.458 16.6973 121.344 17.6152C122.236 18.5332 122.717 19.7507 122.789 21.2676L122.799 21.8242C122.799 22.8659 122.597 23.7969 122.193 24.6172C121.796 25.4375 121.223 26.0723 120.475 26.5215C119.732 26.9707 118.873 27.1953 117.896 27.1953C116.406 27.1953 115.211 26.7005 114.312 25.7109C113.421 24.7148 112.975 23.39 112.975 21.7363V21.6191ZM115.348 21.8242C115.348 22.9115 115.572 23.7643 116.021 24.3828C116.471 24.9948 117.096 25.3008 117.896 25.3008C118.697 25.3008 119.319 24.9883 119.762 24.3633C120.211 23.7383 120.436 22.8236 120.436 21.6191C120.436 20.5514 120.204 19.7051 119.742 19.0801C119.286 18.4551 118.665 18.1426 117.877 18.1426C117.102 18.1426 116.487 18.4518 116.031 19.0703C115.576 19.6823 115.348 20.6003 115.348 21.8242ZM127.779 13.8652V16.4336H129.645V18.1914H127.779V24.0898C127.779 24.4935 127.857 24.7865 128.014 24.9688C128.176 25.1445 128.463 25.2324 128.873 25.2324C129.146 25.2324 129.423 25.1999 129.703 25.1348V26.9707C129.163 27.1204 128.642 27.1953 128.141 27.1953C126.318 27.1953 125.406 26.1895 125.406 24.1777V18.1914H123.668V16.4336H125.406V13.8652H127.779ZM136.998 18.6016C136.686 18.5495 136.363 18.5234 136.031 18.5234C134.944 18.5234 134.212 18.9401 133.834 19.7734V27H131.461V16.4336H133.727L133.785 17.6152C134.358 16.6973 135.152 16.2383 136.168 16.2383C136.507 16.2383 136.786 16.2839 137.008 16.375L136.998 18.6016ZM137.701 21.6191C137.701 20.584 137.906 19.653 138.316 18.8262C138.727 17.9928 139.303 17.3548 140.045 16.9121C140.787 16.4629 141.64 16.2383 142.604 16.2383C144.029 16.2383 145.185 16.6973 146.07 17.6152C146.962 18.5332 147.444 19.7507 147.516 21.2676L147.525 21.8242C147.525 22.8659 147.324 23.7969 146.92 24.6172C146.523 25.4375 145.95 26.0723 145.201 26.5215C144.459 26.9707 143.6 27.1953 142.623 27.1953C141.132 27.1953 139.938 26.7005 139.039 25.7109C138.147 24.7148 137.701 23.39 137.701 21.7363V21.6191ZM140.074 21.8242C140.074 22.9115 140.299 23.7643 140.748 24.3828C141.197 24.9948 141.822 25.3008 142.623 25.3008C143.424 25.3008 144.046 24.9883 144.488 24.3633C144.938 23.7383 145.162 22.8236 145.162 21.6191C145.162 20.5514 144.931 19.7051 144.469 19.0801C144.013 18.4551 143.391 18.1426 142.604 18.1426C141.829 18.1426 141.214 18.4518 140.758 19.0703C140.302 19.6823 140.074 20.6003 140.074 21.8242ZM155.455 24.1289C155.455 23.7057 155.279 23.3835 154.928 23.1621C154.583 22.9408 154.007 22.7454 153.199 22.5762C152.392 22.4069 151.718 22.1921 151.178 21.9316C149.993 21.3587 149.4 20.5286 149.4 19.4414C149.4 18.5299 149.785 17.7682 150.553 17.1562C151.321 16.5443 152.298 16.2383 153.482 16.2383C154.745 16.2383 155.764 16.5508 156.539 17.1758C157.32 17.8008 157.711 18.6113 157.711 19.6074H155.338C155.338 19.1517 155.169 18.7741 154.83 18.4746C154.492 18.1686 154.042 18.0156 153.482 18.0156C152.962 18.0156 152.535 18.1361 152.203 18.377C151.878 18.6178 151.715 18.9401 151.715 19.3438C151.715 19.7083 151.868 19.9915 152.174 20.1934C152.48 20.3952 153.098 20.6003 154.029 20.8086C154.96 21.0104 155.689 21.2546 156.217 21.541C156.751 21.821 157.145 22.1595 157.398 22.5566C157.659 22.9538 157.789 23.4355 157.789 24.002C157.789 24.9525 157.395 25.724 156.607 26.3164C155.82 26.9023 154.788 27.1953 153.512 27.1953C152.646 27.1953 151.874 27.0391 151.197 26.7266C150.52 26.4141 149.993 25.9844 149.615 25.4375C149.238 24.8906 149.049 24.3014 149.049 23.6699H151.354C151.386 24.2298 151.598 24.6628 151.988 24.9688C152.379 25.2682 152.896 25.418 153.541 25.418C154.166 25.418 154.641 25.3008 154.967 25.0664C155.292 24.8255 155.455 24.513 155.455 24.1289Z" fill="#E6FFFB"/>
<path d="M15.0674 12.233H0.62781C0.280552 12.233 0 12.519 0 12.873V27.593C0 27.947 0.280552 28.233 0.62781 28.233H15.0674C15.4147 28.233 15.6952 27.947 15.6952 27.593V12.873C15.6952 12.519 15.4147 12.233 15.0674 12.233ZM14.2827 26.793H1.41257V13.673H14.2827V26.793ZM7.45524 17.993H11.0651C11.1515 17.993 11.2221 17.921 11.2221 17.833V16.873C11.2221 16.785 11.1515 16.713 11.0651 16.713H7.45524C7.36891 16.713 7.29829 16.785 7.29829 16.873V17.833C7.29829 17.921 7.36891 17.993 7.45524 17.993ZM7.45524 20.873H11.0651C11.1515 20.873 11.2221 20.801 11.2221 20.713V19.753C11.2221 19.665 11.1515 19.593 11.0651 19.593H7.45524C7.36891 19.593 7.29829 19.665 7.29829 19.753V20.713C7.29829 20.801 7.36891 20.873 7.45524 20.873ZM7.45524 23.753H11.0651C11.1515 23.753 11.2221 23.681 11.2221 23.593V22.633C11.2221 22.545 11.1515 22.473 11.0651 22.473H7.45524C7.36891 22.473 7.29829 22.545 7.29829 22.633V23.593C7.29829 23.681 7.36891 23.753 7.45524 23.753ZM4.47314 17.353C4.47314 17.5652 4.55582 17.7687 4.70299 17.9187C4.85017 18.0687 5.04977 18.153 5.25791 18.153C5.46604 18.153 5.66564 18.0687 5.81282 17.9187C5.95999 17.7687 6.04267 17.5652 6.04267 17.353C6.04267 17.1408 5.95999 16.9373 5.81282 16.7873C5.66564 16.6373 5.46604 16.553 5.25791 16.553C5.04977 16.553 4.85017 16.6373 4.70299 16.7873C4.55582 16.9373 4.47314 17.1408 4.47314 17.353V17.353ZM4.47314 20.233C4.47314 20.4452 4.55582 20.6487 4.70299 20.7987C4.85017 20.9487 5.04977 21.033 5.25791 21.033C5.46604 21.033 5.66564 20.9487 5.81282 20.7987C5.95999 20.6487 6.04267 20.4452 6.04267 20.233C6.04267 20.0208 5.95999 19.8173 5.81282 19.6673C5.66564 19.5173 5.46604 19.433 5.25791 19.433C5.04977 19.433 4.85017 19.5173 4.70299 19.6673C4.55582 19.8173 4.47314 20.0208 4.47314 20.233ZM4.47314 23.113C4.47314 23.3252 4.55582 23.5287 4.70299 23.6787C4.85017 23.8287 5.04977 23.913 5.25791 23.913C5.46604 23.913 5.66564 23.8287 5.81282 23.6787C5.95999 23.5287 6.04267 23.3252 6.04267 23.113C6.04267 22.9008 5.95999 22.6973 5.81282 22.5473C5.66564 22.3973 5.46604 22.313 5.25791 22.313C5.04977 22.313 4.85017 22.3973 4.70299 22.5473C4.55582 22.6973 4.47314 22.9008 4.47314 23.113V23.113Z" fill="#E6FFFB"/>
</svg>
