<svg width="137" height="129" viewBox="0 0 137 129" fill="none" xmlns="http://www.w3.org/2000/svg">
<g clip-path="url(#clip0)">
<path d="M112.605 67.3243H62.6607V17.3801C62.6607 16.7663 62.1585 16.2641 61.5447 16.2641H57.9174C50.589 16.2521 43.3306 17.6892 36.5597 20.4929C29.7887 23.2966 23.639 27.4114 18.4643 32.6006C13.3682 37.681 9.30763 43.7031 6.50839 50.3322C3.59551 57.2077 2.10081 64.6006 2.11385 72.0676C2.10185 79.3961 3.53902 86.6545 6.34268 93.4254C9.14633 100.196 13.2611 106.346 18.4504 111.521C23.5703 116.641 29.5413 120.673 36.1819 123.477C43.0575 126.39 50.4503 127.884 57.9174 127.871C65.2458 127.883 72.5043 126.446 79.2752 123.642C86.0461 120.839 92.1958 116.724 97.3706 111.535C102.491 106.415 106.522 100.444 109.326 93.8031C112.239 86.9276 113.734 79.5348 113.721 72.0676V68.4404C113.721 67.8266 113.219 67.3243 112.605 67.3243ZM90.5207 104.964C86.2007 109.25 81.0775 112.642 75.4446 114.945C69.8116 117.248 63.7797 118.417 57.6942 118.385C45.4035 118.329 33.8521 113.516 25.1607 104.824C16.4135 96.0771 11.6005 84.4421 11.6005 72.0676C11.6005 59.6932 16.4135 48.0582 25.1607 39.311C32.7779 31.6938 42.5854 27.0481 53.1741 25.9878V76.811H103.997C102.923 87.4555 98.2355 97.3188 90.5207 104.964ZM124.882 59.5676L124.519 55.6335C123.333 42.7847 117.627 30.6614 108.448 21.5096C99.2615 12.341 87.163 6.66677 74.24 5.46608L70.2919 5.10336C69.6362 5.04755 69.0781 5.54979 69.0781 6.20548V59.7909C69.0781 60.4047 69.5804 60.9069 70.1942 60.9069L123.766 60.7674C124.421 60.7674 124.938 60.2094 124.882 59.5676ZM78.5368 51.4482V15.6502C87.325 17.4896 95.3898 21.8419 101.751 28.1781C108.127 34.5397 112.493 42.6313 114.307 51.3506L78.5368 51.4482Z" fill="white"/>
</g>
<defs>
<clipPath id="clip0">
<rect width="135.431" height="127.946" fill="white" transform="translate(0.84375 0.238525)"/>
</clipPath>
</defs>
</svg>
