<svg width="16" height="16" viewBox="0 0 16 16" fill="none" xmlns="http://www.w3.org/2000/svg">
<path d="M13.5199 3.82323C13.5152 3.81854 12.5652 4.75761 10.6746 6.64511L9.34805 5.31854L12.1746 2.49198C10.6871 1.59667 8.77617 1.82636 7.53711 3.06542C7.06347 3.53879 6.72263 4.12837 6.54876 4.77504C6.37489 5.42171 6.3741 6.10273 6.54648 6.74979L6.57461 6.85448L2.14492 11.2826C2.04805 11.3795 2.04805 11.5389 2.14492 11.6357L4.3543 13.8451C4.45117 13.942 4.61055 13.942 4.70742 13.8451L9.13398 9.41854L9.23867 9.44667C10.5465 9.79511 11.9512 9.43261 12.9262 8.45761C14.1668 7.21854 14.3965 5.30761 13.5199 3.82323V3.82323Z" fill="#36CFC9"/>
</svg>
