<svg width="20" height="20" viewBox="0 0 20 20" fill="none" xmlns="http://www.w3.org/2000/svg">
<path d="M14.3299 7.49983L14.3299 9.14938L6.77858 9.14938C6.68037 9.14938 6.60001 9.22974 6.60001 9.32795L6.60001 10.6672C6.60001 10.7655 6.68037 10.8458 6.77858 10.8458L14.3299 10.8458L14.3299 12.4998C14.3299 12.6494 14.5018 12.732 14.6179 12.6405L17.783 10.1405C17.8044 10.1237 17.8217 10.1024 17.8335 10.078C17.8454 10.0537 17.8516 10.0269 17.8516 9.99983C17.8516 9.97272 17.8454 9.94598 17.8335 9.92161C17.8217 9.89725 17.8044 9.87591 17.783 9.8592L14.6201 7.3592C14.5018 7.26768 14.3299 7.35027 14.3299 7.49983ZM7.44822 18.1695L7.44822 16.8302C7.44822 16.732 7.36787 16.6516 7.26965 16.6516L3.83215 16.6516L3.83215 3.34804L7.26965 3.34804C7.36787 3.34804 7.44822 3.26768 7.44822 3.16947L7.44823 1.83018C7.44823 1.73197 7.36787 1.65161 7.26965 1.65161L2.85001 1.65161C2.45492 1.65161 2.13573 1.97081 2.13572 2.3659L2.13572 17.6338C2.13572 18.0288 2.45492 18.348 2.85001 18.348L7.26965 18.348C7.36787 18.348 7.44822 18.2677 7.44822 18.1695Z" fill="#E6FFFB"/>
</svg>
