<svg width="22" height="22" viewBox="0 0 22 22" fill="none" xmlns="http://www.w3.org/2000/svg">
<path d="M19.0004 16.7286C18.5493 15.66 17.8946 14.6893 17.0728 13.8706C16.2535 13.0496 15.283 12.3951 14.2149 11.943C14.2053 11.9383 14.1957 11.9359 14.1862 11.9311C15.6761 10.8549 16.6447 9.10183 16.6447 7.124C16.6447 3.84753 13.9901 1.19287 10.7136 1.19287C7.43713 1.19287 4.78248 3.84753 4.78248 7.124C4.78248 9.10183 5.75107 10.8549 7.24102 11.9335C7.23145 11.9382 7.22189 11.9406 7.21232 11.9454C6.14089 12.3974 5.17948 13.0456 4.35438 13.873C3.53338 14.6923 2.87879 15.6628 2.42677 16.731C1.9827 17.7767 1.74321 18.8979 1.72125 20.0338C1.72061 20.0593 1.72509 20.0847 1.73442 20.1084C1.74375 20.1322 1.75774 20.1539 1.77557 20.1721C1.7934 20.1904 1.81471 20.2049 1.83824 20.2149C1.86177 20.2248 1.88704 20.2299 1.91258 20.2299H3.34753C3.45276 20.2299 3.53646 20.1462 3.53885 20.0433C3.58668 18.197 4.32807 16.4679 5.63866 15.1573C6.99469 13.8013 8.79555 13.0551 10.7136 13.0551C12.6316 13.0551 14.4325 13.8013 15.7885 15.1573C17.0991 16.4679 17.8405 18.197 17.8883 20.0433C17.8907 20.1486 17.9744 20.2299 18.0797 20.2299H19.5146C19.5402 20.2299 19.5654 20.2248 19.589 20.2149C19.6125 20.2049 19.6338 20.1904 19.6516 20.1721C19.6695 20.1539 19.6834 20.1322 19.6928 20.1084C19.7021 20.0847 19.7066 20.0593 19.7059 20.0338C19.682 18.8906 19.4453 17.7785 19.0004 16.7286ZM10.7136 11.2375C9.61586 11.2375 8.5827 10.8094 7.80543 10.0322C7.02817 9.2549 6.60008 8.22173 6.60008 7.124C6.60008 6.02626 7.02817 4.9931 7.80543 4.21583C8.5827 3.43857 9.61586 3.01047 10.7136 3.01047C11.8113 3.01047 12.8445 3.43857 13.6218 4.21583C14.399 4.9931 14.8271 6.02626 14.8271 7.124C14.8271 8.22173 14.399 9.2549 13.6218 10.0322C12.8445 10.8094 11.8113 11.2375 10.7136 11.2375Z" fill="#E6FFFB"/>
</svg>
