<svg width="137" height="129" viewBox="0 0 137 129" fill="none" xmlns="http://www.w3.org/2000/svg">
<path d="M120.929 100.122C118.078 93.7416 113.94 87.9459 108.746 83.0579C103.568 78.1558 97.4347 74.2474 90.6838 71.5485C90.6234 71.5199 90.5629 71.5056 90.5024 71.4771C99.9191 65.0512 106.041 54.5842 106.041 42.7748C106.041 23.2116 89.263 7.36108 68.5553 7.36108C47.8476 7.36108 31.0699 23.2116 31.0699 42.7748C31.0699 54.5842 37.1915 65.0512 46.6082 71.4914C46.5477 71.5199 46.4873 71.5342 46.4268 71.5628C39.6552 74.2616 33.579 78.1314 28.3643 83.0722C23.1754 87.964 19.0383 93.7588 16.1815 100.137C13.375 106.38 11.8613 113.075 11.7225 119.857C11.7185 120.009 11.7468 120.161 11.8058 120.303C11.8647 120.445 11.9532 120.574 12.0658 120.683C12.1785 120.792 12.3132 120.879 12.4619 120.938C12.6106 120.997 12.7704 121.028 12.9318 121.028H22.0008C22.6659 121.028 23.1949 120.528 23.21 119.914C23.5123 108.89 28.198 98.5657 36.4811 90.7404C45.0513 82.6438 56.433 78.1886 68.5553 78.1886C80.6776 78.1886 92.0593 82.6438 100.63 90.7404C108.913 98.5657 113.598 108.89 113.901 119.914C113.916 120.542 114.445 121.028 115.11 121.028H124.179C124.34 121.028 124.5 120.997 124.649 120.938C124.797 120.879 124.932 120.792 125.045 120.683C125.157 120.574 125.246 120.445 125.305 120.303C125.364 120.161 125.392 120.009 125.388 119.857C125.237 113.031 123.741 106.391 120.929 100.122ZM68.5553 67.336C61.6175 67.336 55.0878 64.7799 50.1754 60.139C45.2629 55.4981 42.5573 49.3292 42.5573 42.7748C42.5573 36.2204 45.2629 30.0516 50.1754 25.4107C55.0878 20.7698 61.6175 18.2137 68.5553 18.2137C75.4931 18.2137 82.0229 20.7698 86.9353 25.4107C91.8477 30.0516 94.5533 36.2204 94.5533 42.7748C94.5533 49.3292 91.8477 55.4981 86.9353 60.139C82.0229 64.7799 75.4931 67.336 68.5553 67.336Z" fill="#E6FFFB"/>
</svg>
