<svg width="90" height="90" viewBox="0 0 90 90" fill="none" xmlns="http://www.w3.org/2000/svg">
<path d="M81.3859 19.0598C81.154 18.3473 80.7028 17.7263 80.0967 17.2857C79.4906 16.8451 78.7607 16.6074 78.0114 16.6067H69.9304V4.1744C69.9304 2.20965 68.3431 0.622314 66.3784 0.622314H23.7535C21.7888 0.622314 20.2014 2.20965 20.2014 4.1744V16.6067H12.1205C11.3707 16.6057 10.64 16.8427 10.0336 17.2835C9.42717 17.7244 8.97633 18.3464 8.746 19.0598L0.665039 43.9133V85.8723C0.665039 87.8371 2.25237 89.4244 4.21711 89.4244H85.9148C87.8795 89.4244 89.4668 87.8371 89.4668 85.8723V43.9133L81.3859 19.0598ZM61.4943 57.8997C61.4943 58.3881 61.0947 58.7877 60.6062 58.7877H48.618V70.776C48.618 71.2644 48.2184 71.664 47.73 71.664H42.4019C41.9135 71.664 41.5139 71.2644 41.5139 70.776V58.7877H29.5256C29.0372 58.7877 28.6376 58.3881 28.6376 57.8997V52.5715C28.6376 52.0831 29.0372 51.6835 29.5256 51.6835H41.5139V39.6952C41.5139 39.2068 41.9135 38.8072 42.4019 38.8072H47.73C48.2184 38.8072 48.618 39.2068 48.618 39.6952V51.6835H60.6062C61.0947 51.6835 61.4943 52.0831 61.4943 52.5715V57.8997ZM61.9383 16.6067H28.1936V8.6145H61.9383V16.6067Z" fill="#E6F7FF"/>
</svg>
