<svg width="195" height="51" viewBox="0 0 195 51" fill="none" xmlns="http://www.w3.org/2000/svg">
<path d="M56.2031 26.8359H53.8594C50.3438 26.8359 48.5859 28.5938 48.5859 32.1094V39.1406C48.5859 42.6562 50.3438 44.4141 53.8594 44.4141H56.2031C59.7188 44.4141 61.4766 42.6562 61.4766 39.1406V33.8672H55.6172V37.3828H57.9609V39.1406C57.9609 40.3125 57.375 40.8984 56.2031 40.8984H53.8594C52.6875 40.8984 52.1016 40.3125 52.1016 39.1406V32.1094C52.1016 30.9375 52.6875 30.3516 53.8594 30.3516H56.2031C57.375 30.3516 57.9609 30.7422 57.9609 31.5234H61.4766C61.4766 28.3984 59.7188 26.8359 56.2031 26.8359ZM55.6172 39.7266L54.4453 38.5547V39.7266H55.6172ZM61.8281 27.6328C63.1562 28.9375 63.8203 31.0156 63.8203 33.8672V40.3125C63.8203 44.6094 61.6719 46.7578 57.375 46.7578H55.0312C52.4922 46.7578 50.5859 46.125 49.3125 44.8594C48.0469 43.5859 47.4141 41.6797 47.4141 39.1406V32.1094C47.4141 27.8125 49.5625 25.6641 53.8594 25.6641H56.2031C58.6328 25.6641 60.5078 26.3203 61.8281 27.6328ZM75.5878 40.8984V37.3828H82.6191V33.8672H75.5878V30.3516H83.7909V26.8359H72.0722V44.4141H83.7909V40.8984H75.5878ZM83.7909 33.2812L85.5487 34.4531V40.3125L86.7206 41.4844V47.3438H72.6581L70.9003 45.5859V25.6641H84.9628L86.7206 27.4219V33.2812H83.7909ZM97.9022 33.8203L103.457 44.4141H107.277V26.8359H103.762V37.4297L98.2069 26.8359H94.3866V44.4141H97.9022V33.8203ZM102.754 45.5859L100.832 41.9297V47.3438H94.9725L93.2147 45.5859V25.6641H98.91L100.668 27.4219L102.59 31.0781V25.6641H108.449L110.207 27.4219V47.3438H104.512L102.754 45.5859ZM121.388 40.8984V37.3828H128.42V33.8672H121.388V30.3516H129.592V26.8359H117.873V44.4141H129.592V40.8984H121.388ZM129.592 33.2812L131.349 34.4531V40.3125L132.521 41.4844V47.3438H118.459L116.701 45.5859V25.6641H130.763L132.521 27.4219V33.2812H129.592ZM147.804 26.8359H145.461C141.945 26.8359 140.187 28.5938 140.187 32.1094C140.187 35.625 141.945 37.3828 145.461 37.3828H147.804C148.976 37.3828 149.562 37.9688 149.562 39.1406C149.562 40.3125 148.976 40.8984 147.804 40.8984H145.461C144.289 40.8984 143.703 40.5078 143.703 39.7266H140.187C140.187 42.8516 141.945 44.4141 145.461 44.4141H147.804C151.32 44.4141 153.078 42.6562 153.078 39.1406C153.078 35.625 151.32 33.8672 147.804 33.8672H145.461C144.289 33.8672 143.703 33.2812 143.703 32.1094C143.703 30.9375 144.289 30.3516 145.461 30.3516H147.804C148.976 30.3516 149.562 30.7422 149.562 31.5234H153.078C153.078 28.3984 151.32 26.8359 147.804 26.8359ZM141.629 37.6992C139.886 36.707 139.015 34.8438 139.015 32.1094C139.015 27.8125 141.164 25.6641 145.461 25.6641H147.804C150.422 25.6641 152.441 26.3672 153.863 27.7734C155.293 29.1719 156.007 31.3984 156.007 34.4531H152.773C154.148 35.2344 155.031 36.2109 155.422 37.3828C155.812 38.5547 156.007 39.7266 156.007 40.8984C156.007 45.1953 153.859 47.3438 149.562 47.3438H147.218C144.601 47.3438 142.578 46.6406 141.148 45.2344C139.726 43.8359 139.015 41.6094 139.015 38.5547H142.25C142.015 38.2969 141.808 38.0117 141.629 37.6992ZM167.189 44.4141V26.8359H163.673V44.4141H167.189ZM162.502 45.5859V25.6641H168.361L170.119 27.4219V47.3438H164.259L162.502 45.5859ZM185.402 26.8359H183.058C179.542 26.8359 177.785 28.5938 177.785 32.1094C177.785 35.625 179.542 37.3828 183.058 37.3828H185.402C186.574 37.3828 187.16 37.9688 187.16 39.1406C187.16 40.3125 186.574 40.8984 185.402 40.8984H183.058C181.886 40.8984 181.3 40.5078 181.3 39.7266H177.785C177.785 42.8516 179.542 44.4141 183.058 44.4141H185.402C188.917 44.4141 190.675 42.6562 190.675 39.1406C190.675 35.625 188.917 33.8672 185.402 33.8672H183.058C181.886 33.8672 181.3 33.2812 181.3 32.1094C181.3 30.9375 181.886 30.3516 183.058 30.3516H185.402C186.574 30.3516 187.16 30.7422 187.16 31.5234H190.675C190.675 28.3984 188.917 26.8359 185.402 26.8359ZM179.226 37.6992C177.484 36.707 176.613 34.8438 176.613 32.1094C176.613 27.8125 178.761 25.6641 183.058 25.6641H185.402C188.019 25.6641 190.039 26.3672 191.46 27.7734C192.89 29.1719 193.605 31.3984 193.605 34.4531H190.371C191.746 35.2344 192.628 36.2109 193.019 37.3828C193.41 38.5547 193.605 39.7266 193.605 40.8984C193.605 45.1953 191.457 47.3438 187.16 47.3438H184.816C182.199 47.3438 180.175 46.6406 178.746 45.2344C177.324 43.8359 176.613 41.6094 176.613 38.5547H179.847C179.613 38.2969 179.406 38.0117 179.226 37.6992Z" fill="#002329"/>
<path d="M47.56 8.72H51.208V20.36H58.216V23H47.56V8.72ZM68.5386 8.72L73.3626 23H69.5466L68.6346 19.952H63.6666L62.7546 23H58.9626L63.7866 8.72H68.5386ZM64.4586 17.312H67.8426L66.1626 11.624L64.4586 17.312ZM84.5093 15.392C85.2773 15.696 85.8453 16.144 86.2133 16.736C86.5973 17.328 86.7893 18 86.7893 18.752C86.7893 20.16 86.2773 21.224 85.2533 21.944C84.2453 22.648 82.7973 23 80.9093 23H75.0053V8.72H80.6693C82.4133 8.72 83.7653 9.064 84.7253 9.752C85.6853 10.44 86.1653 11.384 86.1653 12.584C86.1653 13.192 86.0213 13.744 85.7333 14.24C85.4613 14.736 85.0533 15.12 84.5093 15.392ZM83.0933 18.632C83.0933 18.056 82.8933 17.632 82.4933 17.36C82.1093 17.072 81.4773 16.928 80.5973 16.928H78.6533V20.36H80.5973C81.4773 20.36 82.1093 20.224 82.4933 19.952C82.8933 19.664 83.0933 19.224 83.0933 18.632ZM80.2853 14.288C81.7413 14.288 82.4693 13.8 82.4693 12.824C82.4693 11.848 81.7413 11.36 80.2853 11.36H78.6533V14.288H80.2853ZM102.104 15.872C102.104 16.928 101.952 17.912 101.648 18.824C101.344 19.72 100.896 20.504 100.304 21.176C99.7118 21.832 98.9758 22.352 98.0958 22.736C97.2318 23.104 96.2398 23.288 95.1198 23.288C93.9838 23.288 92.9838 23.104 92.1198 22.736C91.2558 22.352 90.5278 21.832 89.9358 21.176C89.3438 20.504 88.8958 19.72 88.5918 18.824C88.2878 17.912 88.1357 16.928 88.1357 15.872C88.1357 14.816 88.2878 13.832 88.5918 12.92C88.8958 12.008 89.3438 11.224 89.9358 10.568C90.5278 9.896 91.2558 9.376 92.1198 9.008C92.9838 8.624 93.9838 8.432 95.1198 8.432C96.2398 8.432 97.2318 8.624 98.0958 9.008C98.9758 9.376 99.7118 9.896 100.304 10.568C100.896 11.224 101.344 12.008 101.648 12.92C101.952 13.832 102.104 14.816 102.104 15.872ZM91.8318 15.872C91.8318 17.392 92.1198 18.56 92.6958 19.376C93.2878 20.192 94.0958 20.6 95.1198 20.6C96.1438 20.6 96.9438 20.192 97.5198 19.376C98.1118 18.56 98.4078 17.392 98.4078 15.872C98.4078 14.336 98.1118 13.16 97.5198 12.344C96.9438 11.528 96.1438 11.12 95.1198 11.12C94.0958 11.12 93.2878 11.528 92.6958 12.344C92.1198 13.16 91.8318 14.336 91.8318 15.872ZM115.77 13.16C115.77 14.072 115.522 14.88 115.026 15.584C114.546 16.288 113.818 16.832 112.842 17.216L116.802 23H112.842L109.506 17.792H108.114V23H104.466V8.72H109.89C110.738 8.72 111.522 8.808 112.242 8.984C112.962 9.16 113.578 9.432 114.09 9.8C114.618 10.168 115.026 10.632 115.314 11.192C115.618 11.752 115.77 12.408 115.77 13.16ZM112.074 13.16C112.074 12.472 111.858 12 111.426 11.744C111.01 11.488 110.45 11.36 109.746 11.36H108.114V15.152H109.746C111.298 15.152 112.074 14.488 112.074 13.16ZM126.546 8.72L131.37 23H127.554L126.642 19.952H121.674L120.762 23H116.97L121.794 8.72H126.546ZM122.466 17.312H125.85L124.17 11.624L122.466 17.312ZM134.791 11.36H130.735V8.72H142.495V11.36H138.439V23H134.791V11.36ZM157.369 15.872C157.369 16.928 157.217 17.912 156.913 18.824C156.609 19.72 156.161 20.504 155.569 21.176C154.977 21.832 154.241 22.352 153.361 22.736C152.497 23.104 151.505 23.288 150.385 23.288C149.249 23.288 148.249 23.104 147.385 22.736C146.521 22.352 145.793 21.832 145.201 21.176C144.609 20.504 144.161 19.72 143.857 18.824C143.553 17.912 143.401 16.928 143.401 15.872C143.401 14.816 143.553 13.832 143.857 12.92C144.161 12.008 144.609 11.224 145.201 10.568C145.793 9.896 146.521 9.376 147.385 9.008C148.249 8.624 149.249 8.432 150.385 8.432C151.505 8.432 152.497 8.624 153.361 9.008C154.241 9.376 154.977 9.896 155.569 10.568C156.161 11.224 156.609 12.008 156.913 12.92C157.217 13.832 157.369 14.816 157.369 15.872ZM147.097 15.872C147.097 17.392 147.385 18.56 147.961 19.376C148.553 20.192 149.361 20.6 150.385 20.6C151.409 20.6 152.209 20.192 152.785 19.376C153.377 18.56 153.673 17.392 153.673 15.872C153.673 14.336 153.377 13.16 152.785 12.344C152.209 11.528 151.409 11.12 150.385 11.12C149.361 11.12 148.553 11.528 147.961 12.344C147.385 13.16 147.097 14.336 147.097 15.872ZM171.036 13.16C171.036 14.072 170.788 14.88 170.292 15.584C169.812 16.288 169.084 16.832 168.108 17.216L172.068 23H168.108L164.772 17.792H163.38V23H159.732V8.72H165.156C166.004 8.72 166.788 8.808 167.508 8.984C168.228 9.16 168.844 9.432 169.356 9.8C169.884 10.168 170.292 10.632 170.58 11.192C170.884 11.752 171.036 12.408 171.036 13.16ZM167.34 13.16C167.34 12.472 167.124 12 166.692 11.744C166.276 11.488 165.716 11.36 165.012 11.36H163.38V15.152H165.012C166.564 15.152 167.34 14.488 167.34 13.16ZM177.492 8.72V23H173.844V8.72H177.492ZM193.932 15.872C193.932 16.928 193.78 17.912 193.476 18.824C193.172 19.72 192.724 20.504 192.132 21.176C191.54 21.832 190.804 22.352 189.924 22.736C189.06 23.104 188.068 23.288 186.948 23.288C185.812 23.288 184.812 23.104 183.948 22.736C183.084 22.352 182.356 21.832 181.764 21.176C181.172 20.504 180.724 19.72 180.42 18.824C180.116 17.912 179.964 16.928 179.964 15.872C179.964 14.816 180.116 13.832 180.42 12.92C180.724 12.008 181.172 11.224 181.764 10.568C182.356 9.896 183.084 9.376 183.948 9.008C184.812 8.624 185.812 8.432 186.948 8.432C188.068 8.432 189.06 8.624 189.924 9.008C190.804 9.376 191.54 9.896 192.132 10.568C192.724 11.224 193.172 12.008 193.476 12.92C193.78 13.832 193.932 14.816 193.932 15.872ZM183.66 15.872C183.66 17.392 183.948 18.56 184.524 19.376C185.116 20.192 185.924 20.6 186.948 20.6C187.972 20.6 188.772 20.192 189.348 19.376C189.94 18.56 190.236 17.392 190.236 15.872C190.236 14.336 189.94 13.16 189.348 12.344C188.772 11.528 187.972 11.12 186.948 11.12C185.924 11.12 185.116 11.528 184.524 12.344C183.948 13.16 183.66 14.336 183.66 15.872Z" fill="#002329"/>
<g clip-path="url(#clip0)">
<path d="M19.2954 11.2643C20.1946 11.2643 20.9235 10.5372 20.9235 9.64028C20.9235 8.74338 20.1946 8.0163 19.2954 8.0163C18.3962 8.0163 17.6672 8.74338 17.6672 9.64028C17.6672 10.5372 18.3962 11.2643 19.2954 11.2643Z" fill="#13C2C2"/>
<path d="M21.9282 7.32522C22.5595 7.32522 23.0713 6.81472 23.0713 6.18498C23.0713 5.55524 22.5595 5.04474 21.9282 5.04474C21.2968 5.04474 20.785 5.55524 20.785 6.18498C20.785 6.81472 21.2968 7.32522 21.9282 7.32522Z" fill="#13C2C2"/>
<path d="M19.5046 10.8496H19.531L19.6134 11.0721H19.5795L19.5178 10.8925L19.4561 11.0721H19.4222L19.5046 10.8496ZM19.4603 10.9934H19.5774V11.0231H19.4603V10.9934Z" fill="white"/>
<path d="M19.6473 10.8496H19.6764V11.0721H19.6453L19.6473 10.8496ZM19.6633 10.956H19.7326C19.7389 10.9563 19.7452 10.9546 19.7506 10.9512C19.7557 10.948 19.7598 10.9435 19.7624 10.9381C19.7652 10.9318 19.7666 10.9249 19.7665 10.918C19.7667 10.9111 19.7653 10.9043 19.7624 10.898C19.7598 10.8924 19.7557 10.8876 19.7506 10.8842C19.7452 10.8808 19.7389 10.8791 19.7326 10.8793H19.6633V10.8496H19.7326C19.7448 10.8494 19.757 10.8523 19.7679 10.8579C19.7779 10.8636 19.786 10.872 19.7915 10.8821C19.7972 10.8932 19.8001 10.9055 19.7998 10.918C19.8 10.9305 19.7971 10.9428 19.7915 10.954C19.786 10.9639 19.7778 10.972 19.7679 10.9775C19.757 10.9831 19.7448 10.9859 19.7326 10.9858H19.6633V10.956Z" fill="white"/>
<path d="M22.1014 7.11787C22.1755 7.12201 22.9425 6.85043 22.8635 6.15039" stroke="white" stroke-miterlimit="10" stroke-linecap="round"/>
<path d="M19.8989 10.8876C19.973 10.8917 20.74 10.6201 20.661 9.9201" stroke="white" stroke-miterlimit="10" stroke-linecap="round"/>
<path d="M20.3 43.1182C27.3397 43.1182 33.0465 37.0985 33.0465 29.6728C33.0465 22.247 27.3397 16.2273 20.3 16.2273C13.2603 16.2273 7.55347 22.247 7.55347 29.6728C7.55347 37.0985 13.2603 43.1182 20.3 43.1182Z" fill="#13C2C2" stroke="#13C2C2" stroke-width="10" stroke-miterlimit="10"/>
<path d="M26.9207 28.9187V32.195C26.9207 33.5877 26.6491 34.815 26.1059 35.8769C25.5944 36.9055 24.7918 37.762 23.7974 38.3405C22.8016 38.921 21.6487 39.2111 20.3388 39.2106C19.0113 39.2106 17.8453 38.9376 16.8407 38.3917C15.8536 37.8629 15.0427 37.0583 14.5072 36.0766C13.9529 35.0797 13.677 33.9233 13.6793 32.6075V27.0743C13.6793 25.682 13.9509 24.4568 14.494 23.3985C15.0068 22.3718 15.8092 21.517 16.8026 20.939C17.7984 20.3586 18.9513 20.0683 20.2612 20.0683C21.2952 20.0591 22.3165 20.296 23.2404 20.7594C24.1476 21.2182 24.9305 21.8886 25.5226 22.7137C26.1474 23.5867 26.5713 24.5864 26.7641 25.6417H23.9062C23.7684 25.0498 23.4989 24.4965 23.1177 24.0225C22.7648 23.586 22.3186 23.2335 21.8117 22.9908C21.3276 22.7581 20.7972 22.637 20.2598 22.6363C19.4838 22.6363 18.8028 22.8206 18.2166 23.1891C17.6239 23.5663 17.1525 24.1056 16.8587 24.7426C16.54 25.4097 16.3806 26.1858 16.3806 27.0708V32.6041C16.3806 33.4117 16.5444 34.1189 16.8718 34.7256C17.1884 35.3221 17.6717 35.8143 18.2631 36.1423C18.8635 36.4777 19.5563 36.6452 20.3416 36.6447C21.1175 36.6447 21.7986 36.4708 22.3847 36.1229C22.9794 35.7652 23.4524 35.2371 23.742 34.6075C24.0611 33.9454 24.2207 33.1585 24.2207 32.2468V31.4334H20.406V28.9187H26.9207Z" fill="white"/>
<path d="M13.7936 12.844C14.1245 13.8855 14.78 14.7945 15.6648 15.4386C16.5496 16.0827 17.6174 16.4283 18.7127 16.425H21.9517C23.0427 16.4294 24.1067 16.0873 24.9899 15.4483C25.873 14.8094 26.5293 13.9067 26.8639 12.8709C28.1395 13.4533 29.3359 14.1947 30.4244 15.0775C31.7887 16.1849 32.9796 17.4892 33.9578 18.9474C36.0363 22.0302 37.1303 25.6769 37.1303 29.4922C37.1371 31.9205 36.6791 34.3277 35.7807 36.5846C34.9375 38.713 33.6977 40.6628 32.1267 42.3307C30.614 43.9457 28.7957 45.246 26.7766 46.1564C24.7384 47.0702 22.5291 47.5427 20.2945 47.5427C18.0598 47.5427 15.8505 47.0702 13.8123 46.1564C11.7932 45.246 9.9749 43.9457 8.46226 42.3307C6.89124 40.6628 5.65136 38.713 4.80826 36.5846C3.91201 34.328 3.45581 31.9215 3.46416 29.4943C3.46416 25.6672 4.56715 22.0115 6.65119 18.9211C7.63528 17.4595 8.83359 16.1534 10.2061 15.0464C11.3018 14.1623 12.5062 13.4215 13.7901 12.8419L13.7936 12.844ZM28.0944 0H12.5056C12.0279 0 11.5697 0.1893 11.2319 0.526256C10.8941 0.863212 10.7043 1.32022 10.7043 1.79675C10.7043 2.27328 10.8941 2.73028 11.2319 3.06724C11.5697 3.4042 12.0279 3.5935 12.5056 3.5935H13.441V9.24979C5.60502 12.2317 0 20.1678 0 29.4943C0 41.3715 9.08858 51 20.3 51C31.5114 51 40.6 41.3715 40.6 29.4943C40.6 20.1948 35.0275 12.2766 27.2283 9.27675V3.5935H28.0944C28.5721 3.5935 29.0303 3.4042 29.3681 3.06724C29.7059 2.73028 29.8957 2.27328 29.8957 1.79675C29.8957 1.32022 29.7059 0.863212 29.3681 0.526256C29.0303 0.1893 28.5721 0 28.0944 0ZM18.7148 12.9698C18.317 12.9716 17.9312 12.8333 17.6256 12.5794C17.3199 12.3254 17.1138 11.972 17.0437 11.5814V3.5935H23.6256V11.5766C23.5566 11.9683 23.3509 12.3229 23.045 12.5779C22.739 12.8329 22.3525 12.9717 21.9538 12.9698H18.7148Z" fill="#002329"/>
</g>
<defs>
<clipPath id="clip0">
<rect width="40.6" height="51" fill="white"/>
</clipPath>
</defs>
</svg>
